<?xml version="1.0" encoding="UTF-8"?>
<!DOCTYPE svg PUBLIC "-//W3C//DTD SVG 1.1//EN" "http://www.w3.org/Graphics/SVG/1.1/DTD/svg11.dtd">
<!-- Creator: CorelDRAW 2020 (64-Bit) -->
<svg xmlns="http://www.w3.org/2000/svg" xml:space="preserve" width="2400px" height="2400px" version="1.1" style="shape-rendering:geometricPrecision; text-rendering:geometricPrecision; image-rendering:optimizeQuality; fill-rule:evenodd; clip-rule:evenodd"
viewBox="0 0 240000 240000"
 xmlns:xlink="http://www.w3.org/1999/xlink"
 xmlns:xodm="http://www.corel.com/coreldraw/odm/2003">
 <defs>
  <style type="text/css">
   <![CDATA[
    .fil2 {fill:#00CBFE}
    .fil0 {fill:#13A3CF}
    .fil1 {fill:#FDFEFF}
   ]]>
  </style>
 </defs>
 <g id="Layer_x0020_1">
  <metadata id="CorelCorpID_0Corel-Layer"/>
  <g id="_2847318586304">
   <path class="fil0" d="M49881 83812c4714,-1776 6845,5464 2486,6920 -4735,1581 -7323,-5098 -2486,-6920zm54316 -14933c6171,-1960 11569,2326 12864,7029 1798,6538 -2477,11637 -7265,12925 -12856,3461 -18943,-15716 -5599,-19954zm-1552 25359c11889,3393 23219,-7426 19940,-19600 -2160,-8018 -8296,-9746 -9671,-11146 14379,-3515 26090,5251 30568,13712 6582,12437 3025,25786 -4792,33433 -19973,19539 -53350,877 -46826,-26304 2283,4810 5224,8319 10781,9905zm34873 -33365c12484,701 31992,10582 42095,17833 2142,1537 10302,7212 11348,8730l-20245 18299c-2135,1986 -4789,4175 -7212,5924 -11417,8239 -21138,13930 -36360,15491 -30106,3088 -45310,-9083 -64367,-25361 -1269,-1084 -2094,-1998 -3352,-3036 -1397,-1151 -2063,-2240 -3559,-3169 1717,-2038 4046,-3076 4499,-7153 451,-4064 -1481,-6830 -3426,-8441 6336,-6700 32269,-18479 43625,-19117 -2895,2645 -2782,1462 -7809,6660 -7711,7973 -10766,22093 -7112,33770 10266,32801 57256,32396 66960,-544 3402,-11549 304,-25383 -7277,-33226 -1125,-1164 -2459,-2568 -3582,-3504 -1268,-1056 -3002,-2037 -4226,-3156zm-104413 26207c1179,1760 6947,6028 8614,7722l24102 21351 11958 8638c3321,2150 7033,4139 10925,5765 19126,7989 41547,7989 60673,0 9699,-4052 19267,-11007 27107,-17991 926,-824 1353,-1018 2301,-1961 892,-887 1251,-1001 2130,-1776l4444 -4078c2453,-2497 18806,-16458 19617,-17670l-16232 -12887c-8229,-6193 -18277,-12223 -27953,-16079 -17780,-7087 -27830,-7609 -47077,-7609 -12497,0 -25437,3226 -36170,7508 -1800,718 -3295,1431 -5227,2229 -3247,1341 -11414,6084 -14146,7872 -3022,1978 -5784,3800 -8633,5925 -2895,2160 -5411,4113 -8183,6376 -1438,1173 -2696,2146 -4080,3378 -1354,1206 -2717,2315 -4170,3287z"/>
   <path class="fil1" d="M137518 60873c1224,1119 2958,2100 4226,3156 1123,936 2457,2340 3582,3504 7581,7843 10679,21677 7277,33226 -9704,32940 -56694,33345 -66960,544 -3654,-11677 -599,-25797 7112,-33770 5027,-5198 4914,-4015 7809,-6660 -11356,638 -37289,12417 -43625,19117 1945,1611 3877,4377 3426,8441 -453,4077 -2782,5115 -4499,7153 1496,929 2162,2018 3559,3169 1258,1038 2083,1952 3352,3036 19057,16278 34261,28449 64367,25361 15222,-1561 24943,-7252 36360,-15491 2423,-1749 5077,-3938 7212,-5924l20245 -18299c-1046,-1518 -9206,-7193 -11348,-8730 -10103,-7251 -29611,-17132 -42095,-17833z"/>
   <path class="fil2" d="M112914 63492c1375,1400 7511,3128 9671,11146 3279,12174 -8051,22993 -19940,19600 -5557,-1586 -8498,-5095 -10781,-9905 -6524,27181 26853,45843 46826,26304 7817,-7647 11374,-20996 4792,-33433 -4478,-8461 -16189,-17227 -30568,-13712z"/>
   <path class="fil1" d="M104197 68879c-13344,4238 -7257,23415 5599,19954 4788,-1288 9063,-6387 7265,-12925 -1295,-4703 -6693,-8989 -12864,-7029z"/>
   <polygon class="fil0" points="93118,160942 105547,160942 105547,164138 93118,164138 93118,169109 110873,169109 110873,147448 105547,147448 105547,155616 98444,155616 98444,147448 93118,147448 "/>
   <polygon class="fil0" points="149935,169109 167690,169109 167690,164138 155261,164138 155261,160942 163429,160942 163429,155616 155261,155616 155261,152420 167690,152420 167690,147448 149935,147448 "/>
   <polygon class="fil0" points="36301,169109 54056,169109 54056,164138 41273,164138 41273,152420 54056,152420 54056,147448 36301,147448 "/>
   <path class="fil0" d="M192547 163783c0,1696 2377,1065 6747,1065l0 1421c-7640,0 -6747,-700 -6747,2840l9943 0c0,-9108 1591,-7457 -6747,-7457l0 -1420 6747 0 0 -2841 -9943 0 0 6392z"/>
   <path class="fil0" d="M70391 160232l3906 0 0 1420 -3906 0 0 -1420zm-2840 3551c0,1379 1176,1065 2485,1065 -1371,2048 -2485,1238 -2485,4261 5707,0 3173,-1158 6746,-3550l0 3550 2841 0 0 -11718 -9587 0 0 6392z"/>
   <path class="fil0" d="M138571 160232l3906 0 0 1420 -3906 0 0 -1420zm-2841 3551c0,1379 1177,1065 2486,1065 -1371,2048 -2486,1238 -2486,4261 4247,0 2784,90 3559,-703 843,-862 1492,-2067 3188,-3203l0 3906 2841 0 0 -11718 -9588 0 0 6392z"/>
   <path class="fil0" d="M116200 160232l3906 0 0 6037 -3906 0 0 -6037zm-2841 8877l9943 0 0 -11718 -9943 0 0 11718z"/>
   <path class="fil0" d="M170176 163783c0,1724 2583,1065 7102,1065l0 1421c-8042,0 -7102,-721 -7102,2840l9942 0 0 -11718 -2840 0 0 4261 -3906 0 0 -4261 -3196 0 0 6392z"/>
   <path class="fil0" d="M78559 159167c0,1695 2377,1065 6747,1065l0 1420 -4261 0 0 3196 4261 0 0 1421c-7640,0 -6747,-700 -6747,2840l9943 0 0 -11718 -9943 0 0 1776z"/>
   <path class="fil0" d="M59383 160232l3906 0 0 3906 -3906 0 0 -3906zm-2841 8877l2841 0 0 -2130 3906 0 0 2130 2841 0 0 -11718 -9588 0 0 11718z"/>
   <path class="fil0" d="M181539 160232l6747 0 0 1420c-5007,0 -4617,-426 -4617,2131 0,1515 1364,1065 4617,1065l0 1421 -6747 0 0 2840 9588 0 0 -11718 -9588 0 0 2841z"/>
   <path class="fil0" d="M124722 169109l7458 0 0 2486 2840 0c0,-8174 -441,-3500 -723,-6733 -181,-2076 13,-5270 13,-7471l-2841 0 0 8878 -3906 0 0 -8878 -2841 0 0 11718z"/>
   <path class="fil1" d="M49881 83812c-4837,1822 -2249,8501 2486,6920 4359,-1456 2228,-8696 -2486,-6920z"/>
  </g>
 </g>
</svg>
