<?xml version="1.0" encoding="UTF-8"?>
<!DOCTYPE svg PUBLIC "-//W3C//DTD SVG 1.1//EN" "http://www.w3.org/Graphics/SVG/1.1/DTD/svg11.dtd">
<!-- Creator: CorelDRAW 2020 (64-Bit) -->
<svg xmlns="http://www.w3.org/2000/svg" xml:space="preserve" width="500px" height="250px" version="1.1" style="shape-rendering:geometricPrecision; text-rendering:geometricPrecision; image-rendering:optimizeQuality; fill-rule:evenodd; clip-rule:evenodd"
viewBox="0 0 50000 25000"
 xmlns:xlink="http://www.w3.org/1999/xlink"
 xmlns:xodm="http://www.corel.com/coreldraw/odm/2003">
 <defs>
  <style type="text/css">
   <![CDATA[
    .fil2 {fill:#00CBFE}
    .fil0 {fill:#13A3CF}
    .fil1 {fill:#FDFEFF}
   ]]>
  </style>
 </defs>
 <g id="Layer_x0020_1">
  <metadata id="CorelCorpID_0Corel-Layer"/>
  <g id="_2847318586304">
   <path class="fil0" d="M12997 7729c853,-322 1239,989 450,1252 -857,286 -1326,-923 -450,-1252zm9831 -2703c1117,-355 2094,421 2329,1272 325,1183 -449,2106 -1315,2340 -2327,626 -3429,-2845 -1014,-3612zm-281 4590c2152,614 4203,-1344 3610,-3548 -391,-1451 -1502,-1764 -1751,-2017 2603,-637 4723,950 5533,2482 1192,2251 548,4667 -867,6051 -3616,3537 -9657,159 -8476,-4761 413,871 945,1506 1951,1793l0 0zm6313 -6039c2259,126 5790,1915 7619,3227 388,279 1865,1306 2054,1581l-3664 3312c-387,359 -867,756 -1306,1072 -2066,1491 -3826,2522 -6581,2804 -5449,559 -8202,-1644 -11651,-4590 -230,-197 -379,-362 -607,-550 -253,-208 -373,-405 -644,-573 311,-369 732,-557 814,-1295 82,-736 -268,-1236 -620,-1528 1147,-1213 5841,-3345 7897,-3460 -524,478 -504,264 -1414,1205 -1395,1443 -1948,3999 -1287,6113 1858,5937 10364,5864 12120,-99 616,-2090 55,-4594 -1317,-6014 -204,-211 -445,-465 -648,-634 -230,-191 -544,-369 -765,-571l0 0zm-18900 4743c214,319 1258,1091 1559,1398l4363 3865 2164 1563c602,389 1273,749 1978,1044 3462,1446 7520,1446 10982,0 1756,-734 3488,-1993 4907,-3257 167,-149 245,-184 416,-355 162,-160 227,-181 386,-321l804 -738c444,-452 3404,-2979 3551,-3199l-2938 -2332c-1490,-1121 -3308,-2213 -5060,-2911 -3218,-1283 -5037,-1377 -8521,-1377 -2262,0 -4604,584 -6547,1359 -326,130 -597,259 -946,403 -588,243 -2066,1102 -2561,1425 -547,358 -1047,688 -1562,1073 -524,391 -980,744 -1481,1154 -261,212 -488,388 -739,611 -245,219 -492,419 -755,595l0 0z"/>
   <path class="fil1" d="M28860 3577c221,202 535,380 765,571 203,169 444,423 648,634 1372,1420 1933,3924 1317,6014 -1756,5963 -10262,6036 -12120,99 -661,-2114 -108,-4670 1287,-6113 910,-941 890,-727 1414,-1205 -2056,115 -6750,2247 -7897,3460 352,292 702,792 620,1528 -82,738 -503,926 -814,1295 271,168 391,365 644,573 228,188 377,353 607,550 3449,2946 6202,5149 11651,4590 2755,-282 4515,-1312 6581,-2804 439,-316 919,-713 1306,-1072l3664 -3312c-189,-275 -1666,-1302 -2054,-1581 -1829,-1312 -5360,-3101 -7619,-3227l0 0z"/>
   <path class="fil2" d="M24406 4051c249,253 1360,566 1751,2017 593,2204 -1458,4162 -3610,3548 -1005,-287 -1538,-922 -1951,-1793 -1181,4920 4860,8298 8476,4761 1415,-1384 2059,-3800 867,-6051 -810,-1532 -2930,-3119 -5533,-2482l0 0z"/>
   <path class="fil1" d="M22828 5026c-2415,767 -1313,4238 1014,3612 866,-234 1640,-1157 1315,-2340 -235,-851 -1212,-1627 -2329,-1272z"/>
   <polygon class="fil0" points="20823,21690 23073,21690 23073,22268 20823,22268 20823,23168 24037,23168 24037,19247 23073,19247 23073,20726 21787,20726 21787,19247 20823,19247 "/>
   <polygon class="fil0" points="31107,23168 34321,23168 34321,22268 32071,22268 32071,21690 33550,21690 33550,20726 32071,20726 32071,20147 34321,20147 34321,19247 31107,19247 "/>
   <polygon class="fil0" points="10539,23168 13752,23168 13752,22268 11439,22268 11439,20147 13752,20147 13752,19247 10539,19247 "/>
   <path class="fil0" d="M38820 22204c0,307 431,193 1222,193l0 257c-1383,0 -1222,-127 -1222,514l1800 0c0,-1649 288,-1350 -1221,-1350l0 -257 1221 0 0 -514 -1800 0 0 1157z"/>
   <path class="fil0" d="M16709 21561l707 0 0 257 -707 0 0 -257zm-514 643c0,250 213,193 450,193 -248,370 -450,224 -450,771 1033,0 574,-210 1221,-643l0 643 514 0 0 -2121 -1735 0 0 1157z"/>
   <path class="fil0" d="M29050 21561l707 0 0 257 -707 0 0 -257zm-514 643c0,250 213,193 450,193 -248,370 -450,224 -450,771 769,0 504,16 644,-127 153,-156 270,-374 577,-580l0 707 515 0 0 -2121 -1736 0 0 1157 0 0z"/>
   <path class="fil0" d="M25001 21561l707 0 0 1093 -707 0 0 -1093zm-514 1607l1799 0 0 -2121 -1799 0 0 2121z"/>
   <path class="fil0" d="M34771 22204c0,312 468,193 1285,193l0 257c-1455,0 -1285,-131 -1285,514l1799 0 0 -2121 -514 0 0 771 -707 0 0 -771 -578 0 0 1157z"/>
   <path class="fil0" d="M18188 21368c0,307 430,193 1221,193l0 257 -771 0 0 579 771 0 0 257c-1383,0 -1221,-127 -1221,514l1799 0 0 -2121 -1799 0 0 321z"/>
   <path class="fil0" d="M14717 21561l707 0 0 707 -707 0 0 -707zm-515 1607l515 0 0 -386 707 0 0 386 514 0 0 -2121 -1736 0 0 2121 0 0z"/>
   <path class="fil0" d="M36828 21561l1221 0 0 257c-906,0 -836,-77 -836,386 0,274 247,193 836,193l0 257 -1221 0 0 514 1735 0 0 -2121 -1735 0 0 514z"/>
   <path class="fil0" d="M26543 23168l1350 0 0 450 514 0c0,-1480 -79,-634 -130,-1219 -33,-376 2,-954 2,-1352l-514 0 0 1607 -707 0 0 -1607 -515 0 0 2121 0 0z"/>
   <path class="fil1" d="M12997 7729c-876,329 -407,1538 450,1252 789,-263 403,-1574 -450,-1252z"/>
  </g>
 </g>
</svg>
