<?xml version="1.0" encoding="UTF-8"?>
<!DOCTYPE svg PUBLIC "-//W3C//DTD SVG 1.1//EN" "http://www.w3.org/Graphics/SVG/1.1/DTD/svg11.dtd">
<!-- Creator: CorelDRAW 2020 (64-Bit) -->
<svg xmlns="http://www.w3.org/2000/svg" xml:space="preserve" width="500px" height="250px" version="1.1" style="shape-rendering:geometricPrecision; text-rendering:geometricPrecision; image-rendering:optimizeQuality; fill-rule:evenodd; clip-rule:evenodd"
viewBox="0 0 50000 25000"
 xmlns:xlink="http://www.w3.org/1999/xlink"
 xmlns:xodm="http://www.corel.com/coreldraw/odm/2003">
 <defs>
  <style type="text/css">
   <![CDATA[
    .fil1 {fill:#50C9F4}
    .fil0 {fill:#D2D3D5}
   ]]>
  </style>
 </defs>
 <g id="Layer_x0020_1">
  <metadata id="CorelCorpID_0Corel-Layer"/>
  <path class="fil0" d="M7805 18148l0 -8253 5593 0c62,-98 94,-451 94,-562 0,-106 -32,-523 -94,-602l-5593 0 0 -1567 6146 0c69,-102 105,-500 105,-608 0,-114 -36,-435 -105,-513l-7783 0c-795,0 -968,347 -968,879l0 11226c267,101 1088,152 1295,152 224,0 1109,-51 1310,-152l0 0 0 0z"/>
  <path class="fil0" d="M9486 13498l0 4090c0,370 303,556 910,556l921 0c101,0 372,-120 810,-358l0 358c200,80 416,120 653,120 237,0 459,-40 668,-120l0 -5130c-209,-86 -431,-129 -668,-129 -245,0 -461,43 -653,127l0 326c-20,-13 -36,-21 -46,-24 -420,-206 -724,-308 -917,-308l-628 0c-700,0 -1050,165 -1050,492l0 0 0 0 0 0zm1308 4072l0 -3964c77,-8 159,-12 249,-12 627,0 991,126 1084,380l0 3232c-256,273 -557,410 -901,410 -121,0 -265,-16 -432,-46l0 0 0 0z"/>
  <path class="fil0" d="M14088 13006l0 5146c202,74 424,113 665,113 235,0 449,-39 643,-113l0 -4178c94,-254 455,-380 1081,-380 96,0 178,4 248,12l0 327c16,45 78,69 182,69 162,0 362,-42 604,-124 242,-81 420,-172 538,-274l0 -106c0,-327 -352,-492 -1058,-492l-630 0c-140,0 -445,101 -912,308 -27,8 -45,16 -53,24l0 -332c-190,-81 -406,-121 -649,-121 -237,0 -457,40 -659,121l0 0 0 0 0 0z"/>
  <path class="fil0" d="M18338 13498l0 4090c0,370 304,556 910,556l921 0c101,0 372,-120 810,-358l0 358c200,80 416,120 653,120 237,0 459,-40 668,-120l0 -5130c-209,-86 -431,-129 -668,-129 -245,0 -461,43 -653,127l0 326c-20,-13 -36,-21 -45,-24 -421,-206 -725,-308 -918,-308l-628 0c-700,0 -1050,165 -1050,492l0 0 0 0 0 0zm1308 4072l0 -3964c77,-8 158,-12 249,-12 627,0 991,126 1084,380l0 3232c-256,273 -557,410 -901,410 -121,0 -265,-16 -432,-46l0 0 0 0z"/>
  <path class="fil1" d="M22939 10748l0 5663c946,904 1582,1484 1906,1741 218,-136 680,-513 1389,-1130 659,617 1076,994 1246,1130 146,-89 470,-345 974,-768 531,-444 899,-774 1100,-988l0 -5643c-183,-102 -389,-152 -620,-152 -239,0 -481,51 -724,152l0 5249c-203,304 -430,539 -677,708 -263,-129 -470,-347 -620,-662l0 -5295c-183,-102 -391,-152 -626,-152 -237,0 -476,51 -718,152l0 5249c-204,304 -428,539 -674,708 -283,-136 -498,-372 -647,-708l0 -5254c-202,-91 -424,-134 -666,-134 -238,0 -452,43 -642,134l0 0 -1 0z"/>
  <path class="fil1" d="M29756 11362l0 6786c267,101 495,152 687,152 68,0 286,-51 659,-152l0 -4004c213,-85 422,-130 625,-130 183,0 419,42 707,128l0 4001c220,113 450,169 692,169 253,0 473,-56 653,-169l0 -6781c0,-449 -448,-673 -1343,-673l-1373 0c-871,0 -1307,224 -1307,673l0 0 0 0zm1345 2025l0 -2112c206,-69 407,-106 603,-106 182,0 426,37 730,106l0 2112c-284,82 -520,122 -707,122 -203,0 -412,-40 -626,-122z"/>
  <path class="fil1" d="M34422 10675l0 7468c200,137 425,206 677,206 250,0 472,-69 669,-206l0 -5802 1721 3030c79,90 172,136 282,136 106,0 198,-46 275,-136l1719 -3030 0 5809c270,148 525,222 763,222 227,0 421,-74 582,-222l0 -7473c-203,-152 -427,-228 -675,-228 -259,0 -513,76 -760,226l-1910 3513 -1905 -3513c-275,-198 -533,-299 -774,-299 -231,0 -450,101 -664,299l0 0 0 0 0 0z"/>
  <path class="fil1" d="M44434 14351l0 3195c-206,86 -411,130 -608,130 -189,0 -432,-44 -728,-130l0 -454c-203,-99 -419,-148 -650,-148 -242,0 -473,47 -692,146l0 384c0,446 448,670 1345,670l1370 0c871,0 1307,-222 1307,-668l0 -3277c0,-157 -78,-269 -234,-341l-2446 -848 0 -1714c227,-93 440,-139 646,-139 181,0 413,46 690,139l0 441c203,103 428,152 676,152 230,0 452,-52 668,-153l0 -376c0,-447 -448,-671 -1342,-671l-1373 0c-871,0 -1307,224 -1307,671l0 1946c0,114 79,192 234,236 370,98 591,156 661,176l1783 633 0 0 0 0 0 0z"/>
 </g>
</svg>
