<?xml version="1.0" encoding="UTF-8"?>
<!DOCTYPE svg PUBLIC "-//W3C//DTD SVG 1.1//EN" "http://www.w3.org/Graphics/SVG/1.1/DTD/svg11.dtd">
<!-- Creator: CorelDRAW 2020 (64-Bit) -->
<svg xmlns="http://www.w3.org/2000/svg" xml:space="preserve" width="2550px" height="3300px" version="1.1" style="shape-rendering:geometricPrecision; text-rendering:geometricPrecision; image-rendering:optimizeQuality; fill-rule:evenodd; clip-rule:evenodd"
viewBox="0 0 255000 330000"
 xmlns:xlink="http://www.w3.org/1999/xlink"
 xmlns:xodm="http://www.corel.com/coreldraw/odm/2003">
 <defs>
  <style type="text/css">
   <![CDATA[
    .fil0 {fill:#D2D3D5}
    .fil1 {fill:#50C9F4}
   ]]>
  </style>
 </defs>
 <g id="Layer_x0020_1">
  <metadata id="CorelCorpID_0Corel-Layer"/>
  <path class="fil0" d="M62812 178569l0 -29703 20132 0c222,-353 337,-1625 337,-2022 0,-382 -115,-1885 -337,-2166l-20132 0 0 -5644 22119 0c250,-365 381,-1797 381,-2187 0,-410 -131,-1566 -381,-1847l-28009 0c-2860,0 -3485,1250 -3485,3165l0 40404c960,365 3916,546 4663,546 806,0 3991,-181 4712,-546l0 0z"/>
  <path class="fil0" d="M68863 161831l0 14722c0,1331 1093,2000 3274,2000l3316 0c366,0 1338,-431 2916,-1287l0 1287c718,291 1497,434 2347,434 856,0 1656,-143 2406,-434l0 -18462c-750,-310 -1550,-463 -2406,-463 -879,0 -1657,153 -2347,453l0 1175c-72,-44 -131,-72 -166,-87 -1512,-741 -2606,-1107 -3300,-1107l-2259 0c-2522,0 -3781,591 -3781,1769l0 0zm4709 14657l0 -14266c275,-28 569,-44 894,-44 2259,0 3565,453 3903,1369l0 11631c-922,985 -2003,1475 -3241,1475 -441,0 -956,-56 -1556,-165l0 0z"/>
  <path class="fil0" d="M85425 160063l0 18521c728,266 1525,404 2397,404 844,0 1616,-138 2312,-404l0 -15037c338,-916 1635,-1369 3888,-1369 347,0 644,16 894,44l0 1175c59,162 281,250 656,250 581,0 1303,-150 2175,-447 872,-294 1512,-619 1937,-988l0 -381c0,-1178 -1268,-1769 -3809,-1769l-2269 0c-503,0 -1600,366 -3284,1107 -94,31 -160,59 -188,87l0 -1194c-684,-290 -1462,-434 -2334,-434 -856,0 -1647,144 -2375,434l0 1z"/>
  <path class="fil0" d="M100722 161831l0 14722c0,1331 1094,2000 3275,2000l3315 0c366,0 1338,-431 2916,-1287l0 1287c719,291 1497,434 2347,434 856,0 1656,-143 2406,-434l0 -18462c-750,-310 -1550,-463 -2406,-463 -878,0 -1656,153 -2347,453l0 1175c-72,-44 -131,-72 -165,-87 -1513,-741 -2607,-1107 -3300,-1107l-2260 0c-2522,0 -3781,591 -3781,1769l0 0zm4709 14657l0 -14266c275,-28 569,-44 894,-44 2259,0 3566,453 3903,1369l0 11631c-922,985 -2003,1475 -3241,1475 -440,0 -956,-56 -1556,-165l0 0z"/>
  <path class="fil1" d="M117284 151934l0 20385c3400,3250 5691,5337 6857,6265 784,-490 2447,-1850 4997,-4068 2375,2218 3875,3578 4487,4068 525,-325 1691,-1246 3506,-2765 1910,-1597 3235,-2788 3960,-3557l0 -20309c-660,-366 -1403,-547 -2232,-547 -862,0 -1734,182 -2606,547l0 18891c-734,1093 -1550,1943 -2440,2550 -944,-463 -1688,-1253 -2229,-2385l0 -19056c-659,-366 -1409,-547 -2253,-547 -850,0 -1712,182 -2584,547l0 18891c-734,1093 -1541,1943 -2428,2550 -1016,-491 -1791,-1341 -2325,-2550l0 -18910c-728,-325 -1525,-484 -2397,-484 -859,0 -1628,159 -2312,484l-1 0z"/>
  <path class="fil1" d="M141819 154147l0 24422c959,365 1778,547 2468,547 247,0 1032,-182 2372,-547l0 -14410c769,-309 1519,-468 2253,-468 657,0 1507,150 2544,462l0 14394c791,409 1619,612 2491,612 912,0 1700,-203 2347,-612l0 -24400c0,-1619 -1613,-2425 -4832,-2425l-4940 0c-3135,0 -4703,806 -4703,2425l0 0zm4840 7284l0 -7600c741,-250 1463,-381 2169,-381 653,0 1534,131 2628,381l0 7600c-1025,294 -1872,444 -2544,444 -734,0 -1484,-150 -2253,-444z"/>
  <path class="fil1" d="M158612 151672l0 26875c719,497 1529,744 2435,744 900,0 1700,-247 2406,-744l0 -20878 6194 10906c287,322 619,488 1015,488 382,0 713,-166 991,-488l6188 -10906 0 20906c972,534 1887,800 2743,800 822,0 1519,-266 2097,-800l0 -26897c-728,-547 -1540,-819 -2428,-819 -934,0 -1850,272 -2737,813l-6875 12644 -6857 -12644c-987,-713 -1915,-1075 -2787,-1075 -828,0 -1619,362 -2385,1075l0 0z"/>
  <path class="fil1" d="M194644 164900l0 11503c-744,309 -1478,466 -2191,466 -678,0 -1550,-157 -2615,-466l0 -1637c-735,-354 -1513,-532 -2341,-532 -872,0 -1706,172 -2491,525l0 1382c0,1606 1613,2412 4841,2412l4931 0c3135,0 4703,-797 4703,-2403l0 -11797c0,-562 -281,-965 -840,-1225l-8803 -3053 0 -6166c815,-337 1584,-503 2322,-503 653,0 1487,166 2484,503l0 1588c731,366 1541,544 2431,544 828,0 1628,-185 2406,-553l0 -1353c0,-1607 -1612,-2413 -4831,-2413l-4941 0c-3134,0 -4703,806 -4703,2413l0 7006c0,412 282,690 844,850 1331,353 2125,562 2378,634l6416 2275 0 0z"/>
 </g>
</svg>
