<?xml version="1.0" encoding="UTF-8"?>
<!DOCTYPE svg PUBLIC "-//W3C//DTD SVG 1.1//EN" "http://www.w3.org/Graphics/SVG/1.1/DTD/svg11.dtd">
<!-- Creator: CorelDRAW 2020 (64-Bit) -->
<svg xmlns="http://www.w3.org/2000/svg" xml:space="preserve" width="2400px" height="2400px" version="1.1" style="shape-rendering:geometricPrecision; text-rendering:geometricPrecision; image-rendering:optimizeQuality; fill-rule:evenodd; clip-rule:evenodd"
viewBox="0 0 240000 240000"
 xmlns:xlink="http://www.w3.org/1999/xlink"
 xmlns:xodm="http://www.corel.com/coreldraw/odm/2003">
 <defs>
  <style type="text/css">
   <![CDATA[
    .fil1 {fill:#50C9F4}
    .fil0 {fill:#D2D3D5}
   ]]>
  </style>
 </defs>
 <g id="Layer_x0020_1">
  <metadata id="CorelCorpID_0Corel-Layer"/>
  <path class="fil0" d="M44180 137311l0 -39199 26567 0c294,-466 445,-2144 445,-2668 0,-504 -151,-2487 -445,-2859l-26567 0 0 -7448 29189 0c330,-481 503,-2371 503,-2886 0,-541 -173,-2066 -503,-2438l-36962 0c-3775,0 -4600,1650 -4600,4178l0 53320c1267,481 5169,720 6155,720 1063,0 5267,-239 6218,-720l0 0 0 0 0 0 0 0z"/>
  <path class="fil0" d="M52165 117844l0 17178c0,1554 1442,2334 4321,2334l4376 0c482,0 1765,-503 3848,-1501l0 1501c948,340 1976,507 3097,507 1130,0 2185,-167 3175,-507l0 -21543c-990,-361 -2045,-540 -3175,-540 -1160,0 -2187,179 -3097,528l0 1372c-94,-51 -173,-84 -219,-101 -1995,-865 -3440,-1292 -4356,-1292l-2980 0c-3329,0 -4990,689 -4990,2064l0 0 0 0 0 0 0 0 0 0zm6214 17103l0 -16647c363,-33 751,-51 1181,-51 2980,0 4703,528 5150,1597l0 13572c-1217,1150 -2644,1721 -4277,1721 -582,0 -1261,-65 -2054,-192l0 0 0 0 0 0z"/>
  <path class="fil0" d="M74022 115781l0 21611c960,310 2012,471 3162,471 1116,0 2134,-161 3052,-471l0 -17546c447,-1069 2158,-1597 5131,-1597 458,0 850,18 1181,50l0 1372c76,189 370,293 865,293 767,0 1719,-177 2870,-522 1151,-344 1995,-724 2556,-1154l0 -444c0,-1375 -1673,-2064 -5027,-2064l-2995 0c-662,0 -2111,427 -4333,1291 -124,36 -212,70 -248,102l0 -1393c-903,-338 -1929,-507 -3081,-507 -1128,0 -2172,169 -3133,507l0 1 0 0 0 0 0 0 0 0z"/>
  <path class="fil0" d="M94209 117844l0 17178c0,1554 1444,2334 4322,2334l4374 0c484,0 1767,-503 3849,-1501l0 1501c948,340 1976,507 3097,507 1130,0 2185,-167 3175,-507l0 -21543c-990,-361 -2045,-540 -3175,-540 -1159,0 -2185,179 -3097,528l0 1372c-95,-51 -173,-84 -218,-101 -1997,-865 -3441,-1292 -4354,-1292l-2984 0c-3328,0 -4989,689 -4989,2064l0 0 0 0 0 0 0 0zm6215 17103l0 -16647c362,-33 750,-51 1179,-51 2981,0 4707,528 5151,1597l0 13572c-1217,1150 -2643,1721 -4277,1721 -581,0 -1262,-65 -2054,-192l0 0 0 0 0 0 1 0 0 0z"/>
  <path class="fil1" d="M116065 102161l0 26902c4488,4289 7511,7042 9050,8268 1035,-647 3230,-2442 6595,-5369 3134,2927 5114,4722 5920,5369 694,-429 2232,-1644 4627,-3649 2521,-2108 4270,-3679 5227,-4695l0 -26801c-872,-483 -1853,-722 -2946,-722 -1138,0 -2289,241 -3439,722l0 24931c-969,1442 -2045,2563 -3221,3365 -1245,-612 -2227,-1654 -2941,-3149l0 -25147c-869,-483 -1859,-722 -2973,-722 -1123,0 -2259,241 -3410,722l0 24931c-969,1442 -2035,2563 -3205,3365 -1340,-648 -2363,-1770 -3068,-3365l0 -24956c-959,-429 -2011,-639 -3163,-639 -1134,0 -2149,210 -3051,639l-2 0 0 0 0 0 0 0z"/>
  <path class="fil1" d="M148444 105082l0 32229c1266,481 2347,722 3257,722 326,0 1362,-241 3130,-722l0 -19017c1015,-408 2005,-618 2974,-618 866,0 1989,198 3357,611l0 18995c1043,539 2137,807 3287,807 1204,0 2244,-268 3097,-807l0 -32200c0,-2137 -2128,-3201 -6376,-3201l-6519 0c-4137,0 -6207,1064 -6207,3201l0 0 0 0 0 0 0 0 0 0zm6387 9612l0 -10029c978,-330 1931,-504 2863,-504 862,0 2024,174 3468,504l0 10029c-1352,388 -2471,585 -3357,585 -969,0 -1959,-197 -2974,-585z"/>
  <path class="fil1" d="M170605 101815l0 35467c950,656 2018,982 3213,982 1189,0 2244,-326 3176,-982l0 -27553 8175 14393c378,424 817,644 1339,644 504,0 941,-220 1308,-644l8166 -14393 0 27590c1282,705 2490,1056 3620,1056 1084,0 2005,-351 2768,-1056l0 -35495c-962,-723 -2034,-1082 -3206,-1082 -1232,0 -2441,359 -3612,1073l-9071 16686 -9051 -16686c-1301,-941 -2527,-1418 -3677,-1418 -1092,0 -2136,477 -3148,1418l0 0 0 0 0 0 0 0 0 0z"/>
  <path class="fil1" d="M218156 119272l0 15180c-981,408 -1950,616 -2891,616 -895,0 -2045,-208 -3451,-616l0 -2160c-970,-466 -1997,-702 -3089,-702 -1152,0 -2252,227 -3288,693l0 1824c0,2119 2129,3183 6389,3183l6508 0c4137,0 6206,-1052 6206,-3171l0 -15569c0,-741 -371,-1273 -1108,-1617l-11618 -4028 0 -8137c1075,-445 2091,-664 3065,-664 862,0 1961,219 3277,664l0 2095c965,483 2035,718 3208,718 1094,0 2149,-245 3176,-730l0 -1786c0,-2120 -2129,-3184 -6375,-3184l-6521 0c-4136,0 -6207,1064 -6207,3184l0 9246c0,544 373,911 1115,1121 1756,467 2803,743 3137,837l8467 3003 0 0 0 0 0 0 0 0 0 0z"/>
  <path class="fil1" d="M30627 129209c-6150,-2171 -12093,-7983 -8772,-14120 1224,-2258 3416,-4197 5694,-5463 648,-358 1194,-623 1870,-949 287,-138 772,-297 1208,-478l0 -7872c-4169,985 -8752,3650 -11802,6367 -2868,2558 -6114,7188 -5695,12969 332,4581 3108,9437 6747,12129 3122,2306 6707,4238 10750,5236l0 -7820 0 0 0 0 0 1z"/>
  <path class="fil1" d="M51773 109170l-1812 3632c1439,-146 13407,-2254 13897,-2512 -438,-899 -1132,-1829 -1677,-2694 -608,-961 -1142,-1800 -1745,-2750l-3507 -5479 -1460 2797c-652,-149 -1564,-661 -2276,-937 -815,-308 -1658,-622 -2509,-858 -1655,-466 -3573,-973 -5342,-1138l0 7904c2022,470 4897,1013 6431,2035l0 0 0 0z"/>
 </g>
</svg>
