<?xml version="1.0" encoding="UTF-8"?>
<!DOCTYPE svg PUBLIC "-//W3C//DTD SVG 1.1//EN" "http://www.w3.org/Graphics/SVG/1.1/DTD/svg11.dtd">
<!-- Creator: CorelDRAW 2020 (64-Bit) -->
<svg xmlns="http://www.w3.org/2000/svg" xml:space="preserve" width="500px" height="250px" version="1.1" style="shape-rendering:geometricPrecision; text-rendering:geometricPrecision; image-rendering:optimizeQuality; fill-rule:evenodd; clip-rule:evenodd"
viewBox="0 0 50000 25000"
 xmlns:xlink="http://www.w3.org/1999/xlink"
 xmlns:xodm="http://www.corel.com/coreldraw/odm/2003">
 <defs>
  <style type="text/css">
   <![CDATA[
    .fil0 {fill:#00A8A8}
    .fil1 {fill:#F7971C}
   ]]>
  </style>
 </defs>
 <g id="Layer_x0020_1">
  <metadata id="CorelCorpID_0Corel-Layer"/>
  <path class="fil0" d="M19765 11738c0,-1819 975,-3398 1827,-4251 841,-841 2434,-1821 4227,-1821l377 0c1308,0 2917,637 3835,1508 140,132 259,216 392,361 2002,2184 2339,5370 663,7918 -266,404 -412,528 -687,841 -107,121 -269,272 -400,378 -519,422 -714,577 -1382,901 -862,417 -1721,579 -2751,579 -1858,0 -3390,-948 -4274,-1833 -434,-434 -937,-1069 -1252,-1784 -434,-983 -575,-1667 -575,-2797l0 0 0 0 0 0 0 0zm-842 -99l0 659c85,200 -2,1222 698,2673 698,1443 1890,2656 3347,3337 598,279 1250,489 1924,594 139,21 670,62 734,86l849 0c110,-48 561,-71 728,-100 2973,-505 5262,-2894 5707,-5897 26,-173 41,-653 88,-766l0 -623c-83,-198 29,-1248 -707,-2805 -464,-985 -823,-1346 -1473,-2033 -485,-513 -1283,-1043 -2110,-1398 -772,-331 -2011,-611 -2959,-532 -1831,67 -3569,852 -4758,2076 -1057,1089 -1758,2394 -1990,3966 -20,142 -56,703 -78,762l0 0 0 0 0 1 0 0z"/>
  <path class="fil1" d="M25448 7759c2,1273 -5,2544 -5,3815l0 3578c4,273 9,202 -39,215 59,47 28,-25 39,90l0 1439 1837 -1109 5 -8953 -1837 925 0 0 0 0 0 0 0 0z"/>
  <path class="fil0" d="M25078 10938l0 -1511c-826,160 -1769,727 -2382,1307 -541,510 -1153,1435 -1074,2590 62,915 586,1885 1272,2422 719,564 1570,1015 2549,1151l0 -1440c-11,-115 20,-43 -39,-90 -1296,-247 -2850,-1560 -2137,-2957 231,-451 644,-838 1074,-1091 122,-72 225,-125 352,-189 98,-50 319,-115 385,-192l0 0 0 0 0 0z"/>
  <path class="fil0" d="M27661 9250c-20,209 -35,1366 12,1488 382,90 940,193 1236,389l-342 685c271,-28 2528,-425 2620,-474 -82,-169 -213,-345 -316,-508 -115,-181 -215,-339 -329,-518l-661 -1033 -275 527c-123,-28 -296,-125 -430,-177 -154,-58 -312,-117 -473,-161 -323,-91 -699,-191 -1042,-218l0 0 0 0z"/>
  <path class="fil0" d="M22408 19507c-1730,-807 -3146,-2248 -3974,-3962 -832,-1722 -728,-2936 -829,-3174l0 -782c26,-71 68,-737 93,-905 579,-3924 5033,-7352 7651,-9970l-4302 0c-3227,3227 -6453,6453 -9680,9679 -1075,1076 -806,2152 0,2958 3272,3272 6543,6543 9814,9814 1076,1076 2219,874 3092,0l2717 -2920c-180,19 -353,40 -420,69l-1008 0c-75,-27 -706,-76 -870,-101 -800,-125 -1575,-375 -2284,-706l0 0z"/>
  <path class="fil0" d="M34212 13195c-584,3932 -5757,7964 -8497,10704l4302 0c3227,-3227 6453,-6453 9680,-9680 1075,-1075 806,-2151 0,-2958 -3272,-3271 -6543,-6542 -9814,-9813 -1076,-1076 -2219,-875 -3092,0l-1997 2146c302,-44 607,-73 915,-84 1125,-94 2597,239 3514,632 982,421 1930,1050 2504,1659 772,816 1198,1245 1750,2414 873,1848 740,3094 839,3330l0 741c-55,133 -73,704 -104,909l0 0 0 0z"/>
 </g>
</svg>
