<?xml version="1.0" encoding="UTF-8"?>
<!DOCTYPE svg PUBLIC "-//W3C//DTD SVG 1.1//EN" "http://www.w3.org/Graphics/SVG/1.1/DTD/svg11.dtd">
<!-- Creator: CorelDRAW 2020 (64-Bit) -->
<svg xmlns="http://www.w3.org/2000/svg" xml:space="preserve" width="2550px" height="3300px" version="1.1" style="shape-rendering:geometricPrecision; text-rendering:geometricPrecision; image-rendering:optimizeQuality; fill-rule:evenodd; clip-rule:evenodd"
viewBox="0 0 255000 330000"
 xmlns:xlink="http://www.w3.org/1999/xlink"
 xmlns:xodm="http://www.corel.com/coreldraw/odm/2003">
 <defs>
  <style type="text/css">
   <![CDATA[
    .fil0 {fill:#00A8A8}
    .fil1 {fill:#F7971C}
   ]]>
  </style>
 </defs>
 <g id="Layer_x0020_1">
  <metadata id="CorelCorpID_0Corel-Layer"/>
  <path class="fil0" d="M100703 160628c0,-8884 4760,-16590 8922,-20756 4103,-4106 11884,-8891 20638,-8891l1840 0c6388,0 14244,3110 18725,7360 681,647 1263,1056 1913,1765 9775,10663 11422,26219 3237,38657 -1300,1975 -2012,2581 -3356,4106 -522,590 -1313,1331 -1950,1847 -2537,2062 -3488,2818 -6750,4400 -4206,2037 -8400,2828 -13428,2828 -9075,0 -16556,-4628 -20872,-8950 -2119,-2119 -4572,-5219 -6109,-8710 -2119,-4800 -2810,-8143 -2810,-13656l0 0 0 0 0 0zm-4109 -487l0 3218c415,978 -13,5969 3409,13050 3406,7047 9225,12972 16341,16294 2919,1363 6103,2388 9394,2900 675,103 3268,303 3581,419l4144 0c537,-231 2740,-347 3559,-488 14512,-2465 25687,-14128 27862,-28790 125,-844 200,-3188 429,-3738l0 -3044c-407,-968 140,-6093 -3450,-13697 -2269,-4809 -4022,-6568 -7194,-9925 -2366,-2506 -6263,-5093 -10300,-6825 -3772,-1615 -9822,-2984 -14450,-2596 -8938,325 -17425,4159 -23228,10137 -5160,5316 -8582,11688 -9716,19363 -100,693 -275,3431 -381,3721l0 0 0 0 0 1z"/>
  <path class="fil1" d="M128450 141200c9,6216 -22,12422 -25,18625l3 17469c16,1334 44,987 -191,1053 288,228 135,-125 188,437l0 7028 8969 -5418 25 -43710 -8969 4516 0 0 0 0 0 0z"/>
  <path class="fil0" d="M126644 156722l0 -7381c-4032,784 -8635,3553 -11632,6381 -2640,2494 -5628,7009 -5243,12647 306,4468 2862,9203 6212,11828 3513,2750 7663,4953 12444,5616l0 -7029c-53,-562 100,-209 -188,-437 -6328,-1209 -13918,-7619 -10434,-14438 1125,-2203 3144,-4093 5241,-5328 597,-350 1100,-609 1722,-925 478,-244 1556,-559 1878,-934l0 0 0 0z"/>
  <path class="fil0" d="M139256 148478c-100,1022 -169,6669 60,7266 1865,440 4590,940 6031,1900l-1669 3344c1325,-135 12344,-2075 12794,-2313 -403,-828 -1041,-1684 -1544,-2481 -559,-885 -1050,-1656 -1606,-2531l-3228 -5044 -1344 2575c-600,-138 -1441,-609 -2097,-863 -750,-284 -1525,-572 -2309,-790 -1578,-444 -3413,-928 -5088,-1063l0 0 0 0z"/>
  <path class="fil0" d="M113606 198559c-8447,-3943 -15356,-10978 -19400,-19343 -4062,-8410 -3553,-14338 -4047,-15497l0 -3822c125,-344 332,-3597 453,-4416 2825,-19159 24575,-35897 37357,-48678l-21007 0c-15753,15753 -31506,31506 -47259,47259 -5250,5250 -3937,10503 0,14441 15972,15972 31944,31944 47916,47916 5250,5253 10831,4268 15097,0l13262 -14257c-878,91 -1722,197 -2047,338l-4922 0c-368,-134 -3447,-375 -4247,-497 -3909,-609 -7690,-1828 -11156,-3444z"/>
  <path class="fil0" d="M171241 167738c-2850,19200 -28110,38884 -41488,52262l21006 0c15753,-15753 31507,-31506 47260,-47259 5250,-5250 3937,-10503 0,-14441 -15972,-15972 -31944,-31944 -47916,-47916 -5250,-5253 -10831,-4268 -15097,0l-9750 10479c1475,-216 2966,-357 4469,-410 5494,-459 12678,1166 17156,3085 4794,2056 9422,5128 12228,8100 3766,3987 5850,6078 8544,11787 4262,9025 3612,15109 4094,16259l0 3616c-269,653 -357,3438 -507,4438l1 0z"/>
 </g>
</svg>
