<?xml version="1.0" encoding="UTF-8"?>
<!DOCTYPE svg PUBLIC "-//W3C//DTD SVG 1.1//EN" "http://www.w3.org/Graphics/SVG/1.1/DTD/svg11.dtd">
<!-- Creator: CorelDRAW 2020 (64-Bit) -->
<svg xmlns="http://www.w3.org/2000/svg" xml:space="preserve" width="500px" height="250px" version="1.1" style="shape-rendering:geometricPrecision; text-rendering:geometricPrecision; image-rendering:optimizeQuality; fill-rule:evenodd; clip-rule:evenodd"
viewBox="0 0 50000 25000"
 xmlns:xlink="http://www.w3.org/1999/xlink"
 xmlns:xodm="http://www.corel.com/coreldraw/odm/2003">
 <defs>
  <style type="text/css">
   <![CDATA[
    .fil1 {fill:#50C9F4}
    .fil0 {fill:#D2D3D5}
   ]]>
  </style>
 </defs>
 <g id="Layer_x0020_1">
  <metadata id="CorelCorpID_0Corel-Layer"/>
  <path class="fil0" d="M7850 18537l0 -8889 6024 0c67,-106 101,-487 101,-605 0,-115 -34,-564 -101,-649l-6024 0 0 -1689 6619 0c75,-109 114,-538 114,-654 0,-123 -39,-469 -114,-553l-8382 0c-856,0 -1043,374 -1043,947l0 12092c287,109 1172,163 1396,163 241,0 1194,-54 1410,-163l0 0 0 0 0 0 0 0z"/>
  <path class="fil0" d="M9660 14122l0 3896c0,352 327,529 980,529l993 0c109,0 400,-114 872,-340l0 340c215,77 448,115 703,115 256,0 495,-38 720,-115l0 -4885c-225,-82 -464,-123 -720,-123 -263,0 -496,41 -703,120l0 311c-21,-12 -39,-19 -49,-23 -453,-196 -781,-293 -988,-293l-676 0c-755,0 -1132,156 -1132,468l0 0 0 0 0 0 0 0 0 0zm1410 3879l0 -3775c82,-8 170,-12 267,-12 676,0 1067,120 1168,362l0 3078c-276,261 -599,390 -970,390 -132,0 -286,-15 -465,-43l0 0 0 0 0 0 0 0z"/>
  <path class="fil0" d="M14617 13654l0 4901c218,70 456,107 717,107 253,0 484,-37 692,-107l0 -3979c102,-242 490,-362 1164,-362 104,0 192,4 267,11l0 311c18,43 84,67 197,67 174,0 390,-40 651,-118 260,-78 452,-165 579,-262l0 -101c0,-312 -379,-468 -1140,-468l-679 0c-150,0 -479,97 -983,293 -28,8 -48,16 -56,23l0 -316c-205,-76 -437,-115 -699,-115 -255,0 -492,39 -710,115l0 0 0 0 0 0 0 0 0 0 0 0z"/>
  <path class="fil0" d="M19195 14122l0 3896c0,352 327,529 980,529l992 0c110,0 400,-114 873,-340l0 340c215,77 448,115 702,115 256,0 495,-38 720,-115l0 -4885c-225,-82 -464,-123 -720,-123 -263,0 -496,41 -702,120l0 311c-22,-12 -40,-19 -50,-23 -453,-196 -780,-293 -987,-293l-677 0c-754,0 -1131,156 -1131,468l0 0 0 0 0 0 0 0 0 0zm1409 3879l0 -3775c82,-8 170,-12 268,-12 676,0 1067,120 1168,362l0 3078c-276,261 -600,390 -970,390 -132,0 -286,-15 -466,-43l0 0 0 0 0 0 0 0 0 0 0 0z"/>
  <path class="fil1" d="M24151 10566l0 6100c1018,973 1703,1597 2052,1875 235,-146 733,-553 1496,-1217 711,664 1160,1071 1343,1217 157,-97 506,-373 1049,-827 571,-478 968,-834 1185,-1065l0 -6078c-198,-109 -420,-163 -668,-163 -258,0 -519,54 -780,163l0 5654c-220,327 -464,581 -730,763 -283,-139 -505,-375 -667,-714l0 -5703c-197,-109 -422,-163 -674,-163 -255,0 -513,54 -774,163l0 5654c-219,327 -461,581 -727,763 -303,-147 -535,-401 -695,-763l0 -5659c-218,-98 -456,-145 -717,-145 -258,0 -488,47 -692,145l-1 0 0 0 0 0 0 0 0 0z"/>
  <path class="fil1" d="M31494 11228l0 7309c287,109 532,163 738,163 74,0 309,-54 710,-163l0 -4313c230,-92 455,-140 675,-140 196,0 451,45 761,139l0 4307c236,122 484,183 745,183 273,0 509,-61 703,-183l0 -7302c0,-484 -483,-726 -1446,-726l-1479 0c-938,0 -1407,242 -1407,726l0 0 0 0 0 0 0 0 0 0 0 0zm1448 2180l0 -2274c222,-75 438,-115 649,-115 196,0 459,40 787,115l0 2274c-307,88 -560,133 -761,133 -220,0 -445,-45 -675,-133z"/>
  <path class="fil1" d="M36519 10487l0 8043c216,149 458,223 729,223 269,0 509,-74 720,-223l0 -6248 1854 3264c86,96 185,146 304,146 114,0 213,-50 296,-146l1852 -3264 0 6257c291,159 565,239 821,239 246,0 455,-80 628,-239l0 -8050c-218,-164 -462,-245 -727,-245 -280,0 -554,81 -819,243l-2058 3784 -2052 -3784c-295,-213 -573,-321 -834,-321 -247,0 -484,108 -714,321l0 0 0 0 0 0 0 0 0 0 0 0z"/>
  <path class="fil1" d="M47302 14446l0 3442c-222,93 -442,140 -655,140 -203,0 -464,-47 -783,-140l0 -489c-220,-106 -453,-160 -700,-160 -261,0 -511,52 -746,158l0 413c0,481 483,722 1449,722l1476 0c938,0 1407,-239 1407,-719l0 -3531c0,-168 -84,-288 -251,-366l-2635 -914 0 -1845c244,-101 474,-151 695,-151 196,0 445,50 743,151l0 475c219,110 462,163 728,163 248,0 487,-56 720,-166l0 -405c0,-480 -483,-722 -1446,-722l-1478 0c-938,0 -1408,242 -1408,722l0 2097c0,123 85,207 253,254 398,106 636,169 711,190l1920 681 0 0 0 0 0 0 0 0 0 0 0 0z"/>
  <path class="fil1" d="M4776 16699c-1394,-492 -2742,-1810 -1989,-3202 277,-512 775,-951 1291,-1238 147,-82 271,-142 424,-216 65,-31 175,-67 274,-108l0 -1785c-945,223 -1984,828 -2676,1444 -651,580 -1387,1630 -1292,2941 76,1038 705,2140 1530,2750 708,523 1521,961 2438,1188l0 -1774 0 0 0 0 0 0 0 0z"/>
  <path class="fil1" d="M9572 12155l-411 824c326,-33 3040,-511 3151,-570 -99,-204 -257,-415 -380,-611 -138,-218 -259,-408 -396,-623l-795 -1243 -331 634c-148,-33 -355,-149 -516,-212 -185,-70 -376,-141 -569,-195 -376,-105 -811,-220 -1212,-258l0 1793c459,106 1111,229 1459,461l0 0 0 0 0 0z"/>
 </g>
</svg>
