<?xml version="1.0" encoding="UTF-8"?>
<!DOCTYPE svg PUBLIC "-//W3C//DTD SVG 1.1//EN" "http://www.w3.org/Graphics/SVG/1.1/DTD/svg11.dtd">
<!-- Creator: CorelDRAW 2020 (64-Bit) -->
<svg xmlns="http://www.w3.org/2000/svg" xml:space="preserve" width="500px" height="250px" version="1.1" style="shape-rendering:geometricPrecision; text-rendering:geometricPrecision; image-rendering:optimizeQuality; fill-rule:evenodd; clip-rule:evenodd"
viewBox="0 0 50000 25000"
 xmlns:xlink="http://www.w3.org/1999/xlink"
 xmlns:xodm="http://www.corel.com/coreldraw/odm/2003">
 <defs>
  <style type="text/css">
   <![CDATA[
    .fil0 {fill:#F7DF1D}
    .fil1 {fill:black;fill-rule:nonzero}
   ]]>
  </style>
 </defs>
 <g id="Layer_x0020_1">
  <metadata id="CorelCorpID_0Corel-Layer"/>
  <path class="fil0" d="M13700 4415l0 16720c0,1496 1569,3065 3066,3065l17277 0c1564,0 3065,-1842 3065,-3344l0 -16720c0,-1244 -1444,-3065 -2508,-3065l-18113 0c-1744,0 -2787,1545 -2787,3344l0 0 0 0z"/>
  <path class="fil1" d="M18453 20744l0 -1664 1664 0 0 1664 -1664 0zm6521 -8697l1761 0 0 5511c0,721 -63,1275 -190,1664 -170,506 -478,913 -926,1221 -445,306 -1034,459 -1767,459 -858,0 -1518,-239 -1980,-718 -463,-480 -696,-1185 -700,-2112l1664 -194c20,496 91,846 217,1051 188,311 473,467 858,467 387,0 662,-111 822,-336 160,-223 241,-686 241,-1391l0 -5622 0 0zm3172 5880l1713 -171c103,573 310,992 623,1262 314,269 737,402 1270,402 562,0 987,-119 1273,-358 285,-239 429,-518 429,-838 0,-207 -61,-381 -180,-526 -119,-144 -330,-270 -630,-375 -204,-73 -670,-198 -1399,-380 -937,-235 -1595,-523 -1973,-865 -533,-480 -798,-1065 -798,-1755 0,-443 126,-860 375,-1247 251,-387 611,-680 1083,-883 471,-202 1038,-303 1706,-303 1087,0 1907,241 2456,724 550,484 838,1128 866,1936l-1761 60c-75,-449 -235,-771 -480,-967 -245,-197 -613,-296 -1103,-296 -506,0 -903,106 -1188,316 -185,136 -278,316 -278,543 0,206 87,382 261,528 221,188 757,383 1610,585 852,200 1482,411 1889,626 409,216 728,510 959,884 231,375 346,836 346,1385 0,498 -137,966 -415,1401 -277,435 -668,759 -1174,970 -506,212 -1138,317 -1893,317 -1099,0 -1943,-253 -2532,-761 -589,-506 -940,-1245 -1055,-2214l0 0z"/>
 </g>
</svg>
