<?xml version="1.0" encoding="UTF-8"?>
<!DOCTYPE svg PUBLIC "-//W3C//DTD SVG 1.1//EN" "http://www.w3.org/Graphics/SVG/1.1/DTD/svg11.dtd">
<!-- Creator: CorelDRAW 2020 (64-Bit) -->
<svg xmlns="http://www.w3.org/2000/svg" xml:space="preserve" width="2550px" height="3300px" version="1.1" style="shape-rendering:geometricPrecision; text-rendering:geometricPrecision; image-rendering:optimizeQuality; fill-rule:evenodd; clip-rule:evenodd"
viewBox="0 0 255000 330000"
 xmlns:xlink="http://www.w3.org/1999/xlink"
 xmlns:xodm="http://www.corel.com/coreldraw/odm/2003">
 <defs>
  <style type="text/css">
   <![CDATA[
    .fil0 {fill:#F7DF1D}
    .fil1 {fill:black;fill-rule:nonzero}
   ]]>
  </style>
 </defs>
 <g id="Layer_x0020_1">
  <metadata id="CorelCorpID_0Corel-Layer"/>
  <path class="fil0" d="M76379 125138l0 87165c0,7800 8181,15980 15982,15980l90070 0c8155,0 15980,-9604 15980,-17433l0 -87165c0,-6486 -7528,-15980 -13075,-15980l-94429 0c-9089,0 -14528,8054 -14528,17433l0 0z"/>
  <path class="fil1" d="M101158 210268l0 -8675 8675 0 0 8675 -8675 0zm33994 -45339l9182 0 0 28728c0,3757 -328,6649 -993,8675 -886,2639 -2490,4760 -4823,6364 -2321,1594 -5393,2396 -9213,2396 -4475,0 -7915,-1246 -10322,-3747 -2416,-2501 -3630,-6174 -3651,-11008l8675 -1013c105,2586 475,4412 1129,5478 982,1625 2470,2438 4475,2438 2016,0 3451,-581 4285,-1752 834,-1161 1256,-3578 1256,-7251l0 -29308zm16538 30649l8928 -887c538,2987 1615,5171 3251,6575 1635,1404 3841,2100 6617,2100 2934,0 5150,-622 6638,-1868 1488,-1245 2237,-2701 2237,-4369 0,-1077 -316,-1984 -939,-2744 -622,-749 -1720,-1404 -3282,-1952 -1066,-380 -3493,-1035 -7293,-1984 -4886,-1225 -8316,-2723 -10290,-4507 -2775,-2501 -4158,-5551 -4158,-9150 0,-2311 655,-4485 1953,-6501 1308,-2016 3187,-3546 5646,-4602 2459,-1055 5414,-1583 8897,-1583 5667,0 9941,1256 12802,3778 2870,2523 4369,5879 4517,10090l-9182 316c-391,-2342 -1225,-4020 -2502,-5044 -1277,-1024 -3197,-1541 -5751,-1541 -2639,0 -4707,549 -6195,1646 -961,707 -1446,1647 -1446,2829 0,1076 454,1994 1361,2754 1151,982 3947,1995 8390,3050 4444,1045 7726,2143 9847,3262 2132,1129 3799,2659 5003,4611 1203,1953 1804,4359 1804,7219 0,2596 -717,5034 -2163,7303 -1446,2270 -3483,3958 -6121,5056 -2639,1108 -5932,1657 -9868,1657 -5731,0 -10132,-1320 -13203,-3969 -3071,-2638 -4897,-6490 -5498,-11545z"/>
 </g>
</svg>
