<?xml version="1.0" encoding="UTF-8"?>
<!DOCTYPE svg PUBLIC "-//W3C//DTD SVG 1.1//EN" "http://www.w3.org/Graphics/SVG/1.1/DTD/svg11.dtd">
<!-- Creator: CorelDRAW 2020 (64-Bit) -->
<svg xmlns="http://www.w3.org/2000/svg" xml:space="preserve" width="2.08333in" height="1.04166in" version="1.1" style="shape-rendering:geometricPrecision; text-rendering:geometricPrecision; image-rendering:optimizeQuality; fill-rule:evenodd; clip-rule:evenodd"
viewBox="0 0 2083.33 1041.66"
 xmlns:xlink="http://www.w3.org/1999/xlink"
 xmlns:xodm="http://www.corel.com/coreldraw/odm/2003">
 <defs>
  <style type="text/css">
   <![CDATA[
    .fil1 {fill:#5781CF}
    .fil0 {fill:#AD37BD}
    .fil2 {fill:#5781CF;fill-rule:nonzero}
   ]]>
  </style>
 </defs>
 <g id="Layer_x0020_1">
  <metadata id="CorelCorpID_0Corel-Layer"/>
  <path class="fil0" d="M1925.17 645.69c-97.8,-1.01 -175.67,10.14 -225.99,-51.17 -50.71,-61.79 -19.49,-158.12 -6.38,-231.65l-55.34 2.18 -56 335.65 324.14 0c17.57,-10.65 6.71,8.57 15.43,-25.29 1.84,-7.15 2.9,-21.54 4.14,-29.72z"/>
  <path class="fil1" d="M1692.8 362.87c97.94,-3.29 177.61,-11.42 226.78,51.14 47.35,60.24 21.41,153.48 5.59,231.68l54.33 -0.34 58.11 -337.87 -336.12 0.94 -8.7 54.45z"/>
  <path class="fil1" d="M1455.78 411.37c12.64,-72.3 14.85,-76.17 78.54,-68.63 3.57,26.87 -3.87,44.11 -12.3,66.32l-66.24 2.31zm-162.08 -52.92c-10.88,-41.51 26.02,-35.27 67,-32.96l-4.17 37.19 -62.84 -4.23zm-252.99 -55.4c-28.22,56.2 40.03,38.38 33.07,101.7 -81.07,23.72 -99.09,-23.61 -101.74,35.53 35.35,0 68.66,4.12 99.23,-7.48 42.33,-16.06 16.51,2.93 67.77,5.99 53.54,3.19 40.54,-21.89 77.17,-10.06 33.4,10.79 56.99,11.29 94.45,9.3 30.81,-1.64 25.63,-4.75 45.5,-10.96 8.92,-2.79 4.91,-4.02 17.11,-2.06 0.3,0.05 16.26,6.06 19.21,6.81 54.62,13.89 24.01,-18.51 75,-3.36 76.7,22.8 109.83,-22.54 91.62,-98.1 -25.7,-17.7 -67.56,-26.85 -99.61,-4.5 -25.51,17.79 -21.64,53.48 -34.2,83.91l-50.55 3.25c6.21,-53.59 35.32,-99.92 -7.56,-113.89 -23.17,-7.55 -106.23,-16.52 -104.08,71.77 42.84,23.81 26.72,19 86.01,19 -11.02,34.64 -64.17,21.12 -138.63,21.7l11.25 -73.77c-44.18,0.88 -24.82,26.94 -43.7,71.47 -78.87,2.5 -69.86,7.22 -75.03,-12.07 -0.27,-1 -0.2,-12.23 -1.7,-19.74 -4.31,-21.56 -40.18,-66.63 -60.59,-74.41z"/>
  <path class="fil1" d="M776.89 411.37c7.35,-35.2 33.07,-137.93 23.99,-162.91 -29.68,1.07 -21.06,-5.13 -28.04,25.47 -8.72,38.2 -9.45,88.9 -26.41,134.33l-50.56 2.27c5.22,-41.18 31.35,-141.14 19.01,-162.08 -28.89,3.42 -22.12,6.48 -26.73,41.03l-19.59 112.59c-13.48,24.67 -17.4,-9.33 -18.14,37.39 32.27,1.62 70.33,5.17 97.81,-5.24 27.34,-10.36 7.27,-13.36 32.72,-5.74 144.33,43.25 117.87,-84.59 112.55,-90.67 -32.73,3.58 -19.8,32.94 -35.44,70.68l-81.16 2.89z"/>
  <path class="fil1" d="M1833.94 484.28c-122,0 -122.49,-13.18 -128.09,37.53l122.24 0c-10.24,20.16 -63.06,57.77 -82.55,77.78 91.72,0 50.76,-17.27 161.37,-91.01 -5.96,-19.1 -67.46,-101.04 -87.3,-101.04l-39.4 0.64c16.77,29.44 44.48,43.44 53.73,76.11z"/>
  <path class="fil1" d="M507.3 431.19c63.78,18.29 103.59,14.81 122.35,-49.49 14.32,-49.09 -5.54,-43.01 -7.37,-43.94 -26.28,16.63 -8.38,14.7 -28.03,71.27l-76.98 1.5 -0.84 -47.94c-66.34,6.27 18.39,100.98 -92.75,100.02 -60.61,-0.52 -43.81,-25.74 -41.86,-42.83 3.2,-28.06 4.69,-27.76 -4.31,-40.7 -25.39,4.98 -19.72,1.59 -24.72,36.49 -3.11,21.7 -3.36,31.92 -1.73,53.7 32.76,22.52 49.1,25.11 99.39,19.27 39.39,-4.57 52.46,-20.3 56.85,-57.34z"/>
  <path class="fil1" d="M914 440.19c37.26,-1.01 25.42,9.71 42.24,-87.5 3.44,-19.93 6.56,-37.97 10.17,-57.14 10.82,-57.39 4.18,-39.31 -0.15,-47.07 -28.63,3.56 -20.78,4.56 -26.63,40.53l-25.62 151.19z"/>
  <path class="fil1" d="M929.89 226.12c37.86,-7.14 41.86,13.64 70.43,-3.3 -5.64,-3.29 -69.37,-27.59 -70.43,3.3z"/>
  <path class="fil1" d="M429.61 389.03c12.64,-0.64 40.26,-1.34 21.36,-20.81 -13.47,-13.87 -21.89,0.35 -21.36,20.81z"/>
  <path class="fil1" d="M1328.41 269.97c21.37,8.13 21.7,6.84 20.68,-19.84 -21.92,0.46 -27.86,-1.78 -20.68,19.84z"/>
  <path class="fil1" d="M1125.02 487.43c24.45,-2.78 20.08,2.52 23.75,-22.43l-25.7 0.09 1.94 22.34z"/>
  <path class="fil1" d="M558.9 483.5c12.5,-9.41 4.41,-10.64 3.84,-21.69 -16.57,3.41 -21.91,6.06 -21.52,18.15 0.13,0.08 -4.54,20.25 17.67,3.54z"/>
  <path class="fil1" d="M576.81 485.75c23.33,0.94 23.97,1.24 22.3,-21.46 -23.95,-2.74 -22.39,-2.39 -22.3,21.46z"/>
  <path class="fil1" d="M884.41 311.3c25.44,4.69 22.06,2.4 23.15,-21.48 -17.42,2.44 -25.31,3 -23.15,21.48z"/>
  <path class="fil1" d="M1183.85 474.32c2.21,-11.23 0.47,-2.5 -1.81,-10.84 -17.77,1.3 -20.47,2.35 -19.9,21.48l21.71 -10.65z"/>
  <path class="fil2" d="M69.91 570.39l34.87 0 -3.15 14.9c13.54,-12.02 27.77,-18.02 42.67,-18.02 10.3,0 18.22,1.96 23.79,5.83 5.61,3.92 9.15,9.31 10.69,16.18 4.73,-6.27 11.48,-11.46 20.33,-15.7 8.85,-4.2 18,-6.31 27.51,-6.31 10.91,0 19.41,2.72 25.5,8.11 6.09,5.39 9.11,12.5 9.11,21.41 -0.04,4.28 -1.31,11.67 -3.85,22.17l-17.83 75.83 -36.8 0 17.7 -75.83c2.19,-9.51 3.33,-14.94 3.46,-16.22 0,-3.56 -1.14,-6.35 -3.46,-8.43 -2.28,-2.04 -5.74,-3.08 -10.34,-3.08 -9.24,0 -17.52,4.44 -24.8,13.35 -5.3,6.35 -9.81,17.66 -13.54,33.84l-12.92 56.37 -36.8 0 17.26 -75.39c1.97,-8.67 2.93,-14.3 2.93,-16.9 0,-3.28 -1.22,-5.99 -3.63,-8.11 -2.46,-2.12 -5.83,-3.16 -10.12,-3.16 -4.03,0 -8.19,1.12 -12.44,3.32 -4.3,2.2 -8.07,5.19 -11.26,9.07 -3.24,3.83 -6,8.79 -8.32,14.82 -1.05,2.83 -2.85,9.23 -5.26,19.18l-13.06 57.17 -36.8 0 28.56 -124.41zm211.71 72.79c0,-23.13 7.1,-41.55 21.33,-55.29 14.24,-13.74 32.94,-20.61 56.11,-20.61 20.07,0 35.75,5.07 47.05,15.22 11.26,10.15 16.91,23.77 16.91,40.95 0,20.18 -7.06,37.68 -21.16,52.38 -14.1,14.74 -32.98,22.09 -56.64,22.09 -12.83,0 -24.22,-2.36 -34.13,-7.03 -9.9,-4.72 -17.3,-11.39 -22.16,-19.98 -4.87,-8.63 -7.32,-17.86 -7.32,-27.73zm104.87 -24.17c0,-8.03 -2.54,-14.46 -7.62,-19.3 -5.08,-4.83 -11.61,-7.27 -19.63,-7.27 -7.93,0 -14.98,2.28 -21.11,6.79 -6.14,4.51 -10.91,11.11 -14.33,19.7 -3.41,8.63 -5.12,16.58 -5.12,23.81 0,8.99 2.63,16.1 7.93,21.37 5.3,5.27 11.96,7.91 19.97,7.91 10.08,0 18.49,-4 25.32,-11.94 9.73,-11.23 14.59,-24.93 14.59,-41.07zm146.09 -48.62l-5.52 24.69 -26.02 0 -22.87 99.72 -36.8 0 22.91 -99.72 -20.55 0 5.52 -24.69 20.68 0 2.94 -12.78c2.37,-10.51 4.6,-17.58 6.74,-21.26 2.89,-4.99 7.23,-8.95 12.97,-11.91 5.78,-2.91 13.27,-4.39 22.43,-4.39 11.21,0 23.04,1.84 35.44,5.56l-7.06 23.69c-8.72,-2.72 -15.81,-4.07 -21.2,-4.07 -4.16,0 -7.27,1.24 -9.28,3.76 -1.28,1.64 -2.67,5.87 -4.21,12.74l-2.01 8.67 25.89 0zm30.75 -47.22l36.75 0 -6.96 30.44 -36.8 0 7.01 -30.44zm-10.86 47.22l36.8 0 -28.56 124.41 -36.8 0 28.56 -124.41zm170.58 124.41l-34.91 0 3.07 -13.3c-6.66,5.87 -13.23,10.07 -19.71,12.62 -6.44,2.52 -13.71,3.8 -21.86,3.8 -14.1,0 -25.54,-4.4 -34.3,-13.22 -8.76,-8.79 -13.15,-21.81 -13.15,-39.07 0,-19.98 6.26,-37.99 18.75,-54.13 12.49,-16.14 29,-24.21 49.54,-24.21 18.58,0 32.51,6.67 41.79,20.06l15.29 -64.16 36.76 0 -41.27 171.63zm-85.11 -50.5c0,8.91 2.5,15.9 7.44,20.94 5,4.99 11.13,7.51 18.4,7.51 6.74,0 13.05,-2.07 18.88,-6.27 5.87,-4.19 10.51,-10.63 14.02,-19.26 3.5,-8.59 5.26,-16.86 5.26,-24.81 0,-8.99 -2.67,-16.3 -8.02,-21.85 -5.39,-5.56 -11.56,-8.35 -18.57,-8.35 -10.91,0 -19.89,5.47 -26.9,16.46 -7.01,10.98 -10.51,22.85 -10.51,35.63zm125.33 -1.12c0,-23.13 7.1,-41.55 21.33,-55.29 14.24,-13.74 32.94,-20.61 56.11,-20.61 20.06,0 35.75,5.07 47.05,15.22 11.26,10.15 16.91,23.77 16.91,40.95 0,20.18 -7.05,37.68 -21.16,52.38 -14.11,14.74 -32.99,22.09 -56.64,22.09 -12.83,0 -24.22,-2.36 -34.13,-7.03 -9.9,-4.72 -17.3,-11.39 -22.16,-19.98 -4.87,-8.63 -7.32,-17.86 -7.32,-27.73zm104.87 -24.17c0,-8.03 -2.54,-14.46 -7.62,-19.3 -5.08,-4.83 -11.61,-7.27 -19.63,-7.27 -7.93,0 -14.98,2.28 -21.11,6.79 -6.13,4.51 -10.91,11.11 -14.33,19.7 -3.41,8.63 -5.13,16.58 -5.13,23.81 0,8.99 2.63,16.1 7.93,21.37 5.3,5.27 11.96,7.91 19.97,7.91 10.07,0 18.48,-4 25.32,-11.94 9.72,-11.23 14.59,-24.93 14.59,-41.07zm79.24 -48.62l35.18 0 -3.55 16.34c8.76,-7.03 17,-11.99 24.62,-14.98 7.62,-3 15.64,-4.47 24.09,-4.47 11.26,0 20.15,2.96 26.68,8.91 6.48,5.95 9.72,13.82 9.72,23.65 -0.04,4.35 -1.62,12.59 -4.73,24.69l-16.52 70.28 -36.8 0 16.74 -70.47c2.41,-10.55 3.68,-16.82 3.81,-18.9 0,-4.44 -1.4,-7.87 -4.21,-10.39 -2.85,-2.52 -6.74,-3.8 -11.74,-3.8 -5.48,0 -11.52,2.08 -18.18,6.23 -6.66,4.16 -11.87,9.67 -15.68,16.5 -2.85,4.83 -6.05,14.78 -9.64,29.76l-11.56 51.06 -36.8 0 28.56 -124.41zm131.2 124.41l39.42 -171.63 36.76 0 -39.38 171.63 -36.8 0zm112.71 -171.63l36.76 0 -6.96 30.44 -36.8 0 7 -30.44zm-10.86 47.22l36.8 0 -28.57 124.41 -36.8 0 28.56 -124.41zm73.55 0l35.18 0 -3.55 16.34c8.76,-7.03 17,-11.99 24.62,-14.98 7.63,-3 15.64,-4.47 24.09,-4.47 11.26,0 20.15,2.96 26.68,8.91 6.48,5.95 9.72,13.82 9.72,23.65 -0.04,4.35 -1.62,12.59 -4.73,24.69l-16.52 70.28 -36.8 0 16.74 -70.47c2.41,-10.55 3.68,-16.82 3.81,-18.9 0,-4.44 -1.4,-7.87 -4.21,-10.39 -2.84,-2.52 -6.74,-3.8 -11.74,-3.8 -5.48,0 -11.52,2.08 -18.18,6.23 -6.66,4.16 -11.87,9.67 -15.69,16.5 -2.85,4.83 -6.05,14.78 -9.64,29.76l-11.57 51.06 -36.8 0 28.56 -124.41zm264.24 72.63l-92.56 0c-0.09,1.31 -0.13,2.35 -0.13,3.07 0,8.35 2.63,15.06 7.84,20.18 5.22,5.11 11.61,7.67 19.1,7.67 12.35,0 21.99,-5.75 28.91,-17.26l32.86 5.04c-6.44,12.06 -15.03,21.09 -25.8,27.13 -10.78,6.03 -22.82,9.07 -36.23,9.07 -18.35,0 -33.29,-5.31 -44.76,-15.9 -11.52,-10.63 -17.26,-24.65 -17.26,-42.15 0,-17.06 5.17,-32.24 15.56,-45.59 14.1,-18.02 34.3,-27 60.5,-27 16.69,0 29.96,4.71 39.82,14.14 9.85,9.43 14.76,22.65 14.76,39.63 0,8.15 -0.88,15.46 -2.59,21.98zm-31.06 -20.38c0.09,-1.52 0.13,-2.63 0.13,-3.43 0,-9.31 -2.28,-16.3 -6.83,-20.98 -4.51,-4.67 -10.6,-6.99 -18.27,-6.99 -7.63,0 -14.46,2.64 -20.5,7.95 -6.04,5.27 -10.12,13.1 -12.26,23.45l57.74 0z"/>
 </g>
</svg>
