<?xml version="1.0" encoding="UTF-8"?>
<!DOCTYPE svg PUBLIC "-//W3C//DTD SVG 1.1//EN" "http://www.w3.org/Graphics/SVG/1.1/DTD/svg11.dtd">
<!-- Creator: CorelDRAW 2020 (64-Bit) -->
<svg xmlns="http://www.w3.org/2000/svg" xml:space="preserve" width="500px" height="250px" version="1.1" style="shape-rendering:geometricPrecision; text-rendering:geometricPrecision; image-rendering:optimizeQuality; fill-rule:evenodd; clip-rule:evenodd"
viewBox="0 0 50000 25000"
 xmlns:xlink="http://www.w3.org/1999/xlink"
 xmlns:xodm="http://www.corel.com/coreldraw/odm/2003">
 <defs>
  <style type="text/css">
   <![CDATA[
    .fil3 {fill:#009100}
    .fil0 {fill:#00BA00}
    .fil2 {fill:#00DE00}
    .fil1 {fill:lime}
    .fil4 {fill:#54FF54}
   ]]>
  </style>
 </defs>
 <g id="Layer_x0020_1">
  <metadata id="CorelCorpID_0Corel-Layer"/>
  <path class="fil0" d="M28273 18906c-564,954 -244,2197 710,2761 955,563 2234,264 2761,-711l2387 -4416c528,-976 244,-2197 -710,-2761 -955,-564 -2197,-244 -2761,711 0,0 -2387,4416 -2387,4416z"/>
  <path class="fil1" d="M20669 12821c32,-1643 1391,-2949 3033,-2916 161,3 319,18 472,46 743,-1284 1742,-2991 3171,-5410 564,-955 244,-2198 -711,-2761 -954,-564 -2206,-249 -2761,710l-10306 17907c-553,960 -244,2197 710,2760 956,564 2198,245 2761,-710 2765,-4681 3563,-6166 4371,-7604 -474,-539 -755,-1249 -740,-2022l0 0 0 0z"/>
  <path class="fil2" d="M27233 8546c-553,938 -1005,1707 -1377,2343 487,542 778,1262 762,2048 -32,1643 -1390,2949 -3032,2917 -164,-4 -324,-20 -480,-49 -364,637 -299,664 -1159,2119 -564,955 -244,2197 711,2761 954,564 2196,244 2761,-711 5257,-8901 615,-1469 5286,-9378 564,-954 244,-2197 -711,-2760 -954,-565 -2196,-245 -2761,710l0 0 0 0z"/>
  <ellipse class="fil3" cx="35827" cy="21473" rx="1938" ry="1932"/>
  <ellipse class="fil4" cx="23654" cy="12866" rx="1346" ry="1341"/>
 </g>
</svg>
