<?xml version="1.0" encoding="UTF-8"?>
<!DOCTYPE svg PUBLIC "-//W3C//DTD SVG 1.1//EN" "http://www.w3.org/Graphics/SVG/1.1/DTD/svg11.dtd">
<!-- Creator: CorelDRAW 2020 (64-Bit) -->
<svg xmlns="http://www.w3.org/2000/svg" xml:space="preserve" width="500px" height="250px" version="1.1" style="shape-rendering:geometricPrecision; text-rendering:geometricPrecision; image-rendering:optimizeQuality; fill-rule:evenodd; clip-rule:evenodd"
viewBox="0 0 50000 25000"
 xmlns:xlink="http://www.w3.org/1999/xlink"
 xmlns:xodm="http://www.corel.com/coreldraw/odm/2003">
 <defs>
  <style type="text/css">
   <![CDATA[
    .fil0 {fill:#B80000}
    .fil1 {fill:#BDBFC1}
   ]]>
  </style>
 </defs>
 <g id="Layer_x0020_1">
  <metadata id="CorelCorpID_0Corel-Layer"/>
  <path class="fil0" d="M1400 12361c0,2866 1416,4532 3414,6029 350,262 671,481 1053,716 770,471 1565,883 2418,1222 2250,894 6079,1868 8750,1872 1215,2 2429,-4 3643,-4l0 -98c-2411,0 -7493,-1319 -9635,-2562 -1586,-920 -3065,-1914 -4136,-3437 -1253,-1782 -1547,-3863 -589,-5903 941,-2005 2875,-3347 4725,-4421 593,-344 1398,-678 2103,-947 1736,-664 5673,-1615 7532,-1615l0 -98c-1181,0 -2362,3 -3543,-2 -3961,-16 -10175,1699 -13253,4550 -1057,979 -2482,2729 -2482,4698l0 0 0 0 0 0 0 0z"/>
  <path class="fil0" d="M7302 12262c0,1480 26,1987 853,3376 2428,4082 9825,6086 13996,6069 1148,-5 2297,-2 3445,-2 -133,-85 89,7 -200,-96 -645,-229 -4293,-102 -8850,-2362 -1228,-610 -2452,-1479 -3369,-2434 -208,-215 -433,-505 -623,-755 -188,-249 -413,-629 -564,-910 -1132,-2107 -636,-4644 991,-6353 273,-286 347,-454 670,-707 2155,-1692 3752,-2712 6771,-3459 1274,-315 3716,-825 4977,-825l0 -99c-2898,0 -3359,-102 -6290,300 -2718,372 -6311,1577 -8492,3212 -965,723 -1826,1485 -2462,2554 -365,613 -853,1584 -853,2491l0 0 0 0 0 0z"/>
  <path class="fil0" d="M15563 12262l590 -2065c774,17 988,486 775,1160 -211,666 -462,905 -1365,905l0 0 0 0 0 0zm-590 -1967l-978 3743c-119,434 -169,462 -532,649l2199 133c-20,-14 -55,-53 -65,-34l-260 -133c-730,-447 100,-824 128,-2096 855,0 1497,104 2139,-418 1105,-896 607,-2189 -660,-2241 -787,-32 -1665,4 -2462,4 17,15 49,11 57,40l175 121c114,85 259,70 259,232l0 0 0 0 0 0 0 0z"/>
  <path class="fil0" d="M22645 11279c629,-168 184,-735 1672,-1082l-1021 3798c-231,850 -405,517 -847,825l2458 0 -487 -212c-4,-595 46,-736 180,-1177l897 -3234c669,156 966,265 984,1082l197 0c46,-553 283,-830 295,-1377l-3738 0c-357,0 -437,722 -590,1377l0 0 0 0 0 0z"/>
  <path class="fil0" d="M20285 12951l-1181 0 1279 -1475c0,623 -98,821 -98,1475l0 0zm-3345 1869l1476 0c-172,-150 -122,-134 -394,-197 12,-509 108,-531 366,-814 626,-685 -6,-563 1897,-563 0,323 9,906 -115,1164 -114,236 -75,162 -443,343 -18,9 -52,26 -66,34 -14,6 -45,19 -65,33l2164 0c-256,-350 -630,-40 -322,-2289l125 -2728c-485,41 -610,436 -1210,1150l-2747 3253c-210,211 -537,438 -666,614l0 0 0 0 0 0 0 0z"/>
  <path class="fil1" d="M45956 11967c0,-339 -584,-887 -1560,408l-309 379c92,-396 258,-731 296,-1180 -660,0 -994,40 -1181,295 386,9 231,-27 492,98 -224,959 -570,1920 -787,2853l590 0c348,-724 445,-1896 1457,-2697 684,-542 213,683 117,1025 -117,415 -333,1340 -492,1672l590 0c384,-800 424,-1480 1300,-2439 1148,-1258 397,713 274,1160 -161,581 -335,783 -197,1377 627,0 1014,-263 1180,-885 -644,172 55,221 -590,393 33,-393 197,-710 308,-1069 78,-254 657,-1783 -13,-1783 -905,0 -1183,814 -1672,1377 74,-318 197,-610 197,-984l0 0 0 0 0 0 0 0z"/>
  <path class="fil1" d="M30415 10393c0,204 -869,3836 -1259,4151l-447 242c-14,6 -44,20 -64,34l1574 0 -489 -300c13,-796 817,-2758 882,-3536 255,186 330,576 464,913 152,382 279,699 421,1053l611 1554c121,298 42,326 373,414l1120 -4092c181,-648 264,-626 654,-823l-1381 -101 492 295c-17,763 -770,2508 -787,3246l-197 0c-143,-617 -1211,-2830 -1376,-3541l-1279 0 377 213c64,36 311,112 311,278l0 0 0 0 0 0 0 0z"/>
  <path class="fil1" d="M34645 14229c0,-763 81,-1423 614,-2041 987,-1146 1945,296 670,2047 -552,758 -1284,432 -1284,-6l0 0 0 0zm-689 -491c0,2125 3246,1167 3246,-984 0,-2129 -3246,-1142 -3246,984z"/>
  <path class="fil1" d="M37694 11771c192,475 447,29 745,533 592,1004 -58,1488 -549,2220 -1022,-541 -943,394 -491,394 841,0 898,-892 1475,-1279 0,2036 1399,1220 1476,295 -432,157 16,-44 -323,267 -259,237 -51,141 -366,225 -58,-121 -336,-1126 -362,-1322 -64,-498 343,-716 559,-1038 1208,281 832,-492 492,-492 -359,0 -531,155 -717,365 -138,156 -97,124 -209,283l-255 335c-98,-421 -216,-647 -393,-983 -345,0 -860,90 -1082,197l0 0 0 0 0 0 0 0z"/>
  <path class="fil1" d="M41137 11771c184,116 312,98 590,98 -11,486 -193,920 -333,1339 -512,1525 -527,1710 136,1710 151,0 432,-226 550,-336 174,-161 273,-316 335,-549 -382,102 -367,276 -688,491 17,-779 725,-2209 786,-2950 -400,0 -1037,118 -1376,197l0 0 0 0 0 0z"/>
  <path class="fil1" d="M26580 13443l1868 0c84,-174 114,-318 197,-492 -1826,0 -2005,-218 -2065,492l0 0z"/>
  <path class="fil1" d="M41918 10588l202 297c956,0 951,-688 0,-688l-202 391 0 0z"/>
 </g>
</svg>
