<?xml version="1.0" encoding="UTF-8"?>
<!DOCTYPE svg PUBLIC "-//W3C//DTD SVG 1.1//EN" "http://www.w3.org/Graphics/SVG/1.1/DTD/svg11.dtd">
<!-- Creator: CorelDRAW 2020 (64-Bit) -->
<svg xmlns="http://www.w3.org/2000/svg" xml:space="preserve" width="2550px" height="3300px" version="1.1" style="shape-rendering:geometricPrecision; text-rendering:geometricPrecision; image-rendering:optimizeQuality; fill-rule:evenodd; clip-rule:evenodd"
viewBox="0 0 255000 330000"
 xmlns:xlink="http://www.w3.org/1999/xlink"
 xmlns:xodm="http://www.corel.com/coreldraw/odm/2003">
 <defs>
  <style type="text/css">
   <![CDATA[
    .fil0 {fill:#B80000}
    .fil1 {fill:#BDBFC1}
   ]]>
  </style>
 </defs>
 <g id="Layer_x0020_1">
  <metadata id="CorelCorpID_0Corel-Layer"/>
  <path class="fil0" d="M25601 153925c0,12729 6289,20128 15159,26773 1555,1164 2982,2139 4680,3179 3416,2095 6946,3923 10735,5428 9991,3968 26994,8295 38856,8311 5392,9 10785,-15 16176,-15l0 -437c-10708,0 -33275,-5855 -42783,-11375 -7046,-4087 -13612,-8501 -18367,-15263 -5564,-7915 -6872,-17153 -2619,-26211 4183,-8906 12770,-14865 20986,-19634 2631,-1527 6207,-3008 9335,-4204 7709,-2949 25191,-7172 33448,-7172l0 -436c-5244,0 -10489,13 -15734,-10 -17590,-70 -45183,7545 -58849,20205 -4693,4350 -11023,12119 -11023,20862l0 0 0 0 0 -1z"/>
  <path class="fil0" d="M51808 153488c0,6573 116,8822 3788,14993 10784,18125 43628,27023 62152,26948 5099,-21 10198,-11 15297,-11 -589,-374 396,33 -886,-424 -2867,-1017 -19063,-455 -39299,-10491 -5454,-2705 -10888,-6565 -14964,-10805 -920,-955 -1921,-2244 -2762,-3353 -838,-1109 -1837,-2792 -2508,-4044 -5025,-9355 -2825,-20619 4404,-28208 1209,-1270 1540,-2017 2974,-3141 9569,-7514 16661,-12041 30064,-15358 5657,-1400 16505,-3666 22105,-3666l0 -437c-12873,0 -14917,-453 -27935,1330 -12068,1652 -28022,7006 -37709,14264 -4283,3209 -8106,6592 -10933,11341 -1618,2721 -3788,7035 -3788,11062l0 0 0 0z"/>
  <path class="fil0" d="M88495 153488l2620 -9172c3434,77 4385,2158 3440,5154 -935,2956 -2051,4018 -6060,4018l0 0 0 0 0 0zm-2620 -8735l-4346 16619c-527,1928 -749,2055 -2359,2882l9762 591c-89,-62 -241,-236 -286,-150l-1156 -591c-3242,-1985 442,-3656 568,-9305 3798,0 6646,458 9500,-1857 4906,-3979 2693,-9723 -2932,-9951 -3496,-142 -7392,15 -10934,15 78,68 218,51 254,181l776 535c508,380 1153,312 1153,1031l0 0 0 0 0 0z"/>
  <path class="fil0" d="M119943 149122c2791,-745 814,-3264 7425,-4806l-4538 16865c-1024,3775 -1796,2298 -3761,3664l10918 0 -2162 -939c-20,-2643 205,-3270 799,-5229l3984 -14361c2967,693 4287,1180 4368,4806l874 0c205,-2456 1256,-3687 1310,-6116l-16598 0c-1585,0 -1942,3209 -2621,6116l1 0 1 0z"/>
  <path class="fil0" d="M109460 156545l-5242 0 5679 -6550c0,2770 -437,3648 -437,6550l0 0zm-14850 8300l6552 0c-763,-664 -542,-593 -1748,-874 50,-2261 477,-2356 1626,-3616 2779,-3042 -30,-2499 8420,-2499 0,1434 44,4026 -509,5168 -507,1048 -334,719 -1968,1526 -77,40 -229,116 -292,148 -62,30 -201,85 -290,147l9610 0c-1135,-1551 -2798,-178 -1428,-10165l554 -12110c-2156,181 -2707,1935 -5375,5106l-12198 14446c-933,933 -2384,1944 -2954,2723l0 0 0 0 0 0z"/>
  <path class="fil1" d="M223455 152178c0,-1505 -2594,-3941 -6925,1812l-1373 1681c409,-1756 1145,-3246 1311,-5239 -2929,0 -4411,176 -5243,1310 1717,39 1026,-118 2184,436 -991,4260 -2528,8526 -3494,12667l2620 0c1544,-3214 1975,-8418 6471,-11976 3036,-2404 947,3034 519,4552 -521,1842 -1477,5950 -2184,7424l2620 0c1703,-3549 1882,-6569 5774,-10831 5094,-5585 1761,3169 1213,5152 -715,2581 -1487,3478 -873,6115 2783,0 4504,-1167 5241,-3930 -2861,764 242,983 -2620,1746 145,-1746 875,-3154 1365,-4748 348,-1125 2919,-7917 -54,-7917 -4021,0 -5254,3616 -7425,6113 328,-1411 873,-2707 873,-4367l0 0 0 0 0 0z"/>
  <path class="fil1" d="M154445 145189c0,906 -3860,17034 -5589,18433l-1987 1072c-61,30 -196,89 -285,151l6989 0 -2171 -1332c58,-3532 3629,-12244 3918,-15702 1130,828 1465,2561 2058,4056 675,1696 1242,3105 1873,4678l2712 6898c538,1323 186,1446 1656,1838l4974 -18172c801,-2877 1173,-2778 2902,-3652l-6129 -451 2183 1310c-76,3391 -3420,11137 -3494,14415l-874 0c-637,-2740 -5379,-12567 -6114,-15725l-5678 0 1676 946c284,163 1380,501 1380,1237l0 0 0 0 0 0z"/>
  <path class="fil1" d="M173227 162224c0,-3392 362,-6323 2727,-9067 4382,-5086 8638,1318 2977,9093 -2451,3365 -5704,1918 -5704,-26l0 0 0 0zm-3057 -2184c0,9436 14412,5185 14412,-4369 0,-9452 -14412,-5068 -14412,4369z"/>
  <path class="fil1" d="M186767 151305c852,2110 1987,129 3309,2368 2629,4458 -257,6607 -2436,9861 -4541,-2402 -4190,1747 -2183,1747 3736,0 3989,-3962 6551,-5677 0,9041 6210,5418 6552,1310 -1918,695 74,-199 -1435,1185 -1146,1052 -224,625 -1624,998 -257,-539 -1492,-4999 -1606,-5870 -286,-2212 1524,-3181 2480,-4611 5368,1249 3698,-2184 2185,-2184 -1592,0 -2358,687 -3182,1622 -613,691 -430,548 -928,1255l-1132 1490c-435,-1871 -958,-2875 -1746,-4367 -1531,0 -3819,400 -4805,874l0 0 0 -1 0 0z"/>
  <path class="fil1" d="M202054 151305c818,519 1386,437 2620,437 -47,2159 -853,4085 -1478,5946 -2272,6770 -2338,7593 605,7593 672,0 1919,-1005 2442,-1490 772,-715 1213,-1405 1489,-2440 -1698,452 -1629,1226 -3058,2183 77,-3463 3220,-9812 3494,-13102 -1780,0 -4606,523 -6114,873l0 0 0 0z"/>
  <path class="fil1" d="M137413 158731l8299 0c370,-771 503,-1413 872,-2186 -8109,0 -8903,-968 -9171,2186z"/>
  <path class="fil1" d="M205523 146052l899 1322c4244,0 4223,-3058 0,-3058l-899 1736 0 0z"/>
 </g>
</svg>
