<?xml version="1.0" encoding="UTF-8"?>
<!DOCTYPE svg PUBLIC "-//W3C//DTD SVG 1.1//EN" "http://www.w3.org/Graphics/SVG/1.1/DTD/svg11.dtd">
<!-- Creator: CorelDRAW 2020 (64-Bit) -->
<svg xmlns="http://www.w3.org/2000/svg" xml:space="preserve" width="1500px" height="500px" version="1.1" style="shape-rendering:geometricPrecision; text-rendering:geometricPrecision; image-rendering:optimizeQuality; fill-rule:evenodd; clip-rule:evenodd"
viewBox="0 0 150000 50000"
 xmlns:xlink="http://www.w3.org/1999/xlink"
 xmlns:xodm="http://www.corel.com/coreldraw/odm/2003">
 <defs>
  <style type="text/css">
   <![CDATA[
    .fil4 {fill:#FF908C}
    .fil5 {fill:#60B590;fill-rule:nonzero}
    .fil6 {fill:#F48480;fill-rule:nonzero}
    .fil0 {fill:url(#id0)}
    .fil1 {fill:url(#id1)}
    .fil3 {fill:url(#id2)}
    .fil2 {fill:url(#id3)}
   ]]>
  </style>
  <linearGradient id="id0" gradientUnits="userSpaceOnUse" x1="22516" y1="21741" x2="22516" y2="36806">
   <stop offset="0" style="stop-opacity:1; stop-color:#FF908C"/>
   <stop offset="0.478431" style="stop-opacity:1; stop-color:#F68682"/>
   <stop offset="0.639216" style="stop-opacity:1; stop-color:#ED7C78"/>
   <stop offset="1" style="stop-opacity:1; stop-color:#D15E5A"/>
  </linearGradient>
  <linearGradient id="id1" gradientUnits="userSpaceOnUse" xlink:href="#id0" x1="38855" y1="21741" x2="38855" y2="36806">
  </linearGradient>
  <linearGradient id="id2" gradientUnits="userSpaceOnUse" x1="37345" y1="30051" x2="50638" y2="41014">
   <stop offset="0" style="stop-opacity:1; stop-color:#A4DBC3"/>
   <stop offset="1" style="stop-opacity:1; stop-color:#60B590"/>
  </linearGradient>
  <linearGradient id="id3" gradientUnits="userSpaceOnUse" xlink:href="#id2" x1="10782" y1="30051" x2="24076" y2="41014">
  </linearGradient>
 </defs>
 <g id="Layer_x0020_1">
  <metadata id="CorelCorpID_0Corel-Layer"/>
  <path class="fil0" d="M29251 36728c20,-4163 -1566,-6881 -3946,-8968 -2657,-2330 -5859,-4542 -9524,-6019 955,9340 3588,15856 13470,14987z"/>
  <path class="fil1" d="M32120 36728c-19,-4163 1567,-6881 3947,-8968 2657,-2330 5859,-4542 9524,-6019 -956,9340 -3588,15856 -13471,14987z"/>
  <path class="fil2" d="M27338 37607c-5711,143 -8756,-2448 -10444,-6702 -3366,-62 -6931,595 -9958,610 11910,1045 8221,11590 20986,7849 -174,-630 -369,-1214 -584,-1757z"/>
  <path class="fil3" d="M34083 37607c5710,143 8756,-2448 10443,-6702 3367,-62 6931,595 9959,610 -11911,1045 -8222,11590 -20987,7849 175,-630 370,-1214 585,-1757z"/>
  <path class="fil4" d="M39430 23973c-4153,2764 -4645,3350 -8588,6440 -3441,-3589 -7398,-5314 -11823,-9113 -6610,-7007 -1336,-14629 7281,-13748 -3589,632 -7959,4226 -6886,9859 898,4709 8860,7488 14441,5408 2730,-1017 6381,-4347 5029,-7903 -3121,-8209 -14870,-3232 -14423,1127 349,3403 9132,5786 10058,-79 -262,11 -1383,777 -1734,950 -5169,2545 -7751,-2833 -2094,-4115 1315,-298 2785,-225 3894,451 2295,1398 2834,3914 223,6531 -2319,2325 -6057,2299 -9809,673 -4293,-1860 -4755,-6397 -1754,-9522 4128,-4299 16419,-4968 19786,896 1953,3404 2150,8535 -3601,12145z"/>
  <path class="fil5" d="M72245 28644c-1021,74 -2047,288 -3085,643 -260,85 -423,130 -474,130 -90,-11 -158,-28 -197,-56 -46,-28 -74,-62 -85,-107 0,-102 68,-198 209,-299 135,-96 259,-147 366,-147 34,0 136,-28 299,-84 1033,-362 2127,-604 3283,-728 1224,-2600 2612,-4761 4174,-6492 1557,-1732 3238,-2990 5031,-3768 -615,-344 -1303,-598 -2064,-762 -762,-163 -1613,-248 -2561,-248 -1619,0 -3283,243 -4980,728 -1704,485 -3238,1156 -4603,2014 -1354,840 -2397,1737 -3131,2696 -733,958 -1099,1912 -1099,2859 0,705 203,1258 609,1659 412,400 970,603 1686,603 1123,0 2330,-547 3616,-1636 1291,-1088 2307,-2459 3057,-4111 231,-519 417,-1089 553,-1710 135,-626 254,-936 355,-936 141,0 243,85 293,254 57,175 85,626 85,1365 0,2273 -654,4112 -1957,5528 -1303,1415 -2973,2126 -5009,2126 -1156,0 -2076,-276 -2764,-835 -688,-558 -1032,-1303 -1032,-2239 0,-880 282,-1782 852,-2707 564,-925 1359,-1777 2369,-2550 1534,-1167 3254,-2064 5172,-2702 1912,-631 3892,-947 5928,-947 1038,0 1963,96 2786,287 818,192 1636,502 2454,931 615,-243 1185,-423 1715,-553 524,-124 942,-191 1252,-191 73,0 141,22 197,62 51,33 79,73 79,107 0,107 -299,214 -896,321 -598,102 -1202,288 -1805,553 801,429 1427,998 1872,1703 446,706 666,1473 666,2296 0,1585 -846,2984 -2544,4197 -1698,1212 -3881,1946 -6560,2199 -998,2945 -2578,5257 -4727,6944 -2154,1686 -4580,2532 -7276,2532 -1557,0 -2803,-338 -3745,-1015 -942,-682 -1410,-1574 -1410,-2674 0,-862 276,-1579 823,-2149 553,-575 1224,-862 2014,-862 564,0 1010,157 1337,468 333,316 496,733 496,1246 0,446 -130,784 -389,1016 -260,236 -711,417 -1348,541l-34 17c-874,186 -1309,496 -1309,936 0,463 328,903 982,1314 660,412 1421,621 2290,621 1590,0 3034,-666 4343,-1997 1303,-1331 2583,-3463 3841,-6391zm4377 -1122c1754,-197 3255,-1015 4501,-2454 1247,-1438 1867,-3034 1867,-4788 0,-519 -67,-953 -208,-1315 -136,-355 -350,-671 -638,-947 -970,429 -1872,1359 -2719,2798 -840,1438 -1776,3677 -2803,6706z"/>
  <path class="fil6" d="M85708 25061c0,-390 170,-740 505,-1055 340,-315 720,-470 1140,-470 365,0 655,110 875,325 220,215 330,495 330,850 0,420 -155,785 -470,1095 -315,305 -685,460 -1115,460 -405,0 -715,-105 -935,-315 -220,-210 -330,-505 -330,-890zm-2735 5230l-890 865c-135,125 -310,300 -525,515 -420,420 -675,630 -765,630 -85,0 -155,-15 -205,-39 -45,-26 -70,-60 -70,-111 0,-114 185,-335 555,-660 265,-240 480,-440 645,-600l965 -965c30,-30 85,-85 160,-160 555,-560 1000,-1040 1330,-1449l3125 -221 -3035 5550c-460,840 -810,1511 -1045,2010 -240,495 -360,810 -360,935 0,81 25,145 75,190 45,50 110,75 190,75 270,0 755,-274 1440,-829 690,-551 1555,-1356 2590,-2411 1790,-1815 3015,-2995 3670,-3535 655,-545 1125,-815 1420,-815 20,0 90,15 220,45 45,11 85,15 115,15 -770,410 -2015,1526 -3730,3341 -570,594 -1005,1054 -1320,1374 -1325,1360 -2355,2286 -3095,2770 -735,491 -1420,735 -2055,735 -565,0 -1005,-169 -1325,-505 -315,-339 -475,-810 -475,-1415 0,-790 640,-2290 1915,-4500 215,-360 375,-640 480,-835zm11100 2301c1320,-1526 2465,-2655 3430,-3390 970,-735 1785,-1106 2450,-1106 585,0 1040,210 1370,635 325,426 490,1015 490,1765 0,560 -145,1140 -440,1751 -295,609 -885,1485 -1775,2629 -115,146 -260,326 -440,540 -410,500 -615,840 -615,1025 0,81 30,145 90,190 55,50 135,75 235,75 240,0 665,-220 1265,-664 600,-446 1320,-1076 2165,-1886l570 -555c2965,-2890 4690,-4335 5180,-4335 30,0 100,15 220,45 45,11 85,15 115,15 -730,380 -2225,1710 -4480,3986l-380 394 -160 161c-2400,2434 -4110,3649 -5125,3649 -555,0 -1015,-225 -1375,-675 -360,-450 -540,-1035 -540,-1755 0,-529 125,-1060 370,-1600 250,-534 735,-1254 1455,-2154 225,-261 515,-606 865,-1026 605,-699 910,-1115 910,-1239 0,-90 -20,-156 -65,-201 -45,-45 -120,-69 -230,-80 -750,0 -1875,765 -3375,2300 -1500,1530 -3155,3615 -4970,6250l-3960 210 2345 -3445c755,-1104 1300,-1944 1640,-2529 345,-585 515,-975 515,-1161 0,-95 -15,-170 -50,-215 -35,-49 -85,-79 -155,-90 -175,0 -540,275 -1100,825 -555,551 -925,825 -1100,825 -35,0 -70,-10 -100,-30 -30,-19 -45,-40 -45,-60 0,-94 45,-210 140,-340 90,-135 245,-305 460,-519 880,-930 1600,-1605 2165,-2036 565,-430 1025,-645 1375,-645 360,0 655,176 885,525 230,356 345,815 345,1395 0,401 -50,810 -145,1235 -100,426 -240,861 -425,1311zm17360 -896c550,60 980,260 1300,611 315,345 475,780 475,1309 0,585 -145,1226 -440,1920 -85,195 -130,315 -130,365 0,51 20,90 65,126 45,34 105,49 185,49 155,0 725,-510 1710,-1525 510,-519 910,-930 1215,-1235 1510,-1500 2635,-2550 3375,-3150 735,-600 1250,-900 1545,-900 30,0 100,15 220,45 45,11 85,15 115,15 -510,281 -1125,755 -1845,1415 -725,655 -1750,1695 -3075,3111 -140,159 -340,375 -605,645 -1885,2034 -3325,3049 -4320,3049 -430,0 -775,-139 -1040,-424 -265,-285 -395,-660 -395,-1131 0,-549 240,-1245 720,-2094 480,-846 720,-1361 720,-1545 0,-90 -35,-161 -105,-216 -65,-54 -155,-80 -260,-80 -130,0 -330,35 -610,105 -280,65 -490,101 -625,101 -90,0 -165,-30 -230,-96 -60,-65 -95,-144 -95,-240 0,-215 270,-339 810,-380 535,-40 900,-124 1095,-265 275,-185 720,-755 1330,-1715 610,-960 1270,-1440 1985,-1440 480,0 875,146 1185,431 315,289 470,645 470,1074 0,360 -115,655 -345,880 -230,230 -525,345 -885,345 -330,0 -605,-105 -820,-315 -215,-210 -320,-475 -320,-799 0,-156 30,-300 90,-431 55,-130 150,-244 275,-345 -30,-30 -60,-49 -95,-55 -35,-5 -95,-5 -185,-5 -195,0 -530,395 -1010,1190 -475,790 -960,1326 -1450,1600zm-4380 -1440c-285,275 -640,630 -1070,1070 -685,700 -1095,1056 -1245,1056 -65,0 -125,-26 -165,-71 -45,-40 -70,-100 -70,-165 0,-100 220,-364 660,-805 255,-255 465,-470 630,-645l745 -774c325,-321 605,-641 850,-956 245,-319 405,-550 485,-694l4525 -8221 2815 -295 -9200 17580 -2915 210 3955 -7290zm15390 -5195c0,-390 170,-740 505,-1055 340,-315 720,-470 1140,-470 365,0 655,110 875,325 220,215 330,495 330,850 0,420 -155,785 -470,1095 -315,305 -685,460 -1115,460 -405,0 -715,-105 -935,-315 -220,-210 -330,-505 -330,-890zm-2735 5230l-890 865c-135,125 -310,300 -525,515 -420,420 -675,630 -765,630 -85,0 -155,-15 -205,-39 -45,-26 -70,-60 -70,-111 0,-114 185,-335 555,-660 265,-240 480,-440 645,-600l965 -965c30,-30 85,-85 160,-160 555,-560 1000,-1040 1330,-1449l3125 -221 -3035 5550c-460,840 -810,1511 -1045,2010 -240,495 -360,810 -360,935 0,81 25,145 75,190 45,50 110,75 190,75 270,0 755,-274 1440,-829 690,-551 1555,-1356 2590,-2411 1790,-1815 3015,-2995 3670,-3535 655,-545 1125,-815 1420,-815 20,0 90,15 220,45 45,11 85,15 115,15 -770,410 -2015,1526 -3730,3341 -570,594 -1005,1054 -1320,1374 -1325,1360 -2355,2286 -3095,2770 -735,491 -1420,735 -2055,735 -565,0 -1005,-169 -1325,-505 -315,-339 -475,-810 -475,-1415 0,-790 640,-2290 1915,-4500 215,-360 375,-640 480,-835zm8280 3955c-225,635 -380,1110 -470,1415 -85,310 -130,546 -130,715 0,206 75,350 220,440 145,85 375,130 690,130 770,0 1585,-225 2445,-679 855,-456 2070,-1365 3630,-2736 520,-450 1200,-1059 2050,-1830 1780,-1625 2870,-2435 3270,-2435 20,0 65,5 135,20 65,15 120,30 160,40 -645,350 -1630,1175 -2960,2475 -665,665 -1185,1175 -1565,1526 -1915,1740 -3365,2874 -4355,3414 -985,535 -1950,805 -2900,805 -1005,0 -1815,-285 -2425,-855 -610,-574 -915,-1320 -915,-2235 0,-775 230,-1530 690,-2265 455,-739 1150,-1465 2080,-2175 790,-604 1585,-1075 2390,-1414 810,-336 1535,-506 2190,-506 595,0 1065,170 1405,506 345,334 515,799 515,1384 0,935 -570,1805 -1715,2606 -1140,799 -2620,1350 -4435,1654zm175 -480c1230,-184 2325,-724 3280,-1609 955,-891 1435,-1751 1435,-2580 0,-236 -65,-435 -200,-600 -130,-165 -285,-251 -460,-251 -495,0 -1160,485 -1985,1460 -820,970 -1515,2166 -2070,3580z"/>
 </g>
</svg>
