<?xml version="1.0" encoding="UTF-8"?>
<!DOCTYPE svg PUBLIC "-//W3C//DTD SVG 1.1//EN" "http://www.w3.org/Graphics/SVG/1.1/DTD/svg11.dtd">
<!-- Creator: CorelDRAW 2020 (64-Bit) -->
<svg xmlns="http://www.w3.org/2000/svg" xml:space="preserve" width="500px" height="250px" version="1.1" style="shape-rendering:geometricPrecision; text-rendering:geometricPrecision; image-rendering:optimizeQuality; fill-rule:evenodd; clip-rule:evenodd"
viewBox="0 0 50000 25000"
 xmlns:xlink="http://www.w3.org/1999/xlink"
 xmlns:xodm="http://www.corel.com/coreldraw/odm/2003">
 <defs>
  <style type="text/css">
   <![CDATA[
    .fil4 {fill:#FF908C}
    .fil5 {fill:#60B590;fill-rule:nonzero}
    .fil6 {fill:#F48480;fill-rule:nonzero}
    .fil2 {fill:url(#id0)}
    .fil3 {fill:url(#id1)}
    .fil0 {fill:url(#id2)}
    .fil1 {fill:url(#id3)}
   ]]>
  </style>
  <linearGradient id="id0" gradientUnits="userSpaceOnUse" x1="2140" y1="14454" x2="7056" y2="17516">
   <stop offset="0" style="stop-opacity:1; stop-color:#A4DBC3"/>
   <stop offset="1" style="stop-opacity:1; stop-color:#60B590"/>
  </linearGradient>
  <linearGradient id="id1" gradientUnits="userSpaceOnUse" xlink:href="#id0" x1="11963" y1="14454" x2="16879" y2="17516">
  </linearGradient>
  <linearGradient id="id2" gradientUnits="userSpaceOnUse" x1="6476" y1="11288" x2="6476" y2="16580">
   <stop offset="0" style="stop-opacity:1; stop-color:#FF908C"/>
   <stop offset="0.478431" style="stop-opacity:1; stop-color:#F68682"/>
   <stop offset="0.639216" style="stop-opacity:1; stop-color:#ED7C78"/>
   <stop offset="1" style="stop-opacity:1; stop-color:#D15E5A"/>
  </linearGradient>
  <linearGradient id="id3" gradientUnits="userSpaceOnUse" xlink:href="#id2" x1="12525" y1="11288" x2="12525" y2="16580">
  </linearGradient>
 </defs>
 <g id="Layer_x0020_1">
  <metadata id="CorelCorpID_0Corel-Layer"/>
  <path class="fil0" d="M8970 16830c7,-1540 -579,-2545 -1459,-3317 -983,-861 -2167,-1679 -3522,-2225 353,3454 1327,5863 4981,5542z"/>
  <path class="fil1" d="M10031 16830c-7,-1540 579,-2545 1460,-3317 982,-861 2166,-1679 3521,-2225 -353,3454 -1326,5863 -4981,5542z"/>
  <path class="fil2" d="M8263 17155c-2112,53 -3238,-906 -3862,-2479 -1245,-22 -2563,220 -3683,226 4404,386 3040,4286 7761,2902 -65,-233 -137,-448 -216,-649z"/>
  <path class="fil3" d="M10757 17155c2111,53 3238,-906 3862,-2479 1245,-22 2563,220 3682,226 -4404,386 -3040,4286 -7760,2902 64,-233 136,-448 216,-649z"/>
  <path class="fil4" d="M12734 12113c-1536,1022 -1718,1239 -3176,2381 -1272,-1327 -2735,-1965 -4372,-3369 -2444,-2592 -494,-5410 2693,-5084 -1327,234 -2943,1562 -2547,3645 332,1742 3277,2769 5340,2000 1010,-376 2360,-1607 1860,-2922 -1154,-3036 -5499,-1195 -5333,417 129,1258 3377,2139 3719,-30 -97,4 -511,288 -641,352 -1912,941 -2866,-1048 -775,-1522 487,-110 1030,-83 1440,167 849,517 1048,1447 83,2415 -858,860 -2240,850 -3627,249 -1588,-688 -1759,-2366 -649,-3521 1527,-1590 6072,-1837 7317,331 722,1259 795,3156 -1332,4491l0 0z"/>
  <path class="fil5" d="M24869 13840c-378,28 -757,107 -1141,238 -96,31 -157,48 -175,48 -34,-4 -59,-10 -73,-21 -17,-10 -28,-22 -32,-39 0,-38 25,-73 78,-111 49,-35 95,-54 135,-54 12,0 50,-10 111,-31 382,-134 786,-224 1213,-269 453,-962 966,-1761 1544,-2401 576,-640 1197,-1106 1860,-1393 -227,-128 -481,-221 -763,-282 -282,-60 -596,-92 -947,-92 -599,0 -1214,90 -1841,269 -631,180 -1198,428 -1703,745 -500,311 -886,642 -1157,997 -271,354 -407,707 -407,1057 0,261 75,466 225,614 153,148 359,223 624,223 415,0 861,-203 1337,-605 477,-403 853,-910 1130,-1520 86,-192 155,-403 205,-633 50,-231 94,-346 131,-346 52,0 90,32 109,94 21,65 31,232 31,505 0,840 -242,1520 -724,2044 -481,523 -1099,786 -1852,786 -427,0 -768,-102 -1022,-309 -254,-206 -382,-481 -382,-828 0,-325 105,-658 315,-1001 209,-342 503,-657 876,-943 568,-431 1204,-763 1913,-999 707,-233 1439,-350 2192,-350 384,0 726,36 1030,106 303,71 605,186 908,345 227,-90 438,-157 634,-205 194,-46 348,-71 463,-71 27,0 52,8 73,23 19,13 29,27 29,40 0,40 -111,79 -331,119 -221,37 -445,106 -668,204 296,159 528,369 692,630 165,261 247,545 247,849 0,586 -313,1103 -941,1552 -628,448 -1435,719 -2426,813 -369,1089 -953,1944 -1748,2568 -796,623 -1693,936 -2690,936 -576,0 -1037,-125 -1385,-375 -349,-252 -522,-582 -522,-989 0,-319 102,-584 305,-795 204,-212 452,-319 744,-319 209,0 374,59 495,174 123,116 183,271 183,460 0,165 -48,290 -144,376 -96,87 -262,154 -498,200l-13 6c-323,69 -484,184 -484,347 0,171 122,333 363,485 244,153 526,230 847,230 588,0 1122,-246 1606,-738 482,-493 955,-1281 1421,-2364l0 0zm1618 -415c649,-72 1204,-375 1665,-907 461,-532 690,-1122 690,-1771 0,-192 -25,-352 -77,-486 -50,-131 -129,-248 -236,-350 -359,159 -692,502 -1005,1035 -311,531 -657,1359 -1037,2479l0 0z"/>
  <path class="fil6" d="M29847 12515c0,-144 63,-273 187,-390 126,-116 266,-174 421,-174 135,0 243,41 324,121 81,79 122,183 122,314 0,155 -57,290 -174,405 -116,113 -253,170 -412,170 -150,0 -265,-39 -346,-116 -81,-78 -122,-187 -122,-330l0 0zm-1011 1934l-329 320c-50,46 -115,111 -195,191 -155,155 -249,233 -282,233 -32,0 -58,-6 -76,-15 -17,-9 -26,-22 -26,-41 0,-42 68,-124 205,-244 98,-89 178,-163 239,-222l356 -357c11,-11 32,-31 60,-59 205,-207 369,-384 491,-536l1156 -81 -1122 2052c-170,311 -300,559 -387,743 -88,183 -133,300 -133,346 0,30 9,54 28,70 17,19 41,28 70,28 100,0 279,-101 533,-307 255,-203 575,-501 957,-891 662,-671 1115,-1108 1358,-1307 242,-202 416,-302 525,-302 7,0 33,6 81,17 17,4 31,5 42,5 -284,152 -745,565 -1379,1236 -211,220 -371,390 -488,508 -490,503 -871,845 -1144,1024 -272,182 -525,272 -760,272 -209,0 -372,-62 -490,-187 -117,-125 -176,-299 -176,-523 0,-292 237,-847 708,-1664 80,-133 139,-237 178,-309l0 0zm4104 851c488,-564 912,-982 1269,-1253 358,-272 660,-409 906,-409 216,0 384,77 506,234 120,158 182,376 182,653 0,207 -54,422 -163,648 -109,225 -328,549 -657,972 -42,54 -96,120 -162,200 -152,184 -228,310 -228,379 0,30 11,53 34,70 20,18 49,28 86,28 89,0 246,-82 468,-246 222,-165 488,-398 801,-697l211 -206c1096,-1068 1734,-1603 1915,-1603 11,0 37,6 81,17 17,4 32,5 43,5 -270,141 -823,633 -1657,1475l-140 145 -59 60c-888,900 -1520,1349 -1895,1349 -206,0 -376,-83 -509,-249 -133,-167 -200,-383 -200,-650 0,-195 47,-392 137,-591 93,-198 272,-464 538,-797 83,-96 191,-224 320,-379 224,-259 337,-412 337,-458 0,-33 -8,-58 -24,-75 -17,-16 -45,-25 -85,-29 -278,0 -694,283 -1249,850 -554,566 -1166,1337 -1837,2312l-1465 77 867 -1274c280,-408 481,-719 607,-935 127,-216 190,-360 190,-429 0,-35 -5,-63 -18,-80 -13,-18 -32,-29 -57,-33 -65,0 -200,102 -407,305 -206,204 -342,305 -407,305 -13,0 -26,-4 -37,-11 -11,-7 -17,-15 -17,-22 0,-35 17,-78 52,-126 33,-50 91,-113 170,-192 326,-344 592,-593 801,-753 209,-159 379,-238 508,-238 133,0 242,65 328,194 85,132 127,301 127,516 0,148 -18,299 -53,456 -37,158 -89,319 -158,485l0 0zm6420 -331c203,22 362,96 481,226 116,127 175,288 175,484 0,216 -53,453 -163,710 -31,72 -48,116 -48,135 0,19 8,33 24,46 17,13 39,19 69,19 57,0 268,-189 632,-564 189,-192 337,-344 450,-457 558,-555 974,-943 1247,-1165 272,-222 463,-333 572,-333 11,0 37,6 81,17 17,4 32,5 43,5 -189,104 -416,280 -683,524 -268,242 -647,627 -1137,1150 -51,59 -125,139 -223,239 -697,752 -1230,1127 -1598,1127 -159,0 -286,-51 -384,-157 -98,-105 -146,-244 -146,-418 0,-203 88,-460 266,-774 177,-313 266,-504 266,-572 0,-33 -13,-59 -39,-79 -24,-20 -57,-30 -96,-30 -48,0 -122,13 -226,39 -103,24 -181,37 -231,37 -33,0 -61,-11 -85,-35 -22,-24 -35,-54 -35,-89 0,-80 100,-125 300,-141 198,-14 333,-45 405,-98 101,-68 266,-279 491,-634 226,-355 470,-532 734,-532 178,0 324,54 439,159 116,107 174,239 174,397 0,133 -43,243 -128,326 -85,85 -194,127 -327,127 -122,0 -224,-39 -304,-116 -79,-78 -118,-176 -118,-296 0,-57 11,-111 33,-159 21,-48 56,-90 102,-128 -11,-11 -22,-18 -35,-20 -13,-2 -35,-2 -69,-2 -72,0 -195,146 -373,440 -176,292 -355,491 -536,592l0 0zm-1620 -533c-105,102 -236,233 -395,396 -254,259 -405,391 -461,391 -24,0 -46,-10 -61,-27 -17,-15 -26,-37 -26,-61 0,-37 82,-134 244,-297 95,-95 172,-174 233,-239l276 -286c120,-119 223,-237 314,-354 91,-118 150,-203 179,-256l1674 -3040 1041 -109 -3402 6500 -1078 78 1462 -2696 0 0zm5691 -1921c0,-144 63,-273 187,-390 126,-116 266,-174 422,-174 134,0 242,41 323,121 81,79 122,183 122,314 0,155 -57,290 -174,405 -116,113 -253,170 -412,170 -150,0 -264,-39 -346,-116 -81,-78 -122,-187 -122,-330l0 0zm-1011 1934l-329 320c-50,46 -115,111 -194,191 -156,155 -250,233 -283,233 -32,0 -58,-6 -76,-15 -17,-9 -26,-22 -26,-41 0,-42 68,-124 205,-244 98,-89 178,-163 239,-222l357 -357c11,-11 31,-31 59,-59 205,-207 370,-384 492,-536l1155 -81 -1122 2052c-170,311 -300,559 -387,743 -88,183 -133,300 -133,346 0,30 9,54 28,70 17,19 41,28 70,28 100,0 280,-101 533,-307 255,-203 575,-501 957,-891 662,-671 1115,-1108 1358,-1307 242,-202 416,-302 525,-302 7,0 33,6 81,17 17,4 31,5 43,5 -285,152 -746,565 -1380,1236 -211,220 -371,390 -488,508 -490,503 -871,845 -1144,1024 -272,182 -525,272 -760,272 -209,0 -372,-62 -490,-187 -117,-125 -176,-299 -176,-523 0,-292 237,-847 708,-1664 80,-133 139,-237 178,-309l0 0zm3062 1463c-83,235 -141,410 -174,523 -32,115 -48,202 -48,265 0,76 28,129 81,162 54,32 139,48 255,48 285,0 586,-83 904,-251 317,-168 766,-505 1343,-1011 192,-167 444,-392 758,-677 658,-601 1061,-901 1209,-901 7,0 24,2 50,8 24,5 44,11 59,14 -238,130 -603,435 -1094,916 -246,246 -439,434 -579,564 -708,643 -1244,1063 -1611,1262 -364,198 -721,298 -1072,298 -372,0 -671,-105 -897,-316 -225,-212 -338,-488 -338,-827 0,-286 85,-565 255,-837 168,-273 425,-542 769,-804 292,-224 586,-398 884,-523 300,-124 568,-187 810,-187 220,0 394,63 519,187 128,123 191,295 191,512 0,345 -211,667 -634,963 -422,296 -969,499 -1640,612l0 0zm64 -178c455,-68 860,-267 1213,-595 353,-329 531,-647 531,-954 0,-87 -24,-161 -74,-222 -48,-61 -105,-92 -170,-92 -183,0 -429,179 -734,540 -303,358 -560,800 -766,1323l0 0z"/>
 </g>
</svg>
