<?xml version="1.0" encoding="UTF-8"?>
<!DOCTYPE svg PUBLIC "-//W3C//DTD SVG 1.1//EN" "http://www.w3.org/Graphics/SVG/1.1/DTD/svg11.dtd">
<!-- Creator: CorelDRAW 2020 (64-Bit) -->
<svg xmlns="http://www.w3.org/2000/svg" xml:space="preserve" width="500px" height="250px" version="1.1" style="shape-rendering:geometricPrecision; text-rendering:geometricPrecision; image-rendering:optimizeQuality; fill-rule:evenodd; clip-rule:evenodd"
viewBox="0 0 50000 25000"
 xmlns:xlink="http://www.w3.org/1999/xlink"
 xmlns:xodm="http://www.corel.com/coreldraw/odm/2003">
 <defs>
  <style type="text/css">
   <![CDATA[
    .fil5 {fill:#00A658}
    .fil2 {fill:#00ADEE}
    .fil4 {fill:#11834D}
    .fil0 {fill:#3E3B3C}
    .fil1 {fill:#E6E7E8}
    .fil3 {fill:#FEF112}
   ]]>
  </style>
 </defs>
 <g id="Layer_x0020_1">
  <metadata id="CorelCorpID_0Corel-Layer"/>
  <path class="fil0" d="M32300 14545l0 -3085c-894,-11 -419,36 -801,-271 -275,-221 -717,-170 -974,265l-169 -3 120 -540 -1358 399c58,87 71,59 114,144l-315 -6 -177 -720 -1246 317 89 409 -1557 -7c240,-463 -39,-996 -563,-984 -276,6 -451,158 -545,328 -149,270 -64,421 15,663l-1605 -6 -177 -720 -1247 317 89 409 -1556 -7c240,-462 -40,-996 -563,-984 -276,6 -451,158 -545,328 -149,270 -64,421 14,662l-396 0 10 -299 -1282 -59 -20 359 -255 -1c0,868 0,1736 0,2603 0,630 -73,365 346,955l2191 2998c405,572 310,273 310,991l1411 -14c0,-144 -5,-297 -2,-440 5,-159 74,-217 148,-314l1043 -1428c12,-17 29,-41 42,-56 42,-45 14,-21 54,-45 65,72 135,175 192,255l567 781c134,181 250,338 380,518 91,126 131,117 131,314 0,143 -2,285 -4,428l1415 0c0,-483 -58,-490 127,-737l1070 -1453c2,-9 9,-9 14,-12l722 979c540,760 481,466 481,1223l1412 -7c0,-438 -64,-483 153,-771l2670 -3648c2,-3 11,-5 13,-14 2,-9 9,-10 14,-14l0 0 0 0z"/>
  <path class="fil1" d="M20354 18890l1196 4c22,-478 -75,-407 178,-737l801 -1095c65,-91 126,-173 201,-274 27,-36 61,-85 93,-131 34,-50 62,-100 120,-132l1184 1613c259,367 174,211 193,755l1195 1c29,-671 -117,-332 547,-1244l571 -777c60,-83 120,-186 196,-260 112,112 963,1305 1142,1547 251,339 162,241 175,724l1196 9c17,-630 -44,-428 261,-846l2326 -3189c282,-398 261,-225 261,-827 0,-331 26,-792 -5,-1107l-14671 -6c-16,124 -41,1497 15,1613 28,60 177,243 230,317l939 1283c426,552 954,1319 1388,1905 309,418 249,233 269,854l0 0 -1 0z"/>
  <polygon class="fil1" points="17508,12397 32184,12399 32190,11570 17506,11560 "/>
  <path class="fil0" d="M24523 7544l-1187 239 246 1253c95,-4 1172,-210 1253,-270l-242 -1194c975,211 1134,-897 525,-1180 -614,-286 -1339,496 -637,1113l42 39z"/>
  <path class="fil0" d="M29682 10335l1117 609c62,-66 570,-1026 608,-1143l-1129 -590 -596 1124z"/>
  <path class="fil0" d="M21500 5597l482 411c108,88 423,367 520,397 73,-154 683,-809 779,-983 -47,-62 -174,-155 -235,-203 -90,-70 -157,-138 -244,-205 -104,-80 -415,-362 -508,-392l-400 475c-67,80 -133,170 -200,250 -71,85 -164,170 -194,250l0 0 0 0z"/>
  <path class="fil0" d="M25061 4549l1097 620 639 -1120 -1125 -622c-93,156 -591,1019 -611,1122l0 0 0 0z"/>
  <polygon class="fil0" points="20310,21074 21595,21074 21595,19791 21495,19789 20316,19789 "/>
  <path class="fil0" d="M17791 8043l308 1243c213,-35 1091,-237 1235,-320l-298 -1225 -1245 302 0 0z"/>
  <polygon class="fil0" points="20352,7384 21633,7446 21693,6167 20408,6104 "/>
  <polygon class="fil0" points="25941,7384 27223,7446 27283,6168 25998,6104 "/>
  <path class="fil0" d="M28925 7783l246 1253c172,-7 458,-87 633,-123 164,-33 512,-66 620,-147l-250 -1231 -1249 248z"/>
  <path class="fil0" d="M23390 2801l253 1259 1248 -251 -240 -1241c-128,-22 -1044,199 -1261,233l0 0 0 0z"/>
  <path class="fil0" d="M25062 9665c63,105 1014,765 1028,771 93,-150 706,-931 744,-1021l-1013 -762 -759 1012z"/>
  <polygon class="fil0" points="20311,22651 21592,22663 21594,21379 20316,21379 "/>
  <polygon class="fil0" points="20311,24221 21589,24232 21594,22949 20315,22949 "/>
  <path class="fil0" d="M19473 9665c29,49 -18,-6 46,55 27,26 49,39 70,54 181,131 828,630 911,662 100,-159 245,-333 368,-501 65,-88 129,-178 191,-259 64,-84 150,-176 186,-261l-1014 -762 -758 1012 0 0z"/>
  <path class="fil0" d="M28941 6578l1039 740c3,-3 10,-9 13,-12l355 -466c89,-120 330,-416 376,-524l-1019 -748 -764 1010 0 0 0 0z"/>
  <path class="fil0" d="M24178 4307c-828,108 -688,1366 163,1274 835,-91 687,-1385 -163,-1274z"/>
  <path class="fil0" d="M28870 9472c-829,108 -694,1369 163,1274 825,-92 686,-1384 -163,-1274z"/>
  <path class="fil0" d="M23280 9472c-827,108 -694,1369 163,1274 826,-92 687,-1384 -163,-1274z"/>
  <path class="fil0" d="M31116 8050c-849,121 -652,1426 209,1266 803,-150 617,-1382 -209,-1266z"/>
  <path class="fil0" d="M21404 8061c-856,185 -561,1450 283,1247 783,-189 540,-1425 -283,-1247z"/>
  <path class="fil0" d="M24767 19811c-849,220 -492,1469 328,1238 287,-80 546,-382 444,-778 -77,-296 -377,-561 -772,-460z"/>
  <path class="fil0" d="M19055 6364c-790,245 -448,1435 364,1224 808,-209 488,-1488 -364,-1224z"/>
  <path class="fil0" d="M28143 6566c-865,228 -487,1474 323,1236 292,-86 545,-396 442,-782 -77,-290 -373,-558 -765,-454l0 0 0 0z"/>
  <path class="fil0" d="M26993 8061c-321,69 -590,364 -499,773 181,811 1445,544 1247,-301 -69,-295 -368,-554 -748,-472l0 0z"/>
  <path class="fil0" d="M22554 6566c-865,227 -489,1474 323,1236 289,-84 543,-401 442,-782 -78,-290 -373,-558 -765,-454l0 0 0 0z"/>
  <path class="fil0" d="M24728 21416c-848,290 -380,1479 397,1212 792,-272 394,-1482 -397,-1212z"/>
  <path class="fil0" d="M24733 22977c-301,91 -553,415 -423,817 89,279 416,526 794,410 280,-86 543,-399 432,-786 -83,-291 -407,-561 -803,-441l0 0z"/>
  <path class="fil0" d="M27070 4419c-861,213 -522,1434 282,1247 303,-71 572,-377 476,-786 -69,-290 -395,-550 -758,-461z"/>
  <path class="fil0" d="M25023 1006l-221 0c-169,94 -261,95 -380,232 -345,400 -71,1040 467,1057 580,19 847,-668 522,-1038 -85,-98 -138,-149 -253,-194l-135 -57 0 0z"/>
  <path class="fil2" d="M21641 5601l817 657c185,-191 338,-406 512,-609 69,-80 101,-141 170,-194 -61,-95 -690,-601 -821,-690 -112,92 -245,292 -347,410 -83,95 -285,317 -331,426l0 0z"/>
  <path class="fil2" d="M25203 9676c186,83 734,565 868,611l617 -847c-85,-103 -801,-613 -851,-635 -97,105 -223,285 -319,415 -80,109 -272,340 -315,456l0 0z"/>
  <path class="fil2" d="M19613 9676c117,53 305,209 425,298 86,63 359,284 444,313l617 -847c-86,-104 -802,-613 -851,-635 -98,106 -223,284 -319,415 -81,109 -272,340 -316,456l0 0 0 0z"/>
  <polygon class="fil2" points="20415,20968 21396,20968 21489,20964 21489,19901 21396,19893 20416,19895 "/>
  <path class="fil2" d="M20425 22557l1058 -1 5 -1070 -1052 -2c-47,117 -36,918 -11,1073l0 0z"/>
  <path class="fil2" d="M23467 7865c-12,163 155,838 194,1051 144,-17 973,-178 1047,-224l-207 -1032 -1034 205 0 0 0 0z"/>
  <path class="fil2" d="M29056 7865c-12,161 156,840 194,1051 155,-24 971,-176 1047,-224l-207 -1032 -1034 205 0 0z"/>
  <path class="fil2" d="M20461 7288l1059 48 64 -1073c-214,-7 -923,-68 -1074,-33l-49 1058 0 0 0 0z"/>
  <path class="fil2" d="M26051 7288l1059 48 63 -1073c-214,-7 -922,-69 -1074,-33l-48 1058z"/>
  <path class="fil2" d="M20429 24127l1052 -1 7 -1070 -1055 -3c-36,112 -33,945 -4,1074l0 0 0 0z"/>
  <path class="fil2" d="M29088 6568c138,93 284,211 427,317 129,95 307,256 446,315 51,-118 212,-300 302,-421 73,-100 273,-345 309,-433 -38,-47 -767,-592 -842,-632 -26,21 -15,11 -42,39l-600 815z"/>
  <polygon class="fil2" points="23521,2885 23722,3930 24776,3728 24563,2676 "/>
  <path class="fil2" d="M25194 4496l917 527 271 -454c83,-151 193,-313 256,-469l-930 -532 -514 928 0 0z"/>
  <polygon class="fil2" points="17919,8120 18176,9159 19209,8902 18957,7870 "/>
  <path class="fil2" d="M29827 10287c16,15 16,17 44,36l890 476 505 -932 -934 -508 -505 928 0 0z"/>
  <path class="fil3" d="M28201 6656c-705,119 -520,1202 199,1053 660,-137 496,-1170 -199,-1053z"/>
  <path class="fil3" d="M22612 6656c-274,47 -498,303 -440,634 118,673 1186,503 1052,-205 -50,-264 -295,-482 -612,-429l0 0z"/>
  <path class="fil3" d="M24778 21502c-255,72 -471,341 -373,674 71,238 332,447 655,360 679,-182 393,-1223 -282,-1034z"/>
  <path class="fil3" d="M24795 19914c-728,195 -401,1226 271,1034 251,-72 449,-339 370,-652 -62,-246 -330,-466 -641,-382l0 0z"/>
  <path class="fil3" d="M27098 4522c-725,182 -448,1184 228,1041 696,-147 433,-1207 -228,-1041z"/>
  <path class="fil3" d="M28849 9589c-714,156 -472,1200 225,1042 684,-156 444,-1188 -225,-1042z"/>
  <path class="fil3" d="M27021 8163c-723,158 -476,1215 229,1042 241,-59 466,-317 389,-645 -59,-246 -299,-466 -618,-397l0 0z"/>
  <path class="fil3" d="M23260 9589c-714,156 -472,1200 225,1042 256,-59 483,-312 396,-657 -60,-241 -318,-451 -621,-385l0 0z"/>
  <path class="fil3" d="M21432 8163c-723,158 -477,1215 229,1042 241,-59 466,-318 388,-645 -58,-244 -301,-466 -617,-397l0 0z"/>
  <path class="fil3" d="M19084 6467c-687,234 -330,1241 347,1008 232,-80 436,-364 322,-685 -81,-232 -351,-431 -669,-323l0 0z"/>
  <path class="fil3" d="M24674 6467c-687,232 -332,1241 346,1008 232,-80 436,-364 323,-685 -82,-232 -351,-430 -669,-323l0 0z"/>
  <path class="fil3" d="M24743 1150c-671,218 -342,1227 332,1015 231,-73 445,-352 346,-669 -76,-245 -344,-455 -678,-346l0 0z"/>
  <path class="fil3" d="M31097 8168c-733,172 -434,1213 245,1038 247,-64 464,-336 380,-659 -62,-241 -310,-453 -625,-379z"/>
  <path class="fil4" d="M24119 10852c200,-65 442,-203 640,-294 157,-73 538,-229 634,-319 -97,-88 -1094,-782 -1165,-789l-109 1402z"/>
  <path class="fil3" d="M24158 4424c-746,170 -431,1223 246,1036 247,-67 458,-328 376,-652 -60,-236 -310,-454 -622,-384z"/>
  <path class="fil4" d="M18530 10852c194,-64 446,-205 639,-294 159,-74 538,-229 635,-319 -97,-88 -1094,-782 -1165,-789l-109 1402 0 0 0 0z"/>
  <path class="fil3" d="M24753 23088c-711,260 -296,1253 364,1001 216,-82 408,-348 311,-665 -73,-236 -358,-451 -675,-336z"/>
  <path class="fil0" d="M23691 7012c53,-39 163,-188 214,-253 71,-89 137,-182 219,-280l439 -550c-5,-4 -14,-16 -17,-10 -3,5 -13,-9 -18,-11 -89,-37 -200,-40 -297,-54l-1066 -152c27,126 477,1253 526,1310l0 0z"/>
  <path class="fil4" d="M28028 22611l1427 4c-65,-168 -253,-449 -352,-620 -58,-98 -113,-197 -173,-301l-206 -312 -696 1229 0 0z"/>
  <path class="fil0" d="M30401 7963l1375 -285c-42,-108 -784,-877 -913,-1064 -31,29 -32,0 -77,141 -89,276 -358,1048 -385,1208l0 0z"/>
  <path class="fil4" d="M28038 21023l1412 1c-57,-144 -636,-1155 -719,-1230 -68,167 -242,430 -345,604 -96,162 -287,465 -348,625z"/>
  <path class="fil0" d="M20626 10339c159,182 341,323 510,484 47,46 71,85 118,130 112,109 322,251 379,364 92,-94 333,-1268 355,-1376l-1362 398 0 0 0 0z"/>
  <path class="fil4" d="M28034 24185l1420 0 -614 -1078c-80,-142 -43,-105 -118,-155 -59,167 -243,447 -338,613 -84,145 -303,482 -350,620l0 0z"/>
  <path class="fil4" d="M24923 8463l1428 3c-41,-88 -635,-1158 -713,-1223l-715 1220z"/>
  <path class="fil4" d="M25096 3219l1411 1c-28,-104 -626,-1124 -712,-1233l-699 1232 0 0z"/>
  <path class="fil0" d="M27391 6189l1409 118 -595 -1285 -111 138c-150,215 -642,895 -703,1029l0 0 0 0z"/>
  <path class="fil0" d="M25321 6427c48,-12 1073,-632 1190,-755l-1248 -659 58 1414 0 0z"/>
  <path class="fil0" d="M26216 10339c69,83 972,911 1007,978 83,-86 162,-554 191,-675 57,-226 117,-472 163,-700l-1361 397 0 0 0 0z"/>
  <path class="fil4" d="M19334 8463l1427 3 -519 -916c-64,-106 -115,-241 -194,-307l-714 1220z"/>
  <path class="fil0" d="M22215 9537l1390 -285c-56,-109 -885,-1010 -937,-1053l-453 1338z"/>
  <path class="fil0" d="M27804 9537l1390 -285 -461 -537c-169,-163 -291,-364 -475,-516l-454 1338 0 0z"/>
  <path class="fil3" d="M20294 11453c412,-502 -204,-1138 -717,-787 -186,128 -296,429 -165,684 77,150 202,104 387,104 165,-1 330,1 495,-1l0 0z"/>
  <path class="fil3" d="M25883 11453c412,-503 -203,-1138 -717,-787 -186,127 -295,429 -165,684 77,150 202,104 387,104 165,-1 330,1 495,-1l0 0 0 0z"/>
  <polygon class="fil2" points="27622,11116 27705,11455 28800,11454 28662,10859 "/>
  <polygon class="fil2" points="22032,11116 22115,11455 23211,11454 23073,10859 "/>
  <path class="fil5" d="M27968 9396c183,-25 925,-159 1033,-228l-692 -772c-60,70 -304,848 -341,1000l0 0 0 0z"/>
  <path class="fil5" d="M22379 9396c184,-26 924,-159 1032,-229l-520 -574c-75,-72 -108,-127 -172,-197 -60,69 -304,848 -340,1000l0 0 0 0z"/>
  <path class="fil5" d="M25418 6249c122,-48 320,-192 447,-274 123,-81 368,-208 448,-304l-932 -476 37 1054 0 0z"/>
  <path class="fil5" d="M26421 10397c42,29 661,648 764,710l252 -1018c-269,63 -785,209 -1016,308z"/>
  <path class="fil5" d="M20832 10397l377 353c138,121 237,265 386,357l253 -1018c-271,64 -784,209 -1016,308l0 0z"/>
  <path class="fil5" d="M27580 6102l1045 85c-13,-80 -396,-883 -446,-954l-599 869 0 0 0 0z"/>
  <path class="fil5" d="M23707 6806l656 -810c-104,-64 -844,-144 -1033,-163l377 973 0 0 0 0z"/>
  <path class="fil5" d="M30546 7822l779 -158c45,-9 83,-15 125,-24 20,-5 41,-9 60,-15 7,-3 29,-12 35,-14l-481 -603c-40,-47 -154,-163 -189,-188l-329 1002 0 0z"/>
  <polygon class="fil2" points="17767,11454 18834,11453 18841,11256 17774,11205 "/>
  <path class="fil3" d="M30658 11453l922 1c-44,-143 -248,-279 -453,-282 -247,-4 -404,133 -469,281l0 0 0 0z"/>
 </g>
</svg>
