<?xml version="1.0" encoding="UTF-8"?>
<!DOCTYPE svg PUBLIC "-//W3C//DTD SVG 1.1//EN" "http://www.w3.org/Graphics/SVG/1.1/DTD/svg11.dtd">
<!-- Creator: CorelDRAW 2020 (64-Bit) -->
<svg xmlns="http://www.w3.org/2000/svg" xml:space="preserve" width="2550px" height="3300px" version="1.1" style="shape-rendering:geometricPrecision; text-rendering:geometricPrecision; image-rendering:optimizeQuality; fill-rule:evenodd; clip-rule:evenodd"
viewBox="0 0 255000 330000"
 xmlns:xlink="http://www.w3.org/1999/xlink"
 xmlns:xodm="http://www.corel.com/coreldraw/odm/2003">
 <defs>
  <style type="text/css">
   <![CDATA[
    .fil5 {fill:#00A658}
    .fil2 {fill:#00ADEE}
    .fil4 {fill:#11834D}
    .fil0 {fill:#3E3B3C}
    .fil1 {fill:#E6E7E8}
    .fil3 {fill:#FEF112}
   ]]>
  </style>
 </defs>
 <g id="Layer_x0020_1">
  <metadata id="CorelCorpID_0Corel-Layer"/>
  <path class="fil0" d="M177622 162388l0 -20528c-5951,-69 -2789,244 -5328,-1800 -1830,-1474 -4775,-1135 -6485,1759l-1121 -15 799 -3598 -9037 2658c383,581 470,395 760,960l-2095 -44 -1177 -4791 -8297 2113 593 2718 -10357 -44c1594,-3080 -257,-6628 -3746,-6549 -1834,42 -3000,1051 -3627,2185 -990,1792 -425,2798 98,4407l-10678 -39 -1177 -4791 -8295 2113 593 2718 -10357 -46c1600,-3073 -262,-6627 -3747,-6547 -1835,42 -3000,1051 -3626,2185 -990,1792 -427,2798 96,4405l-2637 0 65 -1988 -8529 -395 -131 2386 -1695 -3c0,5774 0,11546 0,17320 0,4189 -487,2424 2301,6352l14579 19951c2691,3805 2059,1814 2059,6591l9390 -96c0,-957 -36,-1976 -11,-2924 28,-1058 488,-1443 984,-2089l6936 -9500c81,-115 194,-276 285,-375 274,-298 91,-143 354,-302 436,481 903,1170 1280,1698l3772 5197c892,1202 1662,2248 2527,3448 606,839 873,781 872,2091 -2,948 -9,1897 -25,2847l9414 0c0,-3214 -384,-3264 843,-4908l7123 -9668c13,-55 61,-56 94,-79l4802 6518c3590,5055 3201,3101 3201,8135l9393 -45c0,-2918 -426,-3216 1021,-5133l17761 -24269c20,-21 77,-36 92,-94 13,-60 60,-65 91,-95l0 0z"/>
  <path class="fil1" d="M98140 191301l7953 25c148,-3181 -495,-2707 1189,-4903l5329 -7287c428,-603 838,-1153 1333,-1822 181,-244 405,-568 621,-876 229,-331 412,-661 796,-877l7878 10732c1726,2441 1162,1406 1285,5023l7951 8c193,-4461 -779,-2207 3643,-8277l3795 -5168c402,-551 804,-1240 1305,-1730 744,742 6407,8685 7601,10295 1670,2252 1074,1601 1160,4818l7963 59c108,-4194 -295,-2850 1732,-5632l15479 -21216c1878,-2648 1737,-1496 1737,-5503 0,-2204 176,-5269 -35,-7367l-97616 -42c-108,824 -269,9962 100,10734 189,400 1180,1614 1534,2110l6243 8534c2835,3676 6352,8780 9237,12680 2054,2776 1654,1546 1787,5682l0 0z"/>
  <polygon class="fil1" points="79198,148098 176848,148108 176893,142592 79189,142524 "/>
  <path class="fil0" d="M125879 115804l-7902 1595 1637 8331c631,-23 7800,-1394 8335,-1791l-1609 -7948c6490,1403 7545,-5965 3494,-7852 -4083,-1902 -8911,3298 -4238,7404l283 261z"/>
  <path class="fil0" d="M160204 134376l7430 4052c411,-441 3790,-6827 4049,-7602l-7514 -3932 -3965 7482z"/>
  <path class="fil0" d="M105761 102853l3209 2735c719,582 2816,2437 3457,2641 486,-1026 4547,-5387 5187,-6540 -318,-415 -1161,-1032 -1568,-1351 -599,-468 -1039,-920 -1619,-1365 -694,-535 -2764,-2411 -3383,-2610l-2660 3163c-447,533 -887,1129 -1332,1662 -473,564 -1089,1129 -1291,1665l0 0z"/>
  <path class="fil0" d="M129455 95880l7299 4124 4252 -7455 -7487 -4134c-619,1033 -3930,6778 -4064,7465l0 0z"/>
  <polygon class="fil0" points="97843,205832 106393,205830 106393,197294 105731,197281 97886,197283 "/>
  <path class="fil0" d="M81082 119122l2049 8274c1415,-236 7259,-1578 8220,-2129l-1987 -8149 -8282 2004 0 0z"/>
  <polygon class="fil0" points="98122,114743 106649,115154 107049,106645 98499,106224 "/>
  <polygon class="fil0" points="135311,114743 143840,115153 144238,106647 135689,106224 "/>
  <path class="fil0" d="M155168 117397l1635 8333c1144,-41 3047,-574 4209,-813 1091,-223 3407,-443 4126,-978l-1659 -8195 -8311 1653z"/>
  <path class="fil0" d="M118337 84249l1687 8375 8299 -1669 -1598 -8261c-851,-141 -6941,1325 -8388,1555l0 0z"/>
  <path class="fil0" d="M129465 129916c418,701 6742,5092 6837,5129 621,-996 4700,-6190 4953,-6789l-6746 -5071 -5044 6731z"/>
  <polygon class="fil0" points="97848,216321 106372,216404 106385,207861 97884,207861 "/>
  <polygon class="fil0" points="97849,226771 106353,226846 106388,218304 97876,218306 "/>
  <path class="fil0" d="M92276 129916c192,325 -120,-38 304,369 179,172 323,257 466,360 1204,868 5507,4189 6065,4400 663,-1053 1624,-2210 2446,-3329 430,-585 858,-1187 1268,-1722 429,-561 1001,-1172 1241,-1738l-6748 -5071 -5042 6731 0 0z"/>
  <path class="fil0" d="M155274 109378l6915 4923c15,-17 64,-60 83,-80l2365 -3103c587,-797 2193,-2766 2497,-3485l-6779 -4976 -5081 6721 0 0z"/>
  <path class="fil0" d="M123582 94266c-5512,717 -4577,9092 1086,8478 5551,-603 4568,-9212 -1086,-8478z"/>
  <path class="fil0" d="M154798 128634c-5511,719 -4619,9110 1084,8476 5495,-611 4567,-9211 -1084,-8476z"/>
  <path class="fil0" d="M117607 128634c-5507,719 -4619,9110 1084,8476 5496,-611 4568,-9211 -1084,-8476z"/>
  <path class="fil0" d="M169744 119175c-5649,799 -4339,9489 1391,8418 5341,-996 4106,-9194 -1391,-8418z"/>
  <path class="fil0" d="M105120 119245c-5695,1232 -3728,9645 1888,8295 5211,-1253 3591,-9479 -1888,-8295z"/>
  <path class="fil0" d="M127497 197430c-5646,1460 -3274,9773 2185,8236 1908,-537 3633,-2542 2952,-5181 -508,-1964 -2508,-3732 -5137,-3055z"/>
  <path class="fil0" d="M89490 107955c-5255,1627 -2977,9549 2426,8146 5377,-1395 3247,-9904 -2426,-8146z"/>
  <path class="fil0" d="M149963 109295c-5758,1523 -3243,9812 2147,8229 1947,-572 3626,-2640 2943,-5204 -514,-1931 -2483,-3714 -5090,-3025l0 0z"/>
  <path class="fil0" d="M142311 119245c-2136,462 -3927,2423 -3323,5142 1204,5399 9617,3620 8300,-1999 -460,-1964 -2447,-3689 -4977,-3143l0 0z"/>
  <path class="fil0" d="M112774 109295c-5753,1516 -3253,9809 2147,8229 1924,-563 3616,-2673 2942,-5204 -515,-1932 -2481,-3712 -5089,-3025l0 0z"/>
  <path class="fil0" d="M127240 208106c-5645,1928 -2530,9844 2642,8066 5266,-1811 2621,-9862 -2642,-8066z"/>
  <path class="fil0" d="M127273 218490c-2004,607 -3677,2764 -2817,5439 597,1858 2768,3498 5286,2725 1866,-572 3613,-2649 2874,-5229 -554,-1937 -2706,-3734 -5343,-2935l0 0z"/>
  <path class="fil0" d="M142820 95015c-5724,1413 -3470,9538 1881,8293 2013,-468 3806,-2507 3163,-5225 -458,-1936 -2628,-3664 -5044,-3068z"/>
  <path class="fil0" d="M129204 72302l-1474 0c-1121,626 -1737,636 -2524,1547 -2299,2662 -476,6917 3102,7033 3861,125 5636,-4446 3480,-6908 -572,-651 -922,-990 -1689,-1293l-895 -379z"/>
  <path class="fil2" d="M106702 102876l5434 4372c1232,-1270 2250,-2700 3406,-4050 458,-534 672,-939 1129,-1295 -406,-627 -4591,-3994 -5461,-4589 -744,615 -1627,1941 -2311,2728 -550,629 -1896,2109 -2197,2834l0 0z"/>
  <path class="fil2" d="M130400 129994c1238,553 4883,3754 5779,4064l4103 -5636c-568,-689 -5333,-4078 -5662,-4224 -644,694 -1488,1894 -2123,2759 -532,723 -1810,2265 -2097,3037z"/>
  <path class="fil2" d="M93209 129994c779,347 2029,1390 2827,1978 568,418 2390,1889 2952,2086l4103 -5636c-569,-691 -5331,-4078 -5662,-4226 -649,704 -1481,1891 -2123,2761 -533,724 -1807,2262 -2097,3037l0 0z"/>
  <polygon class="fil2" points="98545,205128 105067,205128 105689,205098 105689,198023 105068,197975 98550,197983 "/>
  <path class="fil2" d="M98612 215697l7037 -3 32 -7121 -6996 -15c-314,777 -241,6110 -73,7139l0 0z"/>
  <path class="fil2" d="M118847 117942c-78,1081 1036,5574 1290,6991 962,-112 6477,-1182 6969,-1492l-1378 -6864 -6881 1365 0 0z"/>
  <path class="fil2" d="M156038 117942c-78,1071 1038,5585 1290,6991 1031,-157 6460,-1170 6968,-1492l-1378 -6864 -6880 1365 0 0z"/>
  <path class="fil2" d="M98852 114100l7043 320 425 -7139c-1423,-46 -6141,-455 -7146,-217l-322 7036 0 0z"/>
  <path class="fil2" d="M136043 114100l7043 319 423 -7138c-1426,-46 -6135,-455 -7144,-217l-322 7036z"/>
  <path class="fil2" d="M98633 226142l7003 -3 47 -7118 -7020 -20c-241,741 -222,6288 -30,7141l0 0z"/>
  <path class="fil2" d="M156252 109308c918,623 1890,1408 2843,2112 858,634 2039,1705 2967,2097 337,-783 1411,-1999 2004,-2801 491,-665 1818,-2298 2058,-2882 -254,-314 -5103,-3937 -5603,-4204 -171,135 -101,71 -279,261l-3990 5417z"/>
  <polygon class="fil2" points="119206,84806 120549,91759 127557,90416 126143,83413 "/>
  <path class="fil2" d="M130343 95528l6097 3500 1803 -3015c553,-1008 1285,-2086 1707,-3122l-6188 -3543 -3419 6180z"/>
  <polygon class="fil2" points="81932,119635 83647,126549 90517,124841 88844,117973 "/>
  <path class="fil2" d="M161167 134058c109,100 108,110 290,238l5924 3168 3362 -6200 -6216 -3380 -3360 6175 0 -1z"/>
  <path class="fil3" d="M150350 109899c-4691,791 -3460,7998 1320,7005 4394,-915 3304,-7783 -1320,-7005z"/>
  <path class="fil3" d="M113159 109899c-1820,308 -3312,2016 -2925,4218 785,4479 7889,3348 6999,-1368 -330,-1752 -1965,-3205 -4074,-2850l0 0z"/>
  <path class="fil3" d="M127572 208681c-1695,476 -3134,2264 -2479,4484 468,1579 2205,2974 4359,2394 4517,-1213 2613,-8140 -1880,-6878z"/>
  <path class="fil3" d="M127685 198111c-4845,1299 -2671,8156 1801,6881 1671,-477 2989,-2257 2466,-4341 -412,-1637 -2195,-3096 -4267,-2540z"/>
  <path class="fil3" d="M143010 95696c-4824,1210 -2982,7881 1519,6928 4625,-978 2880,-8034 -1519,-6928z"/>
  <path class="fil3" d="M154662 129413c-4750,1038 -3140,7986 1496,6930 4550,-1036 2955,-7903 -1496,-6930z"/>
  <path class="fil3" d="M142500 119926c-4812,1046 -3171,8084 1522,6932 1601,-392 3102,-2112 2584,-4290 -390,-1641 -1983,-3105 -4106,-2642l0 0z"/>
  <path class="fil3" d="M117471 129415c-4750,1037 -3138,7984 1496,6928 1705,-388 3219,-2072 2640,-4370 -405,-1604 -2117,-3000 -4136,-2558l0 0z"/>
  <path class="fil3" d="M105309 119926c-4808,1046 -3174,8082 1523,6932 1602,-392 3101,-2114 2585,-4290 -387,-1626 -2004,-3100 -4108,-2642l0 0z"/>
  <path class="fil3" d="M89687 108641c-4574,1554 -2196,8258 2310,6704 1541,-533 2897,-2421 2143,-4559 -543,-1539 -2336,-2866 -4453,-2145l0 0z"/>
  <path class="fil3" d="M126878 108641c-4567,1544 -2208,8257 2308,6703 1541,-530 2899,-2418 2145,-4556 -544,-1543 -2336,-2864 -4453,-2147l0 0z"/>
  <path class="fil3" d="M127343 73258c-4468,1453 -2276,8169 2208,6758 1533,-484 2956,-2341 2300,-4453 -507,-1627 -2286,-3025 -4508,-2305l0 0z"/>
  <path class="fil3" d="M169616 119959c-4876,1144 -2887,8069 1630,6904 1644,-425 3088,-2232 2532,-4383 -413,-1606 -2068,-3012 -4162,-2521z"/>
  <path class="fil4" d="M123187 137819c1328,-438 2941,-1355 4259,-1962 1046,-484 3581,-1521 4219,-2122 -644,-583 -7276,-5199 -7750,-5247l-728 9331z"/>
  <path class="fil3" d="M123450 95048c-4965,1127 -2873,8134 1632,6894 1643,-452 3048,-2184 2503,-4344 -396,-1570 -2065,-3021 -4135,-2550z"/>
  <path class="fil4" d="M85997 137819c1295,-427 2968,-1366 4258,-1962 1051,-487 3576,-1518 4221,-2122 -643,-580 -7279,-5200 -7752,-5245l-727 9329 0 0z"/>
  <path class="fil3" d="M127408 219235c-4732,1729 -1969,8332 2420,6660 1440,-550 2717,-2316 2069,-4428 -483,-1571 -2382,-3002 -4489,-2232z"/>
  <path class="fil0" d="M120341 112262c349,-254 1080,-1249 1422,-1678 474,-597 915,-1213 1456,-1867l2925 -3656c-33,-29 -94,-108 -114,-71 -20,35 -88,-56 -118,-68 -596,-251 -1335,-271 -1976,-364l-7094 -1006c181,837 3171,8332 3499,8710z"/>
  <path class="fil4" d="M149196 216061l9495 20c-430,-1113 -1683,-2986 -2343,-4120 -381,-655 -747,-1311 -1150,-2007l-1370 -2072 -4632 8179 0 0z"/>
  <path class="fil0" d="M164984 118593l9150 -1896c-276,-716 -5214,-5835 -6072,-7078 -206,191 -214,-2 -515,933 -589,1841 -2384,6977 -2563,8041l0 0z"/>
  <path class="fil4" d="M149264 205488l9394 7c-380,-955 -4234,-7679 -4785,-8181 -453,1108 -1607,2864 -2293,4018 -641,1079 -1908,3097 -2316,4156z"/>
  <path class="fil0" d="M99948 134404c1053,1210 2270,2145 3389,3222 317,303 473,563 787,865 748,724 2141,1669 2523,2420 613,-628 2214,-8436 2360,-9154l-9059 2647 0 0z"/>
  <path class="fil4" d="M149237 226529l9448 0 -4083 -7174c-535,-942 -291,-699 -784,-1030 -393,1110 -1617,2976 -2254,4080 -560,964 -2014,3209 -2327,4124l0 0z"/>
  <path class="fil4" d="M128540 121918l9497 19c-271,-585 -4222,-7699 -4745,-8132l-4752 8113z"/>
  <path class="fil4" d="M129687 87027l9388 8c-181,-694 -4166,-7476 -4734,-8203l-4654 8195 0 0z"/>
  <path class="fil0" d="M144960 106790l9373 782 -3958 -8548 -737 919c-1002,1429 -4271,5958 -4678,6847l0 0z"/>
  <path class="fil0" d="M131183 108374c322,-80 7143,-4203 7920,-5023l-8303 -4385 383 9408 0 0z"/>
  <path class="fil0" d="M137139 134404c463,548 6472,6062 6701,6506 554,-571 1076,-3689 1275,-4491 377,-1502 772,-3144 1081,-4660l-9057 2645 0 0z"/>
  <path class="fil4" d="M91351 121918l9495 19 -3458 -6090c-420,-709 -759,-1608 -1287,-2042l-4750 8113z"/>
  <path class="fil0" d="M110521 129064l9244 -1891c-372,-727 -5884,-6721 -6231,-7008l-3013 8899z"/>
  <path class="fil0" d="M147707 129064l9249 -1894 -3065 -3573c-1130,-1083 -1942,-2419 -3166,-3432l-3018 8899 0 0z"/>
  <path class="fil3" d="M97736 141815c2745,-3342 -1358,-7572 -4770,-5235 -1237,847 -1967,2850 -1097,4548 510,998 1341,694 2572,692 1099,-3 2196,7 3295,-5z"/>
  <path class="fil3" d="M134926 141815c2742,-3345 -1352,-7569 -4771,-5236 -1236,845 -1965,2852 -1097,4551 511,996 1345,692 2573,690 1100,-3 2197,7 3294,-5l1 0z"/>
  <polygon class="fil2" points="146495,139571 147046,141829 154335,141820 153418,137864 "/>
  <polygon class="fil2" points="109304,139571 109855,141829 117144,141820 116229,137864 "/>
  <path class="fil5" d="M148796 128131c1218,-169 6154,-1062 6873,-1522l-4605 -5132c-399,460 -2019,5638 -2268,6654l0 0z"/>
  <path class="fil5" d="M111607 128131c1225,-174 6153,-1061 6873,-1524l-3460 -3824c-499,-476 -724,-845 -1147,-1306 -397,458 -2021,5640 -2266,6654l0 0z"/>
  <path class="fil5" d="M131831 107190c815,-321 2127,-1280 2973,-1828 822,-533 2453,-1383 2984,-2019l-6201 -3166 244 7013z"/>
  <path class="fil5" d="M138507 134787c274,195 4393,4310 5079,4726l1677 -6776c-1790,420 -5220,1396 -6756,2050z"/>
  <path class="fil5" d="M101316 134787l2509 2350c916,803 1580,1765 2570,2374l1682 -6774c-1803,425 -5217,1393 -6761,2050l0 0z"/>
  <path class="fil5" d="M146219 106210l6948 565c-83,-528 -2630,-5873 -2968,-6344l-3980 5779 0 0z"/>
  <path class="fil5" d="M120449 110892l4359 -5384c-691,-427 -5612,-958 -6871,-1086l2512 6470 0 0z"/>
  <path class="fil5" d="M165952 117655l5185 -1048c295,-61 549,-104 832,-166 132,-30 267,-56 396,-98 50,-17 193,-76 235,-95l-3203 -4012c-268,-311 -1026,-1080 -1254,-1249l-2191 6668 0 0z"/>
  <polygon class="fil2" points="80926,141819 88024,141812 88067,140504 80968,140163 "/>
  <path class="fil3" d="M166695 141817l6134 3c-293,-949 -1646,-1856 -3009,-1876 -1645,-23 -2688,884 -3125,1873l0 0z"/>
 </g>
</svg>
