<?xml version="1.0" encoding="UTF-8"?>
<!DOCTYPE svg PUBLIC "-//W3C//DTD SVG 1.1//EN" "http://www.w3.org/Graphics/SVG/1.1/DTD/svg11.dtd">
<!-- Creator: CorelDRAW 2020 (64-Bit) -->
<svg xmlns="http://www.w3.org/2000/svg" xml:space="preserve" width="500px" height="250px" version="1.1" style="shape-rendering:geometricPrecision; text-rendering:geometricPrecision; image-rendering:optimizeQuality; fill-rule:evenodd; clip-rule:evenodd"
viewBox="0 0 50000 25000"
 xmlns:xlink="http://www.w3.org/1999/xlink"
 xmlns:xodm="http://www.corel.com/coreldraw/odm/2003">
 <defs>
  <style type="text/css">
   <![CDATA[
    .fil1 {fill:#91BD29}
    .fil0 {fill:#91D8F7}
    .fil2 {fill:#D91E32}
   ]]>
  </style>
 </defs>
 <g id="Layer_x0020_1">
  <metadata id="CorelCorpID_0Corel-Layer"/>
  <path class="fil0" d="M14744 5253l0 557c1655,0 3763,-304 5239,-892 4162,-1655 4034,-1910 7072,-1051 850,241 1486,467 2279,731 709,237 3990,1395 4473,1435 0,715 111,921 111,1561 0,5159 -2060,9111 -5267,12347 -519,524 -2739,2369 -3540,2369 -2048,0 -5189,-3833 -6131,-5240l-1672 0c109,1304 5697,7023 7692,7023 990,0 2385,-1096 3122,-1671 1354,-1056 3164,-2839 4058,-4192 932,-1413 1619,-2604 2227,-4350 858,-2459 1072,-3900 1072,-6620 0,-947 -205,-1569 -223,-2341l-7628 -2517c-670,-191 -2109,-717 -2739,-717 -800,0 -6315,2010 -7762,2495 -462,155 -852,269 -1282,390 -423,120 -1101,195 -1101,683l0 0 0 0 0 0z"/>
  <path class="fil1" d="M15091 7260l4937 0c-231,315 -432,255 -1003,230 -768,-34 -1780,-95 -1338,773 704,164 1189,-67 1561,111 -706,1054 -2986,-275 -2975,778 8,699 678,459 1297,446 1271,-28 1426,101 2012,114l-1078 2267c-647,1248 -4217,130 -4607,520 -175,364 -103,755 344,821 322,48 1816,-110 2556,-50 479,39 1068,10 1559,10l0 223c-518,11 -553,13 -669,446 216,294 279,323 781,334 -326,1219 -2213,-426 -2564,892 864,579 2611,-154 2898,557 -612,293 -3100,112 -4032,112 -518,0 -1257,42 -1750,-17 -454,-56 -1160,-315 -1241,314l0 212c98,619 1184,271 2977,271 782,0 5306,106 5836,-106 346,-138 1019,-577 1331,-786 -121,-230 -154,-264 -223,-557 -468,39 -367,127 -780,222 -57,-684 -446,-731 -446,-2117l558 0 0 -781 -558 0c0,-1064 258,-1311 446,-2118 413,96 312,184 780,223 81,-346 143,-323 223,-669 -293,-68 -327,-101 -557,-223 197,-295 475,-598 664,-892 368,-239 512,-536 1008,-669 110,414 113,144 223,558 265,-140 380,-257 669,-335 -77,-288 -194,-403 -334,-668 366,-86 585,-232 1000,-338 327,-84 845,-211 1229,-220l0 669 669 0 0 -669c412,9 1263,179 1522,334 396,80 341,138 708,224 -140,265 -258,380 -335,668l667 339c97,-410 64,-362 337,-562 701,470 764,562 1212,1130 153,194 210,225 348,431 -229,122 -264,155 -557,223 48,570 85,151 223,669 570,-48 151,-85 669,-223 300,568 557,1249 557,2118 -453,0 -359,-37 -669,112l0 557c310,149 216,112 669,112 0,645 -116,978 -287,1499 -306,937 -215,456 -939,396 -81,346 -143,323 -223,669 589,137 976,542 1449,668 1374,-2051 1430,-4018 514,-6310 -1190,-2975 -4328,-4291 -7330,-3962 -1855,203 -4307,239 -6227,239 -1061,0 -2123,0 -3183,0 -321,0 -1214,-24 -2001,21 -466,26 -1377,66 -927,625 257,319 1463,135 2400,135l0 0 0 0 0 0zm-1306 1672c-352,-387 -950,33 -735,440 229,435 886,239 735,-440zm-557 2452c514,0 698,-77 1020,-95 505,-30 1544,394 1544,-350 0,-695 -1038,-388 -1352,-381l-1101 -66c-593,0 -447,892 -111,892l0 0z"/>
  <path class="fil2" d="M23885 12833c0,1146 1053,1326 2074,514 610,-486 2351,-2081 2720,-2632 -884,207 -1843,453 -2718,739 -803,262 -2076,424 -2076,1379l0 0 0 0z"/>
  <path class="fil2" d="M23216 15955c0,935 421,669 2899,669 695,0 385,-899 334,-1115 -1223,0 -3233,-258 -3233,446l0 0z"/>
 </g>
</svg>
