<?xml version="1.0" encoding="UTF-8"?>
<!DOCTYPE svg PUBLIC "-//W3C//DTD SVG 1.1//EN" "http://www.w3.org/Graphics/SVG/1.1/DTD/svg11.dtd">
<!-- Creator: CorelDRAW 2020 (64-Bit) -->
<svg xmlns="http://www.w3.org/2000/svg" xml:space="preserve" width="2550px" height="3300px" version="1.1" style="shape-rendering:geometricPrecision; text-rendering:geometricPrecision; image-rendering:optimizeQuality; fill-rule:evenodd; clip-rule:evenodd"
viewBox="0 0 255000 330000"
 xmlns:xlink="http://www.w3.org/1999/xlink"
 xmlns:xodm="http://www.corel.com/coreldraw/odm/2003">
 <defs>
  <style type="text/css">
   <![CDATA[
    .fil1 {fill:#91BD29}
    .fil0 {fill:#91D8F7}
    .fil2 {fill:#D91E32}
   ]]>
  </style>
 </defs>
 <g id="Layer_x0020_1">
  <metadata id="CorelCorpID_0Corel-Layer"/>
  <path class="fil0" d="M91509 119873l0 2253c6692,0 15216,-1230 21186,-3606 16828,-6695 16309,-7726 28593,-4252 3439,973 6012,1890 9215,2957 2870,957 16136,5641 18089,5803 0,2889 450,3724 450,6311 0,20859 -8333,36842 -21298,49924 -2100,2119 -11076,9579 -14313,9579 -8285,0 -20984,-15499 -24793,-21187l-6762 0c440,5274 23035,28399 31104,28399 4002,0 9645,-4433 12624,-6759 5474,-4270 12794,-11479 16408,-16950 3770,-5712 6546,-10529 9007,-17588 3467,-9943 4334,-15769 4334,-26770 0,-3829 -831,-6342 -902,-9466l-30843 -10178c-2709,-769 -8530,-2896 -11079,-2896 -3234,0 -25534,8126 -31384,10088 -1870,627 -3446,1085 -5184,1578 -1712,485 -4452,786 -4452,2760l0 0 0 0z"/>
  <path class="fil1" d="M88224 127987l19962 0c-933,1274 -1747,1032 -4055,930 -3106,-135 -7200,-384 -5411,3127 2847,664 4808,-271 6312,450 -2853,4260 -12075,-1112 -12028,3146 32,2827 2738,1856 5242,1802 5142,-113 5766,409 8138,461l-4360 9165c-2616,5050 -17050,527 -18629,2105 -706,1472 -417,3052 1389,3319 1304,193 7346,-446 10338,-203 1936,158 4319,40 6303,40l0 902c-2095,46 -2237,55 -2705,1803 873,1191 1128,1307 3156,1352 -1316,4931 -8945,-1724 -10367,3606 3496,2341 10558,-621 11720,2254 -2474,1186 -12537,451 -16304,451 -2094,0 -5084,170 -7075,-69 -1839,-223 -4691,-1273 -5020,1273l0 857c397,2500 4790,1094 12037,1094 3165,0 21455,429 23598,-427 1401,-559 4123,-2335 5385,-3179 -491,-930 -626,-1068 -902,-2254 -1894,158 -1485,513 -3154,901 -231,-2767 -1804,-2958 -1804,-8564l2254 0 0 -3156 -2254 0c0,-4303 1043,-5300 1804,-8564 1669,388 1260,744 3154,901 327,-1400 576,-1305 902,-2704 -1185,-277 -1325,-410 -2254,-903 797,-1191 1923,-2416 2685,-3606 1487,-966 2071,-2169 4077,-2704 446,1671 455,582 902,2254 1071,-567 1536,-1040 2705,-1353 -313,-1167 -786,-1632 -1353,-2704 1483,-346 2366,-938 4044,-1366 1323,-338 3418,-854 4971,-888l0 2705 2706 0 0 -2705c1666,37 5104,724 6154,1352 1602,321 1377,556 2861,902 -567,1072 -1041,1537 -1353,2704l2695 1371c392,-1659 259,-1464 1362,-2272 2835,1898 3090,2269 4901,4566 620,787 852,913 1411,1744 -929,493 -1069,626 -2255,903 193,2305 343,610 902,2704 2306,-192 610,-342 2705,-901 1214,2295 2254,5051 2254,8564 -1832,0 -1452,-150 -2705,452l0 2253c1253,601 873,451 2705,451 0,2610 -472,3956 -1161,6064 -1239,3788 -869,1843 -3798,1599 -326,1399 -576,1306 -902,2705 2384,555 3949,2194 5861,2704 5554,-8294 5780,-16250 2075,-25516 -4808,-12031 -17498,-17351 -29639,-16022 -7500,822 -17413,968 -25177,968 -4291,0 -8583,0 -12873,0 -1295,0 -4907,-96 -8091,85 -1882,106 -5567,268 -3748,2527 1039,1289 5919,545 9707,545l0 -1 0 0zm-5281 6761c-1423,-1564 -3841,135 -2974,1782 926,1756 3583,964 2974,-1782zm-2253 9917c2078,0 2821,-311 4125,-387 2040,-119 6243,1594 6243,-1415 0,-2810 -4196,-1568 -5466,-1538l-4452 -266c-2398,0 -1809,3606 -450,3606l0 0z"/>
  <path class="fil2" d="M128472 150525c0,4634 4259,5361 8385,2076 2466,-1963 9509,-8416 10998,-10641 -3575,834 -7453,1832 -10988,2987 -3248,1059 -8395,1715 -8395,5578l0 0z"/>
  <path class="fil2" d="M125767 163148c0,3781 1702,2704 11721,2704 2809,0 1556,-3634 1352,-4508 -4945,0 -13073,-1042 -13073,1804l0 0z"/>
 </g>
</svg>
