<?xml version="1.0" encoding="UTF-8"?>
<!DOCTYPE svg PUBLIC "-//W3C//DTD SVG 1.1//EN" "http://www.w3.org/Graphics/SVG/1.1/DTD/svg11.dtd">
<!-- Creator: CorelDRAW 2020 (64-Bit) -->
<svg xmlns="http://www.w3.org/2000/svg" xml:space="preserve" width="500px" height="250px" version="1.1" style="shape-rendering:geometricPrecision; text-rendering:geometricPrecision; image-rendering:optimizeQuality; fill-rule:evenodd; clip-rule:evenodd"
viewBox="0 0 50000 25000"
 xmlns:xlink="http://www.w3.org/1999/xlink"
 xmlns:xodm="http://www.corel.com/coreldraw/odm/2003">
 <defs>
  <style type="text/css">
   <![CDATA[
    .fil0 {fill:#00A8A8}
   ]]>
  </style>
 </defs>
 <g id="Layer_x0020_1">
  <metadata id="CorelCorpID_0Corel-Layer"/>
  <path class="fil0" d="M26249 2375l-5036 5414c2770,2770 5540,5539 8310,8309 1007,1007 755,2266 0,3022l-4281 4280 4029 0c3022,-3021 6043,-6043 9065,-9065 1007,-1007 755,-2014 0,-2769 -3064,-3064 -6127,-6128 -9191,-9191 -1007,-1008 -2077,-819 -2896,0l0 0z"/>
  <path class="fil0" d="M23892 22713l5036 -5414c-2770,-2770 -5539,-5539 -8309,-8309 -1007,-1007 -756,-2266 0,-3022l4281 -4280 -4030 0c-3021,3022 -6043,6043 -9064,9065 -1007,1007 -755,2014 0,2770 3063,3063 6127,6127 9190,9190 1007,1008 2078,819 2896,0l0 0z"/>
 </g>
</svg>
