<?xml version="1.0" encoding="UTF-8"?>
<!DOCTYPE svg PUBLIC "-//W3C//DTD SVG 1.1//EN" "http://www.w3.org/Graphics/SVG/1.1/DTD/svg11.dtd">
<!-- Creator: CorelDRAW 2020 (64-Bit) -->
<svg xmlns="http://www.w3.org/2000/svg" xml:space="preserve" width="2550px" height="3300px" version="1.1" style="shape-rendering:geometricPrecision; text-rendering:geometricPrecision; image-rendering:optimizeQuality; fill-rule:evenodd; clip-rule:evenodd"
viewBox="0 0 255000 330000"
 xmlns:xlink="http://www.w3.org/1999/xlink"
 xmlns:xodm="http://www.corel.com/coreldraw/odm/2003">
 <defs>
  <style type="text/css">
   <![CDATA[
    .fil0 {fill:#00A8A8}
   ]]>
  </style>
 </defs>
 <g id="Layer_x0020_1">
  <metadata id="CorelCorpID_0Corel-Layer"/>
  <path class="fil0" d="M135006 110384l-26256 28225c14441,14441 28881,28882 43322,43322 5250,5250 3937,11813 0,15753l-22319 22316 21006 0c15754,-15753 31507,-31506 47260,-47259 5250,-5250 3937,-10503 0,-14441 -15972,-15972 -31944,-31944 -47916,-47916 -5250,-5253 -10831,-4268 -15097,0z"/>
  <path class="fil0" d="M122716 216419l26256 -28225c-14441,-14441 -28881,-28882 -43322,-43322 -5250,-5250 -3938,-11813 0,-15753l22319 -22316 -21007 0c-15753,15753 -31506,31506 -47259,47259 -5250,5250 -3937,10503 0,14441 15972,15972 31944,31944 47916,47916 5250,5253 10831,4268 15097,0z"/>
 </g>
</svg>
