<?xml version="1.0" encoding="UTF-8"?>
<!DOCTYPE svg PUBLIC "-//W3C//DTD SVG 1.1//EN" "http://www.w3.org/Graphics/SVG/1.1/DTD/svg11.dtd">
<!-- Creator: CorelDRAW 2020 (64-Bit) -->
<svg xmlns="http://www.w3.org/2000/svg" xml:space="preserve" width="500px" height="250px" version="1.1" style="shape-rendering:geometricPrecision; text-rendering:geometricPrecision; image-rendering:optimizeQuality; fill-rule:evenodd; clip-rule:evenodd"
viewBox="0 0 50000 25000"
 xmlns:xlink="http://www.w3.org/1999/xlink"
 xmlns:xodm="http://www.corel.com/coreldraw/odm/2003">
 <defs>
  <style type="text/css">
   <![CDATA[
    .fil2 {fill:#27A9E1}
    .fil0 {fill:#BDBFC1}
    .fil1 {fill:#EC1C24}
    .fil3 {fill:#FFF200}
   ]]>
  </style>
 </defs>
 <g id="Layer_x0020_1">
  <metadata id="CorelCorpID_0Corel-Layer"/>
  <path class="fil0" d="M25215 3491c1731,-770 2724,1844 1218,2562 -1778,847 -2958,-1786 -1218,-2562zm-1961 1385c0,1243 844,2146 1827,2375l0 11562c-69,1778 1462,1676 1462,150 0,-2402 237,-9910 -183,-11712 2892,-674 2703,-4933 -913,-4933 -1081,0 -2193,1091 -2193,2558z"/>
  <path class="fil0" d="M28370 12550l0 7126c0,373 146,516 347,548l222 0c838,-103 710,-202 710,-906l0 -2931c645,742 1359,3837 2011,3837 861,0 731,-403 731,-1042l1 -5537c13,-1145 244,-1643 -732,-1643 -898,0 -549,2220 -549,4020 -143,-165 -64,70 -296,-435l-644 -1731c-317,-800 -516,-1854 -1253,-1854 -420,0 -548,127 -548,548l0 0 0 0 0 0z"/>
  <path class="fil0" d="M34393 7745c1632,-1031 2899,1725 1326,2470 -1649,780 -3017,-1402 -1326,-2470zm7 3709c0,2474 18,4953 -5,7426 -18,1822 1284,1643 1284,41l0 -7467c2364,-551 3012,-4934 -1096,-4934 -2328,0 -3152,4242 -183,4934z"/>
  <path class="fil0" d="M16090 7716c1689,-970 2837,1690 1334,2478 -1714,898 -2960,-1545 -1334,-2478zm-1972 1180c0,1234 994,2321 2010,2558l6 7602c20,1479 1254,1345 1296,71 27,-807 -23,-1921 -23,-2922 0,-1584 0,-3168 0,-4751 1229,-651 1827,-875 1827,-2741 0,-1865 -2731,-3122 -4347,-1424 -319,334 -769,1051 -769,1607l0 0z"/>
  <path class="fil0" d="M40337 16783l-946 -14 493 -1932c138,594 300,1290 452,1946l0 0 1 0zm1737 3086c-55,222 -215,355 -548,355 -146,0 -537,-67 -537,-67 0,0 -408,-1476 -560,-2125 0,0 -1283,53 -1283,53 0,0 -543,2139 -543,2139l-365 0c-1186,0 -348,-2019 143,-4059 360,-1498 878,-4163 1501,-4163 643,0 1056,2396 1353,3763 172,791 330,1288 487,2071 158,780 352,1217 352,2033l0 0 0 0z"/>
  <path class="fil0" d="M19234 14377c0,1446 -621,5847 1827,5847 2408,0 2740,-3106 1645,-3106 -714,0 -749,281 -736,628 37,960 -842,1639 -1307,684 -253,-587 -150,-2858 -150,-3687 0,-1543 1169,-2197 1440,-527 120,737 -93,892 753,892 1134,0 634,-3106 -1462,-3106 -1277,0 -2010,1057 -2010,2375l0 0 0 0 0 0z"/>
  <path class="fil0" d="M9732 12550c0,687 241,1330 402,1973l891 3860c88,445 184,888 318,1296 263,796 1051,870 1271,-32l279 -1146 1085 -4446c210,-1004 515,-1506 192,-1726 -637,-431 -984,-166 -1169,429 -453,1452 -628,2765 -983,4165 -365,-1384 -582,-2763 -1004,-4185 -167,-561 -463,-847 -1126,-461 -95,55 -156,141 -156,273l0 0 0 0 0 0z"/>
  <path class="fil1" d="M25215 3491c-1740,776 -560,3409 1218,2562 1506,-718 513,-3332 -1218,-2562z"/>
  <path class="fil2" d="M16090 7716c-1626,933 -380,3376 1334,2478 1503,-788 355,-3448 -1334,-2478z"/>
  <path class="fil3" d="M34393 7745c-1691,1068 -323,3250 1326,2470 1573,-745 306,-3501 -1326,-2470z"/>
 </g>
</svg>
