<?xml version="1.0" encoding="UTF-8"?>
<!DOCTYPE svg PUBLIC "-//W3C//DTD SVG 1.1//EN" "http://www.w3.org/Graphics/SVG/1.1/DTD/svg11.dtd">
<!-- Creator: CorelDRAW 2020 (64-Bit) -->
<svg xmlns="http://www.w3.org/2000/svg" xml:space="preserve" width="2400px" height="2400px" version="1.1" style="shape-rendering:geometricPrecision; text-rendering:geometricPrecision; image-rendering:optimizeQuality; fill-rule:evenodd; clip-rule:evenodd"
viewBox="0 0 240000 240000"
 xmlns:xlink="http://www.w3.org/1999/xlink"
 xmlns:xodm="http://www.corel.com/coreldraw/odm/2003">
 <defs>
  <style type="text/css">
   <![CDATA[
    .fil0 {fill:#BDBFC1}
    .fil2 {fill:#27A9E1}
    .fil1 {fill:#EC1C24}
    .fil3 {fill:#FFF200}
   ]]>
  </style>
 </defs>
 <g id="Layer_x0020_1">
  <metadata id="CorelCorpID_0Corel-Layer"/>
  <path class="fil0" d="M117294 53778c8602,-3831 13537,9166 6052,12733 -8839,4212 -14706,-8880 -6052,-12733zm-9753 6881c0,6184 4196,10671 9085,11810l0 57484c-346,8842 7269,8337 7269,749 0,-11949 1178,-49272 -910,-58233 14376,-3348 13435,-24528 -4542,-24528 -5372,0 -10902,5426 -10902,12718z"/>
  <path class="fil0" d="M132979 98815l0 35431c0,1851 723,2562 1726,2725l1101 0c4169,-513 3532,-1007 3532,-4504l0 -14574c3206,3689 6752,19078 9993,19078 4286,0 3634,-2006 3635,-5185l7 -27528c62,-5694 1215,-8168 -3642,-8168 -4459,0 -2725,11037 -2725,19986 -712,-819 -322,351 -1475,-2159l-3199 -8611c-1577,-3976 -2563,-9216 -6228,-9216 -2093,0 -2725,632 -2725,2725l0 0z"/>
  <path class="fil0" d="M162925 74924c8110,-5124 14411,8576 6589,12280 -8194,3879 -14995,-6970 -6589,-12280zm33 18440c0,12300 91,24627 -27,36922 -87,9058 6386,8169 6386,205l0 -37127c11754,-2738 14974,-24528 -5450,-24528 -11574,0 -15671,21089 -909,24528z"/>
  <path class="fil0" d="M71927 74779c8392,-4818 14102,8408 6630,12321 -8523,4463 -14716,-7680 -6630,-12321zm-9809 5867c0,6133 4943,11542 9993,12718l31 37796c97,7353 6235,6688 6444,354 131,-4009 -115,-9548 -115,-14529 0,-7873 0,-15747 0,-23621 6113,-3235 9084,-4350 9084,-13627 0,-9274 -13579,-15520 -21616,-7079 -1580,1659 -3821,5227 -3821,7988z"/>
  <path class="fil0" d="M192471 119862l-4701 -69 2453 -9607c686,2953 1490,6410 2248,9676zm8643 15340c-278,1103 -1070,1769 -2725,1769 -727,0 -2674,-336 -2674,-336 0,0 -2024,-7335 -2778,-10565 0,0 -6384,262 -6384,262 0,0 -2700,10639 -2700,10639l-1817 0c-5896,0 -1722,-10043 714,-20181 1789,-7451 4366,-20700 7463,-20700 3197,0 5254,11910 6728,18708 854,3933 1643,6405 2424,10295 778,3879 1749,6054 1749,10109l0 0z"/>
  <path class="fil0" d="M87555 107899c0,7191 -3088,29072 9085,29072 11969,0 13623,-15444 8176,-15444 -3547,0 -3723,1394 -3656,3125 184,4772 -4186,8143 -6501,3399 -1258,-2919 -745,-14210 -745,-18334 0,-7671 5810,-10923 7161,-2618 597,3663 -462,4435 3741,4435 5640,0 3152,-15445 -7267,-15445 -6351,0 -9994,5255 -9994,11810l0 0z"/>
  <path class="fil0" d="M40314 98815c0,3417 1194,6614 1999,9812l4428 19192c438,2210 914,4410 1583,6442 1303,3956 5225,4321 6317,-159l1390 -5699 5392 -22106c1046,-4990 2564,-7488 953,-8579 -3168,-2146 -4888,-829 -5811,2134 -2249,7215 -3120,13745 -4886,20704 -1816,-6879 -2893,-13735 -4993,-20808 -828,-2789 -2302,-4207 -5595,-2292 -475,276 -777,703 -777,1359l0 0z"/>
  <path class="fil1" d="M117294 53778c-8654,3853 -2787,16945 6052,12733 7485,-3567 2550,-16564 -6052,-12733z"/>
  <path class="fil2" d="M71927 74779c-8086,4641 -1893,16784 6630,12321 7472,-3913 1762,-17139 -6630,-12321z"/>
  <path class="fil3" d="M162925 74924c-8406,5310 -1605,16159 6589,12280 7822,-3704 1521,-17404 -6589,-12280z"/>
 </g>
</svg>
