<?xml version="1.0" encoding="UTF-8"?>
<!DOCTYPE svg PUBLIC "-//W3C//DTD SVG 1.1//EN" "http://www.w3.org/Graphics/SVG/1.1/DTD/svg11.dtd">
<!-- Creator: CorelDRAW 2020 (64-Bit) -->
<svg xmlns="http://www.w3.org/2000/svg" xml:space="preserve" width="2550px" height="3300px" version="1.1" style="shape-rendering:geometricPrecision; text-rendering:geometricPrecision; image-rendering:optimizeQuality; fill-rule:evenodd; clip-rule:evenodd"
viewBox="0 0 255000 330000"
 xmlns:xlink="http://www.w3.org/1999/xlink"
 xmlns:xodm="http://www.corel.com/coreldraw/odm/2003">
 <defs>
  <style type="text/css">
   <![CDATA[
    .fil0 {fill:#848688}
    .fil2 {fill:#00FD00}
    .fil1 {fill:white}
   ]]>
  </style>
 </defs>
 <g id="Layer_x0020_1">
  <metadata id="CorelCorpID_0Corel-Layer"/>
  <path class="fil0" d="M144076 199496c6065,-134 13405,-5 19621,-5 1389,0 13777,-161 14548,153 1410,575 1451,2270 84,2905 -810,377 -35070,140 -39032,164 -21130,128 -42516,6 -63700,6 -1580,0 -3348,74 -4904,-1 -1871,-91 -2256,-1851 -1366,-2683 904,-844 3002,-570 4389,-539 -901,-2335 -830,-2349 -830,-5091l-1 -17700c3,-7870 2,-15733 1,-23600 -1,-1082 -21,-5118 84,-5827 462,-3119 3161,-5364 6426,-5390 9774,-75 19689,53 29501,9 7874,-36 15731,-4 23600,-6 1960,0 3943,-29 5901,1 1936,30 3219,617 4321,1586 2690,2367 2190,5380 2190,9627l0 41300c0,2636 83,2838 -833,5091z"/>
  <path class="fil1" d="M76106 154717l65580 2c-112,6404 -40,12967 -5,19386 35,6463 0,12938 0,19400 0,1340 212,3313 -418,4381 -697,1180 -1853,1608 -3265,1606l-29101 -1c-6462,0 -12944,1 -19400,0 -3233,0 -6467,-1 -9700,1 -1405,2 -2493,-358 -3226,-1546 -697,-1130 -460,-3020 -460,-4441l0 -29100c0,-3190 -92,-6518 -5,-9688z"/>
  <path class="fil0" d="M135881 157952c1263,235 2188,1099 2515,2270 229,818 115,7869 115,9283 0,2014 35,2458 -1103,3614 -962,975 -2401,801 -3911,801l-47000 0c-2750,0 -6248,713 -7099,-2332 -234,-838 -117,-7854 -117,-9283 0,-1960 -41,-2508 1108,-3608 1036,-992 2337,-808 3908,-808 1569,0 3135,2 4700,0l42300 0c1166,0 3565,-127 4584,63z"/>
  <path class="fil2" d="M148075 161132l11 -3245c3731,32 7475,2 11211,2 1919,0 9740,257 10907,-289 403,-189 543,-268 828,-563 985,-1017 1055,-1442 1052,-3132l0 -44800c0,-816 69,-2010 -33,-2781 -145,-1105 -860,-2035 -1700,-2461 -315,-160 -683,-261 -1075,-309l-8379 -31c-14909,-175 -29881,133 -44800,1 -1863,-17 -3733,4 -5600,1 -1561,-4 -3028,264 -3705,1860 -558,1316 -278,8886 -278,10920 0,7417 -175,15034 7,22428l-3246 -11c125,-4062 9,-8327 11,-12417l0 -18600c-4,-2093 233,-3510 1316,-4891 2404,-3066 5284,-2525 9895,-2525 16534,0 33070,0 49600,0 4648,0 7467,-571 9896,2525 1081,1379 1316,2794 1316,4891l0 43400c0,3501 516,7008 -3231,9184 -1693,984 -3306,832 -5381,832 -6016,0 -12783,-157 -18622,11z"/>
  <polygon class="fil1" points="135285,161705 135286,170690 82507,170689 82509,161121 135290,161121 "/>
  <path class="fil1" d="M141685 151489l-65576 0c32,-2333 -667,-6297 3385,-6371 3244,-59 6550,1 9803,1 9802,0 19599,0 29400,0 3214,0 6630,-114 9800,-5 3228,112 6561,-55 9804,4 4069,74 3351,4072 3384,6371z"/>
  <path class="fil0" d="M94239 177121c972,169 1799,750 2265,1587 557,1002 410,2164 410,3397 0,1267 -1,2533 0,3800 0,1473 -8,2031 -853,2958 -702,770 -1372,1061 -2763,1056l-7601 -1c-2256,14 -4887,501 -6006,-1618 -656,-1241 -408,-5572 -410,-7195 -2,-1800 348,-3085 1973,-3758 663,-274 915,-259 1643,-258 1473,3 10726,-75 11342,32z"/>
  <path class="fil0" d="M115087 177151c477,95 1133,370 1389,574 1433,1140 1234,2753 1233,4480 -1,1266 -3,2533 0,3800 5,1631 -55,1905 -899,2910 -421,501 -406,479 -1142,777 -983,398 -4293,226 -5471,226 -1197,0 -6830,83 -7542,-59 -2903,-579 -2569,-3354 -2569,-5054 0,-1267 1,-2534 0,-3800 -2,-1855 420,-3040 2040,-3688 974,-389 4306,-226 5471,-226 1189,0 6779,-82 7490,60z"/>
  <path class="fil0" d="M135888 177150c2856,567 2624,3153 2623,5055 -1,1266 8,2534 -1,3800 -14,1840 -406,3030 -2041,3687 -1003,403 -4261,213 -5472,223 -1107,9 -6907,81 -7541,-49 -978,-201 -1735,-793 -2203,-1628 -538,-962 -362,-2291 -366,-3433 -4,-1261 3,-2533 -2,-3800 -8,-1840 424,-3035 2040,-3687 1002,-404 4262,-218 5472,-228l7491 60z"/>
  <polygon class="fil1" points="93682,186713 82508,186689 82509,180319 93686,180319 "/>
  <polygon class="fil1" points="114483,186690 103306,186692 103298,180319 114486,180320 "/>
  <polygon class="fil1" points="135289,186695 124110,186690 124110,180319 135289,180327 "/>
  <path class="fil0" d="M95709 193139c1608,481 1573,2521 180,3071 -566,224 -8983,110 -10292,110 -923,0 -4523,114 -5145,-58 -1505,-417 -1591,-2498 -147,-3063 602,-236 4166,-98 5092,-107 1408,-13 9621,-160 10312,47z"/>
  <path class="fil0" d="M137303 193142c1636,494 1573,2525 186,3068 -566,222 -8987,110 -10292,110 -922,0 -4523,114 -5144,-58 -1496,-414 -1584,-2498 -144,-3062 579,-227 4185,-109 5088,-110 1458,-2 9581,-167 10306,52z"/>
  <path class="fil0" d="M116506 193140c1645,502 1535,2538 185,3073 -418,165 -14792,227 -15439,49 -1516,-418 -1556,-2506 -143,-3062 586,-231 15055,-164 15397,-60z"/>
  <path class="fil2" d="M116561 117105c893,584 3163,1413 3839,1991 1289,1102 24,3575 -1910,2628 -1308,-642 -2591,-1327 -3920,-1978 -666,-327 -1288,-633 -1939,-963 -759,-384 -1348,-643 -1347,-1678 2,-1358 1532,-1792 3217,-2609 1313,-637 2599,-1322 3929,-1973 1947,-953 3218,1271 2026,2547 -391,418 -3135,1539 -3895,2035z"/>
  <path class="fil2" d="M116561 130705c772,503 3391,1554 3844,1983 1275,1204 7,3546 -1909,2633l-5864 -2938c-766,-382 -1347,-648 -1348,-1679 -2,-1357 1585,-1810 3217,-2607 1316,-643 2591,-1313 3931,-1973 1915,-943 3239,1245 2025,2547 -410,440 -3121,1527 -3896,2034z"/>
  <path class="fil2" d="M162034 130705c-882,-577 -3173,-1418 -3838,-1991 -1275,-1098 -55,-3562 1901,-2623l5865 2936c755,372 1348,632 1348,1678 0,1361 -1536,1790 -3216,2608 -1325,645 -2610,1318 -3929,1974 -1979,984 -3220,-1373 -2016,-2538 518,-502 3053,-1502 3885,-2044z"/>
  <path class="fil2" d="M162033 117105c-794,-547 -3307,-1490 -3822,-2012 -1249,-1267 20,-3491 1886,-2602 512,244 6495,3133 6807,3504 214,254 406,652 406,1110 2,1364 -1490,1761 -3216,2608l-3930 1972c-1996,984 -3206,-1378 -2025,-2542 522,-514 3064,-1466 3894,-2038z"/>
  <path class="fil2" d="M155633 143505c-889,-614 -3124,-1383 -3837,-1991 -1265,-1079 -44,-3550 1902,-2625l5860 2940c770,397 1352,634 1353,1677 1,1657 -3475,2563 -5170,3536 -622,357 -1288,703 -1977,1043 -2021,997 -3195,-1392 -2023,-2541 531,-520 3063,-1468 3892,-2039z"/>
  <path class="fil2" d="M136695 115553c631,179 1036,506 1169,1197 148,761 -176,1344 -576,1651 -507,390 -3462,486 -4234,256 -1220,-364 -1428,-2045 -522,-2819 647,-552 3857,-372 4163,-285z"/>
  <path class="fil2" d="M153097 118696c-355,32 -1623,89 -1958,-68 -218,-1164 -344,-2557 -507,-3771 -87,-653 -604,-2581 1465,-2578 2027,2 1560,1735 1466,2563 -148,1293 -323,2550 -466,3854z"/>
  <path class="fil2" d="M136047 129182c501,154 952,384 1122,1162 154,702 -185,1330 -533,1606 -713,565 -3717,401 -4056,285 -1155,-398 -1490,-1979 -514,-2767 637,-515 3099,-559 3981,-286z"/>
  <path class="fil2" d="M145096 129147c1186,353 1670,1876 690,2749 -712,636 -3601,465 -4032,356 -1179,-298 -1585,-1935 -649,-2744 725,-627 3684,-453 3991,-361z"/>
  <path class="fil0" d="M185317 199535c1494,448 1417,2096 685,2786 -530,500 -3069,560 -3955,345 -1248,-303 -2336,-3186 1150,-3175 438,1 1802,-51 2120,44z"/>
  <path class="fil0" d="M66115 199536c1537,457 1391,2162 682,2777 -655,569 -3657,433 -3947,352 -1197,-337 -1591,-1892 -647,-2763 475,-438 1068,-414 1794,-411 441,1 1796,-50 2118,45z"/>
  <path class="fil2" d="M152935 129130c925,270 1569,1360 933,2439 -590,1000 -2410,860 -3018,694 -915,-251 -1551,-1367 -931,-2420 599,-1018 2552,-848 3016,-713z"/>
  <path class="fil2" d="M126916 129135c1763,524 1498,2995 -224,3174 -401,42 -1492,51 -1846,-43 -910,-243 -1545,-1361 -921,-2426 209,-355 563,-675 1175,-741 269,-29 1612,-24 1816,36z"/>
  <path class="fil2" d="M145315 115535c1736,516 1537,2954 -223,3170 -370,46 -1518,49 -1846,-38 -1647,-438 -1522,-2970 255,-3167 298,-33 1575,-35 1814,35z"/>
  <path class="fil2" d="M126490 115585c722,222 799,213 1057,870 496,1265 -508,2201 -1251,2245 -408,24 -1506,69 -1851,-24 -1658,-449 -1557,-2997 256,-3187 557,-59 1315,-49 1789,96z"/>
  <path class="fil0" d="M58916 199536c1000,287 1339,1182 1138,2015 -189,780 -972,1397 -2003,1114 -2036,-560 -1173,-3714 865,-3129z"/>
  <path class="fil0" d="M190112 199539c2116,622 1192,3694 -861,3126 -2009,-556 -1199,-3732 861,-3126z"/>
  <path class="fil2" d="M82162 146797c483,178 689,257 944,706 681,1195 -379,2821 -1932,2327 -1977,-629 -993,-3762 988,-3033z"/>
  <path class="fil2" d="M88562 146797c2185,804 974,3666 -987,3029 -1990,-647 -986,-3754 987,-3029z"/>
  <path class="fil2" d="M152565 119774c704,312 889,914 604,1489 -246,494 -902,842 -1573,553 -1401,-603 -450,-2671 969,-2042z"/>
 </g>
</svg>
