<?xml version="1.0" encoding="UTF-8"?>
<!DOCTYPE svg PUBLIC "-//W3C//DTD SVG 1.1//EN" "http://www.w3.org/Graphics/SVG/1.1/DTD/svg11.dtd">
<!-- Creator: CorelDRAW 2020 (64-Bit) -->
<svg xmlns="http://www.w3.org/2000/svg" xml:space="preserve" width="500px" height="250px" version="1.1" style="shape-rendering:geometricPrecision; text-rendering:geometricPrecision; image-rendering:optimizeQuality; fill-rule:evenodd; clip-rule:evenodd"
viewBox="0 0 50000 25000"
 xmlns:xlink="http://www.w3.org/1999/xlink"
 xmlns:xodm="http://www.corel.com/coreldraw/odm/2003">
 <defs>
  <style type="text/css">
   <![CDATA[
    .fil2 {fill:#00FD00}
    .fil0 {fill:#848688}
    .fil1 {fill:white}
   ]]>
  </style>
 </defs>
 <g id="Layer_x0020_1">
  <metadata id="CorelCorpID_0Corel-Layer"/>
  <path class="fil0" d="M29962 23461c1369,-31 3026,-2 4429,-2 314,0 3110,-36 3284,35 318,130 328,512 19,656 -183,85 -7917,31 -8811,37 -4770,29 -9598,1 -14380,1 -357,0 -756,17 -1107,0 -422,-21 -509,-418 -308,-606 204,-190 677,-128 990,-121 -203,-527 -187,-531 -187,-1150l0 -3995c0,-1777 0,-3552 0,-5328 0,-244 -5,-1155 19,-1315 104,-704 714,-1211 1451,-1217 2206,-17 4444,12 6659,2 1778,-8 3551,-1 5328,-1 442,0 890,-7 1332,0 437,7 727,139 975,358 608,534 495,1214 495,2173l0 9323c0,595 18,641 -188,1150l0 0z"/>
  <path class="fil1" d="M14618 13352l14804 1c-25,1445 -9,2927 -1,4376 8,1459 0,2920 0,4379 0,303 48,748 -94,989 -158,267 -419,363 -737,363l-6570 -1c-1458,0 -2922,1 -4379,0 -730,0 -1460,0 -2190,1 -317,0 -563,-81 -728,-349 -157,-255 -104,-682 -104,-1003l0 -6569c0,-720 -21,-1471 -1,-2187l0 0z"/>
  <path class="fil0" d="M28112 14082c285,53 494,248 567,513 52,184 26,1776 26,2095 0,455 8,555 -249,816 -217,220 -542,181 -882,181l-10610 0c-621,0 -1411,161 -1603,-526 -53,-190 -26,-1773 -26,-2096 0,-442 -10,-566 250,-814 234,-224 527,-183 882,-183 354,0 708,1 1061,0l9549 0c263,0 805,-29 1035,14l0 0z"/>
  <path class="fil2" d="M30864 14800l3 -732c842,7 1687,0 2531,0 433,0 2198,58 2462,-65 91,-43 123,-61 187,-127 222,-230 238,-326 237,-707l0 -10114c0,-184 16,-453 -7,-627 -33,-250 -194,-460 -384,-556 -71,-36 -154,-59 -243,-70l-1891 -7c-3366,-39 -6746,30 -10113,1 -421,-4 -843,0 -1265,0 -352,-1 -683,59 -836,420 -126,297 -63,2006 -63,2465 0,1674 -39,3394 2,5063l-733 -3c28,-917 2,-1879 3,-2803l0 -4199c-1,-472 52,-792 297,-1104 542,-692 1193,-570 2233,-570 3733,0 7466,0 11197,0 1050,0 1686,-129 2234,570 244,312 297,631 297,1104l0 9798c0,790 117,1582 -729,2073 -382,222 -746,188 -1215,188 -1358,0 -2885,-36 -4204,2z"/>
  <polygon class="fil1" points="27977,14930 27977,16958 16063,16958 16063,14798 27978,14798 "/>
  <path class="fil1" d="M29422 12623l-14803 0c7,-526 -151,-1421 764,-1438 732,-13 1478,0 2213,0 2212,0 4424,0 6637,0 725,0 1496,-25 2212,-1 728,26 1481,-12 2213,1 919,17 757,919 764,1438z"/>
  <path class="fil0" d="M18711 18410c220,38 406,169 512,358 125,226 92,488 92,767 0,286 0,572 0,858 0,332 -2,458 -192,667 -159,174 -310,240 -624,239l-1716 -1c-509,4 -1103,114 -1356,-365 -148,-280 -92,-1258 -92,-1624 -1,-406 78,-696 445,-848 150,-62 207,-59 371,-59 332,1 2421,-17 2560,8l0 0z"/>
  <path class="fil0" d="M23418 18416c107,22 255,84 313,130 324,257 279,621 279,1011 -1,286 -1,572 0,858 1,368 -13,430 -203,657 -95,113 -92,108 -258,175 -222,90 -969,51 -1235,51 -271,0 -1542,19 -1703,-13 -655,-131 -580,-757 -580,-1141 0,-286 0,-572 0,-858 0,-418 95,-686 461,-832 220,-88 972,-51 1235,-51 268,0 1530,-19 1691,13l0 0z"/>
  <path class="fil0" d="M28113 18416c645,128 593,712 592,1141 0,286 2,572 0,858 -3,415 -91,684 -461,832 -226,91 -961,48 -1235,51 -250,2 -1559,18 -1702,-11 -221,-46 -392,-179 -498,-368 -121,-217 -81,-517 -82,-775 -1,-284 1,-572 -1,-858 -1,-415 96,-685 461,-832 226,-91 962,-49 1235,-51l1691 13 0 0z"/>
  <polygon class="fil1" points="18586,20575 16063,20570 16063,19132 18586,19132 "/>
  <polygon class="fil1" points="23281,20570 20758,20570 20756,19132 23282,19132 "/>
  <polygon class="fil1" points="27978,20571 25454,20570 25454,19132 27978,19133 "/>
  <path class="fil0" d="M19043 22026c363,108 355,569 41,693 -128,50 -2028,25 -2324,25 -208,0 -1021,25 -1161,-13 -340,-95 -359,-564 -33,-692 136,-53 940,-22 1149,-24 318,-3 2172,-36 2328,11l0 0z"/>
  <path class="fil0" d="M28433 22026c369,112 355,570 42,693 -128,50 -2029,25 -2324,25 -208,0 -1021,25 -1161,-13 -338,-94 -357,-564 -32,-692 130,-51 944,-24 1148,-24 329,-1 2163,-38 2327,11z"/>
  <path class="fil0" d="M23738 22026c371,113 346,573 42,694 -95,37 -3340,51 -3486,11 -342,-95 -351,-566 -32,-692 132,-52 3399,-37 3476,-13l0 0z"/>
  <path class="fil2" d="M23750 4861c202,132 714,319 867,450 291,249 5,807 -431,593 -295,-145 -585,-299 -885,-446 -150,-74 -291,-143 -438,-218 -171,-86 -304,-145 -304,-379 1,-306 346,-404 726,-589 297,-143 587,-298 887,-445 440,-215 727,287 458,575 -89,94 -708,347 -880,459l0 0z"/>
  <path class="fil2" d="M23750 7931c175,114 766,351 868,448 288,272 2,801 -431,595l-1324 -664c-173,-86 -304,-146 -304,-379 0,-306 358,-408 726,-588 297,-145 585,-297 888,-446 432,-213 731,281 457,575 -93,100 -705,345 -880,459l0 0z"/>
  <path class="fil2" d="M34016 7931c-200,-130 -717,-320 -867,-449 -288,-248 -12,-804 429,-592l1324 663c171,84 305,142 305,378 0,308 -347,405 -726,589 -300,146 -590,298 -887,446 -447,222 -727,-310 -455,-573 116,-113 689,-339 877,-462z"/>
  <path class="fil2" d="M34015 4861c-179,-123 -746,-336 -862,-454 -282,-286 4,-788 425,-587 116,55 1466,707 1537,791 48,57 92,147 92,250 0,308 -337,398 -726,589l-888 445c-450,222 -723,-311 -457,-574 118,-116 692,-330 879,-460z"/>
  <path class="fil2" d="M32571 10821c-201,-139 -706,-312 -867,-449 -285,-244 -9,-802 430,-593l1323 664c173,89 305,143 305,378 0,374 -784,579 -1167,798 -140,81 -291,159 -446,236 -457,225 -722,-314 -457,-574 120,-117 691,-331 879,-460z"/>
  <path class="fil2" d="M28295 4511c143,40 234,114 264,270 34,172 -39,304 -130,373 -114,88 -781,110 -956,58 -275,-82 -322,-462 -117,-637 146,-124 870,-84 939,-64z"/>
  <path class="fil2" d="M31998 5220c-80,8 -366,21 -442,-15 -49,-263 -78,-577 -114,-851 -20,-147 -137,-583 330,-582 458,0 353,392 331,578 -33,292 -73,576 -105,870z"/>
  <path class="fil2" d="M28149 7588c113,35 215,86 253,262 35,158 -41,300 -120,363 -161,127 -839,90 -916,64 -260,-90 -336,-447 -116,-625 144,-116 700,-126 899,-64l0 0z"/>
  <path class="fil2" d="M30192 7580c268,79 377,423 156,620 -161,144 -813,105 -910,81 -267,-68 -358,-437 -147,-620 164,-141 832,-102 901,-81z"/>
  <path class="fil0" d="M39272 23469c337,102 319,474 154,629 -119,113 -693,127 -893,78 -281,-68 -527,-719 260,-717 99,1 407,-11 479,10z"/>
  <path class="fil0" d="M12363 23470c346,103 314,488 153,627 -147,128 -825,97 -890,79 -271,-76 -360,-427 -147,-624 108,-99 241,-93 405,-93 100,1 406,-11 479,11l0 0z"/>
  <path class="fil2" d="M31962 7576c208,61 354,307 210,550 -133,226 -544,195 -681,157 -207,-56 -350,-308 -210,-546 135,-230 576,-192 681,-161z"/>
  <path class="fil2" d="M26088 7577c398,118 338,676 -51,717 -90,9 -336,11 -416,-10 -206,-55 -349,-307 -208,-548 47,-80 127,-152 265,-167 61,-7 364,-5 410,8z"/>
  <path class="fil2" d="M30241 4507c392,116 347,667 -50,716 -84,10 -343,11 -417,-9 -372,-99 -343,-670 58,-715 67,-7 355,-8 409,8z"/>
  <path class="fil2" d="M25992 4518c163,50 180,48 238,197 112,285 -114,497 -282,506 -92,6 -340,16 -418,-5 -374,-101 -351,-677 58,-719 126,-14 297,-12 404,21z"/>
  <path class="fil0" d="M10737 23470c226,64 303,266 257,454 -42,177 -219,316 -452,252 -459,-126 -265,-838 195,-706l0 0z"/>
  <path class="fil0" d="M40354 23470c478,141 269,834 -194,706 -454,-125 -271,-843 194,-706z"/>
  <path class="fil2" d="M15985 11564c109,40 156,58 213,160 154,269 -85,636 -436,525 -446,-142 -224,-849 223,-685l0 0z"/>
  <path class="fil2" d="M17430 11564c493,182 220,828 -223,684 -449,-146 -223,-847 223,-684z"/>
  <path class="fil2" d="M31878 5464c159,70 201,206 136,336 -55,112 -203,190 -355,125 -316,-136 -101,-603 219,-461l0 0z"/>
 </g>
</svg>
