<?xml version="1.0" encoding="UTF-8"?>
<!DOCTYPE svg PUBLIC "-//W3C//DTD SVG 1.1//EN" "http://www.w3.org/Graphics/SVG/1.1/DTD/svg11.dtd">
<!-- Creator: CorelDRAW 2020 (64-Bit) -->
<svg xmlns="http://www.w3.org/2000/svg" xml:space="preserve" width="1.85417in" height="0.093748in" version="1.1" style="shape-rendering:geometricPrecision; text-rendering:geometricPrecision; image-rendering:optimizeQuality; fill-rule:evenodd; clip-rule:evenodd"
viewBox="0 0 1854.17 93.75"
 xmlns:xlink="http://www.w3.org/1999/xlink"
 xmlns:xodm="http://www.corel.com/coreldraw/odm/2003">
 <defs>
  <style type="text/css">
   <![CDATA[
    .fil0 {fill:#EDFFFF}
   ]]>
  </style>
 </defs>
 <g id="Layer_x0020_1">
  <metadata id="CorelCorpID_0Corel-Layer"/>
  <polygon class="fil0" points="406.32,64.24 406.32,98.96 562.57,98.97 562.57,64.25 593.82,64.25 593.82,98.96 749.94,98.97 749.94,64.25 781.19,64.25 781.19,98.96 937.5,98.96 937.5,64.24 1062.63,64.24 1062.63,98.96 1218.69,98.96 1218.69,64.24 1343.82,64.24 1343.82,98.96 1500.07,98.97 1500.07,64.25 1531.32,64.25 1531.32,98.96 1687.44,98.97 1687.44,64.25 1718.69,64.25 1718.69,98.96 1854.17,98.96 1854.17,-5.21 1718.69,-5.2 1718.69,29.53 1593.56,29.53 1593.56,-5.21 1437.5,-5.21 1437.5,29.52 1312.37,29.52 1312.37,-5.21 1156.12,-5.2 1156.12,29.52 1124.87,29.52 1124.87,-5.21 968.75,-5.2 968.75,29.52 937.5,29.52 937.5,-5.21 781.19,-5.21 781.19,29.52 656.06,29.52 656.06,-5.21 500,-5.21 500,29.52 374.87,29.52 374.87,-5.21 218.62,-5.2 218.62,29.52 187.37,29.52 187.37,-5.21 31.25,-5.2 31.25,29.52 0,29.52 -0,64.25 125.13,64.25 125.13,98.96 281.19,98.96 281.19,64.24 "/>
 </g>
</svg>
