<?xml version="1.0" encoding="UTF-8"?>
<!DOCTYPE svg PUBLIC "-//W3C//DTD SVG 1.1//EN" "http://www.w3.org/Graphics/SVG/1.1/DTD/svg11.dtd">
<!-- Creator: CorelDRAW 2020 (64-Bit) -->
<svg xmlns="http://www.w3.org/2000/svg" xml:space="preserve" width="10.6667in" height="8in" version="1.1" style="shape-rendering:geometricPrecision; text-rendering:geometricPrecision; image-rendering:optimizeQuality; fill-rule:evenodd; clip-rule:evenodd"
viewBox="0 0 10666.66 8000"
 xmlns:xlink="http://www.w3.org/1999/xlink"
 xmlns:xodm="http://www.corel.com/coreldraw/odm/2003">
 <defs>
  <style type="text/css">
   <![CDATA[
    .fil16 {fill:#E89C36}
    .fil12 {fill:#C8903B}
    .fil5 {fill:#C5B667}
    .fil15 {fill:#B47943}
    .fil11 {fill:#A66C39}
    .fil14 {fill:#7A5F48}
    .fil10 {fill:#685332}
    .fil9 {fill:#0A6E45}
    .fil2 {fill:#48515E}
    .fil7 {fill:#4CAAE0}
    .fil0 {fill:#707985}
    .fil1 {fill:#8D949E}
    .fil6 {fill:url(#id0)}
    .fil8 {fill:url(#id1)}
    .fil13 {fill:url(#id2)}
    .fil3 {fill:url(#id3)}
    .fil4 {fill:url(#id4)}
   ]]>
  </style>
  <linearGradient id="id0" gradientUnits="userSpaceOnUse" x1="648.03" y1="7646.85" x2="648.03" y2="7324.04">
   <stop offset="0" style="stop-opacity:1; stop-color:#0F7D4B"/>
   <stop offset="1" style="stop-opacity:1; stop-color:#03A155"/>
  </linearGradient>
  <linearGradient id="id1" gradientUnits="userSpaceOnUse" x1="10373.97" y1="7444.57" x2="10373.97" y2="7220.4">
   <stop offset="0" style="stop-opacity:1; stop-color:#587943"/>
   <stop offset="1" style="stop-opacity:1; stop-color:#93D669"/>
  </linearGradient>
  <linearGradient id="id2" gradientUnits="userSpaceOnUse" x1="10109.63" y1="7061.12" x2="10109.63" y2="7302.96">
   <stop offset="0" style="stop-opacity:1; stop-color:#5FA659"/>
   <stop offset="0.419608" style="stop-opacity:1; stop-color:#73B24F"/>
   <stop offset="1" style="stop-opacity:1; stop-color:#93D669"/>
  </linearGradient>
  <linearGradient id="id3" gradientUnits="userSpaceOnUse" x1="5364.58" y1="8000" x2="5364.58" y2="7354.17">
   <stop offset="0" style="stop-opacity:1; stop-color:#1A80E6"/>
   <stop offset="1" style="stop-opacity:1; stop-color:#4DA6FF"/>
  </linearGradient>
  <linearGradient id="id4" gradientUnits="userSpaceOnUse" xlink:href="#id0" x1="9731.76" y1="7562.76" x2="9731.76" y2="7315.02">
  </linearGradient>
 </defs>
 <g id="Layer_x0020_1">
  <metadata id="CorelCorpID_0Corel-Layer"/>
  <polygon class="fil0" points="515.55,6974.37 281.25,7364.58 1361,7364.58 1245.38,7248.97 1084.95,7248.97 932.88,7096.9 653.69,7096.9 "/>
  <polygon class="fil1" points="197.91,7364.58 501.39,7083.52 515.55,6979.58 "/>
  <polygon class="fil0" points="9932.49,7364.58 9682.08,6976.38 9510.88,7119.81 9246.88,7119.81 8822.91,7364.58 "/>
  <polygon class="fil2" points="9874.58,7119.98 9629.98,7364.58 10839.6,7364.58 10411.38,6864.58 10206.14,7119.98 "/>
  <polygon class="fil1" points="9530.98,7168.93 9685.36,6981.47 9682.08,6976.39 9510.88,7119.81 9246.88,7119.81 8919.22,7308.98 9257.69,7168.93 "/>
  <polygon class="fil0" points="10411.38,6864.58 10206.14,7119.98 9924.4,7119.98 9972.93,7148 10260.41,7148 10417.26,6871.45 "/>
  <rect class="fil3" x="-234.38" y="7354.17" width="11197.92" height="645.83"/>
  <path class="fil4" d="M8500 7355.35c100.74,30.3 88.52,54.41 288.78,68.92 200.26,14.51 660.61,6.72 973.26,33.62 312.65,26.89 613.55,91.25 811.89,102.54 198.35,11.29 298.74,-20 389.59,-60.66l0 -142.06c-42.42,0 -76.05,-2.36 -118.46,-2.36 -329.69,0 -274.27,-40.34 -603.95,-40.34 -76.25,0 -668.72,40.34 -744.97,40.34 -215.61,-6.72 -439.07,-23.53 -654.69,-30.25 -116.43,6.72 -203.96,0 -341.45,30.25z"/>
  <polygon class="fil2" points="98.96,7161.44 -202.24,7409.18 738.34,7407.49 557.29,7226.44 427.98,7226.44 333.33,7062.5 255.21,7161.44 "/>
  <path class="fil5" d="M9762.04 7457.89c-312.65,-26.89 -773,-19.11 -973.26,-33.62 -123.95,-8.98 -166.5,-21.65 -204.81,-37.17 49.78,24.72 99.56,49.43 235.39,60.11 135.83,10.68 357.72,7.32 554.39,12.36 196.67,5.04 368.13,18.48 551.35,42.02 183.22,23.54 378.21,57.16 524.45,73.96 146.24,16.81 253.22,15.35 331.15,3.36 77.93,-11.99 121.91,-26.95 182.83,-47.51l0 -31.63c-90.85,40.65 -191.24,71.94 -389.59,60.66 -198.35,-11.29 -499.24,-75.65 -811.89,-102.54z"/>
  <polygon class="fil0" points="98.96,7161.44 -140.94,7360.31 -105.57,7364.58 114.93,7186.89 260.42,7187.5 301.66,7133.44 332.03,7063.81 255.21,7161.44 "/>
  <path class="fil6" d="M1271.11 7434.89c203.85,-14.76 195.35,-47.74 259.32,-80.73 -217.29,-37.44 -273.59,-29.4 -428.96,-29.4 -132.2,0 -643.14,50.24 -726.48,50.24 -270.83,0 -337.68,-20.83 -467.63,-20.83l-20.88 0 -120.86 0 0 292.69c180.08,-105.68 348.88,-154.02 605.91,-176.37 257.03,-22.35 695.73,-20.83 899.59,-35.59z"/>
  <path class="fil5" d="M44.62 7547.77c131.74,-40.95 346,-59.93 563.02,-70.34 217.01,-10.42 475.88,-21.04 595.69,-28.8 171.67,-11.13 229.24,-6.85 318.01,-94.46 -17.26,15.8 -42.17,72.92 -250.22,80.73 -208.05,7.81 -642.56,13.24 -899.59,35.59 -257.03,22.35 -425.82,70.69 -605.91,176.37l0 47.99c78.46,-59.7 147.26,-106.12 279,-147.07z"/>
  <path class="fil7" d="M-234.38 7938.13c103.94,-105.45 207.37,-201.79 309.03,-266.26 142.36,-90.28 281.25,-118.06 483.2,-139.3 201.95,-21.24 466.97,-35.95 633.64,-46.37 166.67,-10.42 234.98,-16.54 283.03,-47.38 31.22,-20.04 53.89,-50.52 73.56,-84.66l-17.65 0c-7.3,3.76 -13.66,7.53 -19.49,11.27 -7.41,8.09 -18.13,18.44 -36.74,28.71 -66.94,46.58 -131.07,45.43 -270.87,54.48 -119.81,7.76 -378.68,18.39 -595.69,28.8 -217.02,10.42 -431.28,29.39 -563.02,70.34 -131.74,40.95 -200.54,87.37 -279,147.07l0 243.29z"/>
  <path class="fil7" d="M9556.46 7521.52c252.14,20.17 465.88,60.64 671.92,96 206.04,35.36 447.19,63.3 559.03,57.22 111.85,-6.08 120.6,-12.85 176.11,-28.58l0 -114.74c-60.92,20.56 -104.91,35.52 -182.83,47.51 -77.93,11.99 -184.91,13.44 -331.15,-3.36 -146.24,-16.81 -341.23,-50.43 -524.45,-73.96 -183.22,-23.53 -354.68,-36.98 -551.35,-42.02 -196.67,-5.04 -418.56,-1.69 -554.39,-12.36 -135.83,-10.68 -185.61,-35.39 -235.39,-60.11 -23.59,-9.56 -45.57,-20.21 -83.96,-31.75l-22.47 0c20.24,15.41 42.18,31.03 67.51,47.07 50.43,31.94 114.3,65.56 291.52,82.31 177.22,16.75 467.77,16.62 719.91,36.8z"/>
  <polygon class="fil1" points="653.69,7096.9 921.87,7130.21 1084.95,7248.97 932.88,7096.9 "/>
  <polygon class="fil1" points="1084.96,7248.97 1229.17,7270.83 1313.19,7316.78 1245.38,7248.97 "/>
  <ellipse class="fil5" cx="1080.65" cy="7382.73" rx="109.3" ry="15.63"/>
  <ellipse class="fil5" cx="10152.24" cy="7406.25" rx="162.66" ry="20.83"/>
  <path class="fil8" d="M10373.76 7332.18c-0.24,-0.2 -0.59,-0.39 -1.04,-0.57 -3.87,-1.38 -24.14,20.97 -29.46,26.25 -1.33,-0.22 -9.96,-1.74 -10.23,-1.48 -0.38,0.26 1.89,6.86 1.69,7.06 -19.82,0 -47.91,37.9 -61.25,51.24 -1.81,2.26 5.63,-36.87 18.71,-55.19l7.91 -0.31 -4.27 -7.17c21.96,-26.47 56.7,-35.5 78.06,-42.01 -10.41,-0.65 -30.72,0.42 -52.71,13.55l-4.64 -6.85 -5.32 8.85c-11.48,-0.53 -61.9,2.3 -97.35,17.45 -0.42,-0.48 8.48,-11.28 14.28,-17.24 10.83,-11.19 21.17,-18.57 34.42,-26.41 1.31,0.77 10.54,6.33 10.86,5.91 0.86,-1.71 1.01,-9.5 2.22,-10.91 51.28,-16.96 100.67,0.37 100.57,0.16 -31.98,-28.81 -51.69,-35.15 -76.67,-35.49 0,-1.45 1.5,-8.04 1.18,-8.37 -0.22,-0.33 -14.02,5.72 -15.92,6.54 -33.76,-16.87 -53.68,-17.04 -67.2,-16.18 16.23,-8.12 30.67,-14.69 48.76,-18.29 9.75,-1.95 20.87,-2.79 25.99,-2.06 2.53,0.34 7.26,9.65 8.01,9.65 0.23,0 4.13,-8.41 4.69,-9.59 31.41,4.89 67.89,20.86 81.49,51.71 7.7,-13.76 26.51,-30.95 33.15,-34.42 5.69,-2.95 13.5,-6.06 15.55,-6.22 1.53,-0.14 8.18,4.52 8.59,4.11 4.33,-2.89 -4.35,-9.86 12.23,-11.33 14.4,-1.31 52.6,3.66 78.06,23.45 -23.56,-5.01 -37.12,-2.87 -40.96,-2.37 -0.99,-0.73 -8.04,-6.04 -8.33,-5.74 -0.33,0.22 -1.26,6.99 -1.42,8.11 -28.48,3.19 -62.46,11.34 -80.07,36.16 -1.11,1.53 -1.16,1.63 -0.16,1.26 13.14,-5.39 21.87,-5.74 35.47,-6.27 0.85,0.78 5.29,4.9 5.85,4.9 0.55,0 4.56,-4.59 5.32,-5.43 33.41,0.87 61.65,15.74 75.01,47.23l-6.7 6.01 8.75 4.06c-0.53,10.63 -1.67,30.11 -15.29,49.49 -1.44,-45.53 -14.12,-56.01 -19.08,-62.67l-0.32 -11.81 -9.28 6.74c-13.86,-6.14 -51.87,-15.12 -81.28,-6.74 17.36,0.62 38.24,10.57 50.97,22.5 -0.43,1.11 -3.48,8.75 -3.16,8.96 0.59,0.59 10.1,1.28 10.86,2.8 0.89,1.63 4.74,16.66 6.27,24.51 3.8,19.16 6.51,58.15 -6.85,74.85 2.06,-35.85 -13.32,-57.95 -27.18,-77.53 0.91,-1.2 6.7,-8.82 6.7,-9.17 0,-0.42 -9.53,0.09 -10.81,0.16 -5.61,-7.67 -15.6,-15.84 -22.42,-22.04 -3.29,-3.04 -8.94,-3.32 -32.27,-3.81z"/>
  <ellipse class="fil9" cx="10125" cy="7458.33" rx="93.75" ry="18.75"/>
  <path class="fil10" d="M10090.28 7172.57c0.86,5.68 2.02,11.83 3.3,17.97 11.97,57.51 20.35,98.14 21.1,159.17 -0.87,59.31 -2.03,73.31 -7.68,106.22 4.96,4.96 32.42,4.37 39.92,0.45l1.65 -0.85c-4.46,-99.32 -18.17,-183.3 -40.03,-279.7l-18.26 -3.27z"/>
  <ellipse class="fil11" cx="10086.93" cy="7196.8" rx="21.64" ry="21.08"/>
  <ellipse class="fil12" cx="10113.59" cy="7181.81" rx="21.64" ry="21.08"/>
  <path class="fil13" d="M10109.86 7181.72c0.26,-0.22 0.63,-0.43 1.13,-0.61 4.17,-1.49 26.04,22.62 31.79,28.32 1.43,-0.24 10.74,-1.88 11.03,-1.59 0.41,0.28 -2.04,7.4 -1.82,7.62 21.39,0 51.69,40.89 66.08,55.28 1.95,2.44 -6.07,-39.78 -20.19,-59.54l-8.53 -0.34 4.61 -7.74c-23.7,-28.56 -61.17,-38.3 -84.22,-45.32 11.24,-0.71 33.14,0.45 56.87,14.61l5 -7.39 5.74 9.55c12.39,-0.57 66.78,2.49 105.03,18.82 0.45,-0.51 -9.16,-12.17 -15.41,-18.59 -11.69,-12.07 -22.83,-20.03 -37.13,-28.49 -1.41,0.83 -11.37,6.83 -11.72,6.37 -0.92,-1.85 -1.09,-10.26 -2.39,-11.77 -55.32,-18.3 -108.61,0.4 -108.5,0.17 34.51,-31.07 55.76,-37.91 82.72,-38.29 0,-1.56 -1.62,-8.67 -1.27,-9.02 0.24,-0.36 15.13,6.17 17.17,7.05 36.42,-18.19 57.91,-18.38 72.49,-17.46 -17.51,-8.76 -33.09,-15.85 -52.6,-19.73 -10.52,-2.11 -22.52,-3.02 -28.04,-2.22 -2.72,0.37 -7.83,10.41 -8.64,10.41 -0.25,0 -4.46,-9.07 -5.06,-10.35 -33.88,5.27 -73.24,22.5 -87.91,55.78 -8.31,-14.84 -28.6,-33.39 -35.77,-37.13 -6.14,-3.18 -14.56,-6.54 -16.77,-6.71 -1.66,-0.15 -8.83,4.88 -9.27,4.44 -4.67,-3.12 4.69,-10.64 -13.19,-12.23 -15.54,-1.41 -56.75,3.95 -84.22,25.31 25.42,-5.4 40.05,-3.1 44.19,-2.56 1.07,-0.79 8.67,-6.51 8.98,-6.2 0.36,0.24 1.36,7.54 1.54,8.76 30.73,3.44 67.38,12.23 86.38,39.01 1.19,1.65 1.25,1.76 0.17,1.37 -14.17,-5.81 -23.59,-6.19 -38.27,-6.77 -0.92,0.85 -5.7,5.29 -6.31,5.29 -0.59,0 -4.92,-4.94 -5.74,-5.85 -36.04,0.93 -66.51,16.99 -80.92,50.95l7.22 6.48 -9.44 4.38c0.57,11.46 1.8,32.48 16.49,53.39 1.56,-49.11 15.23,-60.43 20.58,-67.61l0.34 -12.74 10.01 7.28c14.95,-6.63 55.96,-16.31 87.69,-7.28 -18.73,0.67 -41.26,11.41 -54.99,24.28 0.46,1.2 3.75,9.44 3.41,9.67 -0.64,0.64 -10.9,1.38 -11.72,3.02 -0.96,1.76 -5.12,17.97 -6.77,26.44 -4.1,20.67 -7.02,62.73 7.39,80.75 -2.22,-38.68 14.37,-62.51 29.32,-83.64 -0.98,-1.3 -7.22,-9.52 -7.22,-9.89 0,-0.45 10.28,0.1 11.66,0.17 6.06,-8.27 16.83,-17.09 24.19,-23.78 3.55,-3.28 9.65,-3.59 34.81,-4.11z"/>
  <ellipse class="fil14" cx="10096.06" cy="7184.3" rx="13.97" ry="13.61"/>
  <ellipse class="fil9" cx="10364.58" cy="7470.83" rx="93.75" ry="18.75"/>
  <ellipse class="fil12" cx="10403.06" cy="7441.26" rx="14.55" ry="14.17"/>
  <ellipse class="fil15" cx="10299.52" cy="7460.42" rx="18.18" ry="17.71"/>
  <path class="fil10" d="M10398.36 7323.7c-0.8,5.26 -1.87,10.96 -3.06,16.66 -14.16,30.98 -25.98,53.23 -12.45,131.64 -5.49,5.49 -31.19,3.43 -38.53,-0.37 10.45,-82.58 16.21,-99.19 37.1,-144.9l16.93 -3.03z"/>
  <ellipse class="fil11" cx="10395.01" cy="7346.17" rx="20.06" ry="19.54"/>
  <ellipse class="fil12" cx="10370.3" cy="7332.27" rx="20.06" ry="19.54"/>
  <ellipse class="fil14" cx="10386.55" cy="7334.58" rx="12.95" ry="12.62"/>
  <ellipse class="fil16" cx="10344.52" cy="7475.25" rx="20.06" ry="19.54"/>
  <ellipse class="fil11" cx="10433.06" cy="7464.83" rx="20.06" ry="19.54"/>
 </g>
</svg>
