<?xml version="1.0" encoding="UTF-8"?>
<!DOCTYPE svg PUBLIC "-//W3C//DTD SVG 1.1//EN" "http://www.w3.org/Graphics/SVG/1.1/DTD/svg11.dtd">
<!-- Creator: CorelDRAW 2020 (64-Bit) -->
<svg xmlns="http://www.w3.org/2000/svg" xml:space="preserve" width="100px" height="100px" version="1.1" style="shape-rendering:geometricPrecision; text-rendering:geometricPrecision; image-rendering:optimizeQuality; fill-rule:evenodd; clip-rule:evenodd"
viewBox="0 0 100 100"
 xmlns:xlink="http://www.w3.org/1999/xlink"
 xmlns:xodm="http://www.corel.com/coreldraw/odm/2003">
 <defs>
  <style type="text/css">
   <![CDATA[
    .fil0 {fill:#C3002E}
    .fil1 {fill:#DD0031}
    .fil2 {fill:#FFFDFD}
   ]]>
  </style>
 </defs>
 <g id="Layer_x0020_1">
  <metadata id="CorelCorpID_0Corel-Layer"/>
  <g id="_2439966733136">
   <path class="fil0" d="M49.882 49.015c5.631,0.005 2.766,0.25 6.047,-1.217 0.757,0.983 1.466,2.145 2.189,3.229 1.345,2.018 1.181,1.364 1.18,4.269l-0.014 16.327c-0.209,1.483 -3.534,5.141 -4.616,6.264 -1.118,1.161 -1.649,0.763 -4.787,0.766l-0.007 14.574c0.759,-0.212 15.602,-8.474 16.678,-9.075l15.499 -8.56c0.291,-0.173 0.991,-0.519 1.13,-0.625 0.616,-0.466 0.537,-1.802 0.667,-2.845 1.798,-14.436 3.175,-28.913 5.001,-43.291 0.236,-1.855 0.651,-4.313 0.651,-6.373l-29.655 -10.559c-1.621,-0.535 -3.253,-1.21 -4.916,-1.757l-5.048 -1.733 0.001 40.606z"/>
   <path class="fil1" d="M49.874 93.227l0.007 -14.574c-2.3,-0.004 -4.111,0.357 -4.974,-0.539 -0.794,-0.825 -2.004,-1.836 -2.695,-2.746 -3.039,-4.002 -2.3,-3.638 -2.3,-8.833 0,-3.688 0,-7.376 0,-11.063 -0.001,-2.969 -0.186,-2.356 1.148,-4.357 0.513,-0.77 1.684,-2.733 2.256,-3.295 3.041,1.184 -0.45,1.208 6.566,1.195l-0.001 -40.606 -39.754 14.049c0.407,1.748 3.85,33.084 4.338,36.929 0.216,1.696 1.598,14.902 1.888,15.321 0.188,0.272 1.835,1.118 2.203,1.309 4.166,2.15 9.179,5.226 13.345,7.377l8.959 4.914c0.425,0.22 0.559,0.342 0.995,0.585 0.444,0.246 0.725,0.358 1.143,0.612l6.876 3.722z"/>
   <path class="fil2" d="M49.881 78.653c3.138,-0.003 3.669,0.395 4.787,-0.766 1.082,-1.123 4.407,-4.781 4.616,-6.264l0.014 -16.327c0.001,-2.905 0.165,-2.251 -1.18,-4.269 -0.723,-1.084 -1.432,-2.246 -2.189,-3.229 -3.281,1.467 -0.416,1.222 -6.047,1.217 -7.016,0.013 -3.525,-0.011 -6.566,-1.195 -0.572,0.562 -1.743,2.525 -2.256,3.295 -1.334,2.001 -1.149,1.388 -1.148,4.357 0,3.687 0,7.375 0,11.063 0,5.195 -0.739,4.831 2.3,8.833 0.691,0.91 1.901,1.921 2.695,2.746 0.863,0.896 2.674,0.535 4.974,0.539z"/>
   <path class="fil2" d="M50.514 47.395l2.46 0c1.018,0 12.21,-4.358 14.081,-5.058 1.166,-0.436 2.277,-0.861 3.456,-1.286 1.466,-0.529 1.124,-0.301 1.757,-2.988 0.595,-2.525 1.482,-5.455 1.869,-7.99l-15.54 1.216c-0.459,-0.653 -1.426,-3.191 -1.787,-4.06 -0.284,-0.686 -0.543,-1.324 -0.824,-1.988 -1.053,-2.494 -0.093,-1.951 -5.47,-1.951l-0.002 24.105z"/>
   <path class="fil2" d="M40.832 31.261l-15.187 -1.195 2.46 10.509c0.128,0.181 17.767,6.819 18.723,6.819l1.997 0 0.002 -24.104 -4.633 0 -3.362 7.971z"/>
   <path class="fil2" d="M57.845 47.874c0.425,0.9 1.398,2.195 2,3.013 1.172,1.595 0.81,1.744 0.81,4.058 0,3.362 -0.002,6.725 0,10.088 1.185,-0.746 7.23,-5.957 8.928,-7.347 1.318,-1.079 1.232,-0.689 1.218,-2.917l-0.001 -12.382c-1.231,0.279 -2.636,0.877 -3.801,1.296 -1.623,0.584 -3.882,3.832 -5.134,4.707 -0.669,0.468 -2.465,-0.283 -4.02,-0.516z"/>
   <path class="fil2" d="M28.539 56.525c0.284,0.487 4.328,3.761 5.026,4.312l5.099 4.206c0.166,-3.098 0.021,-6.604 0.021,-9.747 0,-2.114 -0.337,-2.788 0.696,-4.288 0.578,-0.841 1.718,-2.226 2.114,-3.123 -0.761,0.106 -1.439,0.273 -2.17,0.441 -0.89,0.205 -1.234,0.48 -1.832,-0.017 -0.755,-0.629 -1.709,-1.734 -2.451,-2.476 -2.612,-2.612 -2.25,-1.919 -6.445,-3.479l-0.058 14.171z"/>
   <path class="fil2" d="M59.392 30.051l8.765 -0.824c-0.888,-1.239 -3.059,-3.166 -4.25,-4.356 -1.701,-1.702 -1.193,-1.605 -2.85,-1.588 -1.523,0.016 -3.05,-0.016 -4.572,0.018l2.907 6.75z"/>
   <path class="fil2" d="M31.231 29.242l8.769 0.825 2.898 -6.759c-1.529,-0.018 -3.017,-0.007 -4.503,-0.024 -1.896,-0.022 -1.934,0.627 -2.873,1.565 -0.725,0.726 -3.986,3.813 -4.291,4.393z"/>
   <path class="fil2" d="M60.655 67.062l0.018 5.971c0.868,-0.531 3.205,-3.089 4.111,-3.995 0.979,-0.978 1.41,-0.846 1.391,-2.673 -0.015,-1.371 -0.007,-2.742 -0.007,-4.113l-4.188 3.453c-0.597,0.478 -1.095,0.786 -1.325,1.357z"/>
   <path class="fil2" d="M38.685 73c0,-1.336 -0.002,-2.671 0,-4.007 0.004,-2.411 0.276,-1.877 -1.079,-3.072 -1.424,-1.256 -3.1,-2.532 -4.355,-3.657 -0.163,1.06 -0.047,2.78 -0.06,3.925 -0.021,1.953 0.378,1.753 1.387,2.762 0.911,0.911 3.227,3.468 4.107,4.049z"/>
  </g>
 </g>
</svg>
