<?xml version="1.0" encoding="UTF-8"?>
<!DOCTYPE svg PUBLIC "-//W3C//DTD SVG 1.1//EN" "http://www.w3.org/Graphics/SVG/1.1/DTD/svg11.dtd">
<!-- Creator: CorelDRAW 2020 (64-Bit) -->
<svg xmlns="http://www.w3.org/2000/svg" xml:space="preserve" width="2550px" height="3300px" version="1.1" style="shape-rendering:geometricPrecision; text-rendering:geometricPrecision; image-rendering:optimizeQuality; fill-rule:evenodd; clip-rule:evenodd"
viewBox="0 0 255000 330000"
 xmlns:xlink="http://www.w3.org/1999/xlink"
 xmlns:xodm="http://www.corel.com/coreldraw/odm/2003">
 <defs>
  <style type="text/css">
   <![CDATA[
    .fil0 {fill:#E6E7E8}
    .fil1 {fill:#F7971C}
   ]]>
  </style>
 </defs>
 <g id="Layer_x0020_1">
  <metadata id="CorelCorpID_0Corel-Layer"/>
  <path class="fil0" d="M15800 162031c0,-32755 17539,-61150 32879,-76505 15129,-15144 43812,-32771 76077,-32771l6778 0c23547,0 52504,11453 69016,27124 2513,2380 4661,3897 7050,6504 36028,39306 42099,96646 11939,142486 -4795,7283 -7422,9518 -12377,15134 -1921,2178 -4832,4904 -7180,6814 -9358,7598 -12863,10385 -24885,16207 -15500,7510 -30959,10427 -49494,10427 -33443,0 -61021,-17060 -76929,-32983 -7815,-7815 -16853,-19238 -22525,-32100 -7805,-17694 -10350,-30020 -10350,-50336l1 -1zm-15145 -1801l0 11861c1533,3603 -51,21999 12564,48107 12553,25973 34005,47812 60226,60050 10762,5022 22494,8800 34629,10690 2488,387 12047,1125 13193,1548l15274 0c1982,-852 10101,-1285 13126,-1796 53489,-9090 94679,-52076 102700,-106118 460,-3112 739,-11748 1575,-13776l0 -11227c-1502,-3567 516,-22458 -12714,-50475 -8366,-17730 -14829,-24219 -26520,-36591 -8713,-9234 -23077,-18768 -37964,-25148 -13905,-5956 -36203,-11004 -53257,-9580 -32947,1203 -64226,15336 -85616,37371 -19016,19593 -31636,43078 -35811,71369 -377,2550 -1012,12646 -1404,13715l-1 0z"/>
  <path class="fil1" d="M118067 90414c36,22912 -72,45789 -83,68655l5 64386c63,4924 166,3639 -696,3881 1058,836 490,-459 686,1616l0 25906 33060 -19976 83 -161104 -33055 16636 0 0z"/>
  <path class="fil0" d="M111414 147630l0 -27212c-14866,2891 -31832,13106 -42868,23522 -9734,9198 -20744,25839 -19330,46620 1125,16471 10550,33922 22902,43595 12941,10132 28240,18262 45861,20703l0 -25906c-196,-2075 372,-779 -686,-1616 -23336,-4459 -51307,-28084 -38470,-53216 4150,-8124 11588,-15092 19320,-19640 2199,-1290 4052,-2245 6349,-3412 1755,-888 5735,-2054 6922,-3437l0 -1z"/>
  <path class="fil0" d="M157899 117239c-371,3768 -624,24584 217,26789 6880,1625 16930,3458 22231,6994l-6148 12326c4888,-496 45500,-7640 47152,-8517 -1476,-3061 -3825,-6209 -5683,-9152 -2060,-3262 -3877,-6101 -5921,-9327l-11897 -18587 -4960 9493c-2204,-511 -5301,-2251 -7727,-3180 -2762,-1058 -5616,-2111 -8512,-2921 -5812,-1636 -12574,-3422 -18752,-3918l0 0z"/>
 </g>
</svg>
