<?xml version="1.0" encoding="UTF-8"?>
<!DOCTYPE svg PUBLIC "-//W3C//DTD SVG 1.1//EN" "http://www.w3.org/Graphics/SVG/1.1/DTD/svg11.dtd">
<!-- Creator: CorelDRAW 2020 (64-Bit) -->
<svg xmlns="http://www.w3.org/2000/svg" xml:space="preserve" width="1500px" height="1500px" version="1.1" style="shape-rendering:geometricPrecision; text-rendering:geometricPrecision; image-rendering:optimizeQuality; fill-rule:evenodd; clip-rule:evenodd"
viewBox="0 0 150000 150000"
 xmlns:xlink="http://www.w3.org/1999/xlink"
 xmlns:xodm="http://www.corel.com/coreldraw/odm/2003"
 xmlns:svg="http://www.w3.org/2000/svg">
 <defs>
  <style type="text/css">
   <![CDATA[
    .fil0 {fill:#FF6200;fill-rule:nonzero}
   ]]>
  </style>
 </defs>
 <g id="Layer_x0020_1">
  <metadata id="CorelCorpID_0Corel-Layer"/>
  <g>
   <path id="path2210" class="fil0" d="M5777 79332c645,-2258 1693,-4193 3064,-5886 1451,-1693 3145,-3064 5241,-4032 2097,-1048 4516,-1532 7257,-1532 2822,0 5242,484 7338,1532 2016,968 3790,2339 5160,4032 1371,1693 2420,3628 3065,5886 725,2177 1048,4516 1048,6935 0,2419 -323,4757 -1048,7015 -645,2177 -1694,4112 -3065,5805 -1370,1694 -3144,3065 -5160,4032 -2096,1048 -4516,1532 -7338,1532 -2741,0 -5160,-484 -7257,-1532 -2096,-967 -3790,-2338 -5241,-4032 -1371,-1693 -2419,-3628 -3064,-5805 -726,-2258 -1048,-4596 -1048,-7015 0,-2419 322,-4758 1048,-6935l0 0zm3064 12660c484,1854 1290,3467 2419,4999 1048,1451 2419,2580 4113,3548 1693,887 3628,1290 5966,1290 2339,0 4354,-403 6048,-1290 1693,-968 2983,-2097 4112,-3548 1048,-1532 1855,-3145 2338,-4999 484,-1855 807,-3790 807,-5725 0,-1935 -323,-3790 -807,-5645 -483,-1854 -1290,-3548 -2338,-4999 -1129,-1451 -2419,-2661 -4112,-3548 -1694,-887 -3709,-1290 -6048,-1290 -2338,0 -4273,403 -5966,1290 -1694,887 -3065,2097 -4113,3548 -1129,1451 -1935,3145 -2419,4999 -484,1855 -726,3710 -726,5645 0,1935 242,3870 726,5725z"/>
  </g>
  <g>
   <path id="path2212" class="fil0" d="M42949 78445l0 4838 81 0c725,-1774 1935,-3144 3548,-4112 1612,-968 3467,-1452 5563,-1452 1936,0 3629,323 5080,1049 1452,725 2661,1693 3629,2983 887,1210 1613,2661 2096,4274 484,1612 726,3386 726,5160 0,1855 -242,3548 -726,5161 -483,1613 -1209,3064 -2096,4274 -968,1290 -2177,2257 -3629,2983 -1451,645 -3144,1048 -5080,1048 -967,0 -1854,-161 -2822,-322 -887,-242 -1774,-645 -2500,-1049 -806,-484 -1532,-1048 -2177,-1774 -564,-644 -1048,-1451 -1370,-2419l-81 0 0 14192 -3145 0 0 -34834 2903 0 0 0zm17094 8870c-322,-1371 -806,-2500 -1451,-3548 -726,-967 -1613,-1855 -2661,-2500 -1048,-645 -2258,-887 -3790,-887 -1693,0 -3145,242 -4273,887 -1210,565 -2097,1371 -2823,2339 -644,967 -1128,2177 -1451,3467 -242,1290 -403,2661 -403,4112 0,1371 161,2661 484,3951 322,1290 806,2500 1532,3468 726,1048 1612,1854 2741,2499 1129,645 2581,968 4193,968 1532,0 2742,-323 3790,-968 1048,-645 1935,-1451 2661,-2499 645,-968 1129,-2178 1451,-3468 323,-1290 484,-2580 484,-3951 0,-1290 -161,-2580 -484,-3870z"/>
  </g>
  <g>
   <path id="path2214" class="fil0" d="M68913 95540c323,1209 806,2257 1532,3225 645,968 1532,1774 2580,2338 1049,645 2339,968 3790,968 2258,0 4032,-565 5322,-1774 1290,-1210 2177,-2742 2661,-4757l3145 0c-645,2902 -1855,5160 -3629,6692 -1774,1613 -4273,2419 -7499,2419 -2015,0 -3709,-403 -5160,-1048 -1532,-726 -2661,-1693 -3629,-2983 -887,-1210 -1612,-2661 -2016,-4274 -484,-1613 -645,-3306 -645,-5161 0,-1693 161,-3306 645,-4918 404,-1613 1129,-3064 2016,-4355 968,-1290 2097,-2257 3629,-3063 1451,-726 3145,-1130 5160,-1130 2016,0 3790,404 5241,1210 1452,806 2661,1935 3548,3225 887,1371 1532,2903 1935,4597 404,1693 565,3467 484,5241l-19594 0c0,1128 162,2338 484,3548l0 0zm15401 -9515c-403,-1129 -967,-2097 -1613,-2903 -725,-806 -1532,-1532 -2499,-2016 -1048,-484 -2097,-726 -3387,-726 -1290,0 -2419,242 -3386,726 -968,484 -1855,1210 -2500,2016 -726,806 -1290,1774 -1693,2903 -403,1048 -645,2177 -807,3386l16450 0c0,-1209 -242,-2338 -565,-3386z"/>
  </g>
  <path id="path2216" class="fil0" d="M92700 78445l0 4355 81 0c645,-1533 1693,-2742 3225,-3710 1451,-887 3145,-1371 5000,-1371 1773,0 3225,242 4434,646 1210,484 2177,1128 2903,2015 726,807 1209,1855 1532,3064 323,1210 403,2581 403,4113l0 16368 -3064 0 0 -15884c0,-1129 -81,-2097 -322,-3065 -162,-886 -565,-1693 -1049,-2418 -483,-726 -1128,-1210 -2015,-1613 -807,-403 -1855,-565 -3064,-565 -1291,0 -2419,162 -3387,646 -968,403 -1774,1048 -2419,1774 -726,806 -1210,1693 -1613,2822 -403,1048 -564,2177 -645,3467l0 14836 -3064 0 0 -25480 3064 0z"/>
  <polygon id="path2218" class="fil0" points="116245,68689 116245,103925 112939,103925 112939,68689 "/>
  <g>
   <path id="path2220" class="fil0" d="M131001 68689c5403,80 9434,1612 12176,4515 2661,2903 4031,7257 4031,13063 0,5886 -1370,10240 -4031,13143 -2742,2903 -6773,4354 -12176,4515l-12175 0 0 -35236 12175 0 0 0zm-1613 32334c2500,0 4677,-242 6532,-807 1774,-564 3306,-1370 4515,-2580 1129,-1210 2016,-2742 2580,-4596 565,-1855 807,-4113 807,-6773 0,-2581 -242,-4838 -807,-6693 -564,-1935 -1451,-3467 -2580,-4596 -1209,-1210 -2741,-2097 -4515,-2580 -1855,-565 -4032,-887 -6532,-887l-7176 0 0 29512 7176 0z"/>
  </g>
 </g>
</svg>
