<?xml version="1.0" encoding="UTF-8"?>
<!DOCTYPE svg PUBLIC "-//W3C//DTD SVG 1.1//EN" "http://www.w3.org/Graphics/SVG/1.1/DTD/svg11.dtd">
<!-- Creator: CorelDRAW 2020 (64-Bit) -->
<svg xmlns="http://www.w3.org/2000/svg" xml:space="preserve" width="500px" height="500px" version="1.1" style="shape-rendering:geometricPrecision; text-rendering:geometricPrecision; image-rendering:optimizeQuality; fill-rule:evenodd; clip-rule:evenodd"
viewBox="0 0 50000 50000"
 xmlns:xlink="http://www.w3.org/1999/xlink"
 xmlns:xodm="http://www.corel.com/coreldraw/odm/2003">
 <defs>
  <style type="text/css">
   <![CDATA[
    .fil0 {fill:#E6E6E6}
   ]]>
  </style>
 </defs>
 <g id="Layer_x0020_1">
  <metadata id="CorelCorpID_0Corel-Layer"/>
  <path class="fil0" d="M33862 14039c-1045,-1376 -1206,-639 -2167,140 -1131,918 -1020,1267 -676,2931l-2026 -86c-1658,-2415 -646,-1626 -868,-3927 -942,1821 -213,3226 10,4051 -1522,-424 -1414,-1680 -2023,-3144 -214,717 246,2803 871,3257 -1167,-107 -1811,-1196 -2624,-1782 602,1864 2621,2418 3371,2881 -419,359 -102,242 -860,142 -398,-52 -844,-166 -1262,-244 -4030,-757 -14836,-2191 -17688,-993 629,1791 7997,5393 11298,4570 2566,-639 -948,-1130 8234,-1818l674 1327c-2996,-1405 -7772,4551 -9214,6822 -958,1509 -3044,5221 -3417,6685 2793,-839 6671,-3409 8603,-4823 1440,-1054 2203,-2105 3365,-3281 441,-446 1007,-1234 1388,-1941 581,-1078 512,-1620 107,-2647l1380 702c-116,1608 -277,3417 -490,4984 -274,2007 -1425,2178 -1425,4245 0,2058 593,4284 1446,5887 539,1012 2152,4174 3192,4428 1064,-2853 -10,-11589 -573,-15181l-644 -4461c5,-28 19,-88 37,-130 267,222 105,19 360,424 287,459 799,2341 2636,2893 -589,-680 -1721,-1493 -1825,-2620 498,684 2292,941 3252,968 -1313,-996 -2617,-244 -3139,-2120 835,226 2275,957 4041,6 -755,-68 -1807,150 -2325,57 -412,-75 -1368,-702 -1629,-1041l37 -1851c1530,280 1844,433 2768,-623 1065,-1218 1334,-812 563,-2106 -95,-160 -123,-98 -227,-426 607,-141 1139,-457 1857,-265 774,206 954,788 1508,471 -1853,-1286 -1747,-943 -3816,-317 -501,-656 -1100,-1204 -1689,-1712 244,-1059 945,-1466 222,-2954 -255,-525 -216,-582 -715,-797 182,547 573,963 675,1585 122,748 -112,1334 -573,1834z"/>
  <path class="fil0" d="M24399 5006c13428,-914 25558,13352 19527,28237 -2869,7082 -9680,11972 -17952,12455 -10718,626 -20482,-7748 -21174,-19515 -641,-10887 7742,-20370 19599,-21177zm-337 -3675c-3884,225 -6430,965 -9598,2454 -8352,3927 -13876,13297 -13345,22682 278,4919 1873,9513 4689,13242 1126,1491 1668,1953 2922,3176 8196,7996 21677,8672 30771,1805 1491,-1126 1953,-1668 3176,-2922 1086,-1113 1736,-1793 2634,-3263 5373,-8801 5254,-19457 -829,-27508 -4751,-6286 -12297,-10137 -20420,-9666z"/>
 </g>
</svg>
