<?xml version="1.0" encoding="UTF-8"?>
<!DOCTYPE svg PUBLIC "-//W3C//DTD SVG 1.1//EN" "http://www.w3.org/Graphics/SVG/1.1/DTD/svg11.dtd">
<!-- Creator: CorelDRAW 2020 (64-Bit) -->
<svg xmlns="http://www.w3.org/2000/svg" xml:space="preserve" width="1.04166in" height="1.04166in" version="1.1" style="shape-rendering:geometricPrecision; text-rendering:geometricPrecision; image-rendering:optimizeQuality; fill-rule:evenodd; clip-rule:evenodd"
viewBox="0 0 1041.66 1041.66"
 xmlns:xlink="http://www.w3.org/1999/xlink"
 xmlns:xodm="http://www.corel.com/coreldraw/odm/2003">
 <defs>
  <style type="text/css">
   <![CDATA[
    .fil1 {fill:#004380}
    .fil2 {fill:#00599C}
    .fil0 {fill:#6499D0}
    .fil3 {fill:white}
   ]]>
  </style>
 </defs>
 <g id="Layer_x0020_1">
  <metadata id="CorelCorpID_0Corel-Layer"/>
  <path class="fil0" d="M93.75 309.37l0 438.34c0,52.32 10.18,45.32 55.54,71.15 92.92,53.63 267.11,168.21 359.88,207.15 15.89,6.68 31.2,5.06 48.05,5.06 93.88,-45.56 334,-166.84 401.61,-227.92 27.62,-24.94 26.59,-13.95 30.2,-54.34l0 -439.43c-3.61,-21.98 -6.55,-38.15 -31.24,-56.57 -55.19,-41.19 -378.84,-221.35 -392.07,-224.93 -20.87,-5.65 -46.07,-3.89 -64.8,7 -119.22,69.26 -267.2,135.08 -374.31,216.58 -14.56,11.08 -26.45,29.89 -30.93,48.18 -0.64,2.61 -1.09,7.67 -1.92,9.73z"/>
  <path class="fil1" d="M300.15 672.35l-199.98 115.46c7.26,11.85 21.82,15.51 49.12,31.05 92.92,53.63 267.11,168.21 359.88,207.15 15.89,6.68 31.2,5.06 48.05,5.06 93.88,-45.56 334,-166.84 401.61,-227.92 14.22,-12.84 20.85,-16.16 24.42,-21.87l-28.02 -16.18 -148.72 -85.86 -119.89 -69.22 -22.87 -13.2 -116.39 -67.2 -117.87 68.06 -129.33 74.67z"/>
  <path class="fil2" d="M547.35 529.63c137.57,92.7 289.71,168.29 435.98,251.51 6.36,-5.44 6.4,-10.11 6.65,-33.19l0 -439.43c-0.93,-2.24 -1.26,-7.01 -1.94,-9.73 -0.78,-3.1 -1.61,-5.75 -2.63,-8.58 -1.87,-5.18 -4.09,-11.04 -7.26,-15.01 -1.72,2.12 -2.71,2.25 -5.34,3.7 -143.19,82.65 -282.42,167.81 -425.45,250.72z"/>
  <path class="fil3" d="M303.65 677.41c4.51,13.72 33.18,47.15 43.5,58.04 51.83,54.71 130.76,91.13 214.3,90.96 74.53,-0.15 136.48,-26.13 187.42,-66.36l13.63 -11.74c4.2,-4.34 8.6,-7.78 12.98,-12.39 8.09,-8.5 15.8,-17.11 23.5,-27.23 4.97,-6.53 13.6,-17.21 16.56,-23.95 -0.61,-0.77 -113.06,-67.33 -128.83,-74.85 -11.19,20.44 -26.73,32.7 -46.35,44.62 -73.53,44.66 -163.41,21.78 -208.19,-52.07 -19.62,-33.32 -26.36,-79.92 -12.28,-121.41 35.41,-104.33 165.61,-137 246.26,-59.35 7.1,6.83 16.19,14.42 19.45,23.15l129.11 -74.63c-2.28,-8.72 -19.87,-27.94 -26.17,-35.86 -4.48,-5.62 -22.26,-23.81 -27.72,-28.23l-9.99 -8.65c-24.23,-20.16 -58.8,-40.79 -96.29,-52.93 -86.89,-28.14 -172.85,-14.94 -242.83,25.38 -122.31,70.48 -179.05,218.95 -131.9,356.8 4.56,13.32 16.63,42.01 23.86,50.67z"/>
  <polygon class="fil3" points="750.13,510.59 716.96,510.59 716.99,543.74 749.81,543.74 750.18,576.83 783.14,576.91 783.33,543.99 816.47,543.73 816.47,510.59 783.45,510.59 783.28,477.59 750.49,477.42 "/>
  <polygon class="fil3" points="874.5,507.63 874.48,510.43 841.33,510.63 841.33,543.4 874.26,543.78 874.53,576.91 907.51,576.91 907.69,543.84 940.81,543.69 940.81,510.84 907.67,510.55 907.65,477.43 874.5,477.43 "/>
 </g>
</svg>
