<?xml version="1.0" encoding="UTF-8"?>
<!DOCTYPE svg PUBLIC "-//W3C//DTD SVG 1.1//EN" "http://www.w3.org/Graphics/SVG/1.1/DTD/svg11.dtd">
<!-- Creator: CorelDRAW 2020 (64-Bit) -->
<svg xmlns="http://www.w3.org/2000/svg" xml:space="preserve" width="1.04166in" height="1.04166in" version="1.1" style="shape-rendering:geometricPrecision; text-rendering:geometricPrecision; image-rendering:optimizeQuality; fill-rule:evenodd; clip-rule:evenodd"
viewBox="0 0 1041.66 1041.66"
 xmlns:xlink="http://www.w3.org/1999/xlink"
 xmlns:xodm="http://www.corel.com/coreldraw/odm/2003">
 <defs>
  <style type="text/css">
   <![CDATA[
    .fil1 {fill:#158EC9}
    .fil0 {fill:#ED252A}
   ]]>
  </style>
 </defs>
 <g id="Layer_x0020_1">
  <metadata id="CorelCorpID_0Corel-Layer"/>
  <path class="fil0" d="M489.39 499.99c-51.53,-101.33 -105.35,-125.72 9.42,-238.41 28.74,-28.21 69.31,-59.23 92.37,-92.6 19.69,-28.48 45.67,-112.25 11.24,-145.93 -8.63,119.09 -22.17,116.06 -107.52,189.39 -48.81,41.93 -143.54,102.84 -98.12,178.17 17.58,29.15 69.44,92.86 92.6,109.38z"/>
  <path class="fil1" d="M796.63 809.01c-52.72,77.2 -546.64,45.16 -573.81,20.92 10.51,-22.65 50.3,-31.27 75.69,-33.11 -77.32,-9.59 -309.82,84.27 110.3,90.85 76.65,1.2 155.12,-1.04 229.83,-9.31 36.08,-4 183.35,-29.52 157.99,-69.35z"/>
  <path class="fil0" d="M547.41 541.1c23.92,-10.05 65.4,-45.13 61.24,-85.09 -8.31,-79.76 -141.03,-97.27 64.64,-231.68l21.9 -18.27c-105.12,24.13 -248.83,107.29 -157.33,233.38 49.81,68.64 20.27,61.32 9.56,101.65z"/>
  <path class="fil1" d="M340.32 764.21c34.01,29.11 89.24,34.39 145.16,35.58 63.19,1.35 101.67,-14.32 159.04,-27.86 -9.89,-9.89 -39.79,-27.01 -53.75,-26.31 -23.87,1.19 -48.87,8.28 -78.22,9.26 -19.69,0.66 -102.74,2.54 -120.38,-2.69 -11.31,-3.36 -8.47,-2.72 -14.27,-8.46l-9.67 -13.16c-18.99,6.73 -26.44,11 -27.9,33.64z"/>
  <path class="fil1" d="M476.45 698.17c55.23,-0.02 130.61,-2.85 176.61,-26.07l-13.94 -13.97c-23.48,-16.85 -96.94,6.19 -176.2,6.21 -26.17,0.01 -68.37,1.64 -91.67,-4.59 -19.98,-5.35 -19.29,-11.13 -23.32,-22.25 -0.37,-1 -0.86,-2.74 -1.14,-3.57 -0.28,-0.84 -0.52,-2.5 -1.11,-3.61 -51.43,16.1 -42.08,46.93 12.61,57.56 33.33,6.48 81.46,10.29 118.16,10.29z"/>
  <path class="fil1" d="M238.1 572.84c41.14,34.78 395.87,34.3 442.09,-9.61l5.24 -5.73c-63.57,0.57 -175.02,25.82 -352.1,-5.43 7.59,-13.35 20.83,-20.83 36.88,-29.1 -25.33,0.47 -54.86,9.32 -75.1,16.2 -24.85,8.44 -48.54,15.02 -57.01,33.67z"/>
  <path class="fil1" d="M471.94 918.32c-28.6,-0.1 -132.59,-8.57 -145.43,-2.71 73.39,35.04 463.16,33.28 512.85,-60.14 -68.44,26.71 -57.11,37.44 -162.36,52.93 -70.64,10.4 -131.59,10.04 -205.06,9.92z"/>
  <path class="fil1" d="M729.94 521.65c29.08,2.43 46.87,-1.16 64.33,17.41 40.27,42.83 -19.9,102.26 -53.53,126.89l-26.74 20.67c48.34,-11.14 113.89,-49.39 126.28,-88.83 21.41,-68.19 -64.74,-108.57 -110.33,-76.13z"/>
 </g>
</svg>
