<?xml version="1.0" encoding="UTF-8"?>
<!DOCTYPE svg PUBLIC "-//W3C//DTD SVG 1.1//EN" "http://www.w3.org/Graphics/SVG/1.1/DTD/svg11.dtd">
<!-- Creator: CorelDRAW 2020 (64-Bit) -->
<svg xmlns="http://www.w3.org/2000/svg" xml:space="preserve" width="10.6667in" height="8in" version="1.1" style="shape-rendering:geometricPrecision; text-rendering:geometricPrecision; image-rendering:optimizeQuality; fill-rule:evenodd; clip-rule:evenodd"
viewBox="0 0 10666.66 8000"
 xmlns:xlink="http://www.w3.org/1999/xlink"
 xmlns:xodm="http://www.corel.com/coreldraw/odm/2003">
 <defs>
  <style type="text/css">
   <![CDATA[
    .fil0 {fill:#1a80e6}
   ]]>
  </style>
 </defs>
 <g id="Layer_x0020_1">
  <metadata id="CorelCorpID_0Corel-Layer"/>
  <path class="fil0" d="M4271.74 3083.46c-241.28,-16.85 -473.93,-108.28 -808.88,104.04 -100.63,63.79 -187.34,143.95 -256.04,232.7 -105.04,135.71 -120.86,248.52 -167.94,320.43 -129.79,-32.54 -215.81,-76.37 -376.96,-95.77 -411,-49.46 -809.83,71.51 -1096.06,327.72 -244.63,218.97 -476.87,569.64 -492.7,937.22 -7.92,183.65 182.14,136.99 340.87,136.99l7714.11 0c610.94,0 666.96,66.38 611.19,-310.02 -40.82,-275.47 -160.17,-491.7 -299.11,-660.94 -137.39,-167.36 -327.02,-314.58 -558.11,-402.09 -315.83,-119.62 -507.85,-101.8 -843.73,-45.06 -31.9,-85.08 -49.78,-224.2 -82,-324.21 -33.6,-104.28 -74.55,-200.56 -121.5,-290.38 -528.17,-1010.48 -1749.25,-1386.92 -2777.88,-803.93 -301.1,170.65 -686.76,566.19 -785.26,873.31z"/>
 </g>
</svg>
