<?xml version="1.0" encoding="UTF-8"?>
<!DOCTYPE svg PUBLIC "-//W3C//DTD SVG 1.1//EN" "http://www.w3.org/Graphics/SVG/1.1/DTD/svg11.dtd">
<!-- Creator: CorelDRAW 2020 (64-Bit) -->
<svg xmlns="http://www.w3.org/2000/svg" xml:space="preserve" width="10.6667in" height="8in" version="1.1" style="shape-rendering:geometricPrecision; text-rendering:geometricPrecision; image-rendering:optimizeQuality; fill-rule:evenodd; clip-rule:evenodd"
viewBox="0 0 10666.66 8000"
 xmlns:xlink="http://www.w3.org/1999/xlink"
 xmlns:xodm="http://www.corel.com/coreldraw/odm/2003">
 <defs>
  <style type="text/css">
   <![CDATA[
    .fil0 {fill:#9ECFFF}
   ]]>
  </style>
 </defs>
 <g id="Layer_x0020_1">
  <metadata id="CorelCorpID_0Corel-Layer"/>
  <path class="fil0" d="M3871.2 3808.35c-279.7,-3.16 -406.96,-12.26 -648.16,72.22 -533.82,186.96 -925.11,777.93 -634.61,1373.84 105.66,216.74 275.56,180.87 552.87,180.87l2203.98 -0.01c978.03,-0.09 1956.46,2.32 2934.47,0.3 243.27,-0.5 323.99,-147.13 359.04,-373.83 35.67,-230.75 -17.04,-424.72 -112.8,-593.93 -80.45,-142.15 -220.1,-272.21 -378.81,-350.22 -241.82,-118.85 -349.82,-85.5 -621.11,-66 -37.05,-276.47 -43.69,-370.55 -192.51,-565.85 -210.38,-276.09 -611.81,-393.58 -950.3,-279.18 -82.65,27.94 -76.05,32.7 -130.76,-27.97 -603.7,-669.43 -1838.6,-529.69 -2264.24,350.25l-104.98 257.76c-1.62,3.34 -4.56,8.15 -5.93,10.84 -1.39,2.73 -3.94,7.37 -6.16,10.9z"/>
 </g>
</svg>
