<?xml version="1.0" encoding="UTF-8"?>
<!DOCTYPE svg PUBLIC "-//W3C//DTD SVG 1.1//EN" "http://www.w3.org/Graphics/SVG/1.1/DTD/svg11.dtd">
<!-- Creator: CorelDRAW 2020 (64-Bit) -->
<svg xmlns="http://www.w3.org/2000/svg" xml:space="preserve" width="10.6667in" height="8in" version="1.1" style="shape-rendering:geometricPrecision; text-rendering:geometricPrecision; image-rendering:optimizeQuality; fill-rule:evenodd; clip-rule:evenodd"
viewBox="0 0 10666.66 8000"
 xmlns:xlink="http://www.w3.org/1999/xlink"
 xmlns:xodm="http://www.corel.com/coreldraw/odm/2003">
 <defs>
  <style type="text/css">
   <![CDATA[
    .fil0 {fill:#62b1ff}
   ]]>
  </style>
 </defs>
 <g id="Layer_x0020_1">
  <metadata id="CorelCorpID_0Corel-Layer"/>
  <path class="fil0" d="M3105.59 3377.28l-38.35 41.28c-110,97.51 -142.84,133.07 -224.46,259.42l-40.25 49.94c-2.66,25.26 -88.01,224.04 -107.64,287.89 -373.53,31.03 -644.25,235.39 -727.46,552 -49.69,189.02 -25.63,402.38 146.19,441.56 96.54,22.02 5244.94,5.3 5787.68,5.3 213.23,0 426.45,-0.04 639.68,0 224.51,0.04 382.96,-8.8 363.67,-268.48 -26.09,-351.2 -306.64,-609.95 -637.96,-652.8 -89.18,-556.22 -754.81,-1009.39 -1430.79,-697.89 -153.43,70.7 -348.55,244.39 -412.8,380.46 -101.96,-35.05 -172.54,-183.03 -513.2,-192.92 -70.5,-381.75 -260.46,-671.03 -655.3,-775.81 -211.04,-56 -432.61,-31.03 -609.92,55.69 -132.87,64.99 -323.5,213.24 -375.13,347.49 -205.31,-36.22 -335.07,-121.65 -651.24,-58.95 -342.88,67.99 -434.14,194.41 -512.73,225.8z"/>
 </g>
</svg>
