<?xml version="1.0" encoding="UTF-8"?>
<!DOCTYPE svg PUBLIC "-//W3C//DTD SVG 1.1//EN" "http://www.w3.org/Graphics/SVG/1.1/DTD/svg11.dtd">
<!-- Creator: CorelDRAW 2020 (64-Bit) -->
<svg xmlns="http://www.w3.org/2000/svg" xml:space="preserve" width="10.6667in" height="8in" version="1.1" style="shape-rendering:geometricPrecision; text-rendering:geometricPrecision; image-rendering:optimizeQuality; fill-rule:evenodd; clip-rule:evenodd"
viewBox="0 0 10666.66 8000"
 xmlns:xlink="http://www.w3.org/1999/xlink"
 xmlns:xodm="http://www.corel.com/coreldraw/odm/2003">
 <defs>
  <style type="text/css">
   <![CDATA[
    .fil0 {fill:#60ABF7}
   ]]>
  </style>
 </defs>
 <g id="Layer_x0020_1">
  <metadata id="CorelCorpID_0Corel-Layer"/>
  <path class="fil0" d="M3336.22 3567.93c-302.23,30.91 -452.98,36.04 -704.25,158.94 -393.28,192.37 -663.41,496.77 -812.83,909.3 -65.68,181.33 -174.2,595.02 20.63,685.17 84.29,39 6262.73,14.57 6920.7,17.49 139.32,0.62 254.17,-14.22 285.07,-136.05 20.32,-80.11 -26.23,-300.37 -50.05,-375.39 -76.74,-241.67 -184.94,-400.52 -322.35,-553.71 -123.53,-137.72 -300.16,-264.67 -511.58,-350.29 -271.27,-109.85 -452.89,-103.17 -758.56,-90.07 -79.73,-182.81 -85.99,-257 -214.46,-398.22 -225.81,-248.2 -560.89,-360.76 -906.59,-280.7 -195.98,45.39 -263.8,122.62 -399.56,207.5 -56.85,-97.97 -86.32,-440.77 -459.38,-732.2 -824.77,-644.31 -2012.04,-142.13 -2086.81,938.22z"/>
 </g>
</svg>
