<?xml version="1.0" encoding="UTF-8"?>
<!DOCTYPE svg PUBLIC "-//W3C//DTD SVG 1.1//EN" "http://www.w3.org/Graphics/SVG/1.1/DTD/svg11.dtd">
<!-- Creator: CorelDRAW 2020 (64-Bit) -->
<svg xmlns="http://www.w3.org/2000/svg" xml:space="preserve" width="5.54166in" height="0.187496in" version="1.1" style="shape-rendering:geometricPrecision; text-rendering:geometricPrecision; image-rendering:optimizeQuality; fill-rule:evenodd; clip-rule:evenodd"
viewBox="0 0 5541.66 187.5"
 xmlns:xlink="http://www.w3.org/1999/xlink"
 xmlns:xodm="http://www.corel.com/coreldraw/odm/2003">
 <defs>
  <style type="text/css">
   <![CDATA[
    .fil0 {fill:#1A80E6}
   ]]>
  </style>
 </defs>
 <g id="Layer_x0020_1">
  <metadata id="CorelCorpID_0Corel-Layer"/>
  <rect class="fil0" transform="matrix(0.707107 -0.707107 0.707107 0.707107 2704.53 89.7402)" width="93.75" height="93.75"/>
  <rect class="fil0" transform="matrix(0.491923 -0.491923 0.491923 0.491923 2965.49 89.7402)" width="93.75" height="93.75"/>
  <rect class="fil0" transform="matrix(0.491923 -0.491923 0.491923 0.491923 2483.92 89.7402)" width="93.75" height="93.75"/>
  <path class="fil0" d="M2453.11 89.74l19.47 -19.47c-997.23,1.07 -1954.7,7.57 -2472.59,19.47 517.89,11.91 1475.36,18.4 2472.59,19.47l-19.47 -19.47z"/>
  <path class="fil0" d="M2587.39 70.17l19.57 19.57 -19.57 19.57c30.81,0.02 61.64,0.04 92.48,0.05l-19.62 -19.62 19.62 -19.62c-30.84,0.01 -61.67,0.02 -92.48,0.05z"/>
  <path class="fil0" d="M2861.78 70.12l19.62 19.62 -19.62 19.62c30.84,-0.01 61.67,-0.02 92.48,-0.05l-19.57 -19.57 19.57 -19.57c-30.81,-0.02 -61.63,-0.04 -92.48,-0.05z"/>
  <path class="fil0" d="M3069.06 70.27l19.47 19.47 -19.47 19.47c997.23,-1.07 1954.7,-7.57 2472.6,-19.47 -517.89,-11.91 -1475.37,-18.4 -2472.6,-19.47z"/>
 </g>
</svg>
