<?xml version="1.0" encoding="UTF-8"?>
<!DOCTYPE svg PUBLIC "-//W3C//DTD SVG 1.1//EN" "http://www.w3.org/Graphics/SVG/1.1/DTD/svg11.dtd">
<!-- Creator: CorelDRAW 2020 (64-Bit) -->
<svg xmlns="http://www.w3.org/2000/svg" xml:space="preserve" width="1.5625in" height="0.653535in" version="1.1" style="shape-rendering:geometricPrecision; text-rendering:geometricPrecision; image-rendering:optimizeQuality; fill-rule:evenodd; clip-rule:evenodd"
viewBox="0 0 1562.5 653.54"
 xmlns:xlink="http://www.w3.org/1999/xlink"
 xmlns:xodm="http://www.corel.com/coreldraw/odm/2003">
 <defs>
  <style type="text/css">
   <![CDATA[
    .str0 {stroke:#FEDD3D;stroke-width:31.25;stroke-miterlimit:2.61313}
    .fil6 {fill:none}
    .fil1 {fill:#F8F7EA}
    .fil0 {fill:#FEB035}
    .fil5 {fill:#FEDD3D}
    .fil3 {fill:#FFBF57}
    .fil2 {fill:white}
    .fil4 {fill:white}
   ]]>
  </style>
 </defs>
 <g id="Layer_x0020_1">
  <metadata id="CorelCorpID_0Corel-Layer"/>
  <g id="_1952625747120">
   <path class="fil0" d="M277.15 14.27c-104.69,20.98 -196.99,78.04 -241.1,172.21 -8.07,17.24 -15.6,30.46 -20.22,47.8 -27.67,103.79 -20.98,187.9 35.57,275.33 15.22,23.52 25.85,36.29 45.68,55.65l58.55 45.96c100.77,58.32 175.96,47.48 299.15,47.48 78.7,0 784.68,4.74 828.51,-3.3 81.3,-14.91 135.27,-42.99 183.68,-91.54 44.81,-44.93 83.86,-110.57 92.47,-181.81 20.17,-166.93 -73.33,-295.24 -198.45,-347.06 -75.76,-31.38 -162.19,-23.59 -253.32,-23.52 -92.83,0.07 -185.69,0.04 -278.53,-0.07 -91.84,-0.11 -183.69,0.05 -275.53,-0 -45.91,-0.02 -91.85,-0.03 -137.76,0.04 -36.59,0.06 -106.61,-3.62 -138.69,2.81z"/>
   <path class="fil1" d="M599.22 254.09c-41.7,11.13 -34.88,33.7 -35.23,80.48 -0.15,19.2 0.73,36.35 11.4,46.87 8.15,8.04 25.64,14.98 42.07,10.73 36.25,-9.39 32.37,-41.48 31.96,-81.56 -0.38,-36.52 -15.42,-65.8 -50.19,-56.52z"/>
   <path class="fil1" d="M671.52 390.48c75.75,9.42 77.57,-20.89 77.61,-67.84 0.02,-24.4 2.46,-44.06 -14.43,-57.82 -14.83,-12.09 -41.64,-10.42 -62.31,-8.98 -4.59,17.06 -3.09,113.5 -0.87,134.64z"/>
   <path class="fil2" d="M158.59 390.32c63.58,3.6 78.59,-2.6 78.36,-64.7 -0.25,-66.88 -10.4,-73.06 -78.3,-69.64l-0.06 134.34z"/>
   <path class="fil1" d="M431.93 390.59l21.86 0.59 -0.17 -78.85c12.48,14.96 12.85,35.42 22.12,48.41l20.96 0.21c5.7,-6.7 7.62,-11.48 10.04,-19.52 1.17,-3.89 1.67,-7.98 3.13,-11.5 4,-9.63 5.85,-9.5 9.35,-11.96l-0.41 73.76 21.41 0.83c4.67,-17.79 3.63,-114.43 1.3,-135.71 -30.63,-4.08 -25.57,4.88 -35.41,27.67 -7.29,16.88 -12.04,27.39 -17.75,44.78 -6.83,-6.03 -14.17,-28.61 -17.89,-37.53 -4.67,-11.21 -10.71,-26.58 -16.58,-36.55l-21.46 0.25c-3.74,12.52 -2.89,118.54 -0.52,135.13z"/>
   <path class="fil1" d="M771.66 392.06c76.11,-0.4 70.64,2.42 68.45,-23.4l-45.3 -0.62 0.2 -33.69 38.67 -0.77 0.94 -21.67 -38.84 -1.25 -1.37 -31.34c26.37,-0.82 55.45,8.27 42.08,-23.79l-65.31 0c-3.05,13.85 -2.7,122.54 0.5,136.52z"/>
   <path class="fil2" d="M363.33 390.54l21.57 0.37c3.95,-36.95 -1.59,-36.38 10.8,-70.24 5.95,-16.26 19.45,-49.18 20.58,-64.09l-22.19 0.02 -18.99 56.35 -20.93 -56.28 -22.44 -0.26c2.25,18.33 13.91,43.67 19.96,61.67 12.25,36.44 7.17,34.41 11.62,72.46z"/>
   <path class="fil0" d="M590.82 284.84c-3.59,16.07 -1.82,33.31 -1.93,49.78 -0.13,19.4 -1.98,31.63 18.61,35.25 23.33,-7.32 17.39,-30.24 17.26,-56.3 -0.06,-11.22 0.37,-25.08 -6.35,-31.66 -13.03,-12.76 -18.28,-1.89 -27.59,2.93z"/>
   <path class="fil0" d="M695.02 366.12c24.13,3.3 28.85,-2.32 29.07,-25.4 0.26,-26.74 6.62,-55.63 -12.97,-60.98 -5,-1.36 -10.03,-0.52 -15.1,-0.2l-1 86.58z"/>
   <path class="fil0" d="M182.99 365.98l21.96 0.76c10.94,-19.03 7.63,-32.54 7.55,-56.16 -0.07,-22.87 -1.59,-35.75 -28.22,-30.52l-1.29 85.92z"/>
   <path class="fil3" d="M260.54 64.37c48.58,-6.83 745.53,-2.65 829.15,-2.75 21.34,-0.02 42.33,-0.47 62.96,-0.69 66.39,-0.72 129.03,0.88 187.75,26.19 64.96,28 128.46,82.25 165.43,156.34 27.17,54.46 40,119.63 28.52,192.97 -2.82,18.03 -7.15,35.57 -12.87,52.5 18.19,-32.47 30.87,-68.35 36.82,-106.39 27.09,-173.11 -81.24,-300.73 -193.95,-349.31 -76.96,-33.17 -160.67,-25.6 -250.71,-25.49 -83.62,0.1 -780.57,-4.09 -829.15,2.75 -136.5,19.19 -229.98,108.59 -266.79,216.76 46.28,-82.96 129.81,-146.98 242.84,-162.87z"/>
   <ellipse class="fil4" cx="1234.76" cy="335.29" rx="250.15" ry="248.85"/>
   <ellipse class="fil5" cx="1234.76" cy="335.29" rx="107.96" ry="107.4"/>
   <line class="fil6 str0" x1="1234.76" y1="197.84" x2="1234.76" y2= "158.41" />
   <line class="fil6 str0" x1="1234.76" y1="508.18" x2="1234.76" y2= "468.74" />
   <line class="fil6 str0" x1="1098.6" y1="333.29" x2="1058.96" y2= "333.29" />
   <line class="fil6 str0" x1="1410.56" y1="333.29" x2="1370.92" y2= "333.29" />
   <line class="fil6 str0" x1="1166.68" y1="215.99" x2="1146.86" y2= "181.84" />
   <line class="fil6 str0" x1="1322.66" y1="484.75" x2="1302.84" y2= "450.6" />
   <line class="fil6 str0" x1="1116.84" y1="401.02" x2="1082.51" y2= "420.74" />
   <line class="fil6 str0" x1="1387" y1="245.85" x2="1352.67" y2= "265.57" />
   <line class="fil6 str0" x1="1116.84" y1="265.57" x2="1082.51" y2= "245.85" />
   <line class="fil6 str0" x1="1387" y1="420.74" x2="1352.67" y2= "401.02" />
   <line class="fil6 str0" x1="1166.68" y1="450.59" x2="1146.86" y2= "484.75" />
   <line class="fil6 str0" x1="1322.66" y1="181.84" x2="1302.84" y2= "215.99" />
   <path class="fil4" d="M300.13 335.3l-21.06 0 10.53 -41.91 10.53 41.91zm34.24 55.24c0.9,-13.09 -26.84,-121.24 -33.27,-135.3 -30.18,2.08 -19.76,-13.79 -37.88,55.66 -4.57,17.5 -18.06,64.67 -17.91,79.75l23.31 0.32 5.78 -24.42 31.51 -0.1 5.78 24.07 22.67 0.01z"/>
  </g>
 </g>
</svg>
