<?xml version="1.0" encoding="UTF-8"?>
<!DOCTYPE svg PUBLIC "-//W3C//DTD SVG 1.1//EN" "http://www.w3.org/Graphics/SVG/1.1/DTD/svg11.dtd">
<!-- Creator: CorelDRAW 2020 (64-Bit) -->
<svg xmlns="http://www.w3.org/2000/svg" xml:space="preserve" width="1.5625in" height="0.653535in" version="1.1" style="shape-rendering:geometricPrecision; text-rendering:geometricPrecision; image-rendering:optimizeQuality; fill-rule:evenodd; clip-rule:evenodd"
viewBox="0 0 1562.5 653.54"
 xmlns:xlink="http://www.w3.org/1999/xlink"
 xmlns:xodm="http://www.corel.com/coreldraw/odm/2003">
 <defs>
  <style type="text/css">
   <![CDATA[
    .fil3 {fill:#010101}
    .fil0 {fill:#2C2A2C}
    .fil2 {fill:#3D3D3D}
    .fil4 {fill:#FEDD3D}
    .fil1 {fill:white}
   ]]>
  </style>
 </defs>
 <g id="Layer_x0020_1">
  <metadata id="CorelCorpID_0Corel-Layer"/>
  <path class="fil0" d="M284.31 10.49c-248.09,35.07 -354.1,303.21 -236.05,494.18 32.67,52.85 82.59,99.98 150.27,128.47 80.85,34.03 158.82,25.88 250.08,25.89 85.48,0 778.22,3.88 830.5,-3.09 144.21,-19.23 257.24,-130.57 279.17,-271.39 27.1,-174.04 -81.25,-302.35 -193.98,-351.19 -76.97,-33.35 -160.68,-25.74 -250.74,-25.63 -83.63,0.11 -780.67,-4.1 -829.26,2.76z"/>
  <path class="fil1" d="M681.39 252.55c-37.76,9.02 -31.28,42.41 -31.31,82.54 -0.02,36.34 12.82,63.78 54.18,54.76 34.94,-7.63 30.9,-45.57 30.89,-81.91 -0.01,-36.42 -13.24,-65.07 -53.76,-55.39z"/>
  <path class="fil1" d="M756.58 388.87c62.74,0 78.11,0.03 78.09,-65.83 -0.02,-69.48 -11.19,-69.53 -78.02,-69.53l-0.07 135.36z"/>
  <path class="fil1" d="M517.05 388.74l23.38 -0.37 -1.29 -85.63 21.98 56.61 22.29 -0.26 22.4 -56.69 -0.94 85.68 23.51 0.88 0.33 -135.66 -25.29 0.35c-3.43,12.78 -9.67,25.15 -14.94,38.38l-17.35 37.8 -29.73 -76.06 -24.46 -0.21 0.11 135.19z"/>
  <path class="fil1" d="M72.86 388.82l23.03 -0.07 -1.06 -83.87c15.79,18.45 21.91,63.81 39.29,83.58l21.6 0.33 0.2 -135.12 -23.44 0.62 1.58 83.74 -37.82 -84.3 -23.33 -0.22 -0.05 135.31z"/>
  <path class="fil1" d="M308.63 314.07l-41.29 0.5 0.05 19.47 17.94 2.27c2.35,27.41 -3.87,34.97 -29.61,29.22 -6.7,-17.38 -4.45,-32.65 -4.6,-54.54 -0.16,-23.61 -4.05,-40.63 25.91,-34.95 3.91,5.7 5.83,11.17 9.84,17.58l21.35 0.35c-3.48,-33.52 -21.04,-51.5 -57.65,-39.94 -29.79,9.4 -24.17,47.15 -24.2,81.01 -0.02,35.92 10.15,62.37 51.56,55.08 34.82,-6.13 31.65,-40.43 30.69,-76.05z"/>
  <polygon class="fil1" points="328.01,388.89 351.39,388.33 351.65,331.73 384.52,332.39 384.44,388.91 408.19,388.2 408.18,255.06 384.4,253.3 384.32,307.26 351.45,309.63 351.64,254.52 328.02,253.4 "/>
  <polygon class="fil1" points="856.04,388.71 925.54,388.92 926.05,366.22 881.61,366.3 879.57,331.01 920.03,330.73 920.38,309.86 879.75,309.24 880.33,276.21 924.36,276.04 924.31,254.14 856.01,253.61 "/>
  <polygon class="fil1" points="424.08,275.94 450.12,276.26 451.28,388.81 475.67,388.75 476.05,276.46 502.94,276.01 503.19,253.48 424.16,253.59 "/>
  <polygon class="fil1" points="181.31,388.72 205.12,388.42 205.13,344 205.14,317.04 205.22,254.33 181.28,253.46 "/>
  <path class="fil0" d="M683.57 279.07c-13.93,11.05 -9.09,21.14 -9.14,56.02 -0.02,17.52 5.83,45.56 28.4,29.82 11.12,-7.76 18.65,-115.93 -19.26,-85.83z"/>
  <path class="fil0" d="M780.19 366.32c36.38,0.1 30.22,-12.67 30.28,-46.29 0.05,-29.29 3.76,-43.47 -28.59,-43.79l-1.69 90.08z"/>
  <path class="fil2" d="M260.36 64.67c48.59,-6.87 745.63,-2.66 829.26,-2.76 21.35,-0.03 42.34,-0.48 62.97,-0.7 66.4,-0.72 129.04,0.88 187.78,26.32 64.97,28.15 128.48,82.69 165.45,157.18 27.17,54.75 40,120.28 28.52,194.01 -2.82,18.13 -7.15,35.76 -12.87,52.78 18.19,-32.64 30.87,-68.72 36.82,-106.96 27.1,-174.04 -81.25,-302.35 -193.97,-351.19 -76.98,-33.35 -160.69,-25.74 -250.74,-25.63 -83.63,0.1 -780.67,-4.11 -829.26,2.76 -136.52,19.3 -230.02,109.17 -266.83,217.93 46.29,-83.41 129.83,-147.77 242.87,-163.75z"/>
  <path class="fil3" d="M1216.83 84.43c-72.06,2.67 -137.24,47.72 -167.93,84.06 -44.7,52.94 -66.91,111.89 -61.29,186.75 9.65,128.52 127.35,242.37 272.52,227.02 36.11,-3.81 68.37,-13.44 94.86,-28.74 48.3,-27.89 67.69,-47.74 95.6,-91.3 46.39,-72.37 45.67,-172.76 5.45,-247.19 -48.64,-90.03 -136.81,-134.39 -239.22,-130.59z"/>
  <path class="fil4" d="M1116.74 398.8c17.5,58 142.16,111.3 218.4,31.94 24.67,-25.67 46.9,-71.63 37.12,-124.13 -7.52,-40.38 -38.64,-82.14 -69.69,-93.88 9.68,31.84 19.8,48.94 11.72,89.38 -6.09,30.48 -20.73,54.57 -37.46,70.38 -54.11,51.17 -101.11,46.11 -160.1,26.31z"/>
  <path class="fil4" d="M1154.04 232.48l-21.41 1.69c7.08,6.76 8.17,6.17 15.37,12.29l-4.31 21.54c6.77,-3.52 11.11,-7.36 17.81,-11.14l17.45 11.53 -4.93 -20.17c7.02,-7.73 7.78,-7.24 15.63,-10.93 -5.33,-3.54 0.44,-2.08 -10.07,-3.87 -1.47,-0.25 -8.77,-0.35 -11.37,-0.59l-5.59 -18.25 -8.58 17.89z"/>
 </g>
</svg>
