<?xml version="1.0" encoding="UTF-8"?>
<!DOCTYPE svg PUBLIC "-//W3C//DTD SVG 1.1//EN" "http://www.w3.org/Graphics/SVG/1.1/DTD/svg11.dtd">
<!-- Creator: CorelDRAW 2020 (64-Bit) -->
<svg xmlns="http://www.w3.org/2000/svg" xml:space="preserve" width="500px" height="500px" version="1.1" style="shape-rendering:geometricPrecision; text-rendering:geometricPrecision; image-rendering:optimizeQuality; fill-rule:evenodd; clip-rule:evenodd"
viewBox="0 0 50000 50000"
 xmlns:xlink="http://www.w3.org/1999/xlink"
 xmlns:xodm="http://www.corel.com/coreldraw/odm/2003">
 <defs>
  <style type="text/css">
   <![CDATA[
    .fil3 {fill:#009100}
    .fil0 {fill:#00BA00}
    .fil2 {fill:#00DE00}
    .fil1 {fill:lime}
    .fil4 {fill:#54FF54}
   ]]>
  </style>
 </defs>
 <g id="Layer_x0020_1">
  <metadata id="CorelCorpID_0Corel-Layer"/>
  <path class="fil0" d="M30522 36247c-1042,1764 -451,4061 1314,5104 1765,1042 4130,489 5104,-1314l4413 -8164c975,-1804 451,-4062 -1313,-5104 -1765,-1043 -4062,-451 -5104,1314 0,0 -4414,8164 -4414,8164z"/>
  <path class="fil1" d="M16466 24997c59,-3037 2570,-5451 5607,-5391 297,6 588,35 871,86 1375,-2374 3221,-5530 5863,-10002 1042,-1765 451,-4062 -1314,-5104 -1764,-1043 -4078,-461 -5104,1313l-19053 33104c-1022,1776 -451,4062 1313,5104 1766,1042 4062,451 5104,-1314 5111,-8653 6587,-11398 8080,-14058 -876,-996 -1395,-2308 -1367,-3738z"/>
  <path class="fil2" d="M28601 17095c-1023,1733 -1859,3155 -2547,4332 901,1001 1439,2333 1410,3786 -60,3037 -2570,5451 -5607,5391 -303,-6 -599,-36 -887,-89 -672,1177 -553,1227 -2142,3917 -1042,1765 -451,4062 1314,5104 1764,1042 4061,451 5104,-1314 9719,-16455 1138,-2717 9773,-17337 1042,-1765 451,-4062 -1314,-5104 -1765,-1043 -4061,-451 -5104,1314z"/>
  <ellipse class="fil3" cx="44488" cy="40992" rx="3582" ry="3571"/>
  <ellipse class="fil4" cx="21983" cy="25081" rx="2488" ry="2480"/>
 </g>
</svg>
