<?xml version="1.0" encoding="UTF-8"?>
<!DOCTYPE svg PUBLIC "-//W3C//DTD SVG 1.1//EN" "http://www.w3.org/Graphics/SVG/1.1/DTD/svg11.dtd">
<!-- Creator: CorelDRAW 2020 (64-Bit) -->
<svg xmlns="http://www.w3.org/2000/svg" xml:space="preserve" width="2550px" height="3300px" version="1.1" style="shape-rendering:geometricPrecision; text-rendering:geometricPrecision; image-rendering:optimizeQuality; fill-rule:evenodd; clip-rule:evenodd"
viewBox="0 0 255000 330000"
 xmlns:xlink="http://www.w3.org/1999/xlink"
 xmlns:xodm="http://www.corel.com/coreldraw/odm/2003">
 <defs>
  <style type="text/css">
   <![CDATA[
    .fil0 {fill:#E6E7E8;fill-rule:nonzero}
   ]]>
  </style>
 </defs>
 <g id="Layer_x0020_1">
  <metadata id="CorelCorpID_0Corel-Layer"/>
  <path class="fil0" d="M249106 231826c-8848,2251 -14320,97 -19229,-7276 -11021,-16513 -23188,-32269 -34927,-48316 -1513,-2076 -3085,-4113 -5045,-6694 -13893,18744 -27767,36595 -40787,55165 -4657,6636 -9547,9527 -18240,7179l52236 -70106 -48626 -63315c8363,-1630 14145,-795 19268,6695 11312,16532 23789,32268 36227,48917 12515,-16590 24837,-32346 36479,-48723 4676,-6636 9702,-9159 18104,-6714 -6365,8441 -12593,16746 -18861,24992 -8460,11119 -16765,22373 -25535,33258 -3124,3881 -2620,6404 174,10071 16222,21325 32250,42863 48762,64867zm-238939 -92227c11642,-41582 59376,-58871 92168,-33103 19210,15116 23984,36422 23033,60444l-108274 0c-1630,43096 29397,69116 68942,55844 13874,-4657 22043,-15523 26137,-29106 2076,-6811 5511,-7878 11914,-5938 -3279,16998 -10711,31202 -26234,40089 -23284,13311 -56523,9003 -74006,-9489 -10323,-10866 -14708,-24390 -16649,-39001 -1972,-15775 -1597,-23574 2969,-39740zm7121 18124l97854 0c-640,-31163 -20044,-53303 -46569,-53497 -29106,-233 -50024,21383 -51285,53497l0 0z"/>
 </g>
</svg>
