<?xml version="1.0" encoding="UTF-8"?>
<!DOCTYPE svg PUBLIC "-//W3C//DTD SVG 1.1//EN" "http://www.w3.org/Graphics/SVG/1.1/DTD/svg11.dtd">
<!-- Creator: CorelDRAW 2020 (64-Bit) -->
<svg xmlns="http://www.w3.org/2000/svg" xml:space="preserve" width="100px" height="100px" version="1.1" style="shape-rendering:geometricPrecision; text-rendering:geometricPrecision; image-rendering:optimizeQuality; fill-rule:evenodd; clip-rule:evenodd"
viewBox="0 0 100 100"
 xmlns:xlink="http://www.w3.org/1999/xlink"
 xmlns:xodm="http://www.corel.com/coreldraw/odm/2003">
 <defs>
  <style type="text/css">
   <![CDATA[
    .fil0 {fill:#E0234E}
   ]]>
  </style>
 </defs>
 <g id="Layer_x0020_1">
  <metadata id="CorelCorpID_0Corel-Layer"/>
  <path class="fil0" d="M59.015 4c-0.667,0 -1.286,0.143 -1.857,0.333 1.214,0.81 1.881,1.882 2.214,3.096 0.024,0.167 0.072,0.286 0.095,0.452 0.025,0.143 0.048,0.286 0.048,0.429 0.096,2.096 -0.548,2.358 -1,3.596 -0.691,1.596 -0.5,3.31 0.333,4.692 0.072,0.166 0.167,0.357 0.286,0.524 -0.905,-6.026 4.12,-6.93 5.049,-8.812 0.071,-1.643 -1.286,-2.738 -2.358,-3.501 -1.024,-0.619 -1.952,-0.809 -2.81,-0.809l0 0zm7.573 1.358c-0.095,0.547 -0.024,0.404 -0.048,0.69 -0.023,0.191 -0.023,0.429 -0.047,0.619 -0.048,0.191 -0.095,0.381 -0.167,0.572 -0.047,0.19 -0.119,0.381 -0.19,0.571 -0.096,0.191 -0.167,0.357 -0.262,0.548 -0.072,0.095 -0.119,0.191 -0.191,0.286 -0.047,0.071 -0.095,0.143 -0.143,0.214 -0.119,0.167 -0.238,0.333 -0.357,0.476 -0.143,0.143 -0.262,0.31 -0.429,0.429l0 0.024c-0.143,0.119 -0.286,0.262 -0.452,0.381 -0.5,0.381 -1.072,0.667 -1.596,1.024 -0.166,0.119 -0.333,0.214 -0.476,0.357 -0.166,0.119 -0.31,0.238 -0.453,0.381 -0.166,0.143 -0.285,0.286 -0.428,0.453 -0.119,0.142 -0.262,0.309 -0.357,0.476 -0.119,0.166 -0.238,0.333 -0.334,0.5 -0.095,0.19 -0.166,0.357 -0.262,0.548 -0.071,0.19 -0.142,0.357 -0.19,0.547 -0.072,0.215 -0.119,0.405 -0.167,0.596 -0.024,0.095 -0.024,0.214 -0.047,0.309 -0.024,0.096 -0.024,0.191 -0.048,0.286 0,0.191 -0.024,0.405 -0.024,0.595 0,0.143 0,0.286 0.024,0.429 0,0.19 0.024,0.381 0.071,0.596 0.024,0.19 0.072,0.381 0.119,0.571 0.072,0.191 0.12,0.381 0.191,0.572 0.048,0.119 0.119,0.238 0.167,0.333l-5.478 -2.12c-0.928,-0.262 -1.833,-0.5 -2.762,-0.714 -0.5,-0.119 -1,-0.238 -1.5,-0.357 -1.429,-0.286 -2.882,-0.5 -4.335,-0.643 -0.047,0 -0.071,-0.024 -0.119,-0.024 -1.428,-0.143 -2.834,-0.214 -4.262,-0.214 -1.048,0 -2.096,0.047 -3.12,0.119 -1.453,0.095 -2.905,0.286 -4.358,0.524 -0.357,0.047 -0.714,0.119 -1.072,0.19 -0.738,0.143 -1.452,0.31 -2.143,0.476 -0.357,0.096 -0.714,0.191 -1.071,0.286 -0.358,0.143 -0.691,0.31 -1.024,0.453 -0.262,0.119 -0.525,0.238 -0.787,0.357 -0.047,0.024 -0.095,0.024 -0.119,0.047 -0.238,0.119 -0.452,0.215 -0.666,0.334 -0.072,0.024 -0.119,0.047 -0.167,0.072 -0.262,0.119 -0.524,0.261 -0.738,0.38 -0.167,0.072 -0.333,0.167 -0.476,0.239 -0.072,0.047 -0.167,0.095 -0.215,0.119 -0.214,0.119 -0.429,0.238 -0.619,0.357 -0.214,0.119 -0.405,0.238 -0.572,0.357 -0.166,0.119 -0.333,0.214 -0.476,0.333 -0.024,0.024 -0.047,0.024 -0.071,0.048 -0.143,0.095 -0.31,0.214 -0.453,0.333 0,0 -0.023,0.024 -0.047,0.048 -0.119,0.095 -0.238,0.19 -0.357,0.286 -0.048,0.023 -0.096,0.071 -0.143,0.095 -0.119,0.096 -0.238,0.214 -0.357,0.31 -0.025,0.047 -0.072,0.071 -0.096,0.095 -0.143,0.143 -0.286,0.262 -0.429,0.405 -0.023,0 -0.023,0.024 -0.047,0.048 -0.143,0.119 -0.286,0.261 -0.429,0.404 -0.024,0.024 -0.024,0.048 -0.048,0.048 -0.119,0.119 -0.238,0.238 -0.357,0.381 -0.047,0.048 -0.119,0.095 -0.166,0.143 -0.119,0.143 -0.262,0.285 -0.405,0.428 -0.024,0.048 -0.072,0.072 -0.095,0.119 -0.191,0.191 -0.358,0.381 -0.548,0.572 -0.024,0.024 -0.048,0.048 -0.071,0.071 -0.382,0.405 -0.787,0.81 -1.215,1.167 -0.429,0.381 -0.881,0.739 -1.334,1.048 -0.476,0.333 -0.929,0.619 -1.429,0.905 -0.476,0.262 -0.976,0.5 -1.5,0.715 -0.5,0.214 -1.024,0.404 -1.548,0.571 -1,0.214 -2.024,0.619 -2.905,0.691 -0.191,0 -0.405,0.047 -0.596,0.071 -0.214,0.048 -0.404,0.095 -0.595,0.143 -0.19,0.071 -0.381,0.143 -0.572,0.214 -0.19,0.072 -0.381,0.167 -0.571,0.262 -0.167,0.119 -0.357,0.214 -0.524,0.334 -0.167,0.119 -0.333,0.261 -0.476,0.404 -0.167,0.119 -0.334,0.286 -0.476,0.429 -0.143,0.167 -0.286,0.31 -0.405,0.477 -0.12,0.19 -0.262,0.357 -0.358,0.547 -0.119,0.167 -0.238,0.357 -0.333,0.548 -0.095,0.214 -0.191,0.405 -0.262,0.619 -0.071,0.19 -0.143,0.405 -0.214,0.619 -0.048,0.191 -0.096,0.381 -0.119,0.572 0,0.024 -0.024,0.047 -0.024,0.071 -0.048,0.215 -0.048,0.5 -0.072,0.643 -0.023,0.167 -0.047,0.31 -0.047,0.476 0,0.096 0,0.215 0.024,0.31 0.023,0.167 0.047,0.31 0.095,0.452 0.047,0.143 0.095,0.286 0.166,0.429l0 0.024c0.072,0.143 0.167,0.286 0.262,0.429 0.096,0.143 0.191,0.286 0.31,0.428 0.119,0.119 0.262,0.262 0.405,0.381 0.143,0.143 0.286,0.262 0.453,0.381 0.571,0.5 0.714,0.667 1.452,1.048 0.119,0.072 0.238,0.119 0.381,0.191 0.024,0 0.048,0.024 0.071,0.024 0,0.047 0,0.071 0.025,0.119 0.023,0.19 0.071,0.381 0.119,0.571 0.047,0.215 0.119,0.405 0.19,0.572 0.072,0.143 0.119,0.285 0.191,0.428 0.023,0.048 0.047,0.096 0.071,0.119 0.095,0.191 0.191,0.358 0.286,0.525 0.119,0.166 0.238,0.333 0.357,0.5 0.119,0.142 0.262,0.309 0.405,0.452 0.143,0.143 0.286,0.262 0.452,0.405 0,0 0.024,0.024 0.048,0.024 0.143,0.119 0.286,0.238 0.428,0.333 0.167,0.119 0.334,0.214 0.525,0.31 0.166,0.095 0.357,0.19 0.547,0.261 0.143,0.072 0.31,0.12 0.477,0.167 0.023,0.024 0.047,0.024 0.095,0.048 0.095,0.024 0.214,0.047 0.309,0.071 -0.071,1.286 -0.095,2.501 0.096,2.929 0.214,0.477 1.262,-0.976 2.31,-2.643 -0.143,1.643 -0.238,3.572 0,4.144 0.262,0.595 1.691,-1.263 2.929,-3.31 16.884,-3.906 32.292,7.763 33.911,24.242 -0.309,-2.572 -3.477,-4 -4.929,-3.643 -0.715,1.762 -1.929,4.024 -3.882,5.43 0.167,-1.572 0.095,-3.191 -0.238,-4.763 -0.524,2.191 -1.548,4.238 -2.953,6.001 -2.262,0.167 -4.525,-0.929 -5.715,-2.572 -0.096,-0.072 -0.119,-0.214 -0.191,-0.31 -0.072,-0.166 -0.143,-0.333 -0.191,-0.5 -0.071,-0.166 -0.119,-0.333 -0.143,-0.5 -0.023,-0.166 -0.023,-0.333 -0.023,-0.524 0,-0.119 0,-0.238 0,-0.357 0.023,-0.167 0.071,-0.334 0.119,-0.5 0.047,-0.167 0.095,-0.334 0.166,-0.5 0.096,-0.167 0.167,-0.334 0.286,-0.5 0.405,-1.144 0.405,-2.072 -0.333,-2.62 -0.143,-0.095 -0.286,-0.167 -0.453,-0.238 -0.095,-0.024 -0.214,-0.071 -0.309,-0.095 -0.072,-0.024 -0.119,-0.048 -0.191,-0.072 -0.166,-0.047 -0.333,-0.095 -0.5,-0.119 -0.166,-0.047 -0.333,-0.071 -0.5,-0.071 -0.167,-0.024 -0.357,-0.048 -0.524,-0.048 -0.119,0 -0.238,0.024 -0.357,0.024 -0.191,0 -0.357,0.024 -0.524,0.071 -0.167,0.024 -0.333,0.048 -0.5,0.096 -0.167,0.047 -0.333,0.095 -0.5,0.166 -0.167,0.072 -0.31,0.143 -0.476,0.215 -0.143,0.071 -0.286,0.166 -0.453,0.238 -5.549,3.62 -2.238,12.097 1.548,14.55 -1.429,0.262 -2.882,0.572 -3.286,0.882 -0.024,0.024 -0.048,0.047 -0.048,0.047 1.024,0.619 2.096,1.143 3.215,1.596 1.524,0.5 3.143,0.952 3.858,1.143l0 0.023c1.976,0.406 3.977,0.548 6.001,0.429 10.55,-0.738 19.194,-8.763 20.766,-19.337 0.047,0.214 0.095,0.405 0.143,0.619 0.071,0.429 0.167,0.882 0.214,1.334l0 0.024c0.048,0.214 0.072,0.428 0.096,0.619l0 0.095c0.023,0.214 0.047,0.429 0.047,0.619 0.024,0.263 0.048,0.524 0.048,0.786l0 0.381c0,0.119 0.024,0.262 0.024,0.381 0,0.143 -0.024,0.286 -0.024,0.429l0 0.333c0,0.167 -0.024,0.31 -0.024,0.477 0,0.095 0,0.19 -0.024,0.309 0,0.167 -0.024,0.334 -0.024,0.524 -0.024,0.072 -0.024,0.143 -0.024,0.215 -0.024,0.19 -0.047,0.357 -0.071,0.547 0,0.072 0,0.143 -0.024,0.215 -0.024,0.238 -0.071,0.452 -0.095,0.69l0 0.024 0 0.024c-0.048,0.214 -0.096,0.452 -0.143,0.667l0 0.071c-0.048,0.215 -0.095,0.429 -0.143,0.643 0,0.024 -0.024,0.072 -0.024,0.095 -0.047,0.215 -0.095,0.429 -0.166,0.643l0 0.072c-0.072,0.238 -0.143,0.452 -0.191,0.667 -0.024,0.024 -0.024,0.047 -0.024,0.047 -0.072,0.239 -0.143,0.477 -0.214,0.715 -0.096,0.238 -0.167,0.452 -0.262,0.69 -0.096,0.238 -0.167,0.476 -0.262,0.691 -0.096,0.238 -0.191,0.452 -0.286,0.691l-0.024 0c-0.095,0.214 -0.19,0.452 -0.309,0.666 -0.024,0.072 -0.048,0.119 -0.072,0.167 -0.024,0.024 -0.024,0.048 -0.047,0.072 -1.548,3.119 -3.834,5.858 -6.692,8.001 -0.191,0.119 -0.381,0.262 -0.572,0.405 -0.047,0.048 -0.119,0.071 -0.166,0.119 -0.167,0.119 -0.334,0.238 -0.525,0.357l0.072 0.143 0.024 0c0.333,-0.048 0.667,-0.095 1,-0.143l0.024 0c0.619,-0.095 1.238,-0.214 1.857,-0.333 0.167,-0.024 0.358,-0.072 0.524,-0.119 0.12,-0.024 0.215,-0.048 0.334,-0.072 0.167,-0.023 0.333,-0.071 0.5,-0.095 0.143,-0.048 0.286,-0.072 0.428,-0.119 2.382,-0.572 4.692,-1.358 6.906,-2.286 -3.786,5.167 -8.858,9.335 -14.788,12.074 2.739,-0.191 5.477,-0.643 8.121,-1.406 9.597,-2.834 17.67,-9.287 22.504,-17.979 -0.976,5.501 -3.167,10.74 -6.406,15.312 2.31,-1.524 4.429,-3.286 6.359,-5.286 5.334,-5.573 8.835,-12.646 10.025,-20.242 0.81,3.762 1.048,7.644 0.691,11.478 17.194,-23.981 1.429,-48.843 -5.168,-55.392 -0.024,-0.048 -0.047,-0.071 -0.047,-0.119 -0.024,0.024 -0.024,0.024 -0.024,0.048 0,-0.024 0,-0.024 -0.024,-0.048 0,0.286 -0.024,0.572 -0.048,0.857 -0.071,0.548 -0.142,1.072 -0.238,1.596 -0.119,0.524 -0.262,1.048 -0.405,1.572 -0.167,0.5 -0.357,1.023 -0.571,1.524 -0.215,0.476 -0.453,0.976 -0.715,1.452 -0.262,0.453 -0.547,0.929 -0.857,1.358 -0.309,0.452 -0.643,0.881 -0.977,1.286 -0.357,0.428 -0.738,0.809 -1.119,1.19 -0.238,0.215 -0.452,0.405 -0.69,0.596 -0.191,0.167 -0.357,0.309 -0.548,0.476 -0.428,0.334 -0.857,0.643 -1.334,0.929 -0.452,0.286 -0.928,0.571 -1.404,0.809 -0.501,0.239 -1.001,0.453 -1.501,0.667 -0.5,0.191 -1.024,0.358 -1.548,0.5 -0.524,0.143 -1.072,0.262 -1.595,0.358 -0.548,0.095 -1.096,0.143 -1.62,0.19 -0.381,0.024 -0.762,0.048 -1.143,0.048 -0.548,0 -1.095,-0.048 -1.619,-0.095 -0.548,-0.048 -1.096,-0.12 -1.62,-0.239 -0.547,-0.095 -1.071,-0.238 -1.595,-0.404l-0.024 0c0.524,-0.048 1.048,-0.096 1.572,-0.191 0.547,-0.095 1.071,-0.215 1.595,-0.357 0.524,-0.143 1.048,-0.31 1.548,-0.5 0.524,-0.191 1.024,-0.429 1.5,-0.667 0.501,-0.238 0.953,-0.5 1.429,-0.786 0.453,-0.309 0.905,-0.619 1.334,-0.953 0.429,-0.333 0.834,-0.69 1.215,-1.071 0.404,-0.357 0.762,-0.762 1.119,-1.167 0.357,-0.429 0.69,-0.858 1,-1.286 0.047,-0.072 0.095,-0.167 0.143,-0.238 0.238,-0.381 0.476,-0.762 0.691,-1.143 0.261,-0.477 0.5,-0.953 0.714,-1.453 0.214,-0.5 0.405,-1 0.571,-1.524 0.167,-0.5 0.286,-1.024 0.405,-1.548 0.095,-0.548 0.191,-1.072 0.238,-1.596 0.048,-0.547 0.096,-1.095 0.096,-1.619 0,-0.381 -0.024,-0.762 -0.048,-1.143 -0.047,-0.548 -0.119,-1.072 -0.19,-1.596 -0.096,-0.547 -0.215,-1.071 -0.358,-1.595 -0.166,-0.5 -0.333,-1.024 -0.524,-1.524 -0.19,-0.5 -0.428,-1 -0.666,-1.477 -0.262,-0.476 -0.524,-0.952 -0.81,-1.405 -0.309,-0.452 -0.619,-0.881 -0.953,-1.309 -0.357,-0.405 -0.714,-0.81 -1.095,-1.215 -0.191,-0.191 -0.405,-0.405 -0.619,-0.595 -1.072,-0.834 -2.191,-1.62 -3.31,-2.334 -0.167,-0.096 -0.31,-0.167 -0.477,-0.238 -0.786,-0.5 -1.524,-0.762 -2.262,-1l0 0z"/>
 </g>
</svg>
