<?xml version="1.0" encoding="UTF-8"?>
<!DOCTYPE svg PUBLIC "-//W3C//DTD SVG 1.1//EN" "http://www.w3.org/Graphics/SVG/1.1/DTD/svg11.dtd">
<!-- Creator: CorelDRAW 2020 (64-Bit) -->
<svg xmlns="http://www.w3.org/2000/svg" xml:space="preserve" width="1.04166in" height="1.04166in" version="1.1" style="shape-rendering:geometricPrecision; text-rendering:geometricPrecision; image-rendering:optimizeQuality; fill-rule:evenodd; clip-rule:evenodd"
viewBox="0 0 1041.66 1041.66"
 xmlns:xlink="http://www.w3.org/1999/xlink"
 xmlns:xodm="http://www.corel.com/coreldraw/odm/2003">
 <defs>
  <style type="text/css">
   <![CDATA[
    .fil0 {fill:#6CB33F}
    .fil1 {fill:white}
   ]]>
  </style>
 </defs>
 <g id="Layer_x0020_1">
  <metadata id="CorelCorpID_0Corel-Layer"/>
  <path class="fil0" d="M928.69 62.04c-24.8,30.87 -15.8,52.81 -71.07,109.27 -23.76,-28.46 -44.28,-109.34 -129.66,-113.81 -77.45,-4.05 -166.33,-0.17 -245.04,-0.17 -72.48,0 -167.85,-13.12 -223.66,20.8 -30.93,18.8 -33.06,34.44 -52.68,68.08l-135.52 234.67c-27.51,46.2 -78.02,109.33 -54.63,177.42 7.39,21.52 219.19,383.22 226.52,389.39 20.93,17.64 53.62,32.12 92.61,32.43 81.69,0.65 163.76,-0.09 245.5,-0.09 72.12,0 168.64,14.04 217.06,-28.31 31.57,-27.61 70.17,-108.81 96.69,-153.41 31.53,-53.02 60.08,-100.78 89.87,-155.44 28.1,-51.57 78.65,-108.39 39.06,-181.65 -14.11,-26.11 -11.02,-70.56 -15.96,-104.75 -11.27,-78.13 -48.05,-234.45 -79.08,-294.42z"/>
  <path class="fil1" d="M879.6 377.68c-8.41,104.05 -122.12,231.39 -195.92,290.1 -93.65,74.51 -222.91,108.66 -338.25,144.91 205.92,-9.82 462.03,43.91 585.28,-120.87 55.2,-73.8 69.77,-177.29 61.55,-287.96 -4.4,-59.19 -42.77,-253.45 -67.72,-288.47 -24.13,34.11 -37.77,58.79 -62.57,83.76 -22.57,22.72 -53.35,45.67 -85.8,65.98 -181.35,113.53 -336.59,27.09 -473.34,128.71 -151.92,112.9 -116.88,303.25 -31.92,347.71 19.75,10.34 37.8,2.01 60.2,-3.02 157.01,-35.3 255.62,-56.09 379.52,-151.04 45.16,-34.61 75.65,-68.85 112.44,-114.93 37.07,-46.43 36.93,-66.14 56.53,-94.86z"/>
  <path class="fil1" d="M229.34 778.26c-53.33,20.51 -21.66,94.28 28.26,74.9 44.65,-17.34 23.84,-94.93 -28.26,-74.9z"/>
 </g>
</svg>
