<?xml version="1.0" encoding="utf-8"?>
<!-- Generator: Adobe Illustrator 15.0.0, SVG Export Plug-In . SVG Version: 6.00 Build 0)  -->
<!DOCTYPE svg PUBLIC "-//W3C//DTD SVG 1.1//EN" "http://www.w3.org/Graphics/SVG/1.1/DTD/svg11.dtd">
<svg version="1.1" id="Layer_1" xmlns="http://www.w3.org/2000/svg" xmlns:xlink="http://www.w3.org/1999/xlink" x="0px" y="0px"
	 width="85px" height="85px" viewBox="0 0 85 85" enable-background="new 0 0 85 85" xml:space="preserve">
<g>
	<g>
		
			<path fill="none" stroke="#394553" stroke-width="2.5" stroke-linecap="round" stroke-linejoin="round" stroke-miterlimit="10" d="
			M52.889,47.051L42.487,57.455c-1.944,1.945-1.944,5.127,0,7.072l0.437,0.436c1.944,1.945,5.125,1.945,7.069,0.002l18.902-18.902
			c1.945-1.945,1.945-5.127,0-7.071L49.908,20.036c-1.943-1.944-5.125-1.944-7.069,0l-0.438,0.438c-1.944,1.944-1.944,5.127,0,7.071
			l9.637,9.686l-32.393,0c-2.75,0-5,2.25-5,5v0.619c0,2.75,2.25,5,5,5h24.119"/>
	</g>
</g>
</svg>
