<?xml version="1.0" encoding="utf-8"?>
<!-- Generator: Adobe Illustrator 15.0.0, SVG Export Plug-In . SVG Version: 6.00 Build 0)  -->
<!DOCTYPE svg PUBLIC "-//W3C//DTD SVG 1.1//EN" "http://www.w3.org/Graphics/SVG/1.1/DTD/svg11.dtd">
<svg version="1.1" id="Layer_1" xmlns="http://www.w3.org/2000/svg" xmlns:xlink="http://www.w3.org/1999/xlink" x="0px" y="0px"
	 width="85px" height="85px" viewBox="0 0 85 85" enable-background="new 0 0 85 85" xml:space="preserve">
<g>
	<path fill="none" stroke="#394553" stroke-width="2.5" stroke-linecap="round" stroke-linejoin="round" stroke-miterlimit="10" d="
		M67.596,45.613l-3.723,18.021c-0.324,1.619-1.938,2.943-3.588,2.943H24.716c-1.65,0-3.264-1.324-3.586-2.943l-3.727-18.039"/>
	<g>
		
			<polyline fill="none" stroke="#394553" stroke-width="2.5" stroke-linecap="round" stroke-linejoin="round" stroke-miterlimit="10" points="
			62.822,32.799 72.99,32.799 72.99,40.521 12.01,40.521 12.01,32.799 22.328,32.799 		"/>
	</g>
	<g>
		
			<line fill="none" stroke="#394553" stroke-width="2.5" stroke-linecap="round" stroke-linejoin="round" stroke-miterlimit="10" x1="29.044" y1="32.799" x2="55.988" y2="32.799"/>
	</g>
	<g>
		
			<line fill="none" stroke="#394553" stroke-width="2.5" stroke-linecap="round" stroke-linejoin="round" stroke-miterlimit="10" x1="26.787" y1="47.885" x2="28.318" y2="59.166"/>
		
			<line fill="none" stroke="#394553" stroke-width="2.5" stroke-linecap="round" stroke-linejoin="round" stroke-miterlimit="10" x1="34.666" y1="47.885" x2="35.381" y2="59.166"/>
		
			<line fill="none" stroke="#394553" stroke-width="2.5" stroke-linecap="round" stroke-linejoin="round" stroke-miterlimit="10" x1="58.213" y1="47.885" x2="56.682" y2="59.166"/>
		
			<line fill="none" stroke="#394553" stroke-width="2.5" stroke-linecap="round" stroke-linejoin="round" stroke-miterlimit="10" x1="50.332" y1="47.885" x2="49.617" y2="59.166"/>
		
			<line fill="none" stroke="#394553" stroke-width="2.5" stroke-linecap="round" stroke-linejoin="round" stroke-miterlimit="10" x1="42.496" y1="47.885" x2="42.496" y2="59.166"/>
	</g>
	<g>
		<g>
			
				<line fill="none" stroke="#394553" stroke-width="2.5" stroke-linecap="round" stroke-linejoin="round" stroke-miterlimit="10" x1="26.703" y1="35.736" x2="37.672" y2="18.422"/>
		</g>
		<g>
			
				<line fill="none" stroke="#394553" stroke-width="2.5" stroke-linecap="round" stroke-linejoin="round" stroke-miterlimit="10" x1="58.297" y1="35.736" x2="47.328" y2="18.422"/>
		</g>
	</g>
</g>
</svg>
