<?xml version="1.0" encoding="utf-8"?>
<!-- Generator: Adobe Illustrator 15.0.0, SVG Export Plug-In . SVG Version: 6.00 Build 0)  -->
<!DOCTYPE svg PUBLIC "-//W3C//DTD SVG 1.1//EN" "http://www.w3.org/Graphics/SVG/1.1/DTD/svg11.dtd">
<svg version="1.1" id="Layer_1" xmlns="http://www.w3.org/2000/svg" xmlns:xlink="http://www.w3.org/1999/xlink" x="0px" y="0px"
	 width="85px" height="85px" viewBox="0 0 85 85" enable-background="new 0 0 85 85" xml:space="preserve">
<g>
	<g>
		<path fill="none" stroke="#394553" stroke-width="2.5" stroke-linejoin="round" stroke-miterlimit="10" d="M46.752,21.166"/>
		<path fill="none" stroke="#394553" stroke-width="2.5" stroke-linejoin="round" stroke-miterlimit="10" d="M46.752,21.166"/>
		
			<path fill="none" stroke="#394553" stroke-width="2.5" stroke-linecap="round" stroke-linejoin="round" stroke-miterlimit="10" d="
			M59.576,35.202c0.279,13.845,9.828,18.788,9.828,18.788c0,5.025,0,8.908,0,8.908H31.732"/>
		
			<path fill="none" stroke="#394553" stroke-width="2.5" stroke-linecap="round" stroke-linejoin="round" stroke-miterlimit="10" d="
			M53.574,34.336"/>
	</g>
	
		<line fill="none" stroke="#394553" stroke-width="2.5" stroke-linecap="round" stroke-miterlimit="10" x1="15.582" y1="71.798" x2="68.582" y2="18.798"/>
	<g>
		<g>
			<path fill="none" stroke="#394553" stroke-width="2.5" stroke-miterlimit="10" d="M53.762,67.609
				c-0.578,3.561-3.67,6.283-7.396,6.283c-3.725,0-6.814-2.72-7.395-6.277"/>
		</g>
		
			<circle fill="none" stroke="#394553" stroke-width="2.5" stroke-linecap="round" stroke-miterlimit="10" cx="46.365" cy="16.144" r="5.037"/>
	</g>
	<g>
		<path fill="none" stroke="#394553" stroke-width="2.5" stroke-linecap="round" stroke-miterlimit="10" d="M58.512,28.777
			c-1.019-2.67-3.021-5.525-6.959-6.812c-1.053-0.344-2.904-0.729-5.218-0.778c-2.282,0.054-4.111,0.437-5.157,0.778
			c-8.398,2.745-7.999,12.628-7.999,12.628c0,14.321-9.835,19.413-9.835,19.413c0,5.025,0,8.908,0,8.908h0.99"/>
	</g>
</g>
</svg>
