<?xml version="1.0" encoding="utf-8"?>
<!-- Generator: Adobe Illustrator 15.0.0, SVG Export Plug-In . SVG Version: 6.00 Build 0)  -->
<!DOCTYPE svg PUBLIC "-//W3C//DTD SVG 1.1//EN" "http://www.w3.org/Graphics/SVG/1.1/DTD/svg11.dtd">
<svg version="1.1" id="Layer_1" xmlns="http://www.w3.org/2000/svg" xmlns:xlink="http://www.w3.org/1999/xlink" x="0px" y="0px"
	 width="85px" height="85px" viewBox="0 0 85 85" enable-background="new 0 0 85 85" xml:space="preserve">
<g>
	<path fill="none" stroke="#394553" stroke-width="2.5" stroke-linejoin="round" stroke-miterlimit="10" d="M49.896,67.609
		c-0.578,3.562-3.67,6.283-7.396,6.283c-3.725,0-6.815-2.718-7.395-6.277"/>
	<g>
		<path fill="none" stroke="#394553" stroke-width="2.5" stroke-linejoin="round" stroke-miterlimit="10" d="M55.688,34.594
			c0,0,0.397-9.883-8-12.628c-1.054-0.344-2.906-0.729-5.219-0.778c-2.283,0.054-4.111,0.437-5.157,0.778
			c-8.398,2.745-7.999,12.628-7.999,12.628c0,14.32-9.835,19.412-9.835,19.412c0,5.025,0,8.908,0,8.908h46.043c0,0,0-3.883,0-8.908
			C65.521,54.006,55.688,48.914,55.688,34.594z"/>
	</g>
</g>
<circle fill="none" stroke="#394553" stroke-width="2.5" stroke-linejoin="round" stroke-miterlimit="10" cx="42.5" cy="16.145" r="5.037"/>
</svg>
