<?xml version="1.0" encoding="utf-8"?>
<!-- Generator: Adobe Illustrator 15.0.0, SVG Export Plug-In . SVG Version: 6.00 Build 0)  -->
<!DOCTYPE svg PUBLIC "-//W3C//DTD SVG 1.1//EN" "http://www.w3.org/Graphics/SVG/1.1/DTD/svg11.dtd">
<svg version="1.1" id="Layer_1" xmlns="http://www.w3.org/2000/svg" xmlns:xlink="http://www.w3.org/1999/xlink" x="0px" y="0px"
	 width="85px" height="85px" viewBox="0 0 85 85" enable-background="new 0 0 85 85" xml:space="preserve">
<g>
	<path fill="none" stroke="#394553" stroke-width="2.5" stroke-linejoin="round" stroke-miterlimit="10" d="M33.495,48.975V19.396
		c0-2.75,2.25-5,5-5h23.009c2.75,0,5,2.25,5,5v40.189c0,2.75-2.25,5-5,5H42.211"/>
	
		<line fill="none" stroke="#394553" stroke-width="2.5" stroke-linecap="round" stroke-linejoin="round" stroke-miterlimit="10" x1="57.5" y1="14.44" x2="57.5" y2="64.436"/>
	<g>
		<path fill="none" stroke="#394553" stroke-width="2.5" stroke-linejoin="round" stroke-miterlimit="10" d="M28.185,55.205
			l11.618-12.467c1.985-2.049,5.085-2.456,6.892-0.9c1.807,1.555,1.975,4.762,0.377,7.125L32.476,70.604"/>
	</g>
	<path fill="none" stroke="#394553" stroke-width="2.5" stroke-miterlimit="10" d="M33.886,33.455c0,0-14.97,12.746-15.312,14.746
		c-0.28,1.625,0.272,16.555,0.488,22.357"/>
</g>
</svg>
