<?xml version="1.0" encoding="utf-8"?>
<!-- Generator: Adobe Illustrator 15.0.0, SVG Export Plug-In . SVG Version: 6.00 Build 0)  -->
<!DOCTYPE svg PUBLIC "-//W3C//DTD SVG 1.1//EN" "http://www.w3.org/Graphics/SVG/1.1/DTD/svg11.dtd">
<svg version="1.1" id="Layer_1" xmlns="http://www.w3.org/2000/svg" xmlns:xlink="http://www.w3.org/1999/xlink" x="0px" y="0px"
	 width="85px" height="85px" viewBox="0 0 85 85" enable-background="new 0 0 85 85" xml:space="preserve">
<g>
	<path fill="none" stroke="#394553" stroke-width="2.5" stroke-linejoin="round" stroke-miterlimit="10" d="M19.618,48.002h-1.821
		c-2.75,0-5-2.25-5-5V23.683c0-2.75,2.25-5,5-5h37.49c2.75,0,5,2.25,5,5v8.347"/>
	
		<line fill="none" stroke="#394553" stroke-width="2.5" stroke-linejoin="round" stroke-miterlimit="10" x1="13.134" y1="26.049" x2="59.951" y2="26.049"/>
	<g>
		<path fill="none" stroke="#394553" stroke-width="2.5" stroke-miterlimit="10" d="M67.203,36.998c2.75,0,5,2.25,5,5v19.318
			c0,2.75-2.25,5-5,5h-37.49c-2.75,0-5-2.25-5-5V41.998c0-2.75,2.25-5,5-5H67.203z"/>
	</g>
	
		<line fill="none" stroke="#394553" stroke-width="2.5" stroke-linecap="round" stroke-linejoin="round" stroke-miterlimit="10" x1="32.313" y1="58.747" x2="46.441" y2="58.747"/>
	
		<line fill="none" stroke="#394553" stroke-width="2.5" stroke-linecap="round" stroke-linejoin="round" stroke-miterlimit="10" x1="32.313" y1="52.008" x2="57.994" y2="52.008"/>
</g>
</svg>
