<?xml version="1.0" encoding="utf-8"?>
<!-- Generator: Adobe Illustrator 15.0.0, SVG Export Plug-In . SVG Version: 6.00 Build 0)  -->
<!DOCTYPE svg PUBLIC "-//W3C//DTD SVG 1.1//EN" "http://www.w3.org/Graphics/SVG/1.1/DTD/svg11.dtd">
<svg version="1.1" id="Layer_1" xmlns="http://www.w3.org/2000/svg" xmlns:xlink="http://www.w3.org/1999/xlink" x="0px" y="0px"
	 width="85px" height="85px" viewBox="0 0 85 85" enable-background="new 0 0 85 85" xml:space="preserve">
<g>
	<g>
		
			<line fill="none" stroke="#394553" stroke-width="2.5" stroke-linecap="round" stroke-linejoin="round" stroke-miterlimit="10" x1="51.57" y1="33.431" x2="33.432" y2="51.568"/>
		
			<line fill="none" stroke="#394553" stroke-width="2.5" stroke-linecap="round" stroke-linejoin="round" stroke-miterlimit="10" x1="51.57" y1="51.568" x2="33.432" y2="33.431"/>
	</g>
	<g>
		<path fill="none" stroke="#394553" stroke-width="2.5" stroke-linejoin="round" stroke-miterlimit="10" d="M70.26,42.5
			c0,15.327-12.426,27.752-27.766,27.752c-15.327,0-27.754-12.425-27.754-27.752c0-15.328,12.427-27.753,27.754-27.753
			C57.834,14.747,70.26,27.172,70.26,42.5z"/>
		
			<path fill="none" stroke="#394553" stroke-width="2.5" stroke-linecap="round" stroke-linejoin="round" stroke-miterlimit="10" d="
			M42.496,21.686C54,21.686,63.32,31.004,63.32,42.5S54,63.314,42.496,63.314C31,63.314,21.681,53.996,21.681,42.5
			c0-6.663,3.131-12.595,8.001-16.404"/>
	</g>
</g>
</svg>
