<?xml version="1.0" encoding="utf-8"?>
<!-- Generator: Adobe Illustrator 15.0.0, SVG Export Plug-In . SVG Version: 6.00 Build 0)  -->
<!DOCTYPE svg PUBLIC "-//W3C//DTD SVG 1.1//EN" "http://www.w3.org/Graphics/SVG/1.1/DTD/svg11.dtd">
<svg version="1.1" id="Layer_1" xmlns="http://www.w3.org/2000/svg" xmlns:xlink="http://www.w3.org/1999/xlink" x="0px" y="0px"
	 width="85px" height="85px" viewBox="0 0 85 85" enable-background="new 0 0 85 85" xml:space="preserve">
<g>
	<g>
		
			<polyline fill="none" stroke="#394553" stroke-width="2.5" stroke-linecap="round" stroke-linejoin="round" stroke-miterlimit="10" points="
			37.021,35.537 42.55,35.537 42.55,52.882 		"/>
		
			<line fill="none" stroke="#394553" stroke-width="2.5" stroke-linecap="round" stroke-linejoin="round" stroke-miterlimit="10" x1="35.461" y1="53.043" x2="49.538" y2="53.043"/>
		<g>
			<g>
				<circle fill="#394553" stroke="#394553" stroke-width="2.5" stroke-miterlimit="10" cx="42.184" cy="29.882" r="0.671"/>
			</g>
		</g>
	</g>
	<g>
		<path fill="none" stroke="#394553" stroke-width="2.5" stroke-linejoin="round" stroke-miterlimit="10" d="M70.26,42.501
			c0,15.326-12.426,27.751-27.766,27.751c-15.328,0-27.754-12.425-27.754-27.751c0-15.329,12.426-27.754,27.754-27.754
			C57.834,14.747,70.26,27.172,70.26,42.501z"/>
		
			<path fill="none" stroke="#394553" stroke-width="2.5" stroke-linecap="round" stroke-linejoin="round" stroke-miterlimit="10" d="
			M42.496,21.686c11.504,0,20.825,9.318,20.825,20.815c0,11.495-9.32,20.813-20.825,20.813C31,63.314,21.68,53.996,21.68,42.501
			c0-6.664,3.131-12.596,8.001-16.405"/>
	</g>
</g>
</svg>
