<?xml version="1.0" encoding="utf-8"?>
<!-- Generator: Adobe Illustrator 15.0.0, SVG Export Plug-In . SVG Version: 6.00 Build 0)  -->
<!DOCTYPE svg PUBLIC "-//W3C//DTD SVG 1.1//EN" "http://www.w3.org/Graphics/SVG/1.1/DTD/svg11.dtd">
<svg version="1.1" id="Layer_1" xmlns="http://www.w3.org/2000/svg" xmlns:xlink="http://www.w3.org/1999/xlink" x="0px" y="0px"
	 width="85px" height="85px" viewBox="0 0 85 85" enable-background="new 0 0 85 85" xml:space="preserve">
<g>
	
		<line fill="none" stroke="#394553" stroke-width="2.5" stroke-linecap="round" stroke-linejoin="round" stroke-miterlimit="10" x1="33.505" y1="69.192" x2="51.604" y2="69.192"/>
	
		<line fill="none" stroke="#394553" stroke-width="2.5" stroke-linecap="round" stroke-linejoin="round" stroke-miterlimit="10" x1="42.5" y1="12.482" x2="42.5" y2="7.928"/>
	<g>
		
			<line fill="none" stroke="#394553" stroke-width="2.5" stroke-linecap="round" stroke-linejoin="round" stroke-miterlimit="10" x1="63.848" y1="22.359" x2="67.533" y2="18.658"/>
		
			<line fill="none" stroke="#394553" stroke-width="2.5" stroke-linecap="round" stroke-linejoin="round" stroke-miterlimit="10" x1="17.467" y1="18.658" x2="21.151" y2="22.359"/>
	</g>
	
		<line fill="none" stroke="#394553" stroke-width="2.5" stroke-linejoin="round" stroke-miterlimit="10" x1="42.555" y1="63.171" x2="42.555" y2="45.863"/>
	<g>
		
			<line fill="none" stroke="#394553" stroke-width="2.5" stroke-linecap="round" stroke-linejoin="round" stroke-miterlimit="10" x1="42.547" y1="45.863" x2="48.656" y2="39.732"/>
		
			<line fill="none" stroke="#394553" stroke-width="2.5" stroke-linecap="round" stroke-linejoin="round" stroke-miterlimit="10" x1="42.453" y1="45.863" x2="36.344" y2="39.732"/>
	</g>
	<path fill="none" stroke="#394553" stroke-width="2.5" stroke-miterlimit="10" d="M42.547,19.229
		c-11.058,0-20.053,8.82-20.053,19.662c0,4.533,1.238,8.352,3.625,11.289c0.84,0.909,1.696,1.717,2.523,2.496
		c2.8,2.641,5.454,5.166,6.26,10.488H50.19c0.807-5.36,3.473-7.859,6.282-10.504c0.826-0.775,1.679-1.578,2.479-2.438
		c2.565-3.028,3.662-6.417,3.662-11.331C62.614,28.049,53.612,19.229,42.547,19.229z"/>
	<path fill="none" stroke="#394553" stroke-width="2.5" stroke-linecap="round" stroke-linejoin="round" stroke-miterlimit="10" d="
		M35.733,74.741h2.652c0.668,0.921,2.12,2.332,4.169,2.332s3.499-1.411,4.168-2.332h2.652"/>
</g>
</svg>
