<?xml version="1.0" encoding="utf-8"?>
<!-- Generator: Adobe Illustrator 15.0.0, SVG Export Plug-In . SVG Version: 6.00 Build 0)  -->
<!DOCTYPE svg PUBLIC "-//W3C//DTD SVG 1.1//EN" "http://www.w3.org/Graphics/SVG/1.1/DTD/svg11.dtd">
<svg version="1.1" id="Layer_1" xmlns="http://www.w3.org/2000/svg" xmlns:xlink="http://www.w3.org/1999/xlink" x="0px" y="0px"
	 width="85px" height="85px" viewBox="0 0 85 85" enable-background="new 0 0 85 85" xml:space="preserve">
<g>
	<path fill="none" stroke="#394553" stroke-width="2.5" stroke-linecap="round" stroke-miterlimit="10" d="M40.732,28.268
		l10.236-10.22c4.195-4.19,11.057-4.186,15.246,0.011l0.762,0.763c4.189,4.196,4.186,11.058-0.01,15.247L53.488,47.526
		c-4.195,4.19-11.058,4.185-15.247-0.011l-0.763-0.762c-1.211-1.214-2.071-2.648-2.582-4.178"/>
	<path fill="none" stroke="#394553" stroke-width="2.5" stroke-linecap="round" stroke-miterlimit="10" d="M44.268,56.732
		L34.033,66.953c-4.195,4.19-11.057,4.185-15.248-0.011l-0.76-0.763c-4.19-4.196-4.186-11.057,0.011-15.247l13.478-13.458
		c4.196-4.19,11.058-4.185,15.247,0.011l0.763,0.762c1.211,1.213,2.071,2.648,2.581,4.177"/>
</g>
</svg>
