<?xml version="1.0" encoding="utf-8"?>
<!-- Generator: Adobe Illustrator 15.0.0, SVG Export Plug-In . SVG Version: 6.00 Build 0)  -->
<!DOCTYPE svg PUBLIC "-//W3C//DTD SVG 1.1//EN" "http://www.w3.org/Graphics/SVG/1.1/DTD/svg11.dtd">
<svg version="1.1" id="Layer_1" xmlns="http://www.w3.org/2000/svg" xmlns:xlink="http://www.w3.org/1999/xlink" x="0px" y="0px"
	 width="85px" height="85px" viewBox="0 0 85 85" enable-background="new 0 0 85 85" xml:space="preserve">
<g>
	<g>
		<path fill="none" stroke="#394553" stroke-width="2.5" stroke-linejoin="round" stroke-miterlimit="10" d="M70.26,42.5
			c0,15.327-12.426,27.752-27.766,27.752c-15.328,0-27.754-12.425-27.754-27.752c0-15.328,12.426-27.753,27.754-27.753
			C57.834,14.747,70.26,27.172,70.26,42.5z"/>
		
			<path fill="none" stroke="#394553" stroke-width="2.5" stroke-linecap="round" stroke-linejoin="round" stroke-miterlimit="10" d="
			M42.495,21.686C54,21.686,63.32,31.004,63.32,42.5S54,63.314,42.495,63.314c-11.496,0-20.815-9.318-20.815-20.814
			c0-6.663,3.131-12.595,8.002-16.404"/>
	</g>
	<g>
		<g>
			<g>
				<g>
					<circle fill="#394553" stroke="#394553" stroke-width="2.5" stroke-miterlimit="10" cx="41.804" cy="53.756" r="0.655"/>
				</g>
			</g>
		</g>
		<path fill="none" stroke="#394553" stroke-width="2.5" stroke-miterlimit="10" d="M35.654,35.864c0-3.313,3.063-5.999,6.845-5.999
			c3.78,0,6.845,2.686,6.845,5.999c0,0,0.15,2.732-3.406,5.169c-2.371,1.844-4.215,4.741-4.215,8.033"/>
	</g>
</g>
</svg>
