<?xml version="1.0" encoding="utf-8"?>
<!-- Generator: Adobe Illustrator 15.0.0, SVG Export Plug-In . SVG Version: 6.00 Build 0)  -->
<!DOCTYPE svg PUBLIC "-//W3C//DTD SVG 1.1//EN" "http://www.w3.org/Graphics/SVG/1.1/DTD/svg11.dtd">
<svg version="1.1" id="Layer_1" xmlns="http://www.w3.org/2000/svg" xmlns:xlink="http://www.w3.org/1999/xlink" x="0px" y="0px"
	 width="85px" height="85px" viewBox="0 0 85 85" enable-background="new 0 0 85 85" xml:space="preserve">
<g>
	<g>
		<path fill="none" stroke="#394553" stroke-width="2.5" stroke-linejoin="round" stroke-miterlimit="10" d="M70.26,42.501
			c0,15.326-12.426,27.751-27.766,27.751c-15.327,0-27.754-12.425-27.754-27.751c0-15.329,12.427-27.754,27.754-27.754
			C57.834,14.747,70.26,27.172,70.26,42.501z"/>
		
			<path fill="none" stroke="#394553" stroke-width="2.5" stroke-linecap="round" stroke-linejoin="round" stroke-miterlimit="10" d="
			M42.496,21.686c11.504,0,20.824,9.318,20.824,20.815c0,11.495-9.32,20.813-20.824,20.813c-11.496,0-20.815-9.318-20.815-20.813
			c0-6.664,3.131-12.596,8.001-16.405"/>
	</g>
	
		<line fill="none" stroke="#394553" stroke-width="2.5" stroke-linecap="round" stroke-linejoin="round" stroke-miterlimit="10" x1="32.341" y1="42.5" x2="52.66" y2="42.5"/>
</g>
</svg>
