<?xml version="1.0" encoding="utf-8"?>
<!-- Generator: Adobe Illustrator 15.0.0, SVG Export Plug-In . SVG Version: 6.00 Build 0)  -->
<!DOCTYPE svg PUBLIC "-//W3C//DTD SVG 1.1//EN" "http://www.w3.org/Graphics/SVG/1.1/DTD/svg11.dtd">
<svg version="1.1" id="Layer_1" xmlns="http://www.w3.org/2000/svg" xmlns:xlink="http://www.w3.org/1999/xlink" x="0px" y="0px"
	 width="85px" height="85px" viewBox="0 0 85 85" enable-background="new 0 0 85 85" xml:space="preserve">
<g>
	<path fill="none" stroke="#394553" stroke-width="2.5" stroke-linecap="round" stroke-linejoin="round" stroke-miterlimit="10" d="
		M29.883,29.264c3.128-0.965,7.682-1.469,12.751-1.469c4.927,0,9.365,0.476,12.482,1.388"/>
	<path fill="none" stroke="#394553" stroke-width="2.5" stroke-linecap="round" stroke-linejoin="round" stroke-miterlimit="10" d="
		M28.434,25.633c3.082-1.813,8.229-3.194,14.057-3.194c5.84,0,10.996,1.387,14.076,3.205"/>
	<path fill="none" stroke="#394553" stroke-width="2.5" stroke-linecap="round" stroke-linejoin="round" stroke-miterlimit="10" d="
		M60.649,71.568c0,2.07-3.968,4.148-3.968,4.148s-3.873-1.848-3.873-4.148c0-1.697,0-6.002,0-6.002h7.841
		C60.649,65.566,60.649,69.498,60.649,71.568z"/>
	<path fill="none" stroke="#394553" stroke-width="2.5" stroke-linecap="round" stroke-linejoin="round" stroke-miterlimit="10" d="
		M56.7,14.716l-14.2-5.51l-14.201,5.51l-3.896,6.908l3.964,4.179l1.766,4.752c2.243,2.637,6.941,4.452,12.374,4.453
		c5.422,0,10.113-1.809,12.361-4.437l1.766-4.769l3.964-4.179L56.7,14.716z"/>
	<g>
		
			<polyline fill="none" stroke="#394553" stroke-width="2.5" stroke-linecap="round" stroke-linejoin="round" stroke-miterlimit="10" points="
			23.017,58.969 29.42,57.59 28.418,52.932 		"/>
		
			<polyline fill="none" stroke="#394553" stroke-width="2.5" stroke-linecap="round" stroke-linejoin="round" stroke-miterlimit="10" points="
			63.252,54.645 62.284,59.033 55.579,57.59 		"/>
	</g>
	<g>
		<g>
			<g>
				
					<line fill="none" stroke="#394553" stroke-width="2.5" stroke-linecap="round" stroke-linejoin="round" stroke-miterlimit="10" x1="40.811" y1="61.627" x2="38.754" y2="75.795"/>
			</g>
			<g>
				
					<line fill="none" stroke="#394553" stroke-width="2.5" stroke-linecap="round" stroke-linejoin="round" stroke-miterlimit="10" x1="44.189" y1="61.627" x2="46.246" y2="75.643"/>
			</g>
		</g>
		<g>
			
				<path fill="none" stroke="#394553" stroke-width="2.5" stroke-linecap="round" stroke-linejoin="round" stroke-miterlimit="10" d="
				M17.067,75.795l0.917-14.545c0.904-6.736,4.952-7.486,4.952-7.486s5.233-1.246,9.915-2.027l4.098,8.289"/>
			
				<path fill="none" stroke="#394553" stroke-width="2.5" stroke-linecap="round" stroke-linejoin="round" stroke-miterlimit="10" d="
				M67.932,75.795L67.016,61.25c-0.904-6.736-4.953-7.486-4.953-7.486s-5.232-1.246-9.914-2.027l-4.098,8.289"/>
		</g>
		<g>
			
				<polygon fill="none" stroke="#394553" stroke-width="2.5" stroke-linecap="round" stroke-linejoin="round" stroke-miterlimit="10" points="
				42.514,63.293 38.224,58.449 42.486,53.607 42.514,53.607 46.775,58.449 			"/>
		</g>
	</g>
	<g>
		
			<path fill="none" stroke="#394553" stroke-width="2.5" stroke-linecap="round" stroke-linejoin="round" stroke-miterlimit="10" d="
			M31.916,37.477c1.781,6.559,6.218,11.432,10.57,11.432c5.181,0,10.476-6.898,11.277-15.326c0.043-0.45,0.081-1.037,0.115-1.569"/>
	</g>
</g>
</svg>
