<?xml version="1.0" encoding="utf-8"?>
<!-- Generator: Adobe Illustrator 15.0.0, SVG Export Plug-In . SVG Version: 6.00 Build 0)  -->
<!DOCTYPE svg PUBLIC "-//W3C//DTD SVG 1.1//EN" "http://www.w3.org/Graphics/SVG/1.1/DTD/svg11.dtd">
<svg version="1.1" id="Layer_1" xmlns="http://www.w3.org/2000/svg" xmlns:xlink="http://www.w3.org/1999/xlink" x="0px" y="0px"
	 width="85px" height="85px" viewBox="0 0 85 85" enable-background="new 0 0 85 85" xml:space="preserve">
<g>
	<path fill="none" stroke="#394553" stroke-width="2.5" stroke-linecap="round" stroke-linejoin="round" stroke-miterlimit="10" d="
		M29.895,26.945V15.804c0-2.313,1.832-4.207,4.072-4.207c2.238,0,4.071,1.893,4.071,4.207"/>
	<path fill="none" stroke="#394553" stroke-width="2.5" stroke-linecap="round" stroke-linejoin="round" stroke-miterlimit="10" d="
		M38.038,38.041V11.339c0-2.313,1.831-4.208,4.071-4.208c2.239,0,4.071,1.895,4.071,4.208v26.702"/>
	<path fill="none" stroke="#394553" stroke-width="2.5" stroke-linecap="round" stroke-linejoin="round" stroke-miterlimit="10" d="
		M46.18,15.864c0-2.208,1.834-4.208,4.072-4.208c2.239,0,4.072,1.894,4.072,4.208v8.76"/>
	<path fill="none" stroke="#394553" stroke-width="2.5" stroke-linecap="round" stroke-linejoin="round" stroke-miterlimit="10" d="
		M46.281,77.869c9.189-1.629,16.186-9.703,16.186-19.338V23.958c0-2.314-1.832-4.208-4.07-4.208c-2.239,0-4.071,1.894-4.071,4.208
		v16.818"/>
	<path fill="none" stroke="#394553" stroke-width="2.5" stroke-linecap="round" stroke-linejoin="round" stroke-miterlimit="10" d="
		M38.449,77.809c-9.034-1.754-15.916-9.752-15.916-19.277V33.429c0-2.007,2.395-2.905,4.064-1.854l1.609,1.114
		c1.854,1.608,2.861,3.683,2.861,5.689v10.858l0.023,0.027c0,0,10.164,4.289,10.164,12.455"/>
</g>
</svg>
