<?xml version="1.0" encoding="utf-8"?>
<!-- Generator: Adobe Illustrator 15.0.0, SVG Export Plug-In . SVG Version: 6.00 Build 0)  -->
<!DOCTYPE svg PUBLIC "-//W3C//DTD SVG 1.1//EN" "http://www.w3.org/Graphics/SVG/1.1/DTD/svg11.dtd">
<svg version="1.1" id="Layer_1" xmlns="http://www.w3.org/2000/svg" xmlns:xlink="http://www.w3.org/1999/xlink" x="0px" y="0px"
	 width="85px" height="85px" viewBox="0 0 85 85" enable-background="new 0 0 85 85" xml:space="preserve">
<g>
	<g>
		<g>
			
				<path fill="none" stroke="#394553" stroke-width="2.5" stroke-linecap="round" stroke-linejoin="round" stroke-miterlimit="10" d="
				M24.652,53.094l-4.35,6.062l5.543,5.543l6.063-4.352c1.67,0.994,3.488,1.756,5.418,2.25l1.254,7.377h7.84l1.256-7.375
				c1.93-0.496,3.748-1.258,5.42-2.252l6.061,4.352l5.543-5.543l-4.35-6.061c1.002-1.684,1.768-3.52,2.264-5.467l7.361-1.209v-7.839
				l-7.361-1.21c-0.49-1.932-1.248-3.753-2.238-5.426l4.324-6.099l-5.543-5.543l-6.1,4.326c-1.672-0.99-3.494-1.748-5.426-2.239
				l-1.211-7.363h-7.84l-1.21,7.364c-1.931,0.492-3.751,1.249-5.424,2.239l-6.101-4.327l-5.543,5.542l4.326,6.1
				c-0.983,1.66-1.737,3.466-2.229,5.382l-7.372,1.254v7.839l7.373,1.254C22.895,49.605,23.657,51.424,24.652,53.094z"/>
		</g>
	</g>
	<path fill="none" stroke="#394553" stroke-width="2.5" stroke-linecap="round" stroke-linejoin="round" stroke-miterlimit="10" d="
		M39.473,35.062c0.935-0.381,1.957-0.591,3.028-0.591c4.434,0,8.028,3.595,8.028,8.029c0,4.435-3.595,8.03-8.028,8.03
		c-4.433,0-8.03-3.595-8.03-8.03c0-0.764,0.106-1.503,0.306-2.204"/>
</g>
</svg>
