<?xml version="1.0" encoding="utf-8"?>
<!-- Generator: Adobe Illustrator 15.0.0, SVG Export Plug-In . SVG Version: 6.00 Build 0)  -->
<!DOCTYPE svg PUBLIC "-//W3C//DTD SVG 1.1//EN" "http://www.w3.org/Graphics/SVG/1.1/DTD/svg11.dtd">
<svg version="1.1" id="Layer_1" xmlns="http://www.w3.org/2000/svg" xmlns:xlink="http://www.w3.org/1999/xlink" x="0px" y="0px"
	 width="85px" height="85px" viewBox="0 0 85 85" enable-background="new 0 0 85 85" xml:space="preserve">
<g>
	<g>
		<path fill="none" stroke="#394553" stroke-width="2.5" stroke-miterlimit="10" d="M40.287,72.486
			C68.18,76.42,69.443,63.5,69.443,63.5l1.606-9.68"/>
		<path fill="none" stroke="#394553" stroke-width="2.5" stroke-miterlimit="10" d="M55.939,61.096l3.313-19.821l3.858,0.645
			c2.123,0.354,3.476,2.965,3.002,5.794l-1.594,9.524c-0.473,2.832-2.598,4.859-4.721,4.502L55.939,61.096z"/>
		<path fill="none" stroke="#394553" stroke-width="2.5" stroke-miterlimit="10" d="M66.125,45.887l0.924,0.131
			c2.832,0.474,4.762,3.178,4.287,6.01l-0.473,2.83c-0.475,2.832-3.178,4.763-6.01,4.289l-0.896-0.188"/>
	</g>
	<path fill="none" stroke="#394553" stroke-width="2.5" stroke-linejoin="round" stroke-miterlimit="10" d="M22.372,15.805
		l0.19,1.148c1.059,5.501,5.112,4.823,7.331,3.488c1.144-0.688,2.439-1.144,2.439-1.144c2.121-0.713,4.563-1.122,7.309-1.122
		s5.19,0.409,7.311,1.122c0,0,1.295,0.457,2.438,1.144c2.219,1.335,6.272,2.013,7.332-3.488l0.178-1.09"/>
	<path fill="none" stroke="#394553" stroke-width="2.5" stroke-linejoin="round" stroke-miterlimit="10" d="M64.623,37.915
		c1.67-14.492-5.352-27.121-24.988-27.121c-19.635,0-26.657,12.629-24.987,27.121"/>
	<path fill="none" stroke="#394553" stroke-width="2.5" stroke-miterlimit="10" d="M24.423,60.707l-4.08-19.677l-3.834,0.795
		c-2.107,0.436-3.355,3.095-2.773,5.905l1.961,9.455c0.584,2.812,2.785,4.754,4.893,4.317L24.423,60.707z"/>
</g>
<path fill="#394553" stroke="#394553" stroke-width="2.5" stroke-miterlimit="10" d="M40.919,74.197
	c-0.261,0-0.526-0.024-0.79-0.072c-0.945-0.174-1.797-0.643-2.336-1.289c-0.218-0.262-0.572-0.783-0.488-1.334
	c0.117-0.764,1.143-1.55,2.659-1.55c0.261,0,0.527,0.024,0.791,0.073c1.795,0.33,2.973,1.657,2.824,2.625
	C43.462,73.411,42.437,74.197,40.919,74.197z"/>
</svg>
