<?xml version="1.0" encoding="UTF-8"?>
<!DOCTYPE svg PUBLIC "-//W3C//DTD SVG 1.1//EN" "http://www.w3.org/Graphics/SVG/1.1/DTD/svg11.dtd">
<!-- Creator: CorelDRAW 2020 (64-Bit) -->
<svg xmlns="http://www.w3.org/2000/svg" xml:space="preserve" width="1200px" height="1200px" version="1.1" style="shape-rendering:geometricPrecision; text-rendering:geometricPrecision; image-rendering:optimizeQuality; fill-rule:evenodd; clip-rule:evenodd"
viewBox="0 0 1200 1200"
 xmlns:xlink="http://www.w3.org/1999/xlink"
 xmlns:xodm="http://www.corel.com/coreldraw/odm/2003">
 <defs>
  <style type="text/css">
   <![CDATA[
    .fil0 {fill:#fff}
   ]]>
  </style>
 </defs>
 <g id="Layer_x0020_1">
  <metadata id="CorelCorpID_0Corel-Layer"/>
  <path class="fil0" d="M530.5 460.18c0,-3.83 0.58,-8.11 0.63,-9.85 0.32,-12.88 -2.16,-35.09 -8.88,-46.66 -8.07,-13.91 -38.75,-37.71 -42.12,-47.46 -1.87,-5.42 -2.92,-12.97 -6.83,-15.83 -1.14,4.28 -3.17,4.36 -4.31,8.64 -10.79,-5.71 -20.54,-13.16 -31.66,-19.07 -11.43,-6.08 -21.74,-11.9 -33.09,-17.63 -27.21,-13.73 -33.9,-10.29 -46.84,-29.79 -2.33,-3.52 -8.78,-12.5 -11.44,-14.45 0,12.79 -0.03,10.86 -4.32,17.26 -11.17,-0.25 -49.76,-12.91 -62.21,-16.57 -36.22,-10.67 -80.52,-25.9 -112.41,-47.31 -4.22,-2.83 -7.34,-4.84 -11.49,-7.95 -22.15,-16.6 -11.74,-24.05 -26.5,-33.93 0,25.42 9.33,50.47 19.41,65.85 14.74,22.47 56.31,37.34 81.1,46.25l32.38 10.79c29.27,9.88 72.09,18.54 98.69,28.66 19.93,7.58 33.65,15.07 51.31,23.15l21.45 10.93c5.04,2.5 9.13,5.01 14.04,7.54 11.53,5.96 28.6,16.89 38.85,24.82 10.62,8.21 22.94,22.27 30.16,33.52 2.87,4.48 5.16,9.12 7.61,13.97l6.47 15.12z"/>
  <path class="fil0" d="M909.31 285.34c-4.33,-6.46 -4.32,-3.43 -4.32,-16.18 -6.23,1.66 -13.1,20.45 -23.78,26.94 -5.36,3.26 -10.7,5.07 -16.87,7.95 -27.89,12.99 -48.48,24.09 -74.37,40.03 -3.24,1.99 -4.79,3.23 -8.01,4.94 -2.48,-4.69 -1.95,-5.61 -6.48,-8.64 -0.31,3.77 -3.46,12.72 -4.93,16.65 -2.71,7.23 -29.67,28.64 -41.5,45.92 -8.97,13.11 -9.69,40.39 -9.69,57.23 2.67,-1.95 6.81,-16.32 14.23,-27.86 18.44,-28.64 39.01,-42.67 69.25,-59.19 18.92,-10.34 36.61,-19.28 56.45,-28.8 2.62,-1.26 4.47,-1.82 6.83,-2.88 20.76,-9.26 31.46,-14.04 55.5,-20.06l66.61 -18.64c32.78,-10.04 93.66,-29.01 113.81,-56.7 9.69,-13.33 19.87,-43.77 19.87,-66.47 -3.68,2.47 -6.71,6.08 -9,10.42 -2.51,4.75 -3.05,8.97 -6.39,13.04 -27.22,33.14 -125.26,64.38 -164.83,74.76 -7.99,2.09 -23.96,7.36 -32.38,7.54z"/>
  <path class="fil0" d="M519.71 469.89c-1.82,-7.82 -23.71,-37.91 -29.47,-44.99 -23.38,-28.72 -54.47,-47.94 -89.09,-62 -47.42,-19.27 -55.37,-24.4 -110.85,-40.25 -29.78,-8.51 -90.71,-21.05 -113.79,-37.3 -4.05,-2.85 -6.3,-4.86 -9.99,-8.36 -1.05,-1 -1.26,-1.1 -2.27,-2.04l-5.43 -5.37c-0.15,-0.16 -0.38,-0.38 -0.53,-0.54 -0.08,-0.09 -1.21,-1.36 -1.53,-1.71 -3.31,-3.63 -14.52,-17.42 -18.02,-19.76 0,37.04 38.64,67.19 70,80.02 25.57,10.46 55.99,21.11 83.11,30.21 27.89,9.35 57.79,17.77 85.25,28.07 12.35,4.63 28.12,10.04 39.36,16.76 4.43,2.65 7.82,4.52 12.26,7.16 8.19,4.88 15.18,9.54 23.21,14.56l45.12 30.42c3.57,2.55 7.15,4.79 11,7.35 4.1,2.72 7.57,5.61 11.66,7.77z"/>
  <path class="fil0" d="M730.16 469.89c4.69,-1.25 18.1,-11.67 22.86,-14.91l45.34 -30.2c25.74,-17.17 44.88,-28.54 74.65,-38.68 19.3,-6.57 37.53,-12.5 56.67,-18.87 42.54,-14.18 99,-30.28 136.46,-52.4 8.16,-4.81 14.52,-10.35 20.97,-16.81 7.56,-7.56 11.08,-11.45 16.69,-21.08 3.68,-6.32 8.4,-19.74 8.4,-29.37 -4.47,2.99 -12.95,14.6 -18.08,19.7 -6.76,6.72 -11.95,12.61 -19.68,18.08 -12.78,9.05 -37.16,16.56 -54.21,21.34 -44.82,12.59 -88.5,22.49 -130.19,39.24l-40.4 16.81c-4.48,1.91 -7.88,3.87 -12.27,6.07 -44.06,22.08 -63.23,33.43 -92.75,77.77l-14.46 23.31z"/>
  <path class="fil0" d="M736.63 488.24l81.71 -40.25c15.16,-6.49 27.25,-11.21 44.17,-16.27 42.4,-12.68 102.91,-21.08 140.65,-42.81 11.44,-6.58 24,-17.85 33.25,-27.19 3.04,-3.08 3.91,-5.03 6.99,-8.12 4.94,-4.98 17.83,-21.55 19.16,-27.25l-59 31.66c-7.32,3.66 -13.86,6.9 -20.86,10.44 -22.26,11.24 -109.28,34.44 -138.28,44.1 -29.76,9.92 -52.73,26 -76.16,45.8 -8.34,7.06 -26.18,21.75 -31.63,29.89z"/>
  <path class="fil0" d="M514.31 488.24c-4.22,-6.32 -24.63,-24.02 -31.14,-29.29 -46.58,-37.72 -63.58,-44.22 -122.11,-60.29 -46.05,-12.64 -91.09,-25.7 -132.12,-50.27 -3.52,-2.11 -6.26,-3.26 -9.99,-5.12 -8.08,-4.03 -23.28,-14.14 -30.56,-15.84 14.37,27.17 48.51,59.85 79.7,71.4 7.18,2.66 14.3,5.31 22.6,7.61 48.17,13.36 98.15,22.81 141.91,41.55l81.71 40.25z"/>
  <path class="fil0" d="M449.56 480.68c-1.98,-2.96 -4.51,-5.41 -7.39,-7.71 -10.2,-8.15 -14.12,-11.71 -26.26,-19.07 -18.65,-11.32 -27.02,-11.76 -48.41,-12.03l-27.58 -2.64c-19.16,-2.77 -23.55,-8.33 -42.53,-17.91 -3.87,-1.95 -17.13,-8.26 -21.58,-8.63 4.5,6.72 23.06,24.73 30.04,30.39 53.07,42.98 75.53,6.96 121.04,30.05 5.41,2.74 15.38,6.95 22.67,7.55z"/>
  <path class="fil0" d="M800.31 480.68c14.98,-0.33 28.34,-12.88 45.5,-14.93 51.6,-6.16 56.9,14.16 106.41,-29.58 4.24,-3.75 20.59,-18.79 21.84,-23.48 -5.38,1.25 -16.04,6.38 -21.22,9 -2.06,1.04 -2.93,1.43 -5.14,2.41 -14.05,6.28 -16.53,12.51 -37.62,15.27 -36.27,4.73 -49.01,-1.46 -75.88,14.77 -15.51,9.37 -20.76,15.13 -33.89,26.54z"/>
  <path class="fil0" d="M375.09 500.11c7.32,0 13.4,-1.34 20.32,-2.35 41.71,-6.1 37.11,5.59 57.39,5.59 -4.92,-6.71 -29.31,-18.89 -41.06,-21.54 -18.94,-4.27 -35.71,7.71 -64.71,-5.44 -2.5,-1.13 -4.87,-1.81 -7.95,-2.84 -4.43,-1.47 -12.47,-4.35 -16.87,-4.72 5.75,8.58 38.87,31.3 52.88,31.3z"/>
  <path class="fil0" d="M798.15 503.35c12.39,0 21.94,-7.56 34.53,-7.56 32.88,0 42.4,14.37 77.88,-11.7 3.69,-2.72 16.21,-12.34 18.17,-15.28 -8.79,0.73 -23.92,7.35 -31.59,10.5 -17.66,7.26 -44.69,-0.21 -56.15,2.12 -8.56,1.74 -16.21,4.86 -23.48,8.9 -5.45,3.03 -16.13,8.19 -19.36,13.02z"/>
  <path class="fil0" d="M594.17 1030.01c-0.86,10.35 -1.68,5.39 8.64,5.39 2.59,0 3.17,1.75 5.4,3.24 -4.31,18.47 -10.12,13.47 0.73,31.64 2.91,4.86 4.55,8.56 8.98,11.53 7.2,-6.26 11.61,-17.03 16.64,-25.45 2.12,-3.53 3.96,-5.97 4.94,-10.17 -4.83,1.13 -3.46,2.15 -7.55,3.24 0,-7.2 -1.08,-11.71 -1.08,-17.27 7.05,-3.38 13.81,-0.8 16.19,-9.71 -2.15,-2.47 -3.84,-4.4 -7.56,-5.4 -0.66,7.92 -8.31,6.56 -20.5,8.64 -8.53,1.45 -16.81,2.45 -24.83,4.32z"/>
  <path class="fil0" d="M730.18 517.59c-0.02,40.1 1.41,59.71 -24.95,84.94 -0.23,0.21 -0.91,0.8 -1.14,1.01 -2.81,2.54 -5.35,4.68 -7.39,7.73 35.96,-8.38 38.15,-28.72 42.98,-62.78 1.36,-9.6 3.43,-22.22 3.43,-32.19l-12.93 1.29z"/>
  <path class="fil0" d="M554.24 611.27c-3.84,-5.74 -12.07,-9.07 -24.62,-28.26 -9.73,-14.87 -8.83,-45.92 -8.83,-65.63 -6.31,0 -7.54,-1.08 -12.95,-1.08 0,13.97 5.3,48.51 8.61,61.54 4.99,19.68 17.92,28.8 37.79,33.43z"/>
  <path class="fil0" d="M866.14 515.22c-25.04,0 -29.73,-6.96 -52.53,3.59 -4.53,2.09 -14.14,6.86 -16.54,10.44 43.82,-10.21 41.05,0 62.59,0 6.82,0 18.83,-5.97 23.55,-8.83 4.83,-2.93 15.56,-9.38 18.54,-13.84 -12.46,0.28 -23.35,8.64 -35.61,8.64z"/>
  <path class="fil0" d="M390.2 529.25c5.23,0 10.93,-1.46 15.91,-2.44 8.11,-1.59 22.79,-3.47 31.74,-0.97l14.95 3.41c-1.01,-2.78 -2.93,-3.61 -6.25,-5.63 -26.7,-16.27 -34.05,-8.4 -62.82,-8.4 -10.72,0 -22.8,-8.37 -34.54,-8.64 5.05,7.54 31.85,22.67 41.01,22.67z"/>
  <path class="fil0" d="M599.57 594c0,3.39 -0.19,6.05 0.42,9.29 0.6,3.19 1.47,4.74 1.74,7.98 8.72,0 14.12,1.08 21.58,1.08 8.88,0 18.38,-2.16 26.98,-2.16 0,-18.41 1.9,-18.65 -10.14,-16.66 -14.74,2.42 -31.01,-3.24 -40.58,0.47z"/>
  <path class="fil0" d="M419.34 588.6c17.63,0 23.21,-7.79 44.45,-2.36 4.02,1.03 7.84,1.47 11.67,2.36 -1.89,-5.23 -18.89,-11.73 -23.58,-13.11 -11.62,-3.41 -23.59,0.16 -41.17,0.16 -7.09,0 -17.97,-7.3 -29.14,-7.55 2.31,3.15 12.46,9.99 16.63,12.51 4.37,2.65 15.11,7.99 21.14,7.99z"/>
  <path class="fil0" d="M852.11 547.59c-16.29,0 -31.34,-3.23 -41.17,-0.16 -6.5,2.03 -20.47,8.47 -23.58,13.11 14.82,-0.33 9.37,-7.26 38.24,-2.63 17.62,2.83 26.21,5.44 47.65,-10.76 2.55,-1.92 6.54,-4.93 8,-7.11 -10.43,0.23 -20.2,7.55 -29.14,7.55z"/>
  <path class="fil0" d="M841.32 575.65c-16.33,0 -31.15,-3.22 -41.41,-0.4 -4.13,1.14 -9.71,3.28 -13.29,5.07 -2.62,1.32 -3.44,2.04 -6.12,3.59 -2.6,1.5 -3.94,1.72 -5.02,4.69 16.39,-3.81 20.95,-5.72 38.41,-2.79 14.95,2.52 19.64,6.23 38.02,-4.96 4.34,-2.63 14.99,-9.37 17.47,-12.75 -9.64,0.21 -24.32,7.55 -28.06,7.55z"/>
  <path class="fil0" d="M407.47 560.54c10.99,0 20.38,-4.31 33.46,-4.31 7.93,0 14.2,3.61 22.66,4.31 -3.04,-4.54 -17.7,-11.51 -24.56,-13.21 -11.05,-2.74 -24.07,0.26 -40.19,0.26 -7.84,0 -19.31,-6.73 -29.14,-7.55 4.28,6.4 26.97,20.5 37.77,20.5z"/>
  <path class="fil0" d="M786.28 597.24c-8.46,0 -25.77,6.19 -29.14,10.79 8.34,0 11.18,-2.16 18.34,-2.16 19.16,0 27.46,12.57 51.47,-0.34 2.83,-1.52 4.56,-2.68 7.44,-4.43l6.93 -4.94c-11.32,0 -16.85,4.58 -27.12,4.67 -12.56,0.11 -20.17,-3.59 -27.92,-3.59z"/>
  <path class="fil0" d="M440.93 611.27c18.04,0 21.07,-5.4 33.45,-5.4 8.12,0 10.75,2.16 19.43,2.16 -3.58,-4.88 -22.5,-10.79 -29.14,-10.79 -5.12,0 -9.32,1.33 -13.92,2.27 -22.48,4.62 -25.87,-3.35 -41.12,-3.35 6.75,5.87 22.95,15.11 31.3,15.11z"/>
  <path class="fil0" d="M737.71 627.46c7.18,0 9.34,-1.08 16.19,-1.08 14.33,0 26.62,16.25 55.27,-3.01 1.23,-0.82 2.1,-1.6 3.01,-2.39 -8.73,0 -15.53,3.24 -22.67,3.24 -16.11,0 -19.22,-9.25 -40.34,-2.57 -4.12,1.3 -9.45,3.06 -11.46,5.81z"/>
  <path class="fil0" d="M462.51 624.22c-8.28,0 -14.55,-3.24 -23.74,-3.24 3.1,4.24 20.88,11.87 29.14,11.87 8.66,0 23.19,-6.87 28.06,-6.47l17.24 1.3c-3.14,-4.54 -17.21,-8.04 -24.01,-8.61 -6.93,-0.58 -18.12,5.15 -26.69,5.15z"/>
  <path class="fil0" d="M654.61 661.99c-14.72,9.86 -40.77,7.41 -53.13,10.54 -3.74,0.94 -1.55,-0.77 -3.55,1.89 -0.87,1.17 -2.15,6.68 -0.82,8.01 2.54,2.54 -0.09,0.69 2.97,-0.23 14.31,-4.31 34,-3.93 46.34,-7.89 8.56,-2.74 8.19,-1.77 8.19,-12.32z"/>
  <path class="fil0" d="M654.61 635.01c-8.67,5.81 -19.77,6.89 -31.59,8.34 -6.62,0.81 -11.22,0.9 -17.8,1.63 -0.36,0.04 -3.16,0.42 -3.74,0.57 -3.74,0.94 -1.55,-0.77 -3.55,1.89 -0.87,1.17 -2.15,6.68 -0.83,8 2.93,2.93 -2.08,0.61 6.56,-1.16 11.89,-2.42 34.37,-4.26 42.76,-6.95 8.56,-2.74 8.19,-1.77 8.19,-12.32z"/>
  <path class="fil0" d="M595.25 710.56c5.19,-0.44 9.1,-1.81 15.11,-2.16 9.4,-0.55 43.17,-3.28 43.17,-11.87 0,-8.53 0.45,-3.4 -1.08,-6.48 -4.93,1.79 -0.49,3.75 -13.19,6.23 -5.79,1.13 -11.04,1.57 -16.87,2.56 -5.37,0.92 -10.79,1.48 -16.99,2.43 -7.59,1.17 -10.15,1.15 -10.15,9.29z"/>
  <path class="fil0" d="M595.25 733.22l0 3.24 32.71 -3.99c6,-0.79 11.01,-1.11 15.91,-2.43 5.46,-1.48 7.62,-4.02 10.74,-7.61 -2.48,-4.68 -0.75,-4.02 -5.39,-6.48 -1.45,5.4 -4.57,5.73 -10.61,6.67l-31.03 4.58c-4.95,0.87 -12.33,1.14 -12.33,6.02z"/>
  <path class="fil0" d="M594.17 841.14l0 6.48 47.08 -6.89c5.68,-1.63 8.8,-2.54 10.12,-8.22 -2.52,-3.77 -3.52,-4.35 -7.55,-6.48 -0.18,8.11 -6.11,7.55 -22.61,9.77 -7.38,1 -21.56,2.72 -27.04,5.34z"/>
  <path class="fil0" d="M650.29 859.49c0,-4.37 -3.58,-6.5 -7.55,-7.56 -0.19,8.43 -9.68,7.71 -24.77,9.77 -1.09,0.15 -30.3,2.32 -22.88,9.74 1.45,1.44 26.27,-2.18 29.94,-2.68 7.52,-1.04 25.26,-2.43 25.26,-9.27z"/>
  <path class="fil0" d="M595.25 764.52l31.77 -3.85c10.81,-1.49 25.43,-2.09 25.43,-11.26 0,-3.05 -2.47,-4.17 -4.31,-5.4 -1.95,8.34 -13.25,7.37 -27.31,9.39 -19.9,2.86 -25.36,1.48 -25.58,11.12z"/>
  <path class="fil0" d="M595.25 792.58l31.11 -3.43c36.71,-4.44 25.96,-14.59 20.7,-16 -0.41,4.93 -1.49,5.05 -10.96,6.31 -6.08,0.81 -10.17,1.71 -16.02,2.32 -17.15,1.8 -24.62,1.77 -24.83,10.8z"/>
  <path class="fil0" d="M643.82 804.45l-49.65 8.63 0 6.48 18.03 -2.48c7.46,-0.96 29.75,-2.63 35.57,-6.54 6.35,-4.26 3.36,-9.82 -2.87,-11.49 -0.09,3.76 0.16,2.89 -1.08,5.4z"/>
  <path class="fil0" d="M752.82 503.35c2.97,-0.8 6.51,-3.99 10.58,-6.7 3.84,-2.55 6.27,-4.43 10.63,-6.63 9.29,-4.69 13.05,-3.99 16.56,-19.05 -6.79,0.15 -23.12,7.21 -28.99,14.18 -4.61,5.47 -7.07,10.86 -8.78,18.2z"/>
  <path class="fil0" d="M498.13 503.35c-2.81,-5.85 -2.31,-12.78 -12.67,-21.88 -3.71,-3.26 -18.69,-10.36 -25.11,-10.5 4.62,19.8 10.31,13.41 26.53,25.27 3.47,2.53 7.1,6 11.25,7.11z"/>
  <path class="fil0" d="M638.42 968.49l-44.25 7.55c-0.79,9.56 -4.4,6.7 24.92,3.33 9.3,-1.07 23.13,-0.66 27.97,-9.8 -3.01,-5.68 -1.93,-3.5 -7.56,-6.48 -0.08,3.76 0.17,2.89 -1.08,5.4z"/>
  <path class="fil0" d="M647.06 996.55c-2.23,-3.33 -3.06,-4.35 -7.56,-5.4 -0.51,6.17 -3.7,5.58 -9.68,6.51l-29.09 4.36c-9.22,1.56 -8.31,6.75 -6.4,7.72 1.02,0.52 24.63,-3 28.98,-3.48 12.49,-1.37 19.21,-1.14 23.75,-9.71z"/>
  <path class="fil0" d="M596.33 924.24l0 3.24 29.77 -3.69c5.08,-0.71 9.2,-1.16 13.81,-2.37 5.84,-1.54 7.98,-2.26 9.31,-7.97 -2.74,-3.15 -3.75,-3.38 -7.56,-5.4 -0.07,3.4 2.38,4.93 -8.16,6.95l-26.24 3.98c-3.97,0.65 -10.93,0.74 -10.93,5.26z"/>
  <path class="fil0" d="M595.25 955.54l45.15 -6.66c5.22,-1.56 7.74,-2.22 7.74,-9.53 -2.8,-0.75 -3.91,-1.88 -6.48,-3.24 -1.82,7.84 -8.66,6.27 -23.58,8.79 -19.25,3.26 -22.83,0.57 -22.83,10.64z"/>
  <path class="fil0" d="M596.33 892.94l0 6.48c19.52,-4.55 49.7,-2.12 52.89,-14.03 -2.23,-3.33 -3.06,-4.35 -7.56,-5.4 -0.07,3.35 1.9,4.55 -7.59,6.44 -11.99,2.4 -24.47,3.42 -37.74,6.51z"/>
  <path class="fil0" d="M752.82 529.25c5.26,-1.23 11.52,-7.92 19.4,-11.91 3.85,-1.94 12.85,-2.78 14.06,-17.23 -3.59,1.72 -14.46,4.07 -21.78,9.52 -4.7,3.49 -7.33,7.85 -9.51,13.15 -0.99,2.4 -1.09,4.22 -2.17,6.47z"/>
  <path class="fil0" d="M498.13 529.25c-2.66,-5.54 -3.72,-13.74 -11.68,-19.63 -6.66,-4.92 -14.57,-6.05 -21.78,-9.51 0.31,3.69 2.18,8.44 3.89,11.22 2.69,4.37 9.38,4.55 19.4,11.89 3.55,2.6 5.58,4.96 10.17,6.03z"/>
  <path class="fil0" d="M596.33 620.98c0,10.87 3.04,4.71 11.85,4.3 7.12,-0.34 9.62,-0.31 16.05,-1.23l28.22 -7.39c-8.52,0 -22.03,-0.78 -29.92,0.3 -4.4,0.6 -8.32,0.85 -14.33,0.78 -5.15,-0.06 -11.87,-1.57 -11.87,3.24z"/>
  <path class="fil0" d="M606.31 406.22c2.76,8.38 34.31,7.67 38.87,1.07 -2.49,-6.37 -21.17,-5.32 -30.52,-5.06 -5.34,0.15 -6.53,0.35 -8.35,3.99z"/>
  <path class="fil0" d="M502.44 560.54c-0.33,-15 -19.17,-24.6 -29.14,-24.82 1.14,2.37 2.34,6.97 3.73,9.23 1.59,2.61 8.95,4.97 16.78,10.19 2.51,1.68 5.75,4.63 8.63,5.4z"/>
  <path class="fil0" d="M747.43 560.54l25.93 -15.07c1.48,-2.14 2.8,-6.94 4.28,-9.75 -7.39,0.17 -20.45,5.39 -26,15.01 -1.16,2.02 -1.14,1.72 -2.18,4.29 -0.75,1.85 -1.11,3.58 -2.03,5.52z"/>
  <path class="fil0" d="M510 589.68c-0.6,-7.17 -3.97,-11.54 -8.33,-15.41 -2.58,-2.28 -13.48,-6.91 -17.58,-7.25 9.95,18.79 -0.84,3.63 18.35,17.27 2.6,1.84 4.82,3.56 7.56,5.39z"/>
  <path class="fil0" d="M740.95 588.6l21.78 -12.75c1.06,-1.33 2.85,-6.48 3.04,-8.83 -12.76,2.97 -21.77,8.47 -24.82,21.58z"/>
  <path class="fil0" d="M726.92 613.43c4.44,-1.19 3.85,-3.07 10.78,-6.49 4.77,-2.35 6.99,-2.78 7.57,-9.7 -11.04,2.57 -16.08,6.43 -18.35,16.19z"/>
  <path class="fil0" d="M524.03 613.43c-2.31,-9.91 -9.78,-15.39 -19.43,-16.19 8.36,15.8 -1.24,1.35 13.26,12.64 2.25,1.76 3.26,2.77 6.17,3.55z"/>
  <path class="fil0" d="M541.29 633.93c-1.8,-7.74 -7.5,-12.23 -16.18,-12.95 2.72,5.15 1.04,4.86 6.46,7.57 3.47,1.73 6.11,4.42 9.72,5.38z"/>
  <path class="fil0" d="M709.65 635.01c2.87,-1.92 4.7,-3.86 8.27,-5.76 4.63,-2.46 6.31,-1.93 6.84,-8.27 -7.87,1.84 -14.36,5.08 -15.11,14.03z"/>
  <polygon class="fil0" points="736.63,488.24 735.55,488.24 736.45,489.5 "/>
  <polygon class="fil0" points="514.31,488.24 514.31,489.32 515.57,488.42 "/>
  <path class="fil0" d="M558.74 526.91c0.86,8.57 10.48,62.77 20.33,62.77 12.99,0 41.65,-2.9 46.27,-2.78 58.88,1.48 47.23,14.66 60.2,-29.96 5.04,-17.36 6.84,-29.59 6.84,-48.2 0,-8.46 -2.43,-2.37 1.06,-10.76 2.75,-6.59 -0.28,-29.56 1.4,-41.83 1.09,-7.93 0.79,-18.74 0.82,-28.39 0.05,-12.26 -3.25,-13.88 -12.99,-16.15 4.47,-4.23 2.94,-4.12 3.26,-11.84l2.14 -44.28c5.91,0.49 8.89,5.92 9.79,-2.02l-0.12 -50.91c0.14,-7.5 1.56,-6.72 -0.15,-13.73 -3.55,-14.5 -22.68,-19.67 -35.42,-19.67 -6.58,0 -5.01,8.93 -5.46,15.04l-0.99 40.02c0.03,7.75 -1.11,11.95 -1.11,20.48l-55.04 0c-4.12,0 -0.39,-0.33 -3.24,1.08 -0.15,-6.95 -1.11,-6.79 -1.08,-18.34 0.02,-7.56 -0.01,-15.12 0.01,-22.67 0.02,-8.43 -1.15,-13.28 -1.11,-20.48 0.05,-10.22 0.71,-15.13 -8.61,-15.13 -6.65,0 -18.46,4.52 -23.05,7.16 -6.72,3.88 -10.4,10.85 -10.4,20.89l0.96 54.1c0.15,11.03 3.28,4.73 9.83,4.18l1.68 43.64c1.12,8.04 -1.15,7.87 3.71,12.48 -20.31,1.69 -12.85,22.41 -12.94,38.85 -0.04,8.67 -0.82,18.15 0.45,26.53 0.74,4.87 0.61,8.2 0.58,13.45 -0.05,8.39 1.41,6.84 2.12,11.99 0.75,5.48 -1.17,6.11 -1.04,11.68 0.08,3.3 0.85,8.4 1.3,12.8zm20.04 57.76c-7.87,-9.18 -17.37,-61.06 -15.97,-77.02 0.8,-9.19 -2.06,-11.48 -2.19,-21.56 -0.21,-17.09 -2.89,-56.23 -0.15,-67.3 8.68,-3.56 20.67,-6.18 31.81,-7.31 -0.13,27.37 0,54.8 0.31,82.16 0.28,25.39 2.69,48.52 32.87,49.25 16.41,0.4 20.45,-3.24 26.46,-15.3 5.61,-11.27 5.81,-21.61 5.95,-35.04 0.29,-27.03 0.1,-54.06 0.27,-81.09 36.89,3.85 33.54,8.9 33.03,23.89 -0.64,18.64 -0.72,37.54 -1.5,56.14 -0.27,6.47 -2.41,6.05 -2.48,11.78 -0.04,4.11 0.82,8.26 0.67,13.05 -0.54,18.04 -8.78,54.19 -16.21,68.72 -15.04,0.99 -32.52,-3.02 -47.26,-2.73 -11.25,0.22 -36.81,4.83 -45.61,2.36zm19.46 -71.18c-1.68,-10.8 -2.81,-100.93 -1.39,-110.51l13.57 -3.05c19.56,-3.23 27.5,0.23 43.55,-0.59 0,22.79 0.22,96.53 -2.07,115.45l-53.66 -1.3zm83.35 -111.43c-7.56,-3.64 -14.1,-4.52 -23.13,-3.29 0.71,-30.56 1.43,-61.28 1.79,-91.84 0.41,-34.51 -1.08,-36.03 11.56,-32.22 15.08,4.53 21.95,6.78 21.91,24.66l-0.49 52.02 -9.68 -1.07 -1.96 51.74zm-89.23 -3.25c-8.67,-1.58 -16.42,0.6 -23.1,3.09l-2.37 -52.01 -9.2 1.55c-0.37,-14.59 -2.35,-46.76 -0.41,-59.64 1.39,-9.17 7.18,-11.91 15.41,-14.96 18.47,-6.84 16.75,-2.63 17.03,5.19 1.41,38.92 1.21,77.92 2.64,116.78zm33.17 136.61c-15.59,-0.32 -18.81,-2.78 -22.18,-17.55l43.56 1.07c-0.82,3.34 -4.02,10.39 -5.94,12.85 -3.09,3.97 -9.45,3.75 -15.44,3.63zm-25.6 -150.04l0.24 -5.51c12.85,-3.62 37.04,-2.97 51.01,-2.55l-0.27 6.14 -50.98 1.92zm0.07 -16.32l-0.05 -5.93 52.94 -3.4 -0.02 8.05c-18.22,-0.32 -35.01,0.8 -52.87,1.28z"/>
  <path class="fil0" d="M606.31 406.22c2.76,8.38 34.31,7.67 38.87,1.07 -2.49,-6.37 -21.17,-5.32 -30.52,-5.06 -5.34,0.15 -6.53,0.35 -8.35,3.99z"/>
 </g>
</svg>
