<?xml version="1.0" encoding="UTF-8"?>
<!DOCTYPE svg PUBLIC "-//W3C//DTD SVG 1.1//EN" "http://www.w3.org/Graphics/SVG/1.1/DTD/svg11.dtd">
<!-- Creator: CorelDRAW 2020 (64-Bit) -->
<svg xmlns="http://www.w3.org/2000/svg" xml:space="preserve" width="1in" height="1.1in" version="1.1" style="shape-rendering:geometricPrecision; text-rendering:geometricPrecision; image-rendering:optimizeQuality; fill-rule:evenodd; clip-rule:evenodd"
viewBox="0 0 1000 1100"
 xmlns:xlink="http://www.w3.org/1999/xlink"
 xmlns:xodm="http://www.corel.com/coreldraw/odm/2003">
 <defs>
  <style type="text/css">
   <![CDATA[
    .fil3 {fill:#00AFEF}
    .fil2 {fill:#A8CF45}
    .fil0 {fill:#00AFEF;fill-rule:nonzero}
    .fil1 {fill:#A8CF45;fill-rule:nonzero}
   ]]>
  </style>
 </defs>
 <g id="Layer_x0020_1">
  <metadata id="CorelCorpID_0Corel-Layer"/>
  <path class="fil0" d="M116.1 972.52l-35.2 0 0 22.56 29.43 0c2.71,0 4.76,0.62 6.1,1.83 1.33,1.23 2.01,2.87 2.01,4.9 0,2.06 -0.68,3.69 -2.04,4.9 -1.37,1.21 -3.4,1.8 -6.07,1.8l-29.43 0 0 29.05c0,3.7 -0.84,6.43 -2.51,8.22 -1.67,1.78 -3.8,2.67 -6.39,2.67 -2.65,0 -4.81,-0.91 -6.47,-2.71 -1.67,-1.81 -2.5,-4.54 -2.5,-8.17l0 -67.89c0,-2.57 0.39,-4.66 1.15,-6.28 0.76,-1.63 1.94,-2.81 3.57,-3.55 1.62,-0.74 3.69,-1.11 6.22,-1.11l42.13 0c2.85,0 4.97,0.64 6.35,1.89 1.38,1.28 2.07,2.94 2.07,4.97 0,2.1 -0.7,3.78 -2.07,5.06 -1.38,1.26 -3.49,1.89 -6.35,1.89l0 -0.03zm59.07 66.69c-3.99,3.08 -7.83,5.38 -11.53,6.92 -3.72,1.54 -7.89,2.3 -12.48,2.3 -4.22,0 -7.93,-0.84 -11.11,-2.51 -3.19,-1.66 -5.65,-3.9 -7.37,-6.76 -1.72,-2.85 -2.59,-5.94 -2.59,-9.26 0,-4.5 1.41,-8.32 4.27,-11.49 2.85,-3.18 6.78,-5.29 11.77,-6.39 1.03,-0.24 3.61,-0.77 7.74,-1.62 4.13,-0.84 7.68,-1.6 10.62,-2.32 2.94,-0.7 6.14,-1.54 9.59,-2.54 -0.2,-4.34 -1.07,-7.52 -2.61,-9.54 -1.56,-2.03 -4.74,-3.04 -9.61,-3.04 -4.17,0 -7.31,0.57 -9.41,1.74 -2.11,1.15 -3.92,2.89 -5.43,5.24 -1.5,2.32 -2.57,3.84 -3.19,4.6 -0.63,0.74 -1.97,1.11 -4,1.11 -1.85,0 -3.44,-0.59 -4.78,-1.78 -1.33,-1.18 -2.01,-2.7 -2.01,-4.54 0,-2.89 1.03,-5.71 3.06,-8.44 2.06,-2.73 5.24,-4.96 9.57,-6.73 4.33,-1.77 9.73,-2.65 16.2,-2.65 7.2,0 12.9,0.86 17.02,2.56 4.13,1.71 7.04,4.4 8.75,8.1 1.71,3.7 2.57,8.59 2.57,14.69 0,3.86 -0.02,7.13 -0.04,9.82 -0.02,2.69 -0.04,5.69 -0.09,8.98 0,3.07 0.52,6.3 1.55,9.65 1.02,3.33 1.52,5.48 1.52,6.45 0,1.68 -0.79,3.22 -2.37,4.6 -1.6,1.37 -3.39,2.07 -5.4,2.07 -1.69,0 -3.35,-0.78 -4.99,-2.36 -1.64,-1.58 -3.39,-3.86 -5.24,-6.86l0.02 -0zm-1.09 -23.8c-2.4,0.88 -5.9,1.82 -10.5,2.79 -4.59,0.99 -7.76,1.72 -9.53,2.17 -1.76,0.48 -3.45,1.38 -5.05,2.71 -1.6,1.36 -2.41,3.23 -2.41,5.65 0,2.49 0.95,4.6 2.84,6.35 1.87,1.74 4.33,2.63 7.39,2.63 3.24,0 6.24,-0.72 8.97,-2.14 2.75,-1.44 4.76,-3.27 6.06,-5.53 1.48,-2.49 2.22,-6.59 2.22,-12.3l0 -2.34 0.02 0.01zm49.07 9.32l0 13.72c0,3.33 -0.78,5.81 -2.34,7.48 -1.56,1.67 -3.53,2.51 -5.94,2.51 -2.36,0 -4.31,-0.84 -5.83,-2.53 -1.52,-1.69 -2.28,-4.17 -2.28,-7.46l0 -45.75c0,-7.37 2.67,-11.06 7.99,-11.06 2.71,0 4.68,0.86 5.87,2.59 1.22,1.72 1.87,4.29 2,7.66 1.95,-3.37 3.96,-5.94 6.04,-7.66 2.07,-1.72 4.82,-2.59 8.28,-2.59 3.45,0 6.79,0.86 10.04,2.59 3.25,1.72 4.87,4.02 4.87,6.88 0,2.02 -0.68,3.66 -2.08,4.98 -1.38,1.31 -2.87,1.95 -4.48,1.95 -0.59,0 -2.05,-0.37 -4.35,-1.11 -2.32,-0.74 -4.36,-1.11 -6.12,-1.11 -2.4,0 -4.35,0.64 -5.89,1.89 -1.52,1.27 -2.71,3.14 -3.56,5.63 -0.84,2.48 -1.42,5.44 -1.75,8.87 -0.3,3.43 -0.47,7.59 -0.47,12.53l0 -0.01zm76.16 14.48c-3.98,3.08 -7.82,5.38 -11.52,6.92 -3.72,1.54 -7.89,2.3 -12.49,2.3 -4.2,0 -7.93,-0.84 -11.11,-2.51 -3.18,-1.66 -5.65,-3.9 -7.37,-6.76 -1.72,-2.85 -2.59,-5.94 -2.59,-9.26 0,-4.5 1.41,-8.32 4.28,-11.49 2.85,-3.18 6.78,-5.29 11.77,-6.39 1.02,-0.24 3.61,-0.77 7.74,-1.62 4.13,-0.84 7.68,-1.6 10.62,-2.32 2.94,-0.7 6.14,-1.54 9.59,-2.54 -0.2,-4.34 -1.06,-7.52 -2.6,-9.54 -1.56,-2.03 -4.75,-3.04 -9.61,-3.04 -4.17,0 -7.31,0.57 -9.41,1.74 -2.11,1.15 -3.92,2.89 -5.43,5.24 -1.5,2.32 -2.57,3.84 -3.18,4.6 -0.64,0.74 -1.98,1.11 -4,1.11 -1.85,0 -3.46,-0.59 -4.79,-1.78 -1.33,-1.18 -2.01,-2.7 -2.01,-4.54 0,-2.89 1.02,-5.71 3.06,-8.44 2.06,-2.73 5.24,-4.96 9.57,-6.73 4.33,-1.77 9.73,-2.65 16.2,-2.65 7.21,0 12.9,0.86 17.03,2.56 4.13,1.71 7.05,4.4 8.75,8.1 1.7,3.7 2.56,8.59 2.56,14.69 0,3.86 -0.02,7.13 -0.04,9.82 -0.02,2.69 -0.04,5.69 -0.08,8.98 0,3.07 0.51,6.3 1.54,9.65 1.03,3.33 1.52,5.48 1.52,6.45 0,1.68 -0.78,3.22 -2.36,4.6 -1.6,1.37 -3.4,2.07 -5.41,2.07 -1.69,0 -3.35,-0.78 -4.99,-2.36 -1.64,-1.58 -3.39,-3.86 -5.24,-6.86l-0.01 -0zm-1.09 -23.8c-2.4,0.88 -5.89,1.82 -10.49,2.79 -4.58,0.99 -7.76,1.72 -9.53,2.17 -1.77,0.48 -3.46,1.38 -5.06,2.71 -1.61,1.36 -2.4,3.23 -2.4,5.65 0,2.49 0.94,4.6 2.83,6.35 1.87,1.74 4.33,2.63 7.39,2.63 3.24,0 6.24,-0.72 8.98,-2.14 2.75,-1.44 4.77,-3.27 6.06,-5.53 1.48,-2.49 2.21,-6.59 2.21,-12.3l0 -2.34 0.01 0.01zm534.31 24.69l0 -50.66c0,-2.64 0.59,-4.6 1.8,-5.91 1.2,-1.33 2.76,-1.98 4.65,-1.98 1.95,0 3.54,0.64 4.75,1.95 1.22,1.3 1.83,3.28 1.83,5.95l0 50.66c0,2.67 -0.61,4.64 -1.83,5.96 -1.22,1.32 -2.8,1.98 -4.75,1.98 -1.87,0 -3.41,-0.66 -4.62,-1.99 -1.22,-1.33 -1.83,-3.31 -1.83,-5.94l0 -0.02zm34.7 7.94c-1.81,0 -3.37,-0.58 -4.69,-1.75 -1.32,-1.17 -1.98,-2.81 -1.98,-4.91 0,-1.79 0.63,-3.32 1.89,-4.61 1.26,-1.29 2.81,-1.93 4.66,-1.93 1.84,0 3.42,0.62 4.72,1.9 1.3,1.28 1.94,2.81 1.94,4.64 0,2.07 -0.65,3.7 -1.94,4.89 -1.3,1.18 -2.84,1.78 -4.6,1.78l-0 -0.01zm45.98 -26.15l-11.94 0 0 18.21c0,2.61 -0.61,4.57 -1.84,5.92 -1.22,1.35 -2.78,2.02 -4.64,2.02 -1.96,0 -3.55,-0.66 -4.75,-1.99 -1.2,-1.33 -1.8,-3.29 -1.8,-5.86l0 -49.58c0,-2.86 0.65,-4.91 1.97,-6.14 1.32,-1.23 3.4,-1.84 6.27,-1.84l16.72 0c4.94,0 8.75,0.37 11.42,1.14 2.63,0.74 4.91,1.94 6.83,3.65 1.91,1.7 3.37,3.77 4.36,6.22 1,2.46 1.49,5.23 1.49,8.3 0,6.56 -2.02,11.52 -6.05,14.9 -4.04,3.37 -10.06,5.06 -18.05,5.06l0.02 -0.02zm-3.16 -29.47l-8.78 0 0 19.68 8.78 0c3.07,0 5.64,-0.32 7.72,-0.97 2.05,-0.65 3.62,-1.69 4.71,-3.17 1.08,-1.45 1.62,-3.38 1.62,-5.75 0,-2.84 -0.85,-5.15 -2.5,-6.93 -1.87,-1.9 -5.72,-2.86 -11.55,-2.86l0 -0z"/>
  <path class="fil1" d="M438.15 1019.09c0,2.81 -0.68,5.85 -2.07,9.12 -1.37,3.27 -3.55,6.47 -6.54,9.61 -2.96,3.16 -6.76,5.71 -11.35,7.68 -4.62,1.96 -10,2.94 -16.15,2.94 -4.65,0 -8.87,-0.43 -12.7,-1.31 -3.8,-0.88 -7.27,-2.26 -10.37,-4.13 -3.1,-1.85 -5.97,-4.31 -8.59,-7.35 -2.31,-2.78 -4.31,-5.86 -5.95,-9.29 -1.65,-3.43 -2.88,-7.11 -3.7,-10.98 -0.83,-3.91 -1.23,-8.04 -1.23,-12.41 0,-7.09 1.02,-13.45 3.1,-19.06 2.06,-5.63 5.04,-10.44 8.87,-14.42 3.86,-3.98 8.37,-7.02 13.54,-9.12 5.18,-2.07 10.7,-3.13 16.56,-3.13 7.15,0 13.49,1.42 19.08,4.28 5.57,2.83 9.83,6.37 12.82,10.56 2.96,4.19 4.45,8.13 4.45,11.87 0,2.05 -0.74,3.85 -2.17,5.43 -1.44,1.56 -3.19,2.34 -5.24,2.34 -2.28,0 -4,-0.56 -5.13,-1.62 -1.15,-1.09 -2.43,-2.96 -3.82,-5.61 -2.34,-4.37 -5.07,-7.64 -8.22,-9.81 -3.16,-2.15 -7.02,-3.24 -11.64,-3.24 -7.36,0 -13.19,2.79 -17.55,8.36 -4.35,5.59 -6.53,13.52 -6.53,23.79 0,6.85 0.96,12.57 2.9,17.13 1.91,4.56 4.64,7.95 8.17,10.21 3.53,2.24 7.66,3.37 12.41,3.37 5.14,0 9.47,-1.28 13.02,-3.82 3.55,-2.55 6.22,-6.29 8.03,-11.24 0.76,-2.32 1.7,-4.22 2.83,-5.69 1.11,-1.46 2.91,-2.2 5.4,-2.2 2.14,0 3.96,0.74 5.48,2.24 1.52,1.48 2.28,3.33 2.28,5.52l0.02 -0.02zm76.41 -4.03c0,4.91 -0.76,9.41 -2.28,13.54 -1.54,4.13 -3.74,7.69 -6.63,10.64 -2.87,2.98 -6.34,5.24 -10.35,6.82 -4,1.58 -8.52,2.38 -13.54,2.38 -4.99,0 -9.46,-0.8 -13.43,-2.41 -3.96,-1.6 -7.41,-3.9 -10.33,-6.89 -2.9,-2.98 -5.12,-6.52 -6.61,-10.58 -1.5,-4.09 -2.26,-8.59 -2.26,-13.52 0,-4.97 0.76,-9.53 2.28,-13.66 1.54,-4.13 3.72,-7.66 6.57,-10.6 2.85,-2.92 6.3,-5.17 10.35,-6.75 4.05,-1.59 8.52,-2.39 13.43,-2.39 4.97,0 9.49,0.8 13.54,2.4 4.05,1.61 7.52,3.9 10.41,6.88 2.9,2.96 5.09,6.5 6.59,10.59 1.5,4.09 2.26,8.61 2.26,13.54l0 0zm-16.51 0c0,-6.69 -1.48,-11.89 -4.42,-15.63 -2.96,-3.72 -6.91,-5.59 -11.88,-5.59 -3.22,0 -6.04,0.82 -8.48,2.48 -2.44,1.67 -4.33,4.13 -5.64,7.38 -1.33,3.24 -1.99,7.04 -1.99,11.35 0,4.29 0.66,8.05 1.95,11.26 1.31,3.2 3.17,5.67 5.58,7.37 2.43,1.7 5.31,2.54 8.59,2.54 4.97,0 8.92,-1.86 11.88,-5.63 2.93,-3.74 4.42,-8.93 4.42,-15.55l-0.01 0.02zm44.32 -24.34l0 1.98c2.9,-3.81 6.06,-6.61 9.49,-8.39 3.44,-1.79 7.38,-2.67 11.83,-2.67 4.34,0 8.2,0.94 11.63,2.83 3.41,1.87 5.96,4.54 7.64,7.99 1.09,2.01 1.79,4.17 2.12,6.51 0.3,2.32 0.46,5.28 0.46,8.9l0 30.58c0,3.29 -0.75,5.77 -2.26,7.46 -1.5,1.69 -3.47,2.53 -5.87,2.53 -2.44,0 -4.44,-0.86 -5.98,-2.59 -1.51,-1.72 -2.28,-4.19 -2.28,-7.39l0 -27.4c0,-5.4 -0.76,-9.55 -2.26,-12.43 -1.5,-2.85 -4.5,-4.29 -9,-4.29 -2.92,0 -5.59,0.86 -8.01,2.6 -2.4,1.76 -4.17,4.15 -5.28,7.22 -0.8,2.44 -1.21,7 -1.21,13.72l0 20.58c0,3.33 -0.78,5.81 -2.32,7.48 -1.54,1.67 -3.54,2.51 -5.96,2.51 -2.36,0 -4.31,-0.86 -5.83,-2.59 -1.53,-1.72 -2.28,-4.19 -2.28,-7.39l0 -47.49c0,-3.12 0.68,-5.46 2.03,-7 1.38,-1.54 3.23,-2.32 5.59,-2.32 1.44,0 2.75,0.35 3.91,1.02 1.17,0.68 2.09,1.7 2.79,3.06 0.7,1.36 1.04,3.04 1.04,5l0.01 -0.02zm60.47 -7.6l1.81 0 0 -9.89c0,-2.65 0.06,-4.72 0.2,-6.22 0.14,-1.52 0.53,-2.81 1.17,-3.88 0.64,-1.13 1.56,-2.06 2.78,-2.76 1.19,-0.7 2.53,-1.05 4.02,-1.05 2.08,0 3.94,0.78 5.63,2.34 1.13,1.05 1.83,2.32 2.13,3.84 0.31,1.5 0.45,3.64 0.45,6.41l0 11.2 6.02 0c2.32,0 4.11,0.55 5.32,1.64 1.23,1.11 1.85,2.53 1.85,4.23 0,2.22 -0.89,3.76 -2.63,4.64 -1.75,0.89 -4.23,1.31 -7.5,1.31l-3.06 0 0 30.19c0,2.57 0.08,4.56 0.27,5.94 0.18,1.37 0.65,2.5 1.44,3.36 0.8,0.86 2.07,1.29 3.84,1.29 0.94,0 2.26,-0.16 3.9,-0.51 1.65,-0.33 2.94,-0.52 3.84,-0.52 1.34,0 2.53,0.54 3.59,1.61 1.07,1.06 1.59,2.38 1.59,3.94 0,2.65 -1.44,4.67 -4.31,6.06 -2.9,1.42 -7.05,2.12 -12.47,2.12 -5.14,0 -9.02,-0.86 -11.64,-2.59 -2.65,-1.72 -4.38,-4.11 -5.2,-7.17 -0.83,-3.04 -1.23,-7.11 -1.23,-12.2l0 -31.53 -2.16 0c-2.38,0 -4.19,-0.56 -5.43,-1.68 -1.25,-1.11 -1.87,-2.55 -1.87,-4.28 0,-1.7 0.66,-3.12 1.95,-4.23 1.32,-1.09 3.21,-1.64 5.69,-1.64l0.01 0.04zm59 41.61l0 13.72c0,3.33 -0.78,5.81 -2.35,7.48 -1.56,1.67 -3.53,2.51 -5.93,2.51 -2.36,0 -4.31,-0.84 -5.83,-2.53 -1.52,-1.69 -2.28,-4.17 -2.28,-7.46l0 -45.75c0,-7.37 2.67,-11.06 7.99,-11.06 2.71,0 4.68,0.86 5.87,2.59 1.22,1.72 1.87,4.29 2,7.66 1.95,-3.37 3.96,-5.94 6.04,-7.66 2.07,-1.72 4.82,-2.59 8.27,-2.59 3.46,0 6.8,0.86 10.04,2.59 3.25,1.72 4.87,4.02 4.87,6.88 0,2.02 -0.68,3.66 -2.07,4.98 -1.38,1.31 -2.88,1.95 -4.48,1.95 -0.6,0 -2.05,-0.37 -4.35,-1.11 -2.32,-0.74 -4.36,-1.11 -6.13,-1.11 -2.4,0 -4.35,0.64 -5.9,1.89 -1.52,1.27 -2.7,3.14 -3.55,5.63 -0.85,2.48 -1.42,5.44 -1.75,8.87 -0.31,3.43 -0.47,7.59 -0.47,12.53l0.02 -0.01zm94.5 -9.67c0,4.91 -0.76,9.41 -2.28,13.54 -1.54,4.13 -3.74,7.69 -6.64,10.64 -2.87,2.98 -6.34,5.24 -10.35,6.82 -4,1.58 -8.52,2.38 -13.54,2.38 -4.99,0 -9.47,-0.8 -13.43,-2.41 -3.97,-1.6 -7.42,-3.9 -10.33,-6.89 -2.9,-2.98 -5.12,-6.52 -6.62,-10.58 -1.5,-4.09 -2.26,-8.59 -2.26,-13.52 0,-4.97 0.76,-9.53 2.28,-13.66 1.54,-4.13 3.72,-7.66 6.57,-10.6 2.86,-2.92 6.31,-5.17 10.36,-6.75 4.05,-1.59 8.52,-2.39 13.43,-2.39 4.97,0 9.49,0.8 13.54,2.4 4.05,1.61 7.52,3.9 10.41,6.88 2.89,2.96 5.09,6.5 6.59,10.59 1.5,4.09 2.26,8.61 2.26,13.54l0.01 0zm-16.52 0c0,-6.69 -1.48,-11.89 -4.42,-15.63 -2.96,-3.72 -6.9,-5.59 -11.87,-5.59 -3.22,0 -6.04,0.82 -8.48,2.48 -2.45,1.67 -4.33,4.13 -5.65,7.38 -1.33,3.24 -1.99,7.04 -1.99,11.35 0,4.29 0.66,8.05 1.95,11.26 1.32,3.2 3.17,5.67 5.59,7.37 2.43,1.7 5.3,2.54 8.59,2.54 4.97,0 8.91,-1.86 11.87,-5.63 2.93,-3.74 4.42,-8.93 4.42,-15.55l-0.01 0.02zm29.45 23.39l0 -71.23c0,-3.28 0.74,-5.77 2.2,-7.46 1.46,-1.69 3.43,-2.53 5.91,-2.53 2.47,0 4.48,0.84 6,2.51 1.52,1.67 2.28,4.15 2.28,7.48l0 71.23c0,3.33 -0.78,5.81 -2.32,7.48 -1.54,1.67 -3.53,2.51 -5.96,2.51 -2.4,0 -4.35,-0.86 -5.85,-2.59 -1.5,-1.72 -2.26,-4.19 -2.26,-7.39l0 -0.01z"/>
  <polygon class="fil2" points="155.21,273.11 260.46,207.02 331.48,304.95 226.23,371.04 "/>
  <polygon class="fil3" points="379.98,162.66 452.84,116.91 502.01,184.7 429.15,230.46 "/>
  <polygon class="fil2" points="280.41,129.62 335.93,94.76 373.39,146.42 317.87,181.29 "/>
  <polygon class="fil3" points="156.38,91.95 211.89,57.09 249.35,108.76 193.84,143.61 "/>
  <path class="fil3" d="M536.39 248.25l-22.9 -31.41 258.59 -156.43c12.25,-6.23 21.67,-7.55 28.26,-3.94 2.51,1.61 4.76,3.93 6.73,6.98 2.29,4.11 3.76,9.65 4.43,16.59l0.25 15.75 0 0.01 2.76 171.44c1.51,13.87 -11.85,28.63 -40.1,44.27 -203.47,123.45 -305.2,185.17 -305.2,185.17 94.44,71.53 141.67,107.29 141.67,107.29l172.57 -89.37 0 0 0.07 -0.04 2.36 -1.22 1.66 -0.91 0.02 -0.01 0.05 -0.02c9.26,-4.53 16.33,-5.4 21.22,-2.65l0.2 0.11 0.09 0.06c2.11,1.35 3.83,3.42 5.19,6.19 1.9,4.17 2.81,9.98 2.74,17.44l-3.04 338.82 0 0.01 -0.01 1.38 0.07 1.67c-0.09,8.7 -2.41,14.35 -6.97,16.93 -5.24,2.63 -13.41,1.56 -24.52,-3.24 -2.11,-0.97 -4.32,-2.08 -6.65,-3.35l-619.34 -391.72c-8.71,-5.82 -14.95,-11.59 -18.74,-17.3 -2.35,-4.82 -3.8,-9.24 -4.35,-13.27 0.1,-9.01 6.53,-17.87 19.29,-26.6l9.4 -5.78 0.01 -0.01 69.51 -42.74c29.17,42.36 43.75,63.54 43.75,63.54 76.04,-47.92 114.06,-71.88 114.06,-71.88 -28.82,-40.62 -43.23,-60.94 -43.23,-60.94 58.33,-36.11 87.5,-54.17 87.5,-54.17 15.62,22.22 23.44,33.34 23.44,33.34 52.77,-33.34 79.17,-50 79.17,-50l-0.02 0.01z"/>
 </g>
</svg>
