<?xml version="1.0" encoding="UTF-8"?>
<!DOCTYPE svg PUBLIC "-//W3C//DTD SVG 1.1//EN" "http://www.w3.org/Graphics/SVG/1.1/DTD/svg11.dtd">
<!-- Creator: CorelDRAW 2020 (64-Bit) -->
<svg xmlns="http://www.w3.org/2000/svg" xml:space="preserve" width="2.08333in" height="1.66666in" version="1.1" style="shape-rendering:geometricPrecision; text-rendering:geometricPrecision; image-rendering:optimizeQuality; fill-rule:evenodd; clip-rule:evenodd"
viewBox="0 0 2083.33 1666.66"
 xmlns:xlink="http://www.w3.org/1999/xlink"
 xmlns:xodm="http://www.corel.com/coreldraw/odm/2003">
 <defs>
  <style type="text/css">
   <![CDATA[
    .fil0 {fill:#292626}
    .fil1 {fill:white}
   ]]>
  </style>
 </defs>
 <g id="Layer_x0020_1">
  <metadata id="CorelCorpID_0Corel-Layer"/>
  <path class="fil0" d="M1775.46 120.94l-1458.02 0c-135.49,0 -245.36,109.87 -245.37,245.36l0.01 932.23c0,135.49 109.87,245.36 245.35,245.37l1458.03 -0.01c135.49,0 245.36,-109.87 245.37,-245.35l-0.01 -932.23c0,-135.49 -109.87,-245.36 -245.36,-245.37z"/>
  <path class="fil1" d="M777.53 825.45c-104.5,-10.81 -152.64,14.57 -182.9,-23.79l0.99 -182.1 189.33 -3.37 5.11 -115.7 -304.21 -2.86 0.42 657.25 104.43 2.59 7.93 -221.12c12.37,-26.55 42.06,-16.7 81.8,-16.19 34.72,0.46 63.37,0.39 98.01,-2.57l-0.9 -92.14z"/>
  <path class="fil1" d="M1015.59 476.12c-123.91,53.33 -36.65,212 72.87,161.99 99.21,-45.3 35.78,-208.77 -72.87,-161.99z"/>
  <path class="fil1" d="M1314.68 497.05l0 630.79 115.49 -2.35 0.06 -208.06c56.07,-8.47 339.73,3.11 304.82,-243.91 -10.2,-72.15 -62.98,-129.31 -115.12,-155.44 -73.21,-36.67 -207.92,-21.07 -305.25,-21.02zm250.36 281.54l-124.05 8.69 -0.95 -163.67 134.67 10.68c0.03,0.07 0.07,0.15 0.11,0.22 30.04,6.14 46.88,34.72 47.43,65.2 0.51,32.36 -17.33,66.83 -57.2,78.88z"/>
 </g>
</svg>
