<?xml version="1.0" encoding="UTF-8"?>
<!DOCTYPE svg PUBLIC "-//W3C//DTD SVG 1.1//EN" "http://www.w3.org/Graphics/SVG/1.1/DTD/svg11.dtd">
<!-- Creator: CorelDRAW 2020 (64-Bit) -->
<svg xmlns="http://www.w3.org/2000/svg" xml:space="preserve" width="1.77083in" height="1.35417in" version="1.1" style="shape-rendering:geometricPrecision; text-rendering:geometricPrecision; image-rendering:optimizeQuality; fill-rule:evenodd; clip-rule:evenodd"
viewBox="0 0 1770.83 1354.17"
 xmlns:xlink="http://www.w3.org/1999/xlink"
 xmlns:xodm="http://www.corel.com/coreldraw/odm/2003">
 <defs>
  <style type="text/css">
   <![CDATA[
    .str0 {stroke:black;stroke-width:6.94;stroke-miterlimit:2.61313}
    .fil0 {fill:black}
    .fil1 {fill:#080808}
    .fil2 {fill:white}
   ]]>
  </style>
 </defs>
 <g id="Layer_x0020_1">
  <metadata id="CorelCorpID_0Corel-Layer"/>
  <rect class="fil0 str0" x="57.29" y="78.25" width="1654.64" height="1208.2" rx="208.33" ry="208.33"/>
  <path class="fil1" d="M1324.93 636.64c65.83,-19.91 60.93,-111.75 8.3,-122.51l-114.43 -9.08 0.81 138.97 105.32 -7.38z"/>
  <path class="fil2" d="M1302.7 651.9c-25.39,8.79 -70.06,2.63 -97.65,-0.82l5.37 -156.1c38.15,-4.94 104.88,-16.44 122.81,19.32 52.63,10.76 57.54,102.6 -8.3,122.51 -11.56,11.73 -1.04,7.76 -22.24,15.09zm-190.35 281.28l98.07 -2 0.05 -176.65c47.61,-7.2 288.46,2.63 258.81,-207.11 -8.66,-61.26 -53.46,-109.8 -97.74,-131.98 -62.16,-31.13 -176.54,-17.89 -259.18,-17.85l0 535.59z"/>
  <path class="fil2" d="M920.28 517.37c84.24,-38.46 30.39,-177.26 -61.87,-137.54 -105.2,45.28 -31.12,180 61.87,137.54z"/>
  <path class="fil2" d="M662.58 498.74l4.34 -98.23 -258.3 -2.43 0.35 558.06 88.66 2.2 6.74 -187.75c10.5,-22.54 35.71,-14.18 69.45,-13.74 29.48,0.39 53.8,0.33 83.22,-2.18l-0.77 -78.24c-88.72,-9.19 -129.6,12.37 -155.29,-20.2l0.84 -154.61 160.76 -2.87z"/>
 </g>
</svg>
