<?xml version="1.0" encoding="UTF-8"?>
<!DOCTYPE svg PUBLIC "-//W3C//DTD SVG 1.1//EN" "http://www.w3.org/Graphics/SVG/1.1/DTD/svg11.dtd">
<!-- Creator: CorelDRAW 2020 (64-Bit) -->
<svg xmlns="http://www.w3.org/2000/svg" xml:space="preserve" width="500px" height="500px" version="1.1" style="shape-rendering:geometricPrecision; text-rendering:geometricPrecision; image-rendering:optimizeQuality; fill-rule:evenodd; clip-rule:evenodd"
viewBox="0 0 50000 50000"
 xmlns:xlink="http://www.w3.org/1999/xlink"
 xmlns:xodm="http://www.corel.com/coreldraw/odm/2003">
 <defs>
  <style type="text/css">
   <![CDATA[
    .fil0 {fill:gray}
    .fil1 {fill:#E02B28}
   ]]>
  </style>
 </defs>
 <g id="Layer_x0020_1">
  <metadata id="CorelCorpID_0Corel-Layer"/>
  <path class="fil0" d="M27728 17753c1585,839 2685,1334 3776,2783 4031,5357 1052,13697 -7139,13697 -4240,0 -8072,-3832 -8072,-8072 0,-2337 340,-3697 1702,-5529 757,-1018 2303,-2390 3679,-2711 -163,-700 -583,-1480 -865,-2162 -569,-1381 -1191,-2716 -2282,-3772 -2454,-2375 -4409,-710 -2791,3127 394,935 753,1254 1229,1966l-1305 1385c-1514,-822 -2416,-1721 -4580,-1721 -3509,0 -174,4989 2522,5213 -22,980 -336,926 -336,2018 -822,0 -1646,-353 -3393,139 -2092,589 -3209,2024 -1563,3135 1244,840 3877,1280 4956,762 64,767 347,1341 504,2018 -4811,2546 -4999,5213 -2018,5213 1780,0 3120,-955 4204,-1681 399,594 701,836 1346,1177 -941,1778 -1682,2159 -1682,4709 0,1612 1304,1932 3010,655 747,-560 1967,-2165 2203,-3178 678,158 1341,347 2018,505 0,7870 3864,6284 4206,2179 14,-167 72,-816 74,-882l-76 -1466c779,-17 1335,-231 1850,-504 490,926 728,1638 1468,2400 3622,3729 4707,362 3022,-3021 -363,-729 -616,-919 -958,-1565 1069,-566 661,-775 1514,-1346 962,510 1705,1122 2955,1418 2993,708 4358,-745 1630,-3481 -906,-907 -1457,-1049 -2567,-1636 67,-816 336,-1054 336,-2018 671,15 1943,472 3919,-285 2917,-1117 2240,-3263 -1460,-3856 -651,-105 -2157,104 -2420,-27 -294,-146 -329,-1088 -712,-1886 2836,-661 6251,-5214 2186,-5214 -1863,0 -3131,1019 -4372,1850l-1212 -1311c1105,-1624 1717,-2487 1717,-4743 0,-2593 -4447,-1902 -6223,5718z"/>
  <path class="fil0" d="M23188 33897c1120,261 842,168 2186,168 1110,0 945,-449 1043,-1479 455,-4783 236,-10320 623,-15353 169,-2204 250,-1013 520,-2171l-6054 0c1225,1829 660,1860 963,4082 221,1615 296,8754 453,9805 237,1585 266,3214 266,4948z"/>
  <path class="fil1" d="M28401 2954c0,1466 -2778,3034 -4036,3700 -168,-2012 -1114,-3590 -3027,-4036 111,1339 672,137 672,1850 0,1688 -2690,2279 -2690,4876 0,611 199,590 336,1178l9586 0c-39,-1749 -1337,-621 1298,-3916 582,-728 1217,-2454 -121,-2811 0,1067 108,1153 -805,2222 -341,399 -197,332 -709,469 1390,-2075 1040,-4010 -1009,-5382 70,832 505,719 505,1850z"/>
  <path class="fil0" d="M23692 43651c0,690 134,865 169,1512 28,522 2,1152 -2,1684 -8,1159 -127,2353 1010,2353 1716,0 1514,-2197 1514,-4540 0,-580 -125,-652 -168,-1177 -1772,-148 -41,-410 -2523,168z"/>
  <path class="fil0" d="M19152 11362c0,388 117,505 504,505l9754 0c717,0 717,-1177 0,-1177l-9586 0c-393,0 -672,279 -672,672z"/>
  <path class="fil0" d="M19992 13212l9250 0c115,-492 234,-1009 -505,-1009l-8408 0c-734,0 -439,568 -337,1009z"/>
  <path class="fil0" d="M20665 14053c0,394 279,673 673,673l6558 0c718,0 718,-1177 0,-1177l-6726 0c-388,0 -505,117 -505,504z"/>
 </g>
</svg>
