<?xml version="1.0" encoding="UTF-8"?>
<!DOCTYPE svg PUBLIC "-//W3C//DTD SVG 1.1//EN" "http://www.w3.org/Graphics/SVG/1.1/DTD/svg11.dtd">
<!-- Creator: CorelDRAW 2020 (64-Bit) -->
<svg xmlns="http://www.w3.org/2000/svg" xml:space="preserve" width="1.162in" height="1.162in" version="1.1" style="shape-rendering:geometricPrecision; text-rendering:geometricPrecision; image-rendering:optimizeQuality; fill-rule:evenodd; clip-rule:evenodd"
viewBox="0 0 1162 1162"
 xmlns:xlink="http://www.w3.org/1999/xlink"
 xmlns:xodm="http://www.corel.com/coreldraw/odm/2003">
 <defs>
  <style type="text/css">
   <![CDATA[
    .fil0 {fill:#FEFEFE}
    .fil1 {fill:#00A795}
   ]]>
  </style>
 </defs>
 <g id="Layer_x0020_1">
  <metadata id="CorelCorpID_0Corel-Layer"/>
  <g id="_2602811361456">
   <rect class="fil0" x="83.5" y="325.38" width="974.25" height="536.01"/>
   <path class="fil1" d="M578.72 1164.33c320.91,0 581.05,-260.15 581.05,-581.05 0,-320.91 -260.15,-581.05 -581.05,-581.05 -320.91,0 -581.05,260.15 -581.05,581.05 0,320.91 260.15,581.05 581.05,581.05zm-292.62 -381.18l-8.73 8.09c-17.65,-7.52 -15.61,-7.6 -27.54,-22.81 -43.7,-55.74 -108.27,-141.48 -121.65,-211.87 -29.38,-154.55 168.91,-86.15 245.87,-66.69 189.7,47.97 148.97,0.69 299.72,-39.04 56.37,-14.85 103.87,-18.79 164.01,-26.15 50.13,-6.14 25.78,-41.41 119.49,-49.37l16.75 2.54c-12.47,25.39 -60.62,33.1 -66.6,50.21 16.15,14.25 44.98,4.81 66.45,4.97 53.88,0.4 30.71,-9.7 56.58,-18.04 6.8,15.98 -7.49,33.2 -21.98,40.15 -13.24,6.34 -41.97,10.66 -59.15,13.78l-1.69 76.79c-25.91,17.93 -21.35,5.99 -48.97,3.97 -21.11,20.1 -41.8,43.03 -55.83,77.34 -11.16,27.28 -24.76,77 -17.91,111.63 30.01,4.56 44.71,9.66 71.5,14.58 45.76,8.41 62.61,-1.92 62,21.34 -15.54,9.29 -122.05,14.42 -143.95,6.69 -8.76,-3.09 -159.98,-101.89 -206.13,-109.44 -78.13,-12.79 -177.71,-38.51 -252.3,-63.45 -21.93,-7.33 -101.7,-44.3 -118.54,-34.95 -27.43,15.22 12.83,98.45 22.1,116.96 8.91,17.81 18.65,33.49 29.96,49.05 9.81,13.5 28.3,33.41 33.17,46.15 -18.74,-1.28 -19.03,-4.07 -27.26,-16.11 -34.83,-50.96 -72.51,-97.26 -84.37,-159.97 -7.43,-39.28 12.33,-67.5 51.44,-54.81 29.16,9.46 56.71,22.15 86.83,32.35 51.25,17.37 130.91,36.43 185.46,47 32.09,6.22 73.17,8.51 102.69,16.2 50.37,13.11 118.11,67.53 159.3,73.81 6.78,-71.09 10.82,-120.35 53.44,-183.02 11.09,-16.3 28.03,-28.69 34,-44.83 -4.66,-8.45 -21.99,-36.61 -33.13,-39.25 -27.72,-6.56 -156.81,24.83 -188.83,36.04 -106.52,37.3 -106.24,65.52 -239.79,37.89 -45.67,-9.44 -208.65,-62.52 -245.13,-35.11 -59.43,44.65 39.85,197.07 77.99,249.12l30.74 38.25z"/>
  </g>
 </g>
</svg>
