<?xml version="1.0" encoding="UTF-8"?>
<!DOCTYPE svg PUBLIC "-//W3C//DTD SVG 1.1//EN" "http://www.w3.org/Graphics/SVG/1.1/DTD/svg11.dtd">
<!-- Creator: CorelDRAW 2020 (64-Bit) -->
<svg xmlns="http://www.w3.org/2000/svg" xml:space="preserve" width="1.04166in" height="1.04166in" version="1.1" style="shape-rendering:geometricPrecision; text-rendering:geometricPrecision; image-rendering:optimizeQuality; fill-rule:evenodd; clip-rule:evenodd"
viewBox="0 0 1041.66 1041.66"
 xmlns:xlink="http://www.w3.org/1999/xlink"
 xmlns:xodm="http://www.corel.com/coreldraw/odm/2003">
 <defs>
  <style type="text/css">
   <![CDATA[
    .fil0 {fill:#E6E6E6}
   ]]>
  </style>
 </defs>
 <g id="Layer_x0020_1">
  <metadata id="CorelCorpID_0Corel-Layer"/>
  <g id="_2463460844896">
   <path class="fil0" d="M520.12 907.98c167.77,0 330.05,25.48 347.29,-153.74 37.38,-388.53 -102.17,-298.85 -115.52,-370.99 -1.13,-149.84 -93.37,-267.11 -242.28,-263.89 -171.5,3.71 -225.11,134.19 -232.97,280.82 -63.11,26.34 -98.7,53.38 -111.45,126.74 -9.71,55.91 -8.46,178.66 -1.61,235.93 20.96,175.14 193.21,145.14 356.54,145.14zm270.83 -295.57c0,207.79 9.37,217.45 -171.87,217.45 -408.69,0 -380.21,39.15 -380.21,-227.87 0,-100.78 12.77,-127.6 114.58,-127.6 399.63,0 437.5,-39.42 437.5,138.02zm-118.48 -218.04l-315.12 -3.31c0.17,-112.65 45.65,-195.28 162.5,-192.74 107.78,2.34 152.44,81.61 152.62,196.05z"/>
   <path class="fil0" d="M538.35 724.4c18.6,-30.76 15.62,-51.28 15.62,-91.15 0,-79.84 -78.12,-82.21 -78.12,0 0,57.55 -6.24,101.42 62.5,91.15z"/>
  </g>
 </g>
</svg>
