<?xml version="1.0" encoding="UTF-8"?>
<!DOCTYPE svg PUBLIC "-//W3C//DTD SVG 1.1//EN" "http://www.w3.org/Graphics/SVG/1.1/DTD/svg11.dtd">
<!-- Creator: CorelDRAW 2020 (64-Bit) -->
<svg xmlns="http://www.w3.org/2000/svg" xml:space="preserve" width="1.04166in" height="1.04166in" version="1.1" style="shape-rendering:geometricPrecision; text-rendering:geometricPrecision; image-rendering:optimizeQuality; fill-rule:evenodd; clip-rule:evenodd"
viewBox="0 0 1041.66 1041.66"
 xmlns:xlink="http://www.w3.org/1999/xlink"
 xmlns:xodm="http://www.corel.com/coreldraw/odm/2003">
 <defs>
  <style type="text/css">
   <![CDATA[
    .fil0 {fill:#E6E6E6}
   ]]>
  </style>
 </defs>
 <g id="Layer_x0020_1">
  <metadata id="CorelCorpID_0Corel-Layer"/>
  <g id="_2463383745920">
   <path class="fil0" d="M741.88 686.61l-256.52 -264.36c-87.56,-87 -173.05,-162.71 -259.04,-251.33 -102.59,-105.72 -136.48,-25.88 -81.06,28.59 35.46,34.85 96.89,100.33 133.03,125.18l-3.17 67.64c-30.31,27.15 -61.3,29.43 -91.73,74.51 -33.29,49.31 -27.49,138.65 -27.49,206.76 0,278.92 135.96,234.82 505.2,233.07 85.93,0 96.74,-9.93 156.25,-33.85 20.91,12.31 49.54,54.91 84.01,20.18 32.77,-33.02 -11.96,-65.1 -27.1,-78.57 -45.76,-40.72 -87.54,-83.84 -132.39,-127.8zm-307.81 -202.7c31.6,18.36 311.59,306.59 323.39,336.82 -110.22,13.26 -313.47,14.17 -429.41,6.13 -87.81,-6.09 -90.22,-39.36 -92.12,-121.53 -1.2,-51.94 -8.87,-163.64 16.24,-200.91 26.16,-38.82 140.03,-44.84 181.9,-20.51z"/>
   <path class="fil0" d="M623.34 452.24c55.45,42.98 99.33,1.22 144.32,41.98 33.41,30.28 21.9,105.74 43.18,144.22 100.76,22.74 80.46,-138.17 6.33,-204.27 -37.69,-33.61 -47.41,-15.53 -62.32,-52.25 -1.24,-101.02 -30.09,-168.61 -95.89,-216.61 -185.52,-135.33 -373.31,52.43 -249.19,57.93 14.48,0.64 259.41,-115.43 265.65,158.68 -2.4,1.67 -6.54,0.37 -7.81,3.99 -5.3,15.12 -6.93,2.85 -15.08,7.95 -40.86,25.57 -31.28,28.52 -29.19,58.37z"/>
  </g>
 </g>
</svg>
