<?xml version="1.0" encoding="UTF-8"?>
<!DOCTYPE svg PUBLIC "-//W3C//DTD SVG 1.1//EN" "http://www.w3.org/Graphics/SVG/1.1/DTD/svg11.dtd">
<!-- Creator: CorelDRAW 2020 (64-Bit) -->
<svg xmlns="http://www.w3.org/2000/svg" xml:space="preserve" width="2550px" height="3300px" version="1.1" style="shape-rendering:geometricPrecision; text-rendering:geometricPrecision; image-rendering:optimizeQuality; fill-rule:evenodd; clip-rule:evenodd"
viewBox="0 0 255000 330000"
 xmlns:xlink="http://www.w3.org/1999/xlink"
 xmlns:xodm="http://www.corel.com/coreldraw/odm/2003">
 <defs>
  <style type="text/css">
   <![CDATA[
    .fil0 {fill:#E6E7E8;fill-rule:nonzero}
   ]]>
  </style>
 </defs>
 <g id="Layer_x0020_1">
  <metadata id="CorelCorpID_0Corel-Layer"/>
  <path class="fil0" d="M102004 20298c-805,242 -5034,1652 -9505,3102 -23923,7813 -40879,16875 -45067,24084 -1611,2739 -1893,4994 -967,7209 1047,2497 2981,4431 8297,8176 2497,1772 6725,5397 9505,8135 13170,13130 19533,29240 18808,47444 -805,20500 -10431,41000 -28796,61460 -6404,7168 -13009,13129 -25615,23238 -10512,8418 -16231,13895 -20138,19171 -11961,16271 -8739,30770 9465,42893 16070,10713 44383,19614 77811,24447 11197,1611 23843,2658 26904,2215l2134 -322 3343 -6042c16956,-30488 25494,-59284 26541,-89047 443,-13291 -1208,-28998 -4067,-38181 -524,-1651 -886,-3061 -846,-3101 40,-40 4793,-1490 10511,-3182 30166,-8981 59366,-16069 83490,-20258 4713,-806 8700,-1651 8901,-1853 1289,-1248 -2457,-7128 -8579,-13411 -22553,-23279 -62425,-41000 -109225,-48572 -9022,-1450 -10109,-1973 -13452,-6403 -5316,-7049 -10310,-19051 -17117,-41081 -201,-725 -402,-725 -2336,-121l0 0zm3101 8297c2619,7169 4230,12767 4230,14741l0 1570 -2216 -241c-12042,-1410 -31293,-4390 -35401,-5478 -1047,-282 -1652,-684 -1450,-1007 322,-483 4390,-2456 16553,-7974 11317,-5155 15626,-7048 15989,-7088 161,-41 1168,2456 2295,5477zm-25493 15103c14700,3101 25453,5034 27789,5034 2296,0 2054,202 -8779,6807 -8337,5075 -9304,5558 -11398,5558l-2296 0 -6202 -6243c-7492,-7572 -12566,-13129 -12566,-13774 0,-242 161,-322 362,-201 201,40 6122,1329 13089,2819l1 0zm-10875 6968c3625,4228 6404,7773 6243,7893 -322,282 -10633,-2255 -16916,-4188 -5517,-1692 -6162,-2256 -4712,-4148 967,-1249 8055,-7169 8579,-7209 161,0 3181,3423 6806,7652l0 0zm46961 8699c1450,3423 2537,6202 2497,6242 -81,41 -19413,-2940 -21104,-3262 -362,-80 2900,-2295 7330,-4994 4430,-2698 8136,-4712 8337,-4510 201,201 1490,3101 2940,6524l0 0zm-42168 6524c362,363 4994,15224 4793,15426 -81,80 -2256,-2457 -4874,-5679 -2617,-3222 -6564,-7773 -8860,-10109l-4108 -4310 6363 2215c3544,1168 6525,2296 6686,2457l0 0zm18486 1974c8015,1128 14660,2175 14781,2296 121,120 -4752,3906 -10753,8377 -6041,4470 -10995,8095 -11076,8014 -80,-80 -684,-1933 -1369,-4188 -685,-2215 -2376,-6847 -3786,-10311 -1410,-3463 -2537,-6282 -2457,-6282 41,0 6646,966 14660,2094l0 0zm20138 6404c1772,4148 2457,8095 2738,16029 162,4269 162,7733 41,7733 -161,0 -2699,-886 -5639,-1933 -5880,-2135 -17398,-5921 -18768,-6203 -604,-120 2175,-2779 9505,-9061 5679,-4914 10512,-8901 10754,-8901 201,0 805,1047 1369,2336l0 0zm20661 1007c8860,1812 16633,3423 17237,3584 886,201 -1248,1531 -10632,6686 -6444,3544 -13774,7571 -16271,8981 -2497,1410 -4592,2497 -4632,2457 -40,-40 202,-1370 564,-2940 1329,-5759 483,-12928 -2175,-18647 -765,-1652 -1409,-3142 -1409,-3222 40,-443 1651,-121 17318,3101l0 0zm24205 10833c-443,2014 -1450,5438 -2215,7653 -1692,4873 -7894,17559 -8740,17882 -322,120 -3262,-1209 -6444,-2981 -3182,-1772 -7813,-4108 -10230,-5195l-4430 -1974 16231 -10431c13451,-8619 16270,-10270 16432,-9505 120,524 -162,2537 -604,4551l0 0zm11881 -3705c16835,4833 34636,11358 33589,12324 -201,202 -2416,927 -4873,1611 -12727,3585 -30408,9707 -38664,13372 -2578,1127 -4793,1973 -4914,1812 -120,-121 886,-3826 2256,-8256 2658,-8700 5759,-20420 5759,-21910 0,-644 242,-886 846,-725 403,161 3101,967 6001,1772zm-72454 17479c3826,1249 8336,2981 9988,3827 2980,1490 3020,1530 2175,2456 -1531,1692 -18245,17278 -18728,17439 -242,81 -443,-2255 -443,-5679 0,-5920 -685,-16633 -1208,-19009 -403,-1813 -81,-1772 8216,966l0 0zm106969 3102c-3665,6081 -9746,14740 -14096,20218 -4470,5598 -13935,16110 -14499,16110 -201,0 -1570,-1692 -3061,-3786 -5396,-7693 -11639,-14338 -17116,-18205 -524,-362 -846,-765 -725,-886 120,-121 9102,-3423 19936,-7370 21909,-7934 31575,-11156 32179,-10753 81,40 -1087,2134 -2618,4672zm13694 -1047c15143,10552 25413,19090 29119,24205 926,1289 1611,2376 1530,2457 -80,80 -4954,604 -10834,1208 -23480,2295 -40194,4672 -49055,6927 -2376,604 -4349,1047 -4390,1007 -40,-40 1531,-1973 3504,-4350 10230,-12284 19493,-25051 22917,-31696 926,-1772 1812,-3182 1973,-3182 201,0 2537,1531 5236,3424zm-84738 13089c2899,1570 5114,2980 4994,3222 -242,443 -25736,14418 -25978,14217 -40,-41 1249,-4229 2940,-9344 1692,-5115 3303,-10673 3625,-12364l564 -3101 4309 2295c2377,1249 6646,3504 9545,5075l1 0zm-21386 805c-2457,8538 -7451,19574 -9747,21467 -524,443 -1571,-162 -4913,-2900 -2377,-1893 -4793,-3786 -5438,-4229 -604,-443 -1087,-886 -966,-1007 1772,-1732 22070,-18124 22191,-17882 40,161 -443,2215 -1128,4551l1 0zm46235 14862c3826,2577 12364,10189 11921,10672 -120,121 -8779,2940 -19211,6243 -10431,3303 -22070,7048 -25856,8297 -3786,1288 -6927,2255 -6967,2215 -41,-41 2618,-3061 5880,-6726 8538,-9545 17318,-19735 20459,-23762l2699 -3464 3503 1893c1894,1047 5317,3141 7572,4632zm-19775 -5478c-241,322 -2537,3222 -5114,6485 -2578,3262 -8780,11196 -13775,17640l-9102 11720 -282 -1973c-563,-3827 -2618,-11358 -3785,-13895l-1168 -2578 5799 -2900c5961,-2980 18446,-9746 24286,-13170 3584,-2094 3826,-2215 3141,-1329zm-48330 14177c2377,1208 4592,2819 4592,3302 0,766 -15425,12687 -15869,12244 -80,-121 1289,-2860 3102,-6122 1812,-3262 3624,-6927 4067,-8175 443,-1249 1088,-2256 1450,-2256 363,-40 1531,443 2658,1007zm13130 14660c1047,2094 2175,7934 1611,8458 -242,201 -6605,3222 -14177,6726 -7572,3463 -17439,8135 -21950,10390 -4510,2256 -7934,3827 -7571,3545 322,-282 5276,-4471 11035,-9223 11116,-9223 23762,-20259 26058,-22715l1410 -1491 1369 1289c725,725 1732,2095 2215,3021l0 0zm-12445 -121c-1087,1007 -7048,6162 -13170,11479 -6122,5316 -13492,11720 -16351,14216 -5800,5035 -5800,5035 1611,-4591 5718,-7451 8699,-10230 16915,-15747 3987,-2659 11921,-7170 12727,-7170 121,0 -645,806 -1732,1813l0 0zm57472 5075c282,1571 685,6444 846,10794l282 7934 -1853 -846c-6363,-2940 -24245,-13009 -23561,-13291 3907,-1570 23199,-7974 23440,-7733 162,162 564,1571 846,3142l0 0zm-15143 14217c7451,4390 13613,8015 13693,8095 81,81 -886,886 -2094,1772 -2376,1732 -27588,14781 -27951,14459 -120,-121 242,-2296 766,-4793 1047,-5074 1933,-20218 1530,-25010 -161,-1692 -80,-2900 161,-2739 162,121 6444,3826 13895,8216l0 0zm-20580 -3222c563,4712 -121,14177 -1410,19131 -1490,5799 -2376,8215 -3021,8417 -886,282 -6403,-4712 -9746,-8901 -3383,-4229 -7854,-12163 -7169,-12807 402,-403 20057,-8498 20701,-8498 161,-41 443,1168 644,2658l1 0zm-24125 11841c2094,4309 6846,10512 12042,15788 3343,3382 4189,4470 3665,4833 -2336,1570 -12807,6484 -19413,9061 -8014,3142 -18445,6767 -18687,6444 -81,-120 2296,-4470 5316,-9665 6525,-11318 14781,-27387 14781,-28716 41,-1652 725,-967 2296,2255l0 0zm-12365 282c-120,322 -1127,2819 -2215,5558 -4631,11760 -13653,27749 -15666,27749 -1571,0 -3867,-9303 -4511,-18244l-322 -4511 11035 -5558c6081,-3061 11237,-5558 11478,-5558 242,-40 322,241 201,564zm73663 10874c41,6766 -2779,23158 -4309,24809 -645,685 -7612,-1893 -13935,-5155 -5639,-2900 -14942,-8659 -14942,-9263 0,-161 1410,-886 3182,-1611 3342,-1410 18929,-9747 25534,-13653l3786 -2256 322 1732c161,967 322,3423 362,5397l0 0zm-103949 7813c644,5357 2296,11922 4350,17117 845,2135 1450,3987 1329,4068 -806,725 -33952,9867 -38342,10552l-2094 322 322 -1611c443,-2296 3665,-8820 6041,-12364 2981,-4390 10310,-11761 15144,-15184 3624,-2537 12324,-7652 12565,-7330 161,41 403,2014 685,4430l0 0zm75193 11318c10230,4913 14096,6604 19010,8296l3745 1289 -2376 1208c-13412,6807 -37174,16473 -43296,17681 -1369,282 -1570,201 -1288,-483 1046,-2739 15223,-32019 15505,-32019 162,0 4109,1812 8700,4028l0 0zm-18003 -1088c-725,3464 -4631,14620 -6887,19695 -1973,4430 -6524,13008 -7330,13814 -362,362 -8457,-4189 -12284,-6928 -4309,-3060 -13733,-12163 -13451,-13008 120,-322 5839,-2538 12767,-4914 14579,-5034 22715,-8055 25091,-9303 2256,-1209 2457,-1128 2094,644l0 0zm40758 15385c-121,1007 -966,5397 -1852,9867 -2779,13935 -6162,23481 -8297,23481 -2980,0 -23279,-4914 -29844,-7250 -4470,-1571 -8296,-3383 -9585,-4470 -805,-685 -363,-927 5437,-3303 18768,-7652 40436,-17439 42772,-19292 1410,-1127 1611,-966 1370,967l-1 0zm-95048 4269c-2135,3826 -6485,10109 -14822,21346l-7088 9585 -2135 -1530c-2980,-2135 -7732,-7290 -9706,-10552 -2134,-3504 -3584,-7854 -3745,-11156l-121 -2578 3504 -362c4752,-484 18083,-3222 27548,-5719 4309,-1128 7894,-1974 7974,-1933 41,120 -563,1409 -1409,2899zm20661 9867c2376,1692 5638,3867 7290,4834l3020 1772 -1369 563c-766,323 -11801,4350 -24568,8941 -21789,7854 -23198,8337 -23802,7532 -363,-483 -605,-967 -564,-1128 40,-161 5920,-7773 13089,-16915l13009 -16634 4793 3988c2698,2215 6725,5356 9102,7048l0 -1zm5356 25011c-4752,7129 -8780,13130 -8941,13291 -362,483 -7974,-1289 -13653,-3222 -5961,-2014 -13331,-5719 -16231,-8216l-2094 -1813 4712 -1288c19211,-5236 44624,-11962 44745,-11882 81,81 -3785,6001 -8538,13130zm22836 -10794c10189,3504 19453,5478 31495,6767l3302 362 -8981 3222c-22393,8095 -40557,13774 -49659,15546 -2577,483 -4913,926 -5155,926 -242,0 1571,-2497 4068,-5558 6847,-8336 14257,-17842 16231,-20782 966,-1409 1933,-2617 2134,-2617 242,40 3182,966 6565,2134l0 0zm33388 18849c-3867,9948 -6686,16029 -7652,16392 -1893,725 -28354,-3141 -36449,-5357 -5357,-1449 -8780,-2859 -7773,-3222 403,-120 4229,-1047 8538,-2013 13975,-3142 35321,-9626 44181,-13412 1128,-483 2135,-846 2215,-765 81,80 -1288,3826 -3060,8377l0 0z"/>
 </g>
</svg>
